<svg width="115" height="24" viewBox="0 0 115 24" fill="none" xmlns="http://www.w3.org/2000/svg">
<g clip-path="url(#clip0_2_2)">
<path d="M79.12 18C78.7147 18 78.3413 17.8987 78 17.696C77.6693 17.4933 77.4027 17.2267 77.2 16.896C76.9973 16.5547 76.896 16.1813 76.896 15.776V8.704C76.896 8.29867 76.9973 7.93067 77.2 7.6C77.4027 7.25867 77.6693 6.98667 78 6.784C78.3413 6.58133 78.7147 6.48 79.12 6.48H86.176C86.5813 6.48 86.9547 6.58133 87.296 6.784C87.6373 6.98667 87.9093 7.25867 88.112 7.6C88.3147 7.93067 88.416 8.29867 88.416 8.704V9.6H86.288V8.8C86.288 8.74667 86.2667 8.704 86.224 8.672C86.1813 8.62933 86.1333 8.608 86.08 8.608H79.2C79.1467 8.608 79.0987 8.62933 79.056 8.672C79.024 8.704 79.008 8.74667 79.008 8.8V15.68C79.008 15.7333 79.024 15.7813 79.056 15.824C79.0987 15.856 79.1467 15.872 79.2 15.872H86.08C86.1333 15.872 86.1813 15.856 86.224 15.824C86.2667 15.7813 86.288 15.7333 86.288 15.68V13.6H83.68V11.472H88.416V15.776C88.416 16.1813 88.3147 16.5547 88.112 16.896C87.9093 17.2267 87.6373 17.4933 87.296 17.696C86.9547 17.8987 86.5813 18 86.176 18H79.12ZM90.1773 18V6.496H99.4573C99.8626 6.496 100.236 6.59733 100.577 6.8C100.919 7.00267 101.191 7.27467 101.393 7.616C101.596 7.94667 101.697 8.31467 101.697 8.72V11.824C101.697 12.2293 101.596 12.6027 101.393 12.944C101.191 13.2853 100.919 13.5573 100.577 13.76C100.236 13.952 99.8626 14.048 99.4573 14.048L92.2893 14.064V18H90.1773ZM92.4813 11.92H99.3613C99.4146 11.92 99.4626 11.904 99.5053 11.872C99.5479 11.84 99.5693 11.7973 99.5693 11.744V8.8C99.5693 8.74667 99.5479 8.704 99.5053 8.672C99.4626 8.62933 99.4146 8.608 99.3613 8.608H92.4813C92.4279 8.608 92.3799 8.62933 92.3373 8.672C92.3053 8.704 92.2893 8.74667 92.2893 8.8V11.744C92.2893 11.7973 92.3053 11.84 92.3373 11.872C92.3799 11.904 92.4279 11.92 92.4813 11.92ZM105.026 18C104.62 18 104.247 17.8987 103.906 17.696C103.575 17.4933 103.308 17.2267 103.106 16.896C102.903 16.5547 102.802 16.1813 102.802 15.776V6.48H104.914V15.68C104.914 15.7333 104.93 15.7813 104.962 15.824C105.004 15.856 105.052 15.872 105.106 15.872H111.986C112.039 15.872 112.087 15.856 112.13 15.824C112.172 15.7813 112.194 15.7333 112.194 15.68V6.48H114.322V15.776C114.322 16.1813 114.22 16.5547 114.018 16.896C113.815 17.2267 113.543 17.4933 113.202 17.696C112.871 17.8987 112.503 18 112.098 18H105.026Z" fill="black"/>
<path d="M0.896 18V6.48H3.216L7.392 11.456L11.552 6.48H13.888V18H11.76V9.552L7.392 14.752L3.008 9.568V18H0.896ZM17.7744 18C17.369 18 16.9957 17.8987 16.6544 17.696C16.3237 17.4933 16.057 17.2267 15.8544 16.896C15.6624 16.5653 15.5664 16.1973 15.5664 15.792V12.304H22.8944V11.008C22.8944 10.9547 22.873 10.912 22.8304 10.88C22.7984 10.8373 22.7557 10.816 22.7024 10.816H15.5664V8.72H22.7824C23.1877 8.72 23.5557 8.82133 23.8864 9.024C24.2277 9.22667 24.4944 9.49333 24.6864 9.824C24.889 10.1547 24.9904 10.5227 24.9904 10.928V18H17.7744ZM17.8544 15.904H22.8944V14.192H17.6624V15.712C17.6624 15.7653 17.6784 15.8133 17.7104 15.856C17.753 15.888 17.801 15.904 17.8544 15.904ZM28.4303 18C28.0249 18 27.6569 17.8987 27.3263 17.696C26.9956 17.4933 26.7289 17.2267 26.5263 16.896C26.3236 16.5653 26.2223 16.1973 26.2223 15.792V10.928C26.2223 10.5227 26.3236 10.1547 26.5263 9.824C26.7289 9.49333 26.9956 9.22667 27.3263 9.024C27.6569 8.82133 28.0249 8.72 28.4303 8.72H35.6303V10.816H28.5103C28.4569 10.816 28.4089 10.8373 28.3663 10.88C28.3343 10.912 28.3183 10.9547 28.3183 11.008V15.712C28.3183 15.7653 28.3343 15.8133 28.3663 15.856C28.4089 15.888 28.4569 15.904 28.5103 15.904H35.6463V18H28.4303ZM37.0046 18V5.68H39.1006V8.72H44.2206C44.626 8.72 44.994 8.82133 45.3246 9.024C45.6553 9.22667 45.922 9.49333 46.1246 9.824C46.3273 10.1547 46.4286 10.5227 46.4286 10.928V18H44.3326V11.008C44.3326 10.9547 44.3113 10.912 44.2686 10.88C44.2366 10.8373 44.194 10.816 44.1406 10.816H39.2926C39.2393 10.816 39.1913 10.8373 39.1486 10.88C39.1166 10.912 39.1006 10.9547 39.1006 11.008V18H37.0046Z" fill="black"/>
<rect x="54" y="4" width="16" height="16" stroke="#F53137" stroke-width="2"/>
<rect x="57" y="7" width="10" height="10" fill="black"/>
<path d="M71 7H73M73 17H71M73 12H71M51 7H53M53 17H51M53 12H51M67 21V23M57 23V21M62 23V21M67 0.999999V3M57 3V0.999999M62 3V0.999999" stroke="#F53137" stroke-width="2"/>
</g>
<defs>
<clipPath id="clip0_2_2">
<rect width="115" height="24" fill="white"/>
</clipPath>
</defs>
</svg>
