<svg version="1.1" xmlns="http://www.w3.org/2000/svg" viewBox="0 0 373.6957252141983 282.57088776533783" width="1121.087175642595" height="847.7126632960135">
  <!-- svg-source:excalidraw -->
  
  <defs>
    <style class="style-fonts">
      @font-face {
        font-family: "Virgil";
        src: url("https://excalidraw.com/Virgil.woff2");
      }
      @font-face {
        font-family: "Cascadia";
        src: url("https://excalidraw.com/Cascadia.woff2");
      }
    </style>
  </defs>
  <g stroke-linecap="round" transform="translate(10 10) rotate(0 176.3415659859579 131.28544388266891)"><path d="M0 0 L352.68 0 L352.68 262.57 L0 262.57" stroke="none" stroke-width="0" fill="white"></path><path d="M0 0 C73.52 0, 147.04 0, 352.68 0 M0 0 C113.94 0, 227.88 0, 352.68 0 M352.68 0 C352.68 93.45, 352.68 186.89, 352.68 262.57 M352.68 0 C352.68 70.31, 352.68 140.62, 352.68 262.57 M352.68 262.57 C266.1 262.57, 179.51 262.57, 0 262.57 M352.68 262.57 C236.92 262.57, 121.17 262.57, 0 262.57 M0 262.57 C0 206.14, 0 149.7, 0 0 M0 262.57 C0 191.97, 0 121.38, 0 0" stroke="black" stroke-width="1" fill="none"></path></g><g transform="translate(145.22672554193468 11.316860018829175) rotate(0 41.9032177780432 9.859580653657758)"><text x="41.9032177780432" y="15.719161307314444" font-family="Cascadia, Segoe UI Emoji" font-size="15.775329045851556px" fill="black" text-anchor="middle" style="white-space: pre;" direction="ltr">Mach core</text></g><g stroke-linecap="round" transform="translate(14.578125369386726 14.847203884404735) rotate(0 6.564604441526171 6.564604441526171)"><path d="M13.13 6.56 C13.13 6.94, 13.1 7.33, 13.03 7.7 C12.96 8.08, 12.86 8.45, 12.73 8.81 C12.6 9.17, 12.44 9.52, 12.25 9.85 C12.06 10.18, 11.84 10.49, 11.59 10.78 C11.35 11.08, 11.08 11.35, 10.78 11.59 C10.49 11.84, 10.18 12.06, 9.85 12.25 C9.52 12.44, 9.17 12.6, 8.81 12.73 C8.45 12.86, 8.08 12.96, 7.7 13.03 C7.33 13.1, 6.94 13.13, 6.56 13.13 C6.18 13.13, 5.8 13.1, 5.42 13.03 C5.05 12.96, 4.68 12.86, 4.32 12.73 C3.96 12.6, 3.61 12.44, 3.28 12.25 C2.95 12.06, 2.64 11.84, 2.34 11.59 C2.05 11.35, 1.78 11.08, 1.54 10.78 C1.29 10.49, 1.07 10.18, 0.88 9.85 C0.69 9.52, 0.53 9.17, 0.4 8.81 C0.27 8.45, 0.17 8.08, 0.1 7.7 C0.03 7.33, 0 6.94, 0 6.56 C0 6.18, 0.03 5.8, 0.1 5.42 C0.17 5.05, 0.27 4.68, 0.4 4.32 C0.53 3.96, 0.69 3.61, 0.88 3.28 C1.07 2.95, 1.29 2.64, 1.54 2.34 C1.78 2.05, 2.05 1.78, 2.34 1.54 C2.64 1.29, 2.95 1.07, 3.28 0.88 C3.61 0.69, 3.96 0.53, 4.32 0.4 C4.68 0.27, 5.05 0.17, 5.42 0.1 C5.8 0.03, 6.18 0, 6.56 0 C6.94 0, 7.33 0.03, 7.7 0.1 C8.08 0.17, 8.45 0.27, 8.81 0.4 C9.17 0.53, 9.52 0.69, 9.85 0.88 C10.18 1.07, 10.49 1.29, 10.78 1.54 C11.08 1.78, 11.35 2.05, 11.59 2.34 C11.84 2.64, 12.06 2.95, 12.25 3.28 C12.44 3.61, 12.6 3.96, 12.73 4.32 C12.86 4.68, 12.96 5.05, 13.03 5.42 C13.1 5.8, 13.11 6.37, 13.13 6.56 C13.15 6.75, 13.15 6.37, 13.13 6.56" stroke="none" stroke-width="0" fill="black"></path><path d="M13.13 6.56 C13.13 6.94, 13.1 7.33, 13.03 7.7 C12.96 8.08, 12.86 8.45, 12.73 8.81 C12.6 9.17, 12.44 9.52, 12.25 9.85 C12.06 10.18, 11.84 10.49, 11.59 10.78 C11.35 11.08, 11.08 11.35, 10.78 11.59 C10.49 11.84, 10.18 12.06, 9.85 12.25 C9.52 12.44, 9.17 12.6, 8.81 12.73 C8.45 12.86, 8.08 12.96, 7.7 13.03 C7.33 13.1, 6.94 13.13, 6.56 13.13 C6.18 13.13, 5.8 13.1, 5.42 13.03 C5.05 12.96, 4.68 12.86, 4.32 12.73 C3.96 12.6, 3.61 12.44, 3.28 12.25 C2.95 12.06, 2.64 11.84, 2.34 11.59 C2.05 11.35, 1.78 11.08, 1.54 10.78 C1.29 10.49, 1.07 10.18, 0.88 9.85 C0.69 9.52, 0.53 9.17, 0.4 8.81 C0.27 8.45, 0.17 8.08, 0.1 7.7 C0.03 7.33, 0 6.94, 0 6.56 C0 6.18, 0.03 5.8, 0.1 5.42 C0.17 5.05, 0.27 4.68, 0.4 4.32 C0.53 3.96, 0.69 3.61, 0.88 3.28 C1.07 2.95, 1.29 2.64, 1.54 2.34 C1.78 2.05, 2.05 1.78, 2.34 1.54 C2.64 1.29, 2.95 1.07, 3.28 0.88 C3.61 0.69, 3.96 0.53, 4.32 0.4 C4.68 0.27, 5.05 0.17, 5.42 0.1 C5.8 0.03, 6.18 0, 6.56 0 C6.94 0, 7.33 0.03, 7.7 0.1 C8.08 0.17, 8.45 0.27, 8.81 0.4 C9.17 0.53, 9.52 0.69, 9.85 0.88 C10.18 1.07, 10.49 1.29, 10.78 1.54 C11.08 1.78, 11.35 2.05, 11.59 2.34 C11.84 2.64, 12.06 2.95, 12.25 3.28 C12.44 3.61, 12.6 3.96, 12.73 4.32 C12.86 4.68, 12.96 5.05, 13.03 5.42 C13.1 5.8, 13.11 6.37, 13.13 6.56 C13.15 6.75, 13.15 6.37, 13.13 6.56" stroke="transparent" stroke-width="1" fill="none"></path></g><g stroke-linecap="round" transform="translate(33.07837425005255 14.847203884404735) rotate(0 6.564604441526171 6.564604441526171)"><path d="M13.13 6.56 C13.13 6.94, 13.1 7.33, 13.03 7.7 C12.96 8.08, 12.86 8.45, 12.73 8.81 C12.6 9.17, 12.44 9.52, 12.25 9.85 C12.06 10.18, 11.84 10.49, 11.59 10.78 C11.35 11.08, 11.08 11.35, 10.78 11.59 C10.49 11.84, 10.18 12.06, 9.85 12.25 C9.52 12.44, 9.17 12.6, 8.81 12.73 C8.45 12.86, 8.08 12.96, 7.7 13.03 C7.33 13.1, 6.94 13.13, 6.56 13.13 C6.18 13.13, 5.8 13.1, 5.42 13.03 C5.05 12.96, 4.68 12.86, 4.32 12.73 C3.96 12.6, 3.61 12.44, 3.28 12.25 C2.95 12.06, 2.64 11.84, 2.34 11.59 C2.05 11.35, 1.78 11.08, 1.54 10.78 C1.29 10.49, 1.07 10.18, 0.88 9.85 C0.69 9.52, 0.53 9.17, 0.4 8.81 C0.27 8.45, 0.17 8.08, 0.1 7.7 C0.03 7.33, 0 6.94, 0 6.56 C0 6.18, 0.03 5.8, 0.1 5.42 C0.17 5.05, 0.27 4.68, 0.4 4.32 C0.53 3.96, 0.69 3.61, 0.88 3.28 C1.07 2.95, 1.29 2.64, 1.54 2.34 C1.78 2.05, 2.05 1.78, 2.34 1.54 C2.64 1.29, 2.95 1.07, 3.28 0.88 C3.61 0.69, 3.96 0.53, 4.32 0.4 C4.68 0.27, 5.05 0.17, 5.42 0.1 C5.8 0.03, 6.18 0, 6.56 0 C6.94 0, 7.33 0.03, 7.7 0.1 C8.08 0.17, 8.45 0.27, 8.81 0.4 C9.17 0.53, 9.52 0.69, 9.85 0.88 C10.18 1.07, 10.49 1.29, 10.78 1.54 C11.08 1.78, 11.35 2.05, 11.59 2.34 C11.84 2.64, 12.06 2.95, 12.25 3.28 C12.44 3.61, 12.6 3.96, 12.73 4.32 C12.86 4.68, 12.96 5.05, 13.03 5.42 C13.1 5.8, 13.11 6.37, 13.13 6.56 C13.15 6.75, 13.15 6.37, 13.13 6.56" stroke="none" stroke-width="0" fill="black"></path><path d="M13.13 6.56 C13.13 6.94, 13.1 7.33, 13.03 7.7 C12.96 8.08, 12.86 8.45, 12.73 8.81 C12.6 9.17, 12.44 9.52, 12.25 9.85 C12.06 10.18, 11.84 10.49, 11.59 10.78 C11.35 11.08, 11.08 11.35, 10.78 11.59 C10.49 11.84, 10.18 12.06, 9.85 12.25 C9.52 12.44, 9.17 12.6, 8.81 12.73 C8.45 12.86, 8.08 12.96, 7.7 13.03 C7.33 13.1, 6.94 13.13, 6.56 13.13 C6.18 13.13, 5.8 13.1, 5.42 13.03 C5.05 12.96, 4.68 12.86, 4.32 12.73 C3.96 12.6, 3.61 12.44, 3.28 12.25 C2.95 12.06, 2.64 11.84, 2.34 11.59 C2.05 11.35, 1.78 11.08, 1.54 10.78 C1.29 10.49, 1.07 10.18, 0.88 9.85 C0.69 9.52, 0.53 9.17, 0.4 8.81 C0.27 8.45, 0.17 8.08, 0.1 7.7 C0.03 7.33, 0 6.94, 0 6.56 C0 6.18, 0.03 5.8, 0.1 5.42 C0.17 5.05, 0.27 4.68, 0.4 4.32 C0.53 3.96, 0.69 3.61, 0.88 3.28 C1.07 2.95, 1.29 2.64, 1.54 2.34 C1.78 2.05, 2.05 1.78, 2.34 1.54 C2.64 1.29, 2.95 1.07, 3.28 0.88 C3.61 0.69, 3.96 0.53, 4.32 0.4 C4.68 0.27, 5.05 0.17, 5.42 0.1 C5.8 0.03, 6.18 0, 6.56 0 C6.94 0, 7.33 0.03, 7.7 0.1 C8.08 0.17, 8.45 0.27, 8.81 0.4 C9.17 0.53, 9.52 0.69, 9.85 0.88 C10.18 1.07, 10.49 1.29, 10.78 1.54 C11.08 1.78, 11.35 2.05, 11.59 2.34 C11.84 2.64, 12.06 2.95, 12.25 3.28 C12.44 3.61, 12.6 3.96, 12.73 4.32 C12.86 4.68, 12.96 5.05, 13.03 5.42 C13.1 5.8, 13.11 6.37, 13.13 6.56 C13.15 6.75, 13.15 6.37, 13.13 6.56" stroke="transparent" stroke-width="1" fill="none"></path></g><g stroke-linecap="round" transform="translate(50.981840908761114 14.847203884401097) rotate(0 6.564604441526171 6.564604441526171)"><path d="M13.13 6.56 C13.13 6.94, 13.1 7.33, 13.03 7.7 C12.96 8.08, 12.86 8.45, 12.73 8.81 C12.6 9.17, 12.44 9.52, 12.25 9.85 C12.06 10.18, 11.84 10.49, 11.59 10.78 C11.35 11.08, 11.08 11.35, 10.78 11.59 C10.49 11.84, 10.18 12.06, 9.85 12.25 C9.52 12.44, 9.17 12.6, 8.81 12.73 C8.45 12.86, 8.08 12.96, 7.7 13.03 C7.33 13.1, 6.94 13.13, 6.56 13.13 C6.18 13.13, 5.8 13.1, 5.42 13.03 C5.05 12.96, 4.68 12.86, 4.32 12.73 C3.96 12.6, 3.61 12.44, 3.28 12.25 C2.95 12.06, 2.64 11.84, 2.34 11.59 C2.05 11.35, 1.78 11.08, 1.54 10.78 C1.29 10.49, 1.07 10.18, 0.88 9.85 C0.69 9.52, 0.53 9.17, 0.4 8.81 C0.27 8.45, 0.17 8.08, 0.1 7.7 C0.03 7.33, 0 6.94, 0 6.56 C0 6.18, 0.03 5.8, 0.1 5.42 C0.17 5.05, 0.27 4.68, 0.4 4.32 C0.53 3.96, 0.69 3.61, 0.88 3.28 C1.07 2.95, 1.29 2.64, 1.54 2.34 C1.78 2.05, 2.05 1.78, 2.34 1.54 C2.64 1.29, 2.95 1.07, 3.28 0.88 C3.61 0.69, 3.96 0.53, 4.32 0.4 C4.68 0.27, 5.05 0.17, 5.42 0.1 C5.8 0.03, 6.18 0, 6.56 0 C6.94 0, 7.33 0.03, 7.7 0.1 C8.08 0.17, 8.45 0.27, 8.81 0.4 C9.17 0.53, 9.52 0.69, 9.85 0.88 C10.18 1.07, 10.49 1.29, 10.78 1.54 C11.08 1.78, 11.35 2.05, 11.59 2.34 C11.84 2.64, 12.06 2.95, 12.25 3.28 C12.44 3.61, 12.6 3.96, 12.73 4.32 C12.86 4.68, 12.96 5.05, 13.03 5.42 C13.1 5.8, 13.11 6.37, 13.13 6.56 C13.15 6.75, 13.15 6.37, 13.13 6.56" stroke="none" stroke-width="0" fill="black"></path><path d="M13.13 6.56 C13.13 6.94, 13.1 7.33, 13.03 7.7 C12.96 8.08, 12.86 8.45, 12.73 8.81 C12.6 9.17, 12.44 9.52, 12.25 9.85 C12.06 10.18, 11.84 10.49, 11.59 10.78 C11.35 11.08, 11.08 11.35, 10.78 11.59 C10.49 11.84, 10.18 12.06, 9.85 12.25 C9.52 12.44, 9.17 12.6, 8.81 12.73 C8.45 12.86, 8.08 12.96, 7.7 13.03 C7.33 13.1, 6.94 13.13, 6.56 13.13 C6.18 13.13, 5.8 13.1, 5.42 13.03 C5.05 12.96, 4.68 12.86, 4.32 12.73 C3.96 12.6, 3.61 12.44, 3.28 12.25 C2.95 12.06, 2.64 11.84, 2.34 11.59 C2.05 11.35, 1.78 11.08, 1.54 10.78 C1.29 10.49, 1.07 10.18, 0.88 9.85 C0.69 9.52, 0.53 9.17, 0.4 8.81 C0.27 8.45, 0.17 8.08, 0.1 7.7 C0.03 7.33, 0 6.94, 0 6.56 C0 6.18, 0.03 5.8, 0.1 5.42 C0.17 5.05, 0.27 4.68, 0.4 4.32 C0.53 3.96, 0.69 3.61, 0.88 3.28 C1.07 2.95, 1.29 2.64, 1.54 2.34 C1.78 2.05, 2.05 1.78, 2.34 1.54 C2.64 1.29, 2.95 1.07, 3.28 0.88 C3.61 0.69, 3.96 0.53, 4.32 0.4 C4.68 0.27, 5.05 0.17, 5.42 0.1 C5.8 0.03, 6.18 0, 6.56 0 C6.94 0, 7.33 0.03, 7.7 0.1 C8.08 0.17, 8.45 0.27, 8.81 0.4 C9.17 0.53, 9.52 0.69, 9.85 0.88 C10.18 1.07, 10.49 1.29, 10.78 1.54 C11.08 1.78, 11.35 2.05, 11.59 2.34 C11.84 2.64, 12.06 2.95, 12.25 3.28 C12.44 3.61, 12.6 3.96, 12.73 4.32 C12.86 4.68, 12.96 5.05, 13.03 5.42 C13.1 5.8, 13.11 6.37, 13.13 6.56 C13.15 6.75, 13.15 6.37, 13.13 6.56" stroke="transparent" stroke-width="1" fill="none"></path></g><g stroke-linecap="round"><g transform="translate(10.400649815688666 32.75067054311148) rotate(0 176.64753769925483 0)"><path d="M0 0 C85.66 0, 171.32 0, 353.3 0 M0 0 C76.21 0, 152.43 0, 353.3 0" stroke="transparent" stroke-width="1" fill="none"></path></g></g><mask></mask><g stroke-linecap="round"><g transform="translate(10.400649815688666 32.15388832115423) rotate(0 176.05075547729803 0)"><path d="M0 0 C102.2 0, 204.41 0, 352.1 0 M0 0 C115.26 0, 230.51 0, 352.1 0" stroke="black" stroke-width="1" fill="none"></path></g></g><mask></mask><g stroke-linecap="round"><g transform="translate(32.772275083910245 142.06730289528423) rotate(349.19950086621753 22.040703768278945 -32.21333627671629)" fill-rule="evenodd"><path d="M0 0 L-9.61 -64.43 L53.69 -40.69 L0 0" stroke="none" stroke-width="0" fill="white" fill-rule="evenodd"></path><path d="M0 0 C-3.3 -22.11, -6.59 -44.22, -9.61 -64.43 M0 0 C-2.46 -16.47, -4.91 -32.95, -9.61 -64.43 M-9.61 -64.43 C3.26 -59.6, 16.12 -54.78, 53.69 -40.69 M-9.61 -64.43 C12.68 -56.07, 34.96 -47.71, 53.69 -40.69 M53.69 -40.69 C36.5 -27.67, 19.32 -14.64, 0 0 M53.69 -40.69 C36.21 -27.45, 18.74 -14.2, 0 0 M0 0 C0 0, 0 0, 0 0 M0 0 C0 0, 0 0, 0 0" stroke="black" stroke-width="4" fill="none"></path></g></g><mask></mask><g stroke-linecap="round"><g transform="translate(139.38441682009488 79.53671523160665) rotate(349.19950086621753 23.45356939445037 3.956023753280533)" fill-rule="evenodd"><path d="M0 0 L46.91 -27.13 L42.39 35.04 L0 0" stroke="none" stroke-width="0" fill="white" fill-rule="evenodd"></path><path d="M0 0 C13.54 -7.83, 27.09 -15.67, 46.91 -27.13 M0 0 C10.95 -6.33, 21.89 -12.66, 46.91 -27.13 M46.91 -27.13 C45.45 -7.08, 43.99 12.96, 42.39 35.04 M46.91 -27.13 C45.53 -8.24, 44.16 10.65, 42.39 35.04 M42.39 35.04 C28.56 23.61, 14.74 12.18, 0 0 M42.39 35.04 C29.2 24.14, 16.01 13.24, 0 0 M0 0 C0 0, 0 0, 0 0 M0 0 C0 0, 0 0, 0 0" stroke="black" stroke-width="4" fill="none"></path></g></g><mask></mask><g stroke-linecap="round"><g transform="translate(47.01153088233332 130.41029948163487) rotate(349.19950086621753 76.01217068803771 42.951115035619296)" fill-rule="evenodd"><path d="M0 0 L66.69 93.25 L152.02 -7.35 L0 0" stroke="none" stroke-width="0" fill="white" fill-rule="evenodd"></path><path d="M0 0 C22.24 31.1, 44.49 62.21, 66.69 93.25 M0 0 C24.41 34.13, 48.82 68.27, 66.69 93.25 M66.69 93.25 C89.04 66.9, 111.39 40.56, 152.02 -7.35 M66.69 93.25 C94.78 60.13, 122.87 27.02, 152.02 -7.35 M152.02 -7.35 C92.79 -4.48, 33.56 -1.62, 0 0 M152.02 -7.35 C115.5 -5.58, 78.97 -3.82, 0 0 M0 0 C0 0, 0 0, 0 0 M0 0 C0 0, 0 0, 0 0" stroke="black" stroke-width="4" fill="none"></path></g></g><mask></mask><g stroke-linecap="round"><g transform="translate(86.00000759395152 85.5223802437431) rotate(349.19950086621753 49.732870041244496 17.23696063929492)"><path d="M0 0 C38.98 13.51, 77.95 27.02, 99.47 34.47 M0 0 C34.78 12.05, 69.55 24.11, 99.47 34.47" stroke="black" stroke-width="4" fill="none"></path></g></g><mask></mask><g stroke-linecap="round"><g transform="translate(140.78030269552255 89.12802403813839) rotate(349.19950086621753 -28.539885648668587 0.5651462504683877)"><path d="M0 0 C-17.27 0.34, -34.54 0.68, -57.08 1.13 M0 0 C-18.76 0.37, -37.52 0.74, -57.08 1.13" stroke="black" stroke-width="4" fill="none"></path></g></g><mask></mask><g stroke-linecap="round" transform="translate(182.3828507038197 153.48593279400302) rotate(19.763390038183157 31.431857741042677 31.43185774104313)"><path d="M62.86 31.43 C62.86 33.25, 62.7 35.1, 62.39 36.89 C62.07 38.68, 61.59 40.47, 60.97 42.18 C60.35 43.89, 59.56 45.57, 58.65 47.15 C57.74 48.72, 56.68 50.24, 55.51 51.64 C54.34 53.03, 53.03 54.34, 51.64 55.51 C50.24 56.68, 48.72 57.74, 47.15 58.65 C45.57 59.56, 43.89 60.35, 42.18 60.97 C40.47 61.59, 38.68 62.07, 36.89 62.39 C35.1 62.7, 33.25 62.86, 31.43 62.86 C29.61 62.86, 27.77 62.7, 25.97 62.39 C24.18 62.07, 22.39 61.59, 20.68 60.97 C18.97 60.35, 17.29 59.56, 15.72 58.65 C14.14 57.74, 12.62 56.68, 11.23 55.51 C9.83 54.34, 8.52 53.03, 7.35 51.64 C6.18 50.24, 5.12 48.72, 4.21 47.15 C3.3 45.57, 2.52 43.89, 1.9 42.18 C1.27 40.47, 0.79 38.68, 0.48 36.89 C0.16 35.1, 0 33.25, 0 31.43 C0 29.61, 0.16 27.77, 0.48 25.97 C0.79 24.18, 1.27 22.39, 1.9 20.68 C2.52 18.97, 3.3 17.29, 4.21 15.72 C5.12 14.14, 6.18 12.62, 7.35 11.23 C8.52 9.83, 9.83 8.52, 11.23 7.35 C12.62 6.18, 14.14 5.12, 15.72 4.21 C17.29 3.3, 18.97 2.52, 20.68 1.9 C22.39 1.27, 24.18 0.79, 25.97 0.48 C27.77 0.16, 29.61 0, 31.43 0 C33.25 0, 35.1 0.16, 36.89 0.48 C38.68 0.79, 40.47 1.27, 42.18 1.9 C43.89 2.52, 45.57 3.3, 47.15 4.21 C48.72 5.12, 50.24 6.18, 51.64 7.35 C53.03 8.52, 54.34 9.83, 55.51 11.23 C56.68 12.62, 57.74 14.14, 58.65 15.72 C59.56 17.29, 60.35 18.97, 60.97 20.68 C61.59 22.39, 62.07 24.18, 62.39 25.97 C62.7 27.77, 62.78 30.52, 62.86 31.43 C62.94 32.34, 62.94 30.52, 62.86 31.43" stroke="none" stroke-width="0" fill="white"></path><path d="M62.86 31.43 C62.86 33.25, 62.7 35.1, 62.39 36.89 C62.07 38.68, 61.59 40.47, 60.97 42.18 C60.35 43.89, 59.56 45.57, 58.65 47.15 C57.74 48.72, 56.68 50.24, 55.51 51.64 C54.34 53.03, 53.03 54.34, 51.64 55.51 C50.24 56.68, 48.72 57.74, 47.15 58.65 C45.57 59.56, 43.89 60.35, 42.18 60.97 C40.47 61.59, 38.68 62.07, 36.89 62.39 C35.1 62.7, 33.25 62.86, 31.43 62.86 C29.61 62.86, 27.77 62.7, 25.97 62.39 C24.18 62.07, 22.39 61.59, 20.68 60.97 C18.97 60.35, 17.29 59.56, 15.72 58.65 C14.14 57.74, 12.62 56.68, 11.23 55.51 C9.83 54.34, 8.52 53.03, 7.35 51.64 C6.18 50.24, 5.12 48.72, 4.21 47.15 C3.3 45.57, 2.52 43.89, 1.9 42.18 C1.27 40.47, 0.79 38.68, 0.48 36.89 C0.16 35.1, 0 33.25, 0 31.43 C0 29.61, 0.16 27.77, 0.48 25.97 C0.79 24.18, 1.27 22.39, 1.9 20.68 C2.52 18.97, 3.3 17.29, 4.21 15.72 C5.12 14.14, 6.18 12.62, 7.35 11.23 C8.52 9.83, 9.83 8.52, 11.23 7.35 C12.62 6.18, 14.14 5.12, 15.72 4.21 C17.29 3.3, 18.97 2.52, 20.68 1.9 C22.39 1.27, 24.18 0.79, 25.97 0.48 C27.77 0.16, 29.61 0, 31.43 0 C33.25 0, 35.1 0.16, 36.89 0.48 C38.68 0.79, 40.47 1.27, 42.18 1.9 C43.89 2.52, 45.57 3.3, 47.15 4.21 C48.72 5.12, 50.24 6.18, 51.64 7.35 C53.03 8.52, 54.34 9.83, 55.51 11.23 C56.68 12.62, 57.74 14.14, 58.65 15.72 C59.56 17.29, 60.35 18.97, 60.97 20.68 C61.59 22.39, 62.07 24.18, 62.39 25.97 C62.7 27.77, 62.78 30.52, 62.86 31.43 C62.94 32.34, 62.94 30.52, 62.86 31.43" stroke="black" stroke-width="4" fill="none"></path></g><g stroke-linecap="round"><g transform="translate(221.76112088503396 170.7327151407735) rotate(19.763390038183157 45.52997040430546 0)"><path d="M0 0 C36.35 0, 72.7 0, 91.06 0 M0 0 C28.76 0, 57.52 0, 91.06 0" stroke="black" stroke-width="4" fill="none"></path></g></g><mask></mask><g stroke-linecap="round"><g transform="translate(210.26610548905865 168.83237749287582) rotate(19.763390038183157 45.66356534022907 31.206012269449275)" fill-rule="evenodd"><path d="M0 0 L83.74 -0.51 L102.57 1.17 L113.61 7.54 L118.08 12.97 L121.02 20.8 L122.34 29.42 L121.8 37.61 L119.63 45.1 L115.86 51.11 L110.72 55.94 L104.3 59.77 L96.98 62.14 L88.84 62.61 L80.91 61.36 L74.22 57.9 L68.91 53.81 L63.18 47.34 L28.27 47.56 L19.36 57.49 L12.07 60.73 L4.26 62.72 L-2.13 62.8 L-7.94 61.56 L-18.39 56.14 L-26.13 47.23 L-30.58 36.58 L-30.58 27.29 L-27.68 18 L-22.07 9.68 L-12.97 2.9 L0.19 0" stroke="none" stroke-width="0" fill="white" fill-rule="evenodd"></path><path d="M0 0 C7.9 -0.06, 31.94 -0.35, 47.42 -0.39 C62.91 -0.42, 82.85 -0.87, 92.91 -0.19 C102.98 0.48, 103.63 1.48, 107.82 3.68 C112.01 5.87, 115.66 8.68, 118.08 12.97 C120.5 17.26, 122.08 24.07, 122.34 29.42 C122.6 34.78, 121.56 40.68, 119.63 45.1 C117.69 49.52, 114.5 53.1, 110.72 55.94 C106.95 58.78, 101.95 61.23, 96.98 62.14 C92.01 63.04, 85.59 62.75, 80.91 61.36 C76.23 59.97, 71.75 56.04, 68.91 53.81 C66.07 51.59, 65.43 49.07, 63.88 48.01 C62.33 46.94, 64.98 47.49, 59.62 47.42 C54.26 47.36, 37.13 47.42, 31.75 47.62 C26.36 47.81, 29.36 46.94, 27.29 48.59 C25.23 50.23, 23.2 55.14, 19.36 57.49 C15.52 59.85, 8.81 62.04, 4.26 62.72 C-0.29 63.39, -4.16 62.65, -7.94 61.56 C-11.71 60.46, -15.36 58.52, -18.39 56.14 C-21.42 53.75, -24.1 50.49, -26.13 47.23 C-28.16 43.97, -29.84 39.91, -30.58 36.58 C-31.33 33.26, -31.07 30.39, -30.58 27.29 C-30.1 24.2, -29.1 20.94, -27.68 18 C-26.26 15.07, -24.52 12.19, -22.07 9.68 C-19.62 7.16, -16.68 4.52, -12.97 2.9 C-9.26 1.29, -2 0.48, 0.19 0 M0 0 C7.9 -0.06, 31.94 -0.35, 47.42 -0.39 C62.91 -0.42, 82.85 -0.87, 92.91 -0.19 C102.98 0.48, 103.63 1.48, 107.82 3.68 C112.01 5.87, 115.66 8.68, 118.08 12.97 C120.5 17.26, 122.08 24.07, 122.34 29.42 C122.6 34.78, 121.56 40.68, 119.63 45.1 C117.69 49.52, 114.5 53.1, 110.72 55.94 C106.95 58.78, 101.95 61.23, 96.98 62.14 C92.01 63.04, 85.59 62.75, 80.91 61.36 C76.23 59.97, 71.75 56.04, 68.91 53.81 C66.07 51.59, 65.43 49.07, 63.88 48.01 C62.33 46.94, 64.98 47.49, 59.62 47.42 C54.26 47.36, 37.13 47.42, 31.75 47.62 C26.36 47.81, 29.36 46.94, 27.29 48.59 C25.23 50.23, 23.2 55.14, 19.36 57.49 C15.52 59.85, 8.81 62.04, 4.26 62.72 C-0.29 63.39, -4.16 62.65, -7.94 61.56 C-11.71 60.46, -15.36 58.52, -18.39 56.14 C-21.42 53.75, -24.1 50.49, -26.13 47.23 C-28.16 43.97, -29.84 39.91, -30.58 36.58 C-31.33 33.26, -31.07 30.39, -30.58 27.29 C-30.1 24.2, -29.1 20.94, -27.68 18 C-26.26 15.07, -24.52 12.19, -22.07 9.68 C-19.62 7.16, -16.68 4.52, -12.97 2.9 C-9.26 1.29, -2 0.48, 0.19 0" stroke="black" stroke-width="4" fill="none"></path></g></g><mask></mask><g stroke-linecap="round" transform="translate(206.97470149938545 167.10509692709456) rotate(19.763390038183157 5.90392092061802 17.42140599526647)"><path d="M2.95 0 L10.15 0.18 L11.62 1.66 L11.81 31.89 L11.62 33.18 L10.15 34.66 L1.66 34.66 L0.18 33.18 L0 2.95 L0.74 0.74 L2.95 0" stroke="none" stroke-width="0" fill="black"></path><path d="M2.95 0 M2.95 0 C4.96 0, 6.96 0, 8.86 0 M2.95 0 C4.87 0, 6.78 0, 8.86 0 M8.86 0 C10.82 0, 11.81 0.98, 11.81 2.95 M8.86 0 C10.82 0, 11.81 0.98, 11.81 2.95 M11.81 2.95 C11.81 13.32, 11.81 23.68, 11.81 31.89 M11.81 2.95 C11.81 13.86, 11.81 24.77, 11.81 31.89 M11.81 31.89 C11.81 33.86, 10.82 34.84, 8.86 34.84 M11.81 31.89 C11.81 33.86, 10.82 34.84, 8.86 34.84 M8.86 34.84 C6.57 34.84, 4.28 34.84, 2.95 34.84 M8.86 34.84 C7.03 34.84, 5.2 34.84, 2.95 34.84 M2.95 34.84 C0.98 34.84, 0 33.86, 0 31.89 M2.95 34.84 C0.98 34.84, 0 33.86, 0 31.89 M0 31.89 C0 21.01, 0 10.13, 0 2.95 M0 31.89 C0 25.82, 0 19.76, 0 2.95 M0 2.95 C0 0.98, 0.98 0, 2.95 0 M0 2.95 C0 0.98, 0.98 0, 2.95 0" stroke="black" stroke-width="4" fill="none"></path></g><g stroke-linecap="round" transform="translate(207.13123964034912 166.95565442483348) rotate(289.76339003818316 5.90392092061802 17.42140599526647)"><path d="M2.95 0 L10.15 0.18 L11.62 1.66 L11.81 31.89 L11.62 33.18 L10.15 34.66 L1.66 34.66 L0.18 33.18 L0 2.95 L0.74 0.74 L2.95 0" stroke="none" stroke-width="0" fill="black"></path><path d="M2.95 0 M2.95 0 C4.44 0, 5.92 0, 8.86 0 M2.95 0 C4.22 0, 5.49 0, 8.86 0 M8.86 0 C10.82 0, 11.81 0.98, 11.81 2.95 M8.86 0 C10.82 0, 11.81 0.98, 11.81 2.95 M11.81 2.95 C11.81 9.6, 11.81 16.25, 11.81 31.89 M11.81 2.95 C11.81 10.23, 11.81 17.52, 11.81 31.89 M11.81 31.89 C11.81 33.86, 10.82 34.84, 8.86 34.84 M11.81 31.89 C11.81 33.86, 10.82 34.84, 8.86 34.84 M8.86 34.84 C7.63 34.84, 6.4 34.84, 2.95 34.84 M8.86 34.84 C6.84 34.84, 4.83 34.84, 2.95 34.84 M2.95 34.84 C0.98 34.84, 0 33.86, 0 31.89 M2.95 34.84 C0.98 34.84, 0 33.86, 0 31.89 M0 31.89 C0 20.93, 0 9.97, 0 2.95 M0 31.89 C0 22.63, 0 13.37, 0 2.95 M0 2.95 C0 0.98, 0.98 0, 2.95 0 M0 2.95 C0 0.98, 0.98 0, 2.95 0" stroke="black" stroke-width="4" fill="none"></path></g><g stroke-linecap="round" transform="translate(297.37806017576713 196.15143556352268) rotate(19.763390038183157 5.80713533175458 5.8071353317536705)"><path d="M11.61 5.81 C11.61 6.14, 11.58 6.48, 11.53 6.82 C11.47 7.15, 11.38 7.48, 11.26 7.79 C11.15 8.11, 11 8.42, 10.84 8.71 C10.67 9, 10.47 9.28, 10.26 9.54 C10.04 9.8, 9.8 10.04, 9.54 10.26 C9.28 10.47, 9 10.67, 8.71 10.84 C8.42 11, 8.11 11.15, 7.79 11.26 C7.48 11.38, 7.15 11.47, 6.82 11.53 C6.48 11.58, 6.14 11.61, 5.81 11.61 C5.47 11.61, 5.13 11.58, 4.8 11.53 C4.47 11.47, 4.14 11.38, 3.82 11.26 C3.51 11.15, 3.19 11, 2.9 10.84 C2.61 10.67, 2.33 10.47, 2.07 10.26 C1.82 10.04, 1.57 9.8, 1.36 9.54 C1.14 9.28, 0.95 9, 0.78 8.71 C0.61 8.42, 0.47 8.11, 0.35 7.79 C0.24 7.48, 0.15 7.15, 0.09 6.82 C0.03 6.48, 0 6.14, 0 5.81 C0 5.47, 0.03 5.13, 0.09 4.8 C0.15 4.47, 0.24 4.14, 0.35 3.82 C0.47 3.51, 0.61 3.19, 0.78 2.9 C0.95 2.61, 1.14 2.33, 1.36 2.07 C1.57 1.82, 1.82 1.57, 2.07 1.36 C2.33 1.14, 2.61 0.95, 2.9 0.78 C3.19 0.61, 3.51 0.47, 3.82 0.35 C4.14 0.24, 4.47 0.15, 4.8 0.09 C5.13 0.03, 5.47 0, 5.81 0 C6.14 0, 6.48 0.03, 6.82 0.09 C7.15 0.15, 7.48 0.24, 7.79 0.35 C8.11 0.47, 8.42 0.61, 8.71 0.78 C9 0.95, 9.28 1.14, 9.54 1.36 C9.8 1.57, 10.04 1.82, 10.26 2.07 C10.47 2.33, 10.67 2.61, 10.84 2.9 C11 3.19, 11.15 3.51, 11.26 3.82 C11.38 4.14, 11.47 4.47, 11.53 4.8 C11.58 5.13, 11.6 5.64, 11.61 5.81 C11.63 5.98, 11.63 5.64, 11.61 5.81" stroke="none" stroke-width="0" fill="black"></path><path d="M11.61 5.81 C11.61 6.14, 11.58 6.48, 11.53 6.82 C11.47 7.15, 11.38 7.48, 11.26 7.79 C11.15 8.11, 11 8.42, 10.84 8.71 C10.67 9, 10.47 9.28, 10.26 9.54 C10.04 9.8, 9.8 10.04, 9.54 10.26 C9.28 10.47, 9 10.67, 8.71 10.84 C8.42 11, 8.11 11.15, 7.79 11.26 C7.48 11.38, 7.15 11.47, 6.82 11.53 C6.48 11.58, 6.14 11.61, 5.81 11.61 C5.47 11.61, 5.13 11.58, 4.8 11.53 C4.47 11.47, 4.14 11.38, 3.82 11.26 C3.51 11.15, 3.19 11, 2.9 10.84 C2.61 10.67, 2.33 10.47, 2.07 10.26 C1.82 10.04, 1.57 9.8, 1.36 9.54 C1.14 9.28, 0.95 9, 0.78 8.71 C0.61 8.42, 0.47 8.11, 0.35 7.79 C0.24 7.48, 0.15 7.15, 0.09 6.82 C0.03 6.48, 0 6.14, 0 5.81 C0 5.47, 0.03 5.13, 0.09 4.8 C0.15 4.47, 0.24 4.14, 0.35 3.82 C0.47 3.51, 0.61 3.19, 0.78 2.9 C0.95 2.61, 1.14 2.33, 1.36 2.07 C1.57 1.82, 1.82 1.57, 2.07 1.36 C2.33 1.14, 2.61 0.95, 2.9 0.78 C3.19 0.61, 3.51 0.47, 3.82 0.35 C4.14 0.24, 4.47 0.15, 4.8 0.09 C5.13 0.03, 5.47 0, 5.81 0 C6.14 0, 6.48 0.03, 6.82 0.09 C7.15 0.15, 7.48 0.24, 7.79 0.35 C8.11 0.47, 8.42 0.61, 8.71 0.78 C9 0.95, 9.28 1.14, 9.54 1.36 C9.8 1.57, 10.04 1.82, 10.26 2.07 C10.47 2.33, 10.67 2.61, 10.84 2.9 C11 3.19, 11.15 3.51, 11.26 3.82 C11.38 4.14, 11.47 4.47, 11.53 4.8 C11.58 5.13, 11.6 5.64, 11.61 5.81 C11.63 5.98, 11.63 5.64, 11.61 5.81" stroke="black" stroke-width="4" fill="none"></path></g><g stroke-linecap="round" transform="translate(279.49795849712336 204.12517727079103) rotate(19.763390038183157 5.80713533175458 5.8071353317536705)"><path d="M11.61 5.81 C11.61 6.14, 11.58 6.48, 11.53 6.82 C11.47 7.15, 11.38 7.48, 11.26 7.79 C11.15 8.11, 11 8.42, 10.84 8.71 C10.67 9, 10.47 9.28, 10.26 9.54 C10.04 9.8, 9.8 10.04, 9.54 10.26 C9.28 10.47, 9 10.67, 8.71 10.84 C8.42 11, 8.11 11.15, 7.79 11.26 C7.48 11.38, 7.15 11.47, 6.82 11.53 C6.48 11.58, 6.14 11.61, 5.81 11.61 C5.47 11.61, 5.13 11.58, 4.8 11.53 C4.47 11.47, 4.14 11.38, 3.82 11.26 C3.51 11.15, 3.19 11, 2.9 10.84 C2.61 10.67, 2.33 10.47, 2.07 10.26 C1.82 10.04, 1.57 9.8, 1.36 9.54 C1.14 9.28, 0.95 9, 0.78 8.71 C0.61 8.42, 0.47 8.11, 0.35 7.79 C0.24 7.48, 0.15 7.15, 0.09 6.82 C0.03 6.48, 0 6.14, 0 5.81 C0 5.47, 0.03 5.13, 0.09 4.8 C0.15 4.47, 0.24 4.14, 0.35 3.82 C0.47 3.51, 0.61 3.19, 0.78 2.9 C0.95 2.61, 1.14 2.33, 1.36 2.07 C1.57 1.82, 1.82 1.57, 2.07 1.36 C2.33 1.14, 2.61 0.95, 2.9 0.78 C3.19 0.61, 3.51 0.47, 3.82 0.35 C4.14 0.24, 4.47 0.15, 4.8 0.09 C5.13 0.03, 5.47 0, 5.81 0 C6.14 0, 6.48 0.03, 6.82 0.09 C7.15 0.15, 7.48 0.24, 7.79 0.35 C8.11 0.47, 8.42 0.61, 8.71 0.78 C9 0.95, 9.28 1.14, 9.54 1.36 C9.8 1.57, 10.04 1.82, 10.26 2.07 C10.47 2.33, 10.67 2.61, 10.84 2.9 C11 3.19, 11.15 3.51, 11.26 3.82 C11.38 4.14, 11.47 4.47, 11.53 4.8 C11.58 5.13, 11.6 5.64, 11.61 5.81 C11.63 5.98, 11.63 5.64, 11.61 5.81" stroke="none" stroke-width="0" fill="black"></path><path d="M11.61 5.81 C11.61 6.14, 11.58 6.48, 11.53 6.82 C11.47 7.15, 11.38 7.48, 11.26 7.79 C11.15 8.11, 11 8.42, 10.84 8.71 C10.67 9, 10.47 9.28, 10.26 9.54 C10.04 9.8, 9.8 10.04, 9.54 10.26 C9.28 10.47, 9 10.67, 8.71 10.84 C8.42 11, 8.11 11.15, 7.79 11.26 C7.48 11.38, 7.15 11.47, 6.82 11.53 C6.48 11.58, 6.14 11.61, 5.81 11.61 C5.47 11.61, 5.13 11.58, 4.8 11.53 C4.47 11.47, 4.14 11.38, 3.82 11.26 C3.51 11.15, 3.19 11, 2.9 10.84 C2.61 10.67, 2.33 10.47, 2.07 10.26 C1.82 10.04, 1.57 9.8, 1.36 9.54 C1.14 9.28, 0.95 9, 0.78 8.71 C0.61 8.42, 0.47 8.11, 0.35 7.79 C0.24 7.48, 0.15 7.15, 0.09 6.82 C0.03 6.48, 0 6.14, 0 5.81 C0 5.47, 0.03 5.13, 0.09 4.8 C0.15 4.47, 0.24 4.14, 0.35 3.82 C0.47 3.51, 0.61 3.19, 0.78 2.9 C0.95 2.61, 1.14 2.33, 1.36 2.07 C1.57 1.82, 1.82 1.57, 2.07 1.36 C2.33 1.14, 2.61 0.95, 2.9 0.78 C3.19 0.61, 3.51 0.47, 3.82 0.35 C4.14 0.24, 4.47 0.15, 4.8 0.09 C5.13 0.03, 5.47 0, 5.81 0 C6.14 0, 6.48 0.03, 6.82 0.09 C7.15 0.15, 7.48 0.24, 7.79 0.35 C8.11 0.47, 8.42 0.61, 8.71 0.78 C9 0.95, 9.28 1.14, 9.54 1.36 C9.8 1.57, 10.04 1.82, 10.26 2.07 C10.47 2.33, 10.67 2.61, 10.84 2.9 C11 3.19, 11.15 3.51, 11.26 3.82 C11.38 4.14, 11.47 4.47, 11.53 4.8 C11.58 5.13, 11.6 5.64, 11.61 5.81 C11.63 5.98, 11.63 5.64, 11.61 5.81" stroke="black" stroke-width="4" fill="none"></path></g><g stroke-linecap="round" transform="translate(305.3005396485769 213.60174521390218) rotate(19.763390038183157 5.80713533175458 5.8071353317536705)"><path d="M11.61 5.81 C11.61 6.14, 11.58 6.48, 11.53 6.82 C11.47 7.15, 11.38 7.48, 11.26 7.79 C11.15 8.11, 11 8.42, 10.84 8.71 C10.67 9, 10.47 9.28, 10.26 9.54 C10.04 9.8, 9.8 10.04, 9.54 10.26 C9.28 10.47, 9 10.67, 8.71 10.84 C8.42 11, 8.11 11.15, 7.79 11.26 C7.48 11.38, 7.15 11.47, 6.82 11.53 C6.48 11.58, 6.14 11.61, 5.81 11.61 C5.47 11.61, 5.13 11.58, 4.8 11.53 C4.47 11.47, 4.14 11.38, 3.82 11.26 C3.51 11.15, 3.19 11, 2.9 10.84 C2.61 10.67, 2.33 10.47, 2.07 10.26 C1.82 10.04, 1.57 9.8, 1.36 9.54 C1.14 9.28, 0.95 9, 0.78 8.71 C0.61 8.42, 0.47 8.11, 0.35 7.79 C0.24 7.48, 0.15 7.15, 0.09 6.82 C0.03 6.48, 0 6.14, 0 5.81 C0 5.47, 0.03 5.13, 0.09 4.8 C0.15 4.47, 0.24 4.14, 0.35 3.82 C0.47 3.51, 0.61 3.19, 0.78 2.9 C0.95 2.61, 1.14 2.33, 1.36 2.07 C1.57 1.82, 1.82 1.57, 2.07 1.36 C2.33 1.14, 2.61 0.95, 2.9 0.78 C3.19 0.61, 3.51 0.47, 3.82 0.35 C4.14 0.24, 4.47 0.15, 4.8 0.09 C5.13 0.03, 5.47 0, 5.81 0 C6.14 0, 6.48 0.03, 6.82 0.09 C7.15 0.15, 7.48 0.24, 7.79 0.35 C8.11 0.47, 8.42 0.61, 8.71 0.78 C9 0.95, 9.28 1.14, 9.54 1.36 C9.8 1.57, 10.04 1.82, 10.26 2.07 C10.47 2.33, 10.67 2.61, 10.84 2.9 C11 3.19, 11.15 3.51, 11.26 3.82 C11.38 4.14, 11.47 4.47, 11.53 4.8 C11.58 5.13, 11.6 5.64, 11.61 5.81 C11.63 5.98, 11.63 5.64, 11.61 5.81" stroke="none" stroke-width="0" fill="black"></path><path d="M11.61 5.81 C11.61 6.14, 11.58 6.48, 11.53 6.82 C11.47 7.15, 11.38 7.48, 11.26 7.79 C11.15 8.11, 11 8.42, 10.84 8.71 C10.67 9, 10.47 9.28, 10.26 9.54 C10.04 9.8, 9.8 10.04, 9.54 10.26 C9.28 10.47, 9 10.67, 8.71 10.84 C8.42 11, 8.11 11.15, 7.79 11.26 C7.48 11.38, 7.15 11.47, 6.82 11.53 C6.48 11.58, 6.14 11.61, 5.81 11.61 C5.47 11.61, 5.13 11.58, 4.8 11.53 C4.47 11.47, 4.14 11.38, 3.82 11.26 C3.51 11.15, 3.19 11, 2.9 10.84 C2.61 10.67, 2.33 10.47, 2.07 10.26 C1.82 10.04, 1.57 9.8, 1.36 9.54 C1.14 9.28, 0.95 9, 0.78 8.71 C0.61 8.42, 0.47 8.11, 0.35 7.79 C0.24 7.48, 0.15 7.15, 0.09 6.82 C0.03 6.48, 0 6.14, 0 5.81 C0 5.47, 0.03 5.13, 0.09 4.8 C0.15 4.47, 0.24 4.14, 0.35 3.82 C0.47 3.51, 0.61 3.19, 0.78 2.9 C0.95 2.61, 1.14 2.33, 1.36 2.07 C1.57 1.82, 1.82 1.57, 2.07 1.36 C2.33 1.14, 2.61 0.95, 2.9 0.78 C3.19 0.61, 3.51 0.47, 3.82 0.35 C4.14 0.24, 4.47 0.15, 4.8 0.09 C5.13 0.03, 5.47 0, 5.81 0 C6.14 0, 6.48 0.03, 6.82 0.09 C7.15 0.15, 7.48 0.24, 7.79 0.35 C8.11 0.47, 8.42 0.61, 8.71 0.78 C9 0.95, 9.28 1.14, 9.54 1.36 C9.8 1.57, 10.04 1.82, 10.26 2.07 C10.47 2.33, 10.67 2.61, 10.84 2.9 C11 3.19, 11.15 3.51, 11.26 3.82 C11.38 4.14, 11.47 4.47, 11.53 4.8 C11.58 5.13, 11.6 5.64, 11.61 5.81 C11.63 5.98, 11.63 5.64, 11.61 5.81" stroke="black" stroke-width="4" fill="none"></path></g><g stroke-linecap="round" transform="translate(287.96694574450885 221.77184745677368) rotate(19.763390038183157 5.80713533175458 5.8071353317536705)"><path d="M11.61 5.81 C11.61 6.14, 11.58 6.48, 11.53 6.82 C11.47 7.15, 11.38 7.48, 11.26 7.79 C11.15 8.11, 11 8.42, 10.84 8.71 C10.67 9, 10.47 9.28, 10.26 9.54 C10.04 9.8, 9.8 10.04, 9.54 10.26 C9.28 10.47, 9 10.67, 8.71 10.84 C8.42 11, 8.11 11.15, 7.79 11.26 C7.48 11.38, 7.15 11.47, 6.82 11.53 C6.48 11.58, 6.14 11.61, 5.81 11.61 C5.47 11.61, 5.13 11.58, 4.8 11.53 C4.47 11.47, 4.14 11.38, 3.82 11.26 C3.51 11.15, 3.19 11, 2.9 10.84 C2.61 10.67, 2.33 10.47, 2.07 10.26 C1.82 10.04, 1.57 9.8, 1.36 9.54 C1.14 9.28, 0.95 9, 0.78 8.71 C0.61 8.42, 0.47 8.11, 0.35 7.79 C0.24 7.48, 0.15 7.15, 0.09 6.82 C0.03 6.48, 0 6.14, 0 5.81 C0 5.47, 0.03 5.13, 0.09 4.8 C0.15 4.47, 0.24 4.14, 0.35 3.82 C0.47 3.51, 0.61 3.19, 0.78 2.9 C0.95 2.61, 1.14 2.33, 1.36 2.07 C1.57 1.82, 1.82 1.57, 2.07 1.36 C2.33 1.14, 2.61 0.95, 2.9 0.78 C3.19 0.61, 3.51 0.47, 3.82 0.35 C4.14 0.24, 4.47 0.15, 4.8 0.09 C5.13 0.03, 5.47 0, 5.81 0 C6.14 0, 6.48 0.03, 6.82 0.09 C7.15 0.15, 7.48 0.24, 7.79 0.35 C8.11 0.47, 8.42 0.61, 8.71 0.78 C9 0.95, 9.28 1.14, 9.54 1.36 C9.8 1.57, 10.04 1.82, 10.26 2.07 C10.47 2.33, 10.67 2.61, 10.84 2.9 C11 3.19, 11.15 3.51, 11.26 3.82 C11.38 4.14, 11.47 4.47, 11.53 4.8 C11.58 5.13, 11.6 5.64, 11.61 5.81 C11.63 5.98, 11.63 5.64, 11.61 5.81" stroke="none" stroke-width="0" fill="black"></path><path d="M11.61 5.81 C11.61 6.14, 11.58 6.48, 11.53 6.82 C11.47 7.15, 11.38 7.48, 11.26 7.79 C11.15 8.11, 11 8.42, 10.84 8.71 C10.67 9, 10.47 9.28, 10.26 9.54 C10.04 9.8, 9.8 10.04, 9.54 10.26 C9.28 10.47, 9 10.67, 8.71 10.84 C8.42 11, 8.11 11.15, 7.79 11.26 C7.48 11.38, 7.15 11.47, 6.82 11.53 C6.48 11.58, 6.14 11.61, 5.81 11.61 C5.47 11.61, 5.13 11.58, 4.8 11.53 C4.47 11.47, 4.14 11.38, 3.82 11.26 C3.51 11.15, 3.19 11, 2.9 10.84 C2.61 10.67, 2.33 10.47, 2.07 10.26 C1.82 10.04, 1.57 9.8, 1.36 9.54 C1.14 9.28, 0.95 9, 0.78 8.71 C0.61 8.42, 0.47 8.11, 0.35 7.79 C0.24 7.48, 0.15 7.15, 0.09 6.82 C0.03 6.48, 0 6.14, 0 5.81 C0 5.47, 0.03 5.13, 0.09 4.8 C0.15 4.47, 0.24 4.14, 0.35 3.82 C0.47 3.51, 0.61 3.19, 0.78 2.9 C0.95 2.61, 1.14 2.33, 1.36 2.07 C1.57 1.82, 1.82 1.57, 2.07 1.36 C2.33 1.14, 2.61 0.95, 2.9 0.78 C3.19 0.61, 3.51 0.47, 3.82 0.35 C4.14 0.24, 4.47 0.15, 4.8 0.09 C5.13 0.03, 5.47 0, 5.81 0 C6.14 0, 6.48 0.03, 6.82 0.09 C7.15 0.15, 7.48 0.24, 7.79 0.35 C8.11 0.47, 8.42 0.61, 8.71 0.78 C9 0.95, 9.28 1.14, 9.54 1.36 C9.8 1.57, 10.04 1.82, 10.26 2.07 C10.47 2.33, 10.67 2.61, 10.84 2.9 C11 3.19, 11.15 3.51, 11.26 3.82 C11.38 4.14, 11.47 4.47, 11.53 4.8 C11.58 5.13, 11.6 5.64, 11.61 5.81 C11.63 5.98, 11.63 5.64, 11.61 5.81" stroke="black" stroke-width="4" fill="none"></path></g><g stroke-linecap="round"><g transform="translate(269.9733193234042 168.69605812679947) rotate(0 17.80973148055773 -33.28376047186066)"><path d="M0 0 C1.07 -3.89, 1.07 -15.67, 6.42 -23.36 C11.78 -31.05, 27.25 -38.93, 32.12 -46.13 C36.98 -53.33, 35.04 -63.16, 35.62 -66.57 M0 0 C1.07 -3.89, 1.07 -15.67, 6.42 -23.36 C11.78 -31.05, 27.25 -38.93, 32.12 -46.13 C36.98 -53.33, 35.04 -63.16, 35.62 -66.57" stroke="black" stroke-width="4" fill="none"></path></g></g><mask></mask></svg>