<?xml version="1.0" standalone="no"?>
<!DOCTYPE svg PUBLIC "-//W3C//DTD SVG 20010904//EN"
 "http://www.w3.org/TR/2001/REC-SVG-20010904/DTD/svg10.dtd">
<svg version="1.0" xmlns="http://www.w3.org/2000/svg"
 width="398.000000pt" height="398.000000pt" viewBox="0 0 398.000000 398.000000"
 preserveAspectRatio="xMidYMid meet">
<metadata>
Created by potrace 1.14, written by Peter Selinger 2001-2017
</metadata>
<g transform="translate(0.000000,398.000000) scale(0.100000,-0.100000)"
fill="#000000" stroke="none">
<path d="M3465 3479 c-201 -11 -356 -26 -553 -55 -158 -22 -461 -80 -471 -89
-2 -3 13 -82 33 -177 46 -220 64 -327 80 -480 7 -68 12 -124 12 -125 -1 -1
-309 -126 -686 -278 -377 -152 -689 -279 -694 -282 -4 -3 302 -131 680 -284
l689 -278 -2 -118 c-2 -130 -31 -307 -88 -531 -23 -93 -30 -135 -22 -137 76
-27 438 -88 672 -114 143 -16 496 -41 588 -41 16 0 17 78 17 1500 l0 1500 -57
-1 c-32 -1 -121 -6 -198 -10z"/>
<path d="M1930 3181 c-465 -155 -837 -352 -1249 -666 -201 -152 -606 -503
-606 -525 0 -11 141 -140 325 -298 520 -446 964 -705 1530 -893 156 -52 176
-56 182 -41 8 19 98 456 98 475 0 7 -340 179 -755 382 -415 204 -754 373 -755
376 0 3 338 171 751 374 412 203 753 373 755 377 6 9 -81 448 -94 480 -6 15
-26 11 -182 -41z"/>
</g>
</svg>
