<svg width="24" height="24" viewBox="0 0 24 24" fill="none" xmlns="http://www.w3.org/2000/svg">
<path d="M17.5 4C17.2239 4 17 4.22386 17 4.5V21.5C17 21.7761 17.2239 22 17.5 22H18.5C18.7761 22 19 21.7761 19 21.5V14H21.5C21.7761 14 22 13.7761 22 13.5V12.5C22 12.2239 21.7761 12 21.5 12H19V4.5C19 4.22386 18.7761 4 18.5 4H17.5Z" fill="black" stroke="black"/>
<path d="M6.5 4C6.77614 4 7 4.22386 7 4.5V21.5C7 21.7761 6.77614 22 6.5 22H5.5C5.22386 22 5 21.7761 5 21.5V14H2.5C2.22386 14 2 13.7761 2 13.5V12.5C2 12.2239 2.22386 12 2.5 12H5V4.5C5 4.22386 5.22386 4 5.5 4H6.5Z" fill="black" stroke="black"/>
<rect x="12" y="17" width="4" height="4" fill="#3CC1F5"/>
<rect x="8" y="13" width="4" height="4" fill="#3CC1F5"/>
<rect x="12" y="9" width="4" height="4" fill="#3CC1F5"/>
<rect x="8" y="5" width="4" height="4" fill="#3CC1F5"/>
</svg>
