<?xml version="1.0" encoding="UTF-8" standalone="no"?>
<!-- Created with Inkscape (http://www.inkscape.org/) -->

<svg
   width="400"
   height="120"
   viewBox="0 0 105.83333 31.750001"
   version="1.1"
   id="svg107616"
   inkscape:version="1.1.1 (3bf5ae0d25, 2021-09-20)"
   sodipodi:docname="basisu-full-light.svg"
   xmlns:inkscape="http://www.inkscape.org/namespaces/inkscape"
   xmlns:sodipodi="http://sodipodi.sourceforge.net/DTD/sodipodi-0.dtd"
   xmlns="http://www.w3.org/2000/svg"
   xmlns:svg="http://www.w3.org/2000/svg">
  <sodipodi:namedview
     id="namedview107618"
     pagecolor="#ffffff"
     bordercolor="#666666"
     borderopacity="1.0"
     inkscape:pageshadow="2"
     inkscape:pageopacity="0"
     inkscape:pagecheckerboard="true"
     inkscape:document-units="mm"
     showgrid="true"
     units="px"
     inkscape:object-nodes="true"
     gridtolerance="10000"
     guidetolerance="10000"
     inkscape:snap-page="false"
     inkscape:snap-grids="false"
     inkscape:snap-to-guides="false"
     inkscape:snap-smooth-nodes="true"
     inkscape:snap-midpoints="true"
     inkscape:zoom="4.3994184"
     inkscape:cx="123.1981"
     inkscape:cy="151.61095"
     inkscape:window-width="3840"
     inkscape:window-height="2066"
     inkscape:window-x="-11"
     inkscape:window-y="-11"
     inkscape:window-maximized="1"
     inkscape:current-layer="layer1">
    <inkscape:grid
       type="xygrid"
       id="grid111742"
       empspacing="10"
       snapvisiblegridlinesonly="true"
       visible="true"
       enabled="true"
       dotted="true" />
    <sodipodi:guide
       position="0,31.75"
       orientation="0,400"
       id="guide113514" />
    <sodipodi:guide
       position="105.83333,31.75"
       orientation="120,0"
       id="guide113516" />
    <sodipodi:guide
       position="105.83333,0"
       orientation="0,-400"
       id="guide113518" />
    <sodipodi:guide
       position="0,0"
       orientation="-120,0"
       id="guide113520" />
  </sodipodi:namedview>
  <defs
     id="defs107613">
    <clipPath
       id="clip0_17_168">
      <rect
         width="24"
         height="24"
         fill="white"
         id="rect119280" />
    </clipPath>
    <clipPath
       id="clip0_45_53">
      <rect
         width="24"
         height="24"
         fill="white"
         id="rect132054" />
    </clipPath>
  </defs>
  <g
     inkscape:label="Layer 1"
     inkscape:groupmode="layer"
     id="layer1">
    <g
       aria-label="mach
basisu"
       id="text116068"
       style="font-size:11.9944px;font-family:Orbitron;-inkscape-font-specification:Orbitron;stroke-width:0.264583">
      <path
         d="m 42.854719,4.6632231 q 0.719664,0 1.223429,0.5157592 0.515759,0.5157592 0.515759,1.2234288 V 11.619975 H 42.770758 V 6.4983663 H 40.467834 V 11.619975 H 38.620696 V 6.4983663 H 36.317771 V 11.619975 H 34.482628 V 4.6632231 Z"
         style="-inkscape-font-specification:'Orbitron Heavy'"
         id="path840" />
      <path
         d="m 51.130838,4.6632231 q 0.719664,0 1.223429,0.5157592 0.515759,0.5157592 0.515759,1.2234288 v 5.2175639 h -5.313519 q -0.719664,0 -1.235423,-0.515759 -0.503765,-0.515759 -0.503765,-1.2234289 V 7.2180303 h 5.217564 V 6.4983663 H 45.817319 V 4.6632231 Z m -0.09595,5.1216088 v -0.959552 h -3.382421 v 0.959552 z"
         style="-inkscape-font-specification:'Orbitron Heavy'"
         id="path842" />
      <path
         d="m 60.750307,6.4983663 h -5.20557 v 3.2864656 h 5.217564 v 1.8351431 h -5.313519 q -0.70767,0 -1.223429,-0.515759 -0.515759,-0.515759 -0.515759,-1.2234289 v -3.478376 q 0,-0.7076696 0.515759,-1.2234288 0.515759,-0.5157592 1.223429,-0.5157592 h 5.301525 z"
         style="-inkscape-font-specification:'Orbitron Heavy'"
         id="path844" />
      <path
         d="m 67.047349,4.6632231 q 0.707669,0 1.223429,0.5157592 0.515759,0.5157592 0.515759,1.2234288 V 11.619975 H 66.951394 V 6.4983663 H 63.568973 V 11.619975 H 61.73383 V 2.3842871 h 1.835143 v 2.278936 z"
         style="-inkscape-font-specification:'Orbitron Heavy'"
         id="path846" />
      <path
         d="m 39.796147,19.656223 q 0.719664,0 1.223429,0.515759 0.515759,0.51576 0.515759,1.223429 v 3.478376 q 0,0.70767 -0.515759,1.223429 -0.503765,0.515759 -1.223429,0.515759 h -5.313519 v -9.235688 h 1.835143 v 2.278936 z m -3.478376,1.835143 v 3.286466 h 3.382421 v -3.286466 z"
         style="-inkscape-font-specification:'Orbitron Heavy'"
         id="path848" />
      <path
         d="m 47.652474,19.656223 q 0.719664,0 1.223429,0.515759 0.515759,0.51576 0.515759,1.223429 v 5.217564 h -5.313519 q -0.719664,0 -1.235423,-0.515759 -0.503765,-0.515759 -0.503765,-1.223429 V 22.21103 h 5.217564 v -0.719664 h -5.217564 v -1.835143 z m -0.09595,5.121609 V 23.81828 h -3.382421 v 0.959552 z"
         style="-inkscape-font-specification:'Orbitron Heavy'"
         id="path850" />
      <path
         d="m 57.403893,21.395411 v 0.347838 h -1.847138 v -0.251883 h -3.38242 v 0.719664 h 3.478376 q 0.731658,0 1.235423,0.51576 0.515759,0.503764 0.515759,1.223428 v 0.923569 q 0,0.70767 -0.515759,1.223429 -0.503765,0.515759 -1.235423,0.515759 h -3.574332 q -0.707669,0 -1.223428,-0.515759 -0.51576,-0.515759 -0.51576,-1.223429 V 24.52595 h 1.835144 v 0.251882 h 3.38242 v -0.719664 h -3.478376 q -0.707669,0 -1.223428,-0.515759 -0.51576,-0.515759 -0.51576,-1.223429 v -0.923569 q 0,-0.707669 0.51576,-1.223429 0.515759,-0.515759 1.223428,-0.515759 h 3.574332 q 0.731658,0 1.235423,0.515759 0.515759,0.51576 0.515759,1.223429 z"
         style="-inkscape-font-specification:'Orbitron Heavy'"
         id="path852" />
      <path
         d="m 58.615315,26.612975 v -6.956752 h 1.835143 v 6.956752 z m 0,-9.235688 h 1.835143 v 1.847138 h -1.835143 z"
         style="-inkscape-font-specification:'Orbitron Heavy'"
         id="path854" />
      <path
         d="m 68.858498,21.395411 v 0.347838 H 67.01136 v -0.251883 h -3.38242 v 0.719664 h 3.478376 q 0.731658,0 1.235423,0.51576 0.515759,0.503764 0.515759,1.223428 v 0.923569 q 0,0.70767 -0.515759,1.223429 -0.503765,0.515759 -1.235423,0.515759 h -3.574332 q -0.707669,0 -1.223428,-0.515759 -0.51576,-0.515759 -0.51576,-1.223429 V 24.52595 h 1.835144 v 0.251882 h 3.38242 v -0.719664 h -3.478376 q -0.707669,0 -1.223428,-0.515759 -0.51576,-0.515759 -0.51576,-1.223429 v -0.923569 q 0,-0.707669 0.51576,-1.223429 0.515759,-0.515759 1.223428,-0.515759 h 3.574332 q 0.731658,0 1.235423,0.515759 0.515759,0.51576 0.515759,1.223429 z"
         style="-inkscape-font-specification:'Orbitron Heavy'"
         id="path856" />
      <path
         d="m 74.903652,19.656223 h 1.835143 v 5.217564 q 0,0.70767 -0.515759,1.223429 -0.503765,0.515759 -1.223429,0.515759 h -3.574331 q -0.719664,0 -1.235423,-0.515759 -0.503765,-0.515759 -0.503765,-1.223429 v -5.217564 h 1.835143 v 5.121609 h 3.382421 z"
         style="-inkscape-font-specification:'Orbitron Heavy'"
         id="path858" />
    </g>
    <g
       style="fill:none"
       id="g139386"
       transform="matrix(1.1330014,0,0,1.1330014,3.5696995,1.1204951)">
      <path
         d="M 17.5,4 C 17.2239,4 17,4.22386 17,4.5 v 17 c 0,0.2761 0.2239,0.5 0.5,0.5 h 1 C 18.7761,22 19,21.7761 19,21.5 V 14 h 2.5 c 0.2761,0 0.5,-0.2239 0.5,-0.5 v -1 C 22,12.2239 21.7761,12 21.5,12 H 19 V 4.5 C 19,4.22386 18.7761,4 18.5,4 Z"
         fill="#000000"
         stroke="#000000"
         id="path139362" />
      <path
         d="M 6.5,4 C 6.77614,4 7,4.22386 7,4.5 v 17 C 7,21.7761 6.77614,22 6.5,22 h -1 C 5.22386,22 5,21.7761 5,21.5 V 14 H 2.5 C 2.22386,14 2,13.7761 2,13.5 v -1 C 2,12.2239 2.22386,12 2.5,12 H 5 V 4.5 C 5,4.22386 5.22386,4 5.5,4 Z"
         fill="#000000"
         stroke="#000000"
         id="path139364" />
      <rect
         x="12"
         y="17"
         width="4"
         height="4"
         fill="#3cc1f5"
         id="rect139366" />
      <rect
         x="8"
         y="13"
         width="4"
         height="4"
         fill="#3cc1f5"
         id="rect139368" />
      <rect
         x="12"
         y="9"
         width="4"
         height="4"
         fill="#3cc1f5"
         id="rect139370" />
      <rect
         x="8"
         y="5"
         width="4"
         height="4"
         fill="#3cc1f5"
         id="rect139372" />
    </g>
  </g>
</svg>
