<?xml version="1.0" encoding="UTF-8" standalone="no"?>
<!-- Created with Inkscape (http://www.inkscape.org/) -->

<svg
   width="400"
   height="120"
   viewBox="0 0 105.83333 31.750001"
   version="1.1"
   id="svg107616"
   inkscape:version="1.1.1 (3bf5ae0d25, 2021-09-20)"
   sodipodi:docname="core-full-light.svg"
   xmlns:inkscape="http://www.inkscape.org/namespaces/inkscape"
   xmlns:sodipodi="http://sodipodi.sourceforge.net/DTD/sodipodi-0.dtd"
   xmlns="http://www.w3.org/2000/svg"
   xmlns:svg="http://www.w3.org/2000/svg">
  <sodipodi:namedview
     id="namedview107618"
     pagecolor="#ffffff"
     bordercolor="#666666"
     borderopacity="1.0"
     inkscape:pageshadow="2"
     inkscape:pageopacity="0"
     inkscape:pagecheckerboard="true"
     inkscape:document-units="mm"
     showgrid="true"
     units="px"
     inkscape:object-nodes="true"
     gridtolerance="10000"
     guidetolerance="10000"
     inkscape:snap-page="false"
     inkscape:snap-grids="false"
     inkscape:snap-to-guides="false"
     inkscape:snap-smooth-nodes="true"
     inkscape:snap-midpoints="true"
     inkscape:zoom="3.1108586"
     inkscape:cx="131.79641"
     inkscape:cy="140.47569"
     inkscape:window-width="3840"
     inkscape:window-height="2066"
     inkscape:window-x="-11"
     inkscape:window-y="-11"
     inkscape:window-maximized="1"
     inkscape:current-layer="layer1">
    <inkscape:grid
       type="xygrid"
       id="grid111742"
       empspacing="10"
       snapvisiblegridlinesonly="true"
       visible="true"
       enabled="true"
       dotted="true" />
    <sodipodi:guide
       position="0,31.75"
       orientation="0,400"
       id="guide113514" />
    <sodipodi:guide
       position="105.83333,31.75"
       orientation="120,0"
       id="guide113516" />
    <sodipodi:guide
       position="105.83333,0"
       orientation="0,-400"
       id="guide113518" />
    <sodipodi:guide
       position="0,0"
       orientation="-120,0"
       id="guide113520" />
  </sodipodi:namedview>
  <defs
     id="defs107613">
    <clipPath
       id="clip0_17_168">
      <rect
         width="24"
         height="24"
         fill="white"
         id="rect119280" />
    </clipPath>
    <clipPath
       id="clip0_45_53">
      <rect
         width="24"
         height="24"
         fill="white"
         id="rect132054" />
    </clipPath>
    <clipPath
       id="clip0_2_216">
      <rect
         width="51"
         height="24"
         fill="white"
         id="rect142552" />
    </clipPath>
    <style
       class="style-fonts"
       id="style157659">
      @font-face {
        font-family: &quot;Virgil&quot;;
        src: url(&quot;https://excalidraw.com/Virgil.woff2&quot;);
      }
      @font-face {
        font-family: &quot;Cascadia&quot;;
        src: url(&quot;https://excalidraw.com/Cascadia.woff2&quot;);
      }
    </style>
  </defs>
  <g
     inkscape:label="Layer 1"
     inkscape:groupmode="layer"
     id="layer1">
    <g
       aria-label="mach
core"
       id="text116068"
       style="font-size:11.9944px;font-family:Orbitron;-inkscape-font-specification:Orbitron;stroke-width:0.264583">
      <path
         d="m 42.854719,4.6632231 q 0.719664,0 1.223429,0.5157592 0.515759,0.5157592 0.515759,1.2234288 V 11.619975 H 42.770758 V 6.4983663 H 40.467834 V 11.619975 H 38.620696 V 6.4983663 H 36.317771 V 11.619975 H 34.482628 V 4.6632231 Z"
         style="-inkscape-font-specification:'Orbitron Heavy'"
         id="path852" />
      <path
         d="m 51.130838,4.6632231 q 0.719664,0 1.223429,0.5157592 0.515759,0.5157592 0.515759,1.2234288 v 5.2175639 h -5.313519 q -0.719664,0 -1.235423,-0.515759 -0.503765,-0.515759 -0.503765,-1.2234289 V 7.2180303 h 5.217564 V 6.4983663 H 45.817319 V 4.6632231 Z m -0.09595,5.1216088 v -0.959552 h -3.382421 v 0.959552 z"
         style="-inkscape-font-specification:'Orbitron Heavy'"
         id="path854" />
      <path
         d="m 60.750307,6.4983663 h -5.20557 v 3.2864656 h 5.217564 v 1.8351431 h -5.313519 q -0.70767,0 -1.223429,-0.515759 -0.515759,-0.515759 -0.515759,-1.2234289 v -3.478376 q 0,-0.7076696 0.515759,-1.2234288 0.515759,-0.5157592 1.223429,-0.5157592 h 5.301525 z"
         style="-inkscape-font-specification:'Orbitron Heavy'"
         id="path856" />
      <path
         d="m 67.047349,4.6632231 q 0.707669,0 1.223429,0.5157592 0.515759,0.5157592 0.515759,1.2234288 V 11.619975 H 66.951394 V 6.4983663 H 63.568973 V 11.619975 H 61.73383 V 2.3842871 h 1.835143 v 2.278936 z"
         style="-inkscape-font-specification:'Orbitron Heavy'"
         id="path858" />
      <path
         d="m 41.487358,21.491366 h -5.20557 v 3.286466 h 5.217564 v 1.835143 h -5.313519 q -0.70767,0 -1.223429,-0.515759 -0.515759,-0.515759 -0.515759,-1.223429 v -3.478376 q 0,-0.707669 0.515759,-1.223429 0.515759,-0.515759 1.223429,-0.515759 h 5.301525 z"
         style="-inkscape-font-specification:'Orbitron Heavy'"
         id="path860" />
      <path
         d="m 44.401991,19.656223 h 3.574331 q 0.719664,0 1.223429,0.515759 0.515759,0.51576 0.515759,1.223429 v 3.478376 q 0,0.70767 -0.515759,1.223429 -0.503765,0.515759 -1.223429,0.515759 h -3.574331 q -0.70767,0 -1.223429,-0.515759 -0.515759,-0.515759 -0.515759,-1.223429 v -3.478376 q 0,-0.707669 0.515759,-1.223429 0.515759,-0.515759 1.223429,-0.515759 z m 0.09595,1.835143 v 3.286466 h 3.382421 v -3.286466 z"
         style="-inkscape-font-specification:'Orbitron Heavy'"
         id="path862" />
      <path
         d="m 52.402243,19.656223 h 3.838208 v 1.835143 h -3.754248 v 5.121609 H 50.65106 v -5.217564 q 0,-0.707669 0.515759,-1.223429 0.51576,-0.515759 1.235424,-0.515759 z"
         style="-inkscape-font-specification:'Orbitron Heavy'"
         id="path864" />
      <path
         d="m 62.381553,19.656223 q 0.719664,0 1.223429,0.515759 0.515759,0.51576 0.515759,1.223429 v 2.662757 h -5.217564 v 0.719664 h 5.217564 v 1.835143 h -5.313519 q -0.707669,0 -1.223429,-0.515759 -0.515759,-0.515759 -0.515759,-1.223429 v -3.478376 q 0,-0.707669 0.515759,-1.223429 0.51576,-0.515759 1.223429,-0.515759 z m -3.478376,2.794695 h 3.382421 v -0.959552 h -3.382421 z"
         style="-inkscape-font-specification:'Orbitron Heavy'"
         id="path866" />
    </g>
    <g
       id="g157719"
       transform="matrix(0.0517527,0,0,0.0517527,4.8772713,5.295933)">
      <g
         stroke-linecap="round"
         id="g157669">
        <g
           transform="rotate(15,-572.56872,738.68361)"
           fill-rule="evenodd"
           id="g157667">
          <path
             d="M 0,0 -154.21,49.15 -45.3,159.51 0,0"
             stroke="none"
             stroke-width="0"
             fill="#000000"
             fill-rule="evenodd"
             id="path157663" />
          <path
             d="M 0,0 C -54.95,17.51 -109.9,35.03 -154.21,49.15 M 0,0 c -50.44,16.08 -100.88,32.16 -154.21,49.15 m 0,0 c 33.47,33.92 66.94,67.84 108.91,110.36 M -154.21,49.15 c 41.07,41.61 82.13,83.22 108.91,110.36 m 0,0 C -34.88,122.83 -24.46,86.14 0,0 M -45.3,159.51 C -35.34,124.45 -25.39,89.39 0,0 m 0,0 c 0,0 0,0 0,0 m 0,0 c 0,0 0,0 0,0"
             stroke="#000000"
             stroke-width="4"
             fill="none"
             id="path157665" />
        </g>
      </g>
      <g
         stroke-linecap="round"
         id="g157679">
        <g
           transform="rotate(-90,228.49973,-30.86955)"
           fill-rule="evenodd"
           id="g157677">
          <path
             d="M 0,0 -200,63.75 -58.75,206.88 0,0"
             stroke="none"
             stroke-width="0"
             fill="#000000"
             fill-rule="evenodd"
             id="path157673" />
          <path
             d="M 0,0 C -48.05,15.32 -96.1,30.63 -200,63.75 M 0,0 c -57.95,18.47 -115.91,36.94 -200,63.75 m 0,0 c 42.42,42.99 84.85,85.97 141.25,143.13 M -200,63.75 c 40.44,40.97 80.87,81.95 141.25,143.13 m 0,0 C -45.37,159.77 -32,112.66 0,0 M -58.75,206.88 C -45.59,160.55 -32.44,114.23 0,0 m 0,0 c 0,0 0,0 0,0 m 0,0 c 0,0 0,0 0,0"
             stroke="#000000"
             stroke-width="4"
             fill="none"
             id="path157675" />
        </g>
      </g>
      <g
         stroke-linecap="round"
         id="g157689">
        <g
           transform="rotate(135,78.494584,94.423279)"
           fill-rule="evenodd"
           id="g157687">
          <path
             d="M 0,0 -101.89,32.48 -29.93,105.39 0,0"
             stroke="none"
             stroke-width="0"
             fill="#000000"
             fill-rule="evenodd"
             id="path157683" />
          <path
             d="M 0,0 C -39.3,12.53 -78.6,25.05 -101.89,32.48 M 0,0 c -40.12,12.79 -80.23,25.57 -101.89,32.48 m 0,0 c 16.93,17.15 33.86,34.31 71.96,72.91 m -71.96,-72.91 c 28.69,29.06 57.37,58.13 71.96,72.91 m 0,0 C -19.59,68.98 -9.25,32.56 0,0 M -29.93,105.39 C -19.64,69.16 -9.35,32.92 0,0 m 0,0 c 0,0 0,0 0,0 m 0,0 c 0,0 0,0 0,0"
             stroke="#000000"
             stroke-width="4"
             fill="none"
             id="path157685" />
        </g>
      </g>
      <g
         stroke-linecap="round"
         transform="translate(104.68178,70.755176)"
         id="g157697">
        <path
           d="m 187.5,93.75 c 0,3.06 -0.15,6.14 -0.45,9.19 -0.3,3.05 -0.75,6.1 -1.35,9.1 -0.6,3 -1.35,5.99 -2.24,8.92 -0.89,2.94 -1.92,5.84 -3.1,8.67 -1.17,2.83 -2.49,5.61 -3.93,8.31 -1.44,2.7 -3.03,5.35 -4.73,7.89 -1.7,2.55 -3.54,5.03 -5.48,7.39 -1.94,2.37 -4.01,4.66 -6.18,6.82 -2.16,2.17 -4.45,4.24 -6.82,6.18 -2.36,1.94 -4.84,3.78 -7.39,5.48 -2.54,1.7 -5.19,3.29 -7.89,4.73 -2.7,1.44 -5.48,2.76 -8.31,3.93 -2.83,1.18 -5.73,2.21 -8.67,3.1 -2.93,0.89 -5.92,1.64 -8.92,2.24 -3,0.6 -6.05,1.05 -9.1,1.35 -3.05,0.3 -6.13,0.45 -9.19,0.45 -3.06,0 -6.14,-0.15 -9.19,-0.45 -3.05,-0.3 -6.1,-0.75 -9.1,-1.35 -3,-0.6 -5.99,-1.35 -8.92,-2.24 -2.94,-0.89 -5.84,-1.92 -8.67,-3.1 -2.83,-1.17 -5.61,-2.49 -8.31,-3.93 -2.7,-1.44 -5.35,-3.03 -7.89,-4.73 -2.55,-1.7 -5.03,-3.54 -7.39,-5.48 -2.37,-1.94 -4.66,-4.01 -6.82,-6.18 -2.17,-2.16 -4.24,-4.45 -6.18,-6.82 -1.94,-2.36 -3.78,-4.84 -5.48,-7.39 -1.7,-2.54 -3.29,-5.19 -4.73,-7.89 -1.44,-2.7 -2.76,-5.48 -3.93,-8.31 -1.18,-2.83 -2.21,-5.73 -3.1,-8.67 -0.89,-2.93 -1.64,-5.92 -2.24,-8.92 -0.6,-3 -1.05,-6.05 -1.35,-9.1 C 0.15,99.89 0,96.81 0,93.75 c 0,-3.06 0.15,-6.14 0.45,-9.19 0.3,-3.05 0.75,-6.1 1.35,-9.1 0.6,-3 1.35,-5.99 2.24,-8.92 0.89,-2.94 1.92,-5.84 3.1,-8.67 1.17,-2.83 2.49,-5.61 3.93,-8.31 1.44,-2.7 3.03,-5.35 4.73,-7.89 1.7,-2.55 3.54,-5.03 5.48,-7.39 1.94,-2.37 4.01,-4.66 6.18,-6.82 2.16,-2.17 4.45,-4.24 6.82,-6.18 2.36,-1.94 4.84,-3.78 7.39,-5.48 2.54,-1.7 5.19,-3.29 7.89,-4.73 2.7,-1.44 5.48,-2.76 8.31,-3.93 2.83,-1.18 5.73,-2.21 8.67,-3.1 2.93,-0.89 5.92,-1.64 8.92,-2.24 3,-0.6 6.05,-1.05 9.1,-1.35 C 87.61,0.15 90.69,0 93.75,0 c 3.06,0 6.14,0.15 9.19,0.45 3.05,0.3 6.1,0.75 9.1,1.35 3,0.6 5.99,1.35 8.92,2.24 2.94,0.89 5.84,1.92 8.67,3.1 2.83,1.17 5.61,2.49 8.31,3.93 2.7,1.44 5.35,3.03 7.89,4.73 2.55,1.7 5.03,3.54 7.39,5.48 2.37,1.94 4.66,4.01 6.82,6.18 2.17,2.16 4.24,4.45 6.18,6.82 1.94,2.36 3.78,4.84 5.48,7.39 1.7,2.54 3.29,5.19 4.73,7.89 1.44,2.7 2.76,5.48 3.93,8.31 1.18,2.83 2.21,5.73 3.1,8.67 0.89,2.93 1.64,5.92 2.24,8.92 0.6,3 1.05,6.05 1.35,9.1 0.3,3.05 0.37,7.66 0.45,9.19 0.08,1.53 0.08,-1.53 0,0"
           stroke="none"
           stroke-width="0"
           fill="#3cc1f5"
           id="path157693" />
        <path
           d="m 187.5,93.75 c 0,3.06 -0.15,6.14 -0.45,9.19 -0.3,3.05 -0.75,6.1 -1.35,9.1 -0.6,3 -1.35,5.99 -2.24,8.92 -0.89,2.94 -1.92,5.84 -3.1,8.67 -1.17,2.83 -2.49,5.61 -3.93,8.31 -1.44,2.7 -3.03,5.35 -4.73,7.89 -1.7,2.55 -3.54,5.03 -5.48,7.39 -1.94,2.37 -4.01,4.66 -6.18,6.82 -2.16,2.17 -4.45,4.24 -6.82,6.18 -2.36,1.94 -4.84,3.78 -7.39,5.48 -2.54,1.7 -5.19,3.29 -7.89,4.73 -2.7,1.44 -5.48,2.76 -8.31,3.93 -2.83,1.18 -5.73,2.21 -8.67,3.1 -2.93,0.89 -5.92,1.64 -8.92,2.24 -3,0.6 -6.05,1.05 -9.1,1.35 -3.05,0.3 -6.13,0.45 -9.19,0.45 -3.06,0 -6.14,-0.15 -9.19,-0.45 -3.05,-0.3 -6.1,-0.75 -9.1,-1.35 -3,-0.6 -5.99,-1.35 -8.92,-2.24 -2.94,-0.89 -5.84,-1.92 -8.67,-3.1 -2.83,-1.17 -5.61,-2.49 -8.31,-3.93 -2.7,-1.44 -5.35,-3.03 -7.89,-4.73 -2.55,-1.7 -5.03,-3.54 -7.39,-5.48 -2.37,-1.94 -4.66,-4.01 -6.82,-6.18 -2.17,-2.16 -4.24,-4.45 -6.18,-6.82 -1.94,-2.36 -3.78,-4.84 -5.48,-7.39 -1.7,-2.54 -3.29,-5.19 -4.73,-7.89 -1.44,-2.7 -2.76,-5.48 -3.93,-8.31 -1.18,-2.83 -2.21,-5.73 -3.1,-8.67 -0.89,-2.93 -1.64,-5.92 -2.24,-8.92 -0.6,-3 -1.05,-6.05 -1.35,-9.1 C 0.15,99.89 0,96.81 0,93.75 c 0,-3.06 0.15,-6.14 0.45,-9.19 0.3,-3.05 0.75,-6.1 1.35,-9.1 0.6,-3 1.35,-5.99 2.24,-8.92 0.89,-2.94 1.92,-5.84 3.1,-8.67 1.17,-2.83 2.49,-5.61 3.93,-8.31 1.44,-2.7 3.03,-5.35 4.73,-7.89 1.7,-2.55 3.54,-5.03 5.48,-7.39 1.94,-2.37 4.01,-4.66 6.18,-6.82 2.16,-2.17 4.45,-4.24 6.82,-6.18 2.36,-1.94 4.84,-3.78 7.39,-5.48 2.54,-1.7 5.19,-3.29 7.89,-4.73 2.7,-1.44 5.48,-2.76 8.31,-3.93 2.83,-1.18 5.73,-2.21 8.67,-3.1 2.93,-0.89 5.92,-1.64 8.92,-2.24 3,-0.6 6.05,-1.05 9.1,-1.35 C 87.61,0.15 90.69,0 93.75,0 c 3.06,0 6.14,0.15 9.19,0.45 3.05,0.3 6.1,0.75 9.1,1.35 3,0.6 5.99,1.35 8.92,2.24 2.94,0.89 5.84,1.92 8.67,3.1 2.83,1.17 5.61,2.49 8.31,3.93 2.7,1.44 5.35,3.03 7.89,4.73 2.55,1.7 5.03,3.54 7.39,5.48 2.37,1.94 4.66,4.01 6.82,6.18 2.17,2.16 4.24,4.45 6.18,6.82 1.94,2.36 3.78,4.84 5.48,7.39 1.7,2.54 3.29,5.19 4.73,7.89 1.44,2.7 2.76,5.48 3.93,8.31 1.18,2.83 2.21,5.73 3.1,8.67 0.89,2.93 1.64,5.92 2.24,8.92 0.6,3 1.05,6.05 1.35,9.1 0.3,3.05 0.37,7.66 0.45,9.19 0.08,1.53 0.08,-1.53 0,0"
           stroke="#3cc1f5"
           stroke-width="4"
           fill="none"
           id="path157695" />
      </g>
    </g>
  </g>
</svg>
