<?xml version="1.0" encoding="UTF-8" standalone="no"?>
<svg
   width="62"
   height="24"
   viewBox="0 0 62 24"
   fill="none"
   version="1.1"
   id="svg31"
   sodipodi:docname="dusk-dark.svg"
   inkscape:version="1.1.1 (3bf5ae0d25, 2021-09-20)"
   xmlns:inkscape="http://www.inkscape.org/namespaces/inkscape"
   xmlns:sodipodi="http://sodipodi.sourceforge.net/DTD/sodipodi-0.dtd"
   xmlns="http://www.w3.org/2000/svg"
   xmlns:svg="http://www.w3.org/2000/svg">
  <sodipodi:namedview
     id="namedview33"
     pagecolor="#000000"
     bordercolor="#666666"
     borderopacity="1.0"
     inkscape:pageshadow="2"
     inkscape:pageopacity="0"
     inkscape:pagecheckerboard="0"
     showgrid="false"
     inkscape:zoom="11.701613"
     inkscape:cx="50.164024"
     inkscape:cy="29.824948"
     inkscape:window-width="3840"
     inkscape:window-height="2066"
     inkscape:window-x="-11"
     inkscape:window-y="-11"
     inkscape:window-maximized="1"
     inkscape:current-layer="g24" />
  <g
     clip-path="url(#clip0_2_165)"
     id="g24">
    <g
       aria-label="dusk"
       id="text2859"
       style="font-size:13.3333px;font-family:Orbitron;-inkscape-font-specification:Orbitron">
      <path
         d="m 31.439986,5.4666747 h 2.039995 V 15.733315 h -5.919985 q -0.799998,0 -1.37333,-0.573331 -0.559999,-0.573332 -0.559999,-1.359997 V 9.9333301 q 0,-0.7866647 0.559999,-1.3599965 0.573332,-0.5733319 1.37333,-0.5733319 h 3.87999 z m -3.75999,4.5733223 v 3.653324 h 3.75999 v -3.653324 z"
         style="-inkscape-font-specification:'Orbitron Heavy';fill:#ffffff"
         id="path869" />
      <path
         d="m 40.386607,8.0000017 h 2.039995 v 5.7999853 q 0,0.786665 -0.573332,1.359997 -0.559998,0.573331 -1.359996,0.573331 h -3.973323 q -0.799998,0 -1.37333,-0.573331 -0.559999,-0.573332 -0.559999,-1.359997 V 8.0000017 h 2.039995 v 5.6933193 h 3.75999 z"
         style="-inkscape-font-specification:'Orbitron Heavy';fill:#ffffff"
         id="path866" />
      <path
         d="m 51.333234,9.9333301 v 0.3866659 h -2.053328 v -0.279999 h -3.759991 v 0.799998 h 3.866657 q 0.813331,0 1.37333,0.573331 0.573332,0.559999 0.573332,1.359997 v 1.026664 q 0,0.786665 -0.573332,1.359997 -0.559999,0.573331 -1.37333,0.573331 h -3.973323 q -0.786665,0 -1.359997,-0.573331 -0.573332,-0.573332 -0.573332,-1.359997 v -0.386666 h 2.039995 v 0.28 h 3.759991 v -0.799998 h -3.866657 q -0.786665,0 -1.359997,-0.573332 Q 43.47992,11.746659 43.47992,10.959994 V 9.9333301 q 0,-0.7866647 0.573332,-1.3599965 0.573332,-0.5733319 1.359997,-0.5733319 h 3.973323 q 0.813331,0 1.37333,0.5733319 0.573332,0.5733318 0.573332,1.3599965 z"
         style="-inkscape-font-specification:'Orbitron Heavy';fill:#ffffff"
         id="path863" />
      <path
         d="m 58.079847,8.0000017 h 2.053328 v 0.6933316 l -2.879993,3.1733257 2.879993,3.173325 v 0.693331 h -2.053328 l -2.62666,-2.839992 h -1.039998 v 2.839992 H 52.373195 V 5.4666747 h 2.039994 v 5.3733203 h 1.039998 z"
         style="-inkscape-font-specification:'Orbitron Heavy';fill:#ffffff"
         id="path860" />
    </g>
    <g
       style="fill:none"
       id="g7550"
       transform="translate(0.39993385,-1.4165006)">
      <path
         style="fill:none;stroke:#f53137;stroke-width:2;stroke-linecap:butt;stroke-linejoin:miter;stroke-miterlimit:4;stroke-dasharray:none;stroke-opacity:1"
         d="M 19.926784,19.686789 C 14.619797,22.480087 9.9653095,21.577403 4.5865783,19.934211"
         id="path404"
         sodipodi:nodetypes="cc" />
      <path
         style="fill:#f53137;fill-opacity:1;stroke:#f53137;stroke-width:0.651902px;stroke-linecap:butt;stroke-linejoin:miter;stroke-opacity:1"
         d="m 14.989132,5.3410799 c 2.420811,0.189736 4.596914,0.7372811 6.541424,2.3477434 -0.423938,0.415287 -0.84612,0.9498093 -0.84612,0.9498093 C 19.198734,7.3617353 16.762338,6.7569735 15.007054,6.7748151"
         id="path2750"
         sodipodi:nodetypes="ccsc" />
      <path
         style="fill:#f53137;fill-opacity:1;stroke:#f53137;stroke-width:0.612474px;stroke-linecap:butt;stroke-linejoin:miter;stroke-opacity:1"
         d="m 16.898253,9.6731884 c 1.909768,0.9837956 3.827721,1.5499976 6.140049,1.1097496 -0.09503,-0.550794 -0.125091,-1.2013826 -0.125091,-1.2013826 -1.791513,0.37555 -3.934464,-0.265363 -5.236238,-1.1098524"
         id="path2750-1"
         sodipodi:nodetypes="ccsc" />
      <path
         id="path2635"
         clip-path="none"
         style="fill:#ffffff;stroke:#ffffff;stroke-width:0.885782;stroke-opacity:1"
         d="m 12.150391,4.8085938 a 7.2323666,7.2323666 0 0 0 -7.2324222,7.2324222 7.2323666,7.2323666 0 0 0 2.2871093,5.257812 c 3.7395339,1.049897 6.6388959,0.991377 9.9374999,-0.04687 a 7.2323666,7.2323666 0 0 0 2.240234,-5.210937 7.2323666,7.2323666 0 0 0 -7.232421,-7.2324222 z" />
      <path
         style="fill:none;stroke:#f53137;stroke-width:2;stroke-linecap:butt;stroke-linejoin:miter;stroke-miterlimit:4;stroke-dasharray:none;stroke-opacity:1"
         d="m 21.997407,15.835528 c -7.396334,3.563058 -11.308553,3.897487 -20.1512024,0.08247"
         id="path404-2"
         sodipodi:nodetypes="cc" />
      <path
         style="fill:#f53137;fill-opacity:1;stroke:none;stroke-width:1.23832px;stroke-linecap:butt;stroke-linejoin:miter;stroke-opacity:1"
         d="m 10.199659,12.105362 -0.559864,2.048481 c -2.7734342,0.04607 -3.4144709,-1.652484 -4.5231935,-2.789569 1.6728572,-0.758767 2.863736,0.580254 5.0830575,0.741088 z"
         id="path18686"
         sodipodi:nodetypes="cccc" />
      <path
         style="fill:#f53137;fill-opacity:1;stroke:none;stroke-width:1.23832px;stroke-linecap:butt;stroke-linejoin:miter;stroke-opacity:1"
         d="m 12.199659,12.105362 0.559864,2.048481 c 2.773434,0.04607 3.414471,-1.652484 4.523193,-2.789569 -1.672857,-0.758767 -2.863735,0.580254 -5.083057,0.741088 z"
         id="path19934"
         sodipodi:nodetypes="cccc" />
    </g>
  </g>
  <defs
     id="defs29">
    <clipPath
       id="clip0_2_165">
      <rect
         width="62"
         height="24"
         fill="white"
         id="rect26" />
    </clipPath>
    <inkscape:path-effect
       effect="powerclip"
       id="path-effect14166"
       is_visible="true"
       lpeversion="1"
       inverse="true"
       flatten="false"
       hide_clip="false"
       message="Use fill-rule evenodd on &lt;b&gt;fill and stroke&lt;/b&gt; dialog if no flatten result after convert clip to paths." />
  </defs>
</svg>
