<svg width="71" height="24" viewBox="0 0 71 24" fill="none" xmlns="http://www.w3.org/2000/svg">
<g clip-path="url(#clip0_2_260)">
<path d="M7.59098 2.56601C7.33395 2.46636 7.04677 2.48003 6.80036 2.60365C6.55396 2.72727 6.37132 2.9493 6.29753 3.21492L1.53564 20.3577C1.4299 20.7384 1.56402 21.1453 1.8754 21.3884C2.18679 21.6316 2.61403 21.6631 2.9577 21.4682L13.4311 15.5298L21.1566 18.6664C21.5331 18.8192 21.965 18.7228 22.2408 18.4244C22.5166 18.1259 22.5786 17.6877 22.3965 17.3244L16.9543 6.46732C16.8457 6.25068 16.6604 6.08217 16.4345 5.99458L7.59098 2.56601ZM16.2281 9.37543L19.4898 15.8825L14.5973 13.8961L16.2281 9.37543ZM14.8398 7.47031L13.1692 12.1014L9.41018 5.36527L14.8398 7.47031ZM7.54302 6.02586L12.0356 14.0766L4.04876 18.6052L7.54302 6.02586Z" fill="black" stroke="black" stroke-linejoin="round"/>
<path d="M28.268 16C27.964 16 27.688 15.924 27.44 15.772C27.192 15.62 26.992 15.42 26.84 15.172C26.688 14.924 26.612 14.648 26.612 14.344V10.696C26.612 10.392 26.688 10.116 26.84 9.868C26.992 9.62 27.192 9.42 27.44 9.268C27.688 9.116 27.964 9.04 28.268 9.04H32.024C32.328 9.04 32.604 9.116 32.852 9.268C33.108 9.42 33.308 9.62 33.452 9.868C33.604 10.116 33.68 10.392 33.68 10.696V13.312H28.184V14.284C28.184 14.324 28.196 14.36 28.22 14.392C28.252 14.416 28.288 14.428 28.328 14.428H33.68V16H28.268ZM28.184 11.896H32.108V10.756C32.108 10.716 32.092 10.684 32.06 10.66C32.036 10.628 32.004 10.612 31.964 10.612H28.328C28.288 10.612 28.252 10.628 28.22 10.66C28.196 10.684 28.184 10.716 28.184 10.756V11.896ZM36.5886 16C36.2846 16 36.0046 15.924 35.7486 15.772C35.5006 15.62 35.3006 15.42 35.1486 15.172C35.0046 14.924 34.9326 14.648 34.9326 14.344V11.728H40.4286V10.756C40.4286 10.716 40.4126 10.684 40.3806 10.66C40.3566 10.628 40.3246 10.612 40.2846 10.612H34.9326V9.04H40.3446C40.6486 9.04 40.9246 9.116 41.1726 9.268C41.4286 9.42 41.6286 9.62 41.7726 9.868C41.9246 10.116 42.0006 10.392 42.0006 10.696V16H36.5886ZM36.6486 14.428H40.4286V13.144H36.5046V14.284C36.5046 14.324 36.5166 14.36 36.5406 14.392C36.5726 14.416 36.6086 14.428 36.6486 14.428ZM43.0185 16V10.696C43.0185 10.392 43.0945 10.116 43.2465 9.868C43.3985 9.62 43.5985 9.42 43.8465 9.268C44.1025 9.116 44.3785 9.04 44.6745 9.04H48.5385V10.612H44.7345C44.6945 10.612 44.6585 10.628 44.6265 10.66C44.6025 10.684 44.5905 10.716 44.5905 10.756V16H43.0185ZM50.9321 16C50.6281 16 50.3521 15.924 50.1041 15.772C49.8561 15.62 49.6561 15.42 49.5041 15.172C49.3521 14.924 49.2761 14.648 49.2761 14.344V10.696C49.2761 10.392 49.3521 10.116 49.5041 9.868C49.6561 9.62 49.8561 9.42 50.1041 9.268C50.3521 9.116 50.6281 9.04 50.9321 9.04H56.3321V10.612H50.9921C50.9521 10.612 50.9161 10.628 50.8841 10.66C50.8601 10.684 50.8481 10.716 50.8481 10.756V14.284C50.8481 14.324 50.8601 14.36 50.8841 14.392C50.9161 14.416 50.9521 14.428 50.9921 14.428H56.3441V16H50.9321ZM59.0068 16C58.7028 16 58.4228 15.924 58.1668 15.772C57.9188 15.62 57.7188 15.42 57.5668 15.172C57.4228 14.924 57.3508 14.648 57.3508 14.344V9.04H58.9228V14.284C58.9228 14.324 58.9348 14.36 58.9588 14.392C58.9908 14.416 59.0268 14.428 59.0668 14.428H62.7028C62.7428 14.428 62.7748 14.416 62.7988 14.392C62.8308 14.36 62.8468 14.324 62.8468 14.284V9.04H64.4188V14.344C64.4188 14.648 64.3428 14.924 64.1908 15.172C64.0468 15.42 63.8508 15.62 63.6028 15.772C63.3548 15.924 63.0748 16 62.7628 16H59.0068ZM67.0928 16C66.7888 16 66.5128 15.924 66.2648 15.772C66.0168 15.62 65.8168 15.42 65.6648 15.172C65.5128 14.924 65.4368 14.648 65.4368 14.344V6.904H67.0088V9.04H69.7208V10.612H67.0088V14.284C67.0088 14.324 67.0208 14.36 67.0448 14.392C67.0768 14.416 67.1128 14.428 67.1528 14.428H69.7208V16H67.0928Z" fill="black"/>
</g>
<defs>
<clipPath id="clip0_2_260">
<rect width="71" height="24" fill="white"/>
</clipPath>
</defs>
</svg>
