<svg width="24" height="24" viewBox="0 0 24 24" fill="none" xmlns="http://www.w3.org/2000/svg">
<path fill-rule="evenodd" clip-rule="evenodd" d="M11.294 5.37654C11.7352 5.14115 12.2648 5.14115 12.706 5.37654L17.206 7.77713C17.6947 8.03785 18 8.54668 18 9.10059V14.1577C18 14.6723 17.7362 15.1511 17.301 15.4259L12.801 18.2682C12.3117 18.5773 11.6883 18.5773 11.199 18.2682L6.69897 15.4259C6.26385 15.1511 6 14.6723 6 14.1577V9.10059C6 8.54668 6.30526 8.03785 6.79398 7.77713L11.294 5.37654ZM9 11.6993L10.5 12.5658V14.2784L9 13.331V11.6993ZM13.5 14.2784L15 13.331V11.6993L13.5 12.5658V14.2784ZM12 9.96772L13.4109 9.15274L12 8.40009L10.5891 9.15274L12 9.96772Z" fill="#3CC1F5"/>
<path fill-rule="evenodd" clip-rule="evenodd" d="M11.3155 0.665274C11.7452 0.444909 12.2548 0.444909 12.6845 0.665274L21.6845 5.28066C22.1851 5.5374 22.5 6.05274 22.5 6.61538V16.6154C22.5 17.143 22.2229 17.6317 21.7701 17.9026L12.7701 23.2872C12.2959 23.5709 11.7041 23.5709 11.2299 23.2872L2.22987 17.9026C1.77715 17.6317 1.5 17.143 1.5 16.6154V6.61538C1.5 6.05274 1.81487 5.5374 2.31553 5.28066L11.3155 0.665274ZM4.5 9.15734L6.76221 10.4067L10.5 12.5658V19.3546L4.5 15.7649V9.15734ZM13.5 19.3546V12.5658L17.2378 10.4067L19.5 9.15734V15.7649L13.5 19.3546ZM17.8084 6.66443L12 3.68574L6.19155 6.66443L8.22516 7.78753L8.25029 7.80172L12 9.96773L15.7497 7.80172L15.7748 7.78753L17.8084 6.66443Z" fill="black"/>
</svg>
