<?xml version="1.0" encoding="UTF-8" standalone="no"?>
<!-- Created with Inkscape (http://www.inkscape.org/) -->

<svg
   width="400"
   height="120"
   viewBox="0 0 105.83333 31.750001"
   version="1.1"
   id="svg107616"
   inkscape:version="1.1.1 (3bf5ae0d25, 2021-09-20)"
   sodipodi:docname="ecs-full-dark.svg"
   xmlns:inkscape="http://www.inkscape.org/namespaces/inkscape"
   xmlns:sodipodi="http://sodipodi.sourceforge.net/DTD/sodipodi-0.dtd"
   xmlns="http://www.w3.org/2000/svg"
   xmlns:svg="http://www.w3.org/2000/svg">
  <sodipodi:namedview
     id="namedview107618"
     pagecolor="#000000"
     bordercolor="#666666"
     borderopacity="1.0"
     inkscape:pageshadow="2"
     inkscape:pageopacity="0"
     inkscape:pagecheckerboard="true"
     inkscape:document-units="mm"
     showgrid="true"
     units="px"
     inkscape:object-nodes="true"
     gridtolerance="10000"
     guidetolerance="10000"
     inkscape:snap-page="false"
     inkscape:snap-grids="false"
     inkscape:snap-to-guides="false"
     inkscape:snap-smooth-nodes="true"
     inkscape:snap-midpoints="true"
     inkscape:zoom="4.3994184"
     inkscape:cx="160.70306"
     inkscape:cy="128.42607"
     inkscape:window-width="3840"
     inkscape:window-height="2066"
     inkscape:window-x="-11"
     inkscape:window-y="-11"
     inkscape:window-maximized="1"
     inkscape:current-layer="layer1">
    <inkscape:grid
       type="xygrid"
       id="grid111742"
       empspacing="10"
       snapvisiblegridlinesonly="true"
       visible="true"
       enabled="true"
       dotted="true" />
    <sodipodi:guide
       position="0,31.75"
       orientation="0,400"
       id="guide113514" />
    <sodipodi:guide
       position="105.83333,31.75"
       orientation="120,0"
       id="guide113516" />
    <sodipodi:guide
       position="105.83333,0"
       orientation="0,-400"
       id="guide113518" />
    <sodipodi:guide
       position="0,0"
       orientation="-120,0"
       id="guide113520" />
  </sodipodi:namedview>
  <defs
     id="defs107613">
    <clipPath
       id="clip0_17_168">
      <rect
         width="24"
         height="24"
         fill="white"
         id="rect119280" />
    </clipPath>
  </defs>
  <g
     inkscape:label="Layer 1"
     inkscape:groupmode="layer"
     id="layer1">
    <g
       aria-label="mach
ecs"
       id="text116068"
       style="font-size:11.9944px;font-family:Orbitron;-inkscape-font-specification:Orbitron;stroke-width:0.264583">
      <path
         d="m 42.854719,4.6632231 q 0.719664,0 1.223429,0.5157592 0.515759,0.5157592 0.515759,1.2234288 V 11.619975 H 42.770758 V 6.4983663 H 40.467834 V 11.619975 H 38.620696 V 6.4983663 H 36.317771 V 11.619975 H 34.482628 V 4.6632231 Z"
         style="-inkscape-font-specification:'Orbitron Heavy';fill:#ffffff"
         id="path834" />
      <path
         d="m 51.130838,4.6632231 q 0.719664,0 1.223429,0.5157592 0.515759,0.5157592 0.515759,1.2234288 v 5.2175639 h -5.313519 q -0.719664,0 -1.235423,-0.515759 -0.503765,-0.515759 -0.503765,-1.2234289 V 7.2180303 h 5.217564 V 6.4983663 H 45.817319 V 4.6632231 Z m -0.09595,5.1216088 v -0.959552 h -3.382421 v 0.959552 z"
         style="-inkscape-font-specification:'Orbitron Heavy';fill:#ffffff"
         id="path836" />
      <path
         d="m 60.750307,6.4983663 h -5.20557 v 3.2864656 h 5.217564 v 1.8351431 h -5.313519 q -0.70767,0 -1.223429,-0.515759 -0.515759,-0.515759 -0.515759,-1.2234289 v -3.478376 q 0,-0.7076696 0.515759,-1.2234288 0.515759,-0.5157592 1.223429,-0.5157592 h 5.301525 z"
         style="-inkscape-font-specification:'Orbitron Heavy';fill:#ffffff"
         id="path838" />
      <path
         d="m 67.047349,4.6632231 q 0.707669,0 1.223429,0.5157592 0.515759,0.5157592 0.515759,1.2234288 V 11.619975 H 66.951394 V 6.4983663 H 63.568973 V 11.619975 H 61.73383 V 2.3842871 h 1.835143 v 2.278936 z"
         style="-inkscape-font-specification:'Orbitron Heavy';fill:#ffffff"
         id="path840" />
      <path
         d="m 39.760164,19.656223 q 0.719664,0 1.223429,0.515759 0.515759,0.51576 0.515759,1.223429 v 2.662757 h -5.217564 v 0.719664 h 5.217564 v 1.835143 h -5.313519 q -0.70767,0 -1.223429,-0.515759 -0.515759,-0.515759 -0.515759,-1.223429 v -3.478376 q 0,-0.707669 0.515759,-1.223429 0.515759,-0.515759 1.223429,-0.515759 z m -3.478376,2.794695 h 3.382421 v -0.959552 h -3.382421 z"
         style="-inkscape-font-specification:'Orbitron Heavy';fill:#ffffff"
         id="path842" />
      <path
         d="m 49.487597,21.491366 h -5.20557 v 3.286466 h 5.217564 v 1.835143 h -5.313519 q -0.707669,0 -1.223429,-0.515759 -0.515759,-0.515759 -0.515759,-1.223429 v -3.478376 q 0,-0.707669 0.515759,-1.223429 0.51576,-0.515759 1.223429,-0.515759 h 5.301525 z"
         style="-inkscape-font-specification:'Orbitron Heavy';fill:#ffffff"
         id="path844" />
      <path
         d="m 57.811707,21.395411 v 0.347838 h -1.847138 v -0.251883 h -3.38242 v 0.719664 h 3.478376 q 0.731658,0 1.235423,0.51576 0.515759,0.503764 0.515759,1.223428 v 0.923569 q 0,0.70767 -0.515759,1.223429 -0.503765,0.515759 -1.235423,0.515759 h -3.574332 q -0.707669,0 -1.223428,-0.515759 -0.51576,-0.515759 -0.51576,-1.223429 V 24.52595 h 1.835144 v 0.251882 h 3.38242 v -0.719664 h -3.478376 q -0.707669,0 -1.223428,-0.515759 -0.51576,-0.515759 -0.51576,-1.223429 v -0.923569 q 0,-0.707669 0.51576,-1.223429 0.515759,-0.515759 1.223428,-0.515759 h 3.574332 q 0.731658,0 1.235423,0.515759 0.515759,0.51576 0.515759,1.223429 z"
         style="-inkscape-font-specification:'Orbitron Heavy';fill:#ffffff"
         id="path846" />
    </g>
    <g
       style="fill:none"
       id="g7215"
       transform="matrix(1.1326997,0,0,1.1326997,3.5658115,2.2896499)">
      <path
         fill-rule="evenodd"
         clip-rule="evenodd"
         d="m 11.294,5.37654 c 0.4412,-0.23539 0.9708,-0.23539 1.412,0 l 4.5,2.40059 C 17.6947,8.03785 18,8.54668 18,9.10059 v 5.05711 c 0,0.5146 -0.2638,0.9934 -0.699,1.2682 l -4.5,2.8423 c -0.4893,0.3091 -1.1127,0.3091 -1.602,0 L 6.69897,15.4259 C 6.26385,15.1511 6,14.6723 6,14.1577 V 9.10059 C 6,8.54668 6.30526,8.03785 6.79398,7.77713 Z M 9,11.6993 l 1.5,0.8665 v 1.7126 L 9,13.331 Z m 4.5,2.5791 1.5,-0.9474 v -1.6317 l -1.5,0.8665 z M 12,9.96772 13.4109,9.15274 12,8.40009 10.5891,9.15274 Z"
         fill="#f53137"
         id="path7203" />
      <path
         fill-rule="evenodd"
         clip-rule="evenodd"
         d="m 11.3155,0.665274 c 0.4297,-0.220365 0.9393,-0.220365 1.369,0 l 9,4.615386 C 22.1851,5.5374 22.5,6.05274 22.5,6.61538 V 16.6154 c 0,0.5276 -0.2771,1.0163 -0.7299,1.2872 l -9,5.3846 c -0.4742,0.2837 -1.066,0.2837 -1.5402,0 L 2.22987,17.9026 C 1.77715,17.6317 1.5,17.143 1.5,16.6154 V 6.61538 C 1.5,6.05274 1.81487,5.5374 2.31553,5.28066 Z M 4.5,9.15734 6.76221,10.4067 10.5,12.5658 v 6.7888 l -6,-3.5897 z m 9,10.19726 V 12.5658 L 17.2378,10.4067 19.5,9.15734 V 15.7649 Z M 17.8084,6.66443 12,3.68574 6.19155,6.66443 8.22516,7.78753 8.25029,7.80172 12,9.96773 15.7497,7.80172 15.7748,7.78753 Z"
         fill="#ffffff"
         id="path7205" />
    </g>
  </g>
</svg>
