<?xml version="1.0" encoding="UTF-8" standalone="no"?>
<svg
   width="62"
   height="24"
   viewBox="0 0 62 24"
   fill="none"
   version="1.1"
   id="svg31"
   sodipodi:docname="flac-dark.svg"
   inkscape:version="1.1.1 (3bf5ae0d25, 2021-09-20)"
   xmlns:inkscape="http://www.inkscape.org/namespaces/inkscape"
   xmlns:sodipodi="http://sodipodi.sourceforge.net/DTD/sodipodi-0.dtd"
   xmlns="http://www.w3.org/2000/svg"
   xmlns:svg="http://www.w3.org/2000/svg">
  <sodipodi:namedview
     id="namedview33"
     pagecolor="#000000"
     bordercolor="#666666"
     borderopacity="1.0"
     inkscape:pageshadow="2"
     inkscape:pageopacity="0"
     inkscape:pagecheckerboard="0"
     showgrid="false"
     inkscape:zoom="11.701613"
     inkscape:cx="45.207443"
     inkscape:cy="28.457615"
     inkscape:window-width="3840"
     inkscape:window-height="2066"
     inkscape:window-x="-11"
     inkscape:window-y="-11"
     inkscape:window-maximized="1"
     inkscape:current-layer="g24" />
  <g
     clip-path="url(#clip0_2_165)"
     id="g24">
    <g
       aria-label="flac"
       id="text2859"
       style="font-size:13.3333px;font-family:Orbitron;-inkscape-font-specification:Orbitron">
      <path
         d="m 32.106655,9.0666614 h -2.86666 v 0.4799988 h 2.86666 v 2.0399948 h -2.86666 v 5.693319 H 27.200001 V 8.9466617 q 0,-0.7866647 0.559998,-1.3599966 0.573332,-0.5733318 1.386663,-0.5733318 h 2.959993 z"
         style="-inkscape-font-specification:'Orbitron Heavy';fill:#ffffff"
         id="path832" />
      <path
         d="m 33.319948,7 h 2.053328 v 8.239979 h 1.559996 v 2.039995 h -1.679996 q -0.786665,0 -1.359997,-0.573332 -0.573331,-0.573332 -0.573331,-1.359996 z"
         style="-inkscape-font-specification:'Orbitron Heavy';fill:#ffffff"
         id="path834" />
      <path
         d="m 43.866582,9.5466602 q 0.799998,0 1.359997,0.5733318 0.573331,0.573332 0.573331,1.359997 v 5.799985 h -5.906651 q -0.799998,0 -1.37333,-0.573332 Q 37.95993,16.13331 37.95993,15.346646 v -2.959993 h 5.799986 V 11.586655 H 37.95993 V 9.5466602 Z m -0.106666,5.6933188 v -1.066664 h -3.759991 v 1.066664 z"
         style="-inkscape-font-specification:'Orbitron Heavy';fill:#ffffff"
         id="path836" />
      <path
         d="m 54.559843,11.586655 h -5.786652 v 3.653324 h 5.799985 v 2.039995 h -5.906651 q -0.786665,0 -1.359997,-0.573332 -0.573332,-0.573332 -0.573332,-1.359996 v -3.866657 q 0,-0.786665 0.573332,-1.359997 0.573332,-0.5733318 1.359997,-0.5733318 h 5.893318 z"
         style="-inkscape-font-specification:'Orbitron Heavy';fill:#ffffff"
         id="path838" />
    </g>
    <g
       style="fill:none"
       id="g16490"
       transform="translate(0.91251857)">
      <g
         id="g1073"
         transform="translate(-0.4125186,0.48474333)">
        <path
           style="fill:none;stroke:#f53137;stroke-width:3.77224;stroke-linecap:butt;stroke-linejoin:miter;stroke-miterlimit:4;stroke-dasharray:none;stroke-opacity:1"
           d="m 3.8861042,2.007719 c 0.077774,19.003768 0,0 0.077774,19.003768"
           id="path404-2"
           sodipodi:nodetypes="cc" />
        <path
           style="fill:none;stroke:#f53137;stroke-width:3.77224;stroke-linecap:butt;stroke-linejoin:miter;stroke-miterlimit:4;stroke-dasharray:none;stroke-opacity:1"
           d="M 9.544457,7.5508536 9.622231,21.011487"
           id="path21575"
           sodipodi:nodetypes="cc" />
        <path
           style="fill:none;stroke:#f53137;stroke-width:3.77224;stroke-linecap:butt;stroke-linejoin:miter;stroke-miterlimit:4;stroke-dasharray:none;stroke-opacity:1"
           d="m 15.20281,13.302377 0.07777,7.70911"
           id="path21866"
           sodipodi:nodetypes="cc" />
        <path
           style="fill:none;stroke:#f53137;stroke-width:3.77224;stroke-linecap:butt;stroke-linejoin:miter;stroke-miterlimit:4;stroke-dasharray:none;stroke-opacity:1"
           d="m 20.861163,2.007719 c 0.07777,19.003768 0,0 0.07777,19.003768"
           id="path1067"
           sodipodi:nodetypes="cc" />
      </g>
    </g>
  </g>
  <defs
     id="defs29">
    <clipPath
       id="clip0_2_165">
      <rect
         width="62"
         height="24"
         fill="white"
         id="rect26" />
    </clipPath>
    <inkscape:path-effect
       effect="powerclip"
       id="path-effect14166"
       is_visible="true"
       lpeversion="1"
       inverse="true"
       flatten="false"
       hide_clip="false"
       message="Use fill-rule evenodd on &lt;b&gt;fill and stroke&lt;/b&gt; dialog if no flatten result after convert clip to paths." />
  </defs>
</svg>
