<svg width="24" height="24" viewBox="0 0 24 24" fill="none" xmlns="http://www.w3.org/2000/svg">
<g clip-path="url(#clip0_45_53)">
<path d="M14.5 3.5H2.5C1.94772 3.5 1.5 3.94771 1.5 4.5V4.80769C1.5 5.35998 1.94772 5.80769 2.5 5.80769L3.66667 5.80769V19.1923H2.5C1.94772 19.1923 1.5 19.64 1.5 20.1923V20.5C1.5 21.0523 1.94771 21.5 2.5 21.5H8.72222C9.27451 21.5 9.72222 21.0523 9.72222 20.5V20.1923C9.72222 19.64 9.27451 19.1923 8.72222 19.1923H6.83333V13.6538L10.1667 13.6538V14.6154C10.1667 15.1677 10.6144 15.6154 11.1667 15.6154H11.6111C12.1634 15.6154 12.6111 15.1677 12.6111 14.6154V10.3846C12.6111 9.83233 12.1634 9.38462 11.6111 9.38462H11.1667C10.6144 9.38462 10.1667 9.83233 10.1667 10.3846V11.3462L6.83333 11.3462L6.83333 5.80769L13.0556 5.80769V7.42308C13.0556 7.97536 13.5033 8.42308 14.0556 8.42308H14.5C15.0523 8.42308 15.5 7.97536 15.5 7.42308V4.5C15.5 3.94771 15.0523 3.5 14.5 3.5Z" fill="black" stroke="black" stroke-linejoin="round"/>
<path d="M15.5795 13.2102V12.2727H22.125V13.2102H19.3807V21H18.3239V13.2102H15.5795Z" fill="black"/>
<path d="M15.5795 13.2102H14.5795C14.5795 13.7625 15.0273 14.2102 15.5795 14.2102V13.2102ZM15.5795 12.2727V11.2727C15.0273 11.2727 14.5795 11.7204 14.5795 12.2727H15.5795ZM22.125 12.2727H23.125C23.125 11.7204 22.6773 11.2727 22.125 11.2727V12.2727ZM22.125 13.2102V14.2102C22.6773 14.2102 23.125 13.7625 23.125 13.2102H22.125ZM19.3807 13.2102V12.2102C18.8284 12.2102 18.3807 12.6579 18.3807 13.2102H19.3807ZM19.3807 21V22C19.933 22 20.3807 21.5523 20.3807 21H19.3807ZM18.3239 21H17.3239C17.3239 21.5523 17.7716 22 18.3239 22V21ZM18.3239 13.2102H19.3239C19.3239 12.6579 18.8761 12.2102 18.3239 12.2102V13.2102ZM16.5795 13.2102V12.2727H14.5795V13.2102H16.5795ZM15.5795 13.2727H22.125V11.2727H15.5795V13.2727ZM21.125 12.2727V13.2102H23.125V12.2727H21.125ZM22.125 12.2102H19.3807V14.2102H22.125V12.2102ZM18.3807 13.2102V21H20.3807V13.2102H18.3807ZM19.3807 20H18.3239V22H19.3807V20ZM19.3239 21V13.2102H17.3239V21H19.3239ZM18.3239 12.2102H15.5795V14.2102H18.3239V12.2102Z" fill="black"/>
</g>
<defs>
<clipPath id="clip0_45_53">
<rect width="24" height="24" fill="white"/>
</clipPath>
</defs>
</svg>
