<?xml version="1.0" encoding="UTF-8" standalone="no"?>
<!-- Created with Inkscape (http://www.inkscape.org/) -->

<svg
   width="400"
   height="120"
   viewBox="0 0 105.83333 31.750001"
   version="1.1"
   id="svg107616"
   inkscape:version="1.1.1 (3bf5ae0d25, 2021-09-20)"
   sodipodi:docname="freetype-full-light.svg"
   xmlns:inkscape="http://www.inkscape.org/namespaces/inkscape"
   xmlns:sodipodi="http://sodipodi.sourceforge.net/DTD/sodipodi-0.dtd"
   xmlns="http://www.w3.org/2000/svg"
   xmlns:svg="http://www.w3.org/2000/svg">
  <sodipodi:namedview
     id="namedview107618"
     pagecolor="#ffffff"
     bordercolor="#666666"
     borderopacity="1.0"
     inkscape:pageshadow="2"
     inkscape:pageopacity="0"
     inkscape:pagecheckerboard="true"
     inkscape:document-units="mm"
     showgrid="true"
     units="px"
     inkscape:object-nodes="true"
     gridtolerance="10000"
     guidetolerance="10000"
     inkscape:snap-page="false"
     inkscape:snap-grids="false"
     inkscape:snap-to-guides="false"
     inkscape:snap-smooth-nodes="true"
     inkscape:snap-midpoints="true"
     inkscape:zoom="4.3994184"
     inkscape:cx="157.74812"
     inkscape:cy="148.42871"
     inkscape:window-width="3840"
     inkscape:window-height="2066"
     inkscape:window-x="-11"
     inkscape:window-y="-11"
     inkscape:window-maximized="1"
     inkscape:current-layer="layer1">
    <inkscape:grid
       type="xygrid"
       id="grid111742"
       empspacing="10"
       snapvisiblegridlinesonly="true"
       visible="true"
       enabled="true"
       dotted="true" />
    <sodipodi:guide
       position="0,31.75"
       orientation="0,400"
       id="guide113514" />
    <sodipodi:guide
       position="105.83333,31.75"
       orientation="120,0"
       id="guide113516" />
    <sodipodi:guide
       position="105.83333,0"
       orientation="0,-400"
       id="guide113518" />
    <sodipodi:guide
       position="0,0"
       orientation="-120,0"
       id="guide113520" />
  </sodipodi:namedview>
  <defs
     id="defs107613">
    <clipPath
       id="clip0_17_168">
      <rect
         width="24"
         height="24"
         fill="white"
         id="rect119280" />
    </clipPath>
    <clipPath
       id="clip0_45_53">
      <rect
         width="24"
         height="24"
         fill="white"
         id="rect132054" />
    </clipPath>
  </defs>
  <g
     inkscape:label="Layer 1"
     inkscape:groupmode="layer"
     id="layer1">
    <g
       aria-label="mach
freetype"
       id="text116068"
       style="font-size:11.9944px;font-family:Orbitron;-inkscape-font-specification:Orbitron;stroke-width:0.264583">
      <path
         d="m 42.854719,4.6632231 q 0.719664,0 1.223429,0.5157592 0.515759,0.5157592 0.515759,1.2234288 V 11.619975 H 42.770758 V 6.4983663 H 40.467834 V 11.619975 H 38.620696 V 6.4983663 H 36.317771 V 11.619975 H 34.482628 V 4.6632231 Z"
         style="-inkscape-font-specification:'Orbitron Heavy'"
         id="path838" />
      <path
         d="m 51.130838,4.6632231 q 0.719664,0 1.223429,0.5157592 0.515759,0.5157592 0.515759,1.2234288 v 5.2175639 h -5.313519 q -0.719664,0 -1.235423,-0.515759 -0.503765,-0.515759 -0.503765,-1.2234289 V 7.2180303 h 5.217564 V 6.4983663 H 45.817319 V 4.6632231 Z m -0.09595,5.1216088 v -0.959552 h -3.382421 v 0.959552 z"
         style="-inkscape-font-specification:'Orbitron Heavy'"
         id="path840" />
      <path
         d="m 60.750307,6.4983663 h -5.20557 v 3.2864656 h 5.217564 v 1.8351431 h -5.313519 q -0.70767,0 -1.223429,-0.515759 -0.515759,-0.515759 -0.515759,-1.2234289 v -3.478376 q 0,-0.7076696 0.515759,-1.2234288 0.515759,-0.5157592 1.223429,-0.5157592 h 5.301525 z"
         style="-inkscape-font-specification:'Orbitron Heavy'"
         id="path842" />
      <path
         d="m 67.047349,4.6632231 q 0.707669,0 1.223429,0.5157592 0.515759,0.5157592 0.515759,1.2234288 V 11.619975 H 66.951394 V 6.4983663 H 63.568973 V 11.619975 H 61.73383 V 2.3842871 h 1.835143 v 2.278936 z"
         style="-inkscape-font-specification:'Orbitron Heavy'"
         id="path844" />
      <path
         d="m 38.884573,19.224425 h -2.578796 v 0.431798 h 2.578796 v 1.835143 h -2.578796 v 5.121609 h -1.835143 v -7.4965 q 0,-0.707669 0.503764,-1.223429 0.51576,-0.515759 1.247418,-0.515759 h 2.662757 z"
         style="-inkscape-font-specification:'Orbitron Heavy'"
         id="path846" />
      <path
         d="m 41.487341,19.656223 h 3.838208 v 1.835143 h -3.754247 v 5.121609 h -1.835143 v -5.217564 q 0,-0.707669 0.515759,-1.223429 0.515759,-0.515759 1.235423,-0.515759 z"
         style="-inkscape-font-specification:'Orbitron Heavy'"
         id="path848" />
      <path
         d="m 51.466651,19.656223 q 0.719664,0 1.223429,0.515759 0.515759,0.51576 0.515759,1.223429 v 2.662757 h -5.217564 v 0.719664 h 5.217564 v 1.835143 H 47.89232 q -0.70767,0 -1.223429,-0.515759 -0.515759,-0.515759 -0.515759,-1.223429 v -3.478376 q 0,-0.707669 0.515759,-1.223429 0.515759,-0.515759 1.223429,-0.515759 z m -3.478376,2.794695 h 3.382421 v -0.959552 h -3.382421 z"
         style="-inkscape-font-specification:'Orbitron Heavy'"
         id="path850" />
      <path
         d="m 59.46689,19.656223 q 0.719664,0 1.223429,0.515759 0.515759,0.51576 0.515759,1.223429 v 2.662757 h -5.217564 v 0.719664 h 5.217564 v 1.835143 h -5.313519 q -0.70767,0 -1.223429,-0.515759 -0.515759,-0.515759 -0.515759,-1.223429 v -3.478376 q 0,-0.707669 0.515759,-1.223429 0.515759,-0.515759 1.223429,-0.515759 z m -3.478376,2.794695 h 3.382421 v -0.959552 h -3.382421 z"
         style="-inkscape-font-specification:'Orbitron Heavy'"
         id="path852" />
      <path
         d="M 66.891416,21.491366 H 64.31262 v 3.286466 h 2.578796 v 1.835143 H 64.22866 q -0.731659,0 -1.247418,-0.515759 -0.503765,-0.515759 -0.503765,-1.223429 v -7.280601 h 1.835143 v 2.063037 h 2.578796 z"
         style="-inkscape-font-specification:'Orbitron Heavy'"
         id="path854" />
      <path
         d="m 74.939621,27.368622 q 0,0.719664 -0.515759,1.223429 -0.503765,0.515759 -1.223429,0.515759 h -4.222029 v -1.847137 h 4.126074 v -0.647698 h -3.478376 q -0.719664,0 -1.235423,-0.515759 -0.515759,-0.515759 -0.515759,-1.223429 v -5.193575 h 1.835143 v 5.09762 h 3.394415 v -5.09762 h 1.835143 z"
         style="-inkscape-font-specification:'Orbitron Heavy'"
         id="path856" />
      <path
         d="m 81.428578,19.656223 q 0.719664,0 1.223429,0.515759 0.515759,0.51576 0.515759,1.223429 v 3.478376 q 0,0.70767 -0.515759,1.223429 -0.503765,0.515759 -1.223429,0.515759 h -3.478376 v 2.758712 h -1.835143 v -9.715464 z m -3.478376,1.835143 v 3.286466 h 3.382421 v -3.286466 z"
         style="-inkscape-font-specification:'Orbitron Heavy'"
         id="path858" />
      <path
         d="m 89.356874,19.656223 q 0.719664,0 1.223429,0.515759 0.515759,0.51576 0.515759,1.223429 v 2.662757 h -5.217564 v 0.719664 h 5.217564 v 1.835143 h -5.313519 q -0.70767,0 -1.223429,-0.515759 -0.515759,-0.515759 -0.515759,-1.223429 v -3.478376 q 0,-0.707669 0.515759,-1.223429 0.515759,-0.515759 1.223429,-0.515759 z m -3.478376,2.794695 h 3.382421 v -0.959552 h -3.382421 z"
         style="-inkscape-font-specification:'Orbitron Heavy'"
         id="path860" />
    </g>
    <g
       style="fill:none"
       id="g132069"
       transform="matrix(1.0739702,0,0,1.0739702,4.2028731,2.6094119)">
      <g
         clip-path="url(#clip0_45_53)"
         id="g132052">
        <path
           d="m 14.5,3.5 h -12 c -0.55228,0 -1,0.44771 -1,1 v 0.30769 c 0,0.55229 0.44772,1 1,1 H 3.66667 V 19.1923 H 2.5 c -0.55228,0 -1,0.4477 -1,1 V 20.5 c 0,0.5523 0.44771,1 1,1 h 6.22222 c 0.55229,0 1,-0.4477 1,-1 v -0.3077 c 0,-0.5523 -0.44771,-1 -1,-1 H 6.83333 v -5.5385 h 3.33337 v 0.9616 c 0,0.5523 0.4477,1 1,1 h 0.4444 c 0.5523,0 1,-0.4477 1,-1 v -4.2308 c 0,-0.55227 -0.4477,-0.99998 -1,-0.99998 h -0.4444 c -0.5523,0 -1,0.44771 -1,0.99998 v 0.9616 H 6.83333 V 5.80769 h 6.22227 v 1.61539 c 0,0.55228 0.4477,1 1,1 H 14.5 c 0.5523,0 1,-0.44772 1,-1 V 4.5 c 0,-0.55229 -0.4477,-1 -1,-1 z"
           fill="#000000"
           stroke="#000000"
           stroke-linejoin="round"
           id="path132046" />
        <path
           d="m 15.5795,13.2102 v -0.9375 h 6.5455 v 0.9375 H 19.3807 V 21 h -1.0568 v -7.7898 z"
           fill="#000000"
           id="path132048" />
        <path
           d="m 15.5795,13.2102 h -1 c 0,0.5523 0.4478,1 1,1 z m 0,-0.9375 v -1 c -0.5522,0 -1,0.4477 -1,1 z m 6.5455,0 h 1 c 0,-0.5523 -0.4477,-1 -1,-1 z m 0,0.9375 v 1 c 0.5523,0 1,-0.4477 1,-1 z m -2.7443,0 v -1 c -0.5523,0 -1,0.4477 -1,1 z m 0,7.7898 v 1 c 0.5523,0 1,-0.4477 1,-1 z m -1.0568,0 h -1 c 0,0.5523 0.4477,1 1,1 z m 0,-7.7898 h 1 c 0,-0.5523 -0.4478,-1 -1,-1 z m -1.7444,0 v -0.9375 h -2 v 0.9375 z m -1,0.0625 h 6.5455 v -2 h -6.5455 z m 5.5455,-1 v 0.9375 h 2 v -0.9375 z m 1,-0.0625 h -2.7443 v 2 h 2.7443 z m -3.7443,1 V 21 h 2 v -7.7898 z m 1,6.7898 h -1.0568 v 2 h 1.0568 z m -0.0568,1 v -7.7898 h -2 V 21 Z m -1,-8.7898 h -2.7444 v 2 h 2.7444 z"
           fill="#000000"
           id="path132050" />
      </g>
    </g>
  </g>
</svg>
