<svg width="24" height="24" viewBox="0 0 24 24" fill="none" xmlns="http://www.w3.org/2000/svg">
<path fill-rule="evenodd" clip-rule="evenodd" d="M14.9286 8.05262L14.9285 8.0525C14.7398 7.64822 14.6299 7.25952 14.587 6.8859C14.529 6.38108 14.1017 6 13.5935 6H5.88054C4.3637 6 2.45431 7.40724 1.98852 9.80281C1.59751 11.8138 1 16.0407 1 17.9768C1 18.6184 1.15266 19.4642 1.64052 20.2336C2.14691 21.0323 2.98318 21.6947 4.22384 21.95C5.36099 22.1839 6.19433 21.5769 6.73815 20.9299C7.24534 20.3264 7.65908 19.5095 8.00901 18.8185L8.03934 18.7586C8.40703 18.0329 8.71982 17.4242 9.06348 16.9865C9.40542 16.5509 9.62389 16.4821 9.76108 16.4821H10.3982C10.7217 16.4821 11.0251 16.3256 11.2128 16.0621C11.4004 15.7987 11.449 15.4607 11.3432 15.155C11.1164 14.4995 11 13.8054 11 13.1053C11 12.1342 11.3403 11.1734 11.7857 10.5789C11.7857 11.1378 11.993 11.6731 12.361 12.0676L13.0922 11.3854L12.361 12.0676C12.73 12.463 13.2299 12.6842 13.75 12.6842C14.2701 12.6842 14.77 12.463 15.139 12.0676C15.507 11.6731 15.7143 11.1377 15.7143 10.5789C15.7143 10.1474 15.6656 9.7913 15.5552 9.43965C15.4567 9.12599 15.315 8.84118 15.184 8.57783L15.184 8.57781L15.1677 8.54515C15.0931 8.39508 15.0147 8.23724 14.9286 8.05262Z" fill="white"/>
<path d="M16.9915 2.90828C16.958 2.7287 16.8292 2.58169 16.6556 2.52483C16.482 2.46798 16.2912 2.51032 16.158 2.63529C15.2537 3.48335 14.5857 4.36263 14.2692 5.3049C13.9463 6.26618 14.0032 7.25224 14.4755 8.2641C14.5569 8.43852 14.6344 8.59391 14.7066 8.73851C15.0071 9.34033 15.2143 9.75541 15.2143 10.5789C15.2143 11.0154 15.0522 11.4277 14.7734 11.7265C14.4957 12.0241 14.1267 12.1842 13.75 12.1842C13.3733 12.1842 13.0043 12.0241 12.7266 11.7265C12.4478 11.4277 12.2857 11.0154 12.2857 10.5789C12.2857 10.3637 12.148 10.1726 11.9437 10.1046C11.7395 10.0365 11.5147 10.1069 11.3856 10.2791C10.8714 10.9653 10.5 12.0328 10.5 13.1053C10.5 13.9404 10.6534 14.7681 10.9523 15.5413C11.2511 16.3146 11.69 17.0194 12.2453 17.6146C12.8007 18.2098 13.462 18.684 14.1924 19.0083C14.9228 19.3326 15.7071 19.5 16.5 19.5C17.2929 19.5 18.0772 19.3326 18.8076 19.0083C19.538 18.684 20.1993 18.2098 20.7547 17.6146C21.31 17.0194 21.7489 16.3146 22.0477 15.5413C22.3466 14.7681 22.5 13.9404 22.5 13.1053C22.5 11.2497 21.6296 9.51855 19.9683 8.09411C18.4836 6.82105 17.3635 4.90161 16.9915 2.90828Z" fill="#F53137" stroke="#F53137" stroke-linecap="round" stroke-linejoin="round"/>
<path d="M6.5 9V14M4 11.5H9" stroke="black" stroke-width="2"/>
</svg>
