<svg width="100" height="24" viewBox="0 0 100 24" fill="none" xmlns="http://www.w3.org/2000/svg">
<path fill-rule="evenodd" clip-rule="evenodd" d="M15.1677 8.54515C15.0931 8.39508 15.0147 8.23724 14.9286 8.05262C14.7399 7.64834 14.6299 7.25952 14.587 6.8859C14.529 6.38108 14.1017 6 13.5935 6H5.88054C4.3637 6 2.45431 7.40724 1.98852 9.80281C1.59751 11.8138 1 16.0407 1 17.9768C1 18.6184 1.15266 19.4642 1.64052 20.2336C2.14691 21.0323 2.98318 21.6947 4.22384 21.95C5.36099 22.1839 6.19433 21.5769 6.73815 20.9299C7.24534 20.3264 7.65908 19.5095 8.00901 18.8185L8.03934 18.7586C8.40703 18.0329 8.71982 17.4242 9.06348 16.9865C9.40542 16.5509 9.62389 16.4821 9.76108 16.4821H10.3982C10.7217 16.4821 11.0251 16.3256 11.2128 16.0621C11.4004 15.7987 11.449 15.4607 11.3432 15.155C11.1164 14.4995 11 13.8054 11 13.1053C11 12.1342 11.3403 11.1734 11.7857 10.5789C11.7857 11.1378 11.993 11.6731 12.361 12.0676C12.73 12.463 13.2299 12.6842 13.75 12.6842C14.2701 12.6842 14.77 12.463 15.139 12.0676C15.507 11.6731 15.7143 11.1377 15.7143 10.5789C15.7143 10.1474 15.6656 9.7913 15.5552 9.43965C15.4567 9.12599 15.315 8.84118 15.184 8.57783L15.184 8.57783L15.184 8.57781L15.1677 8.54515Z" fill="white"/>
<path d="M16.9915 2.90828C16.958 2.7287 16.8292 2.58169 16.6556 2.52483C16.482 2.46798 16.2912 2.51032 16.158 2.63529C15.2537 3.48335 14.5857 4.36263 14.2692 5.3049C13.9463 6.26618 14.0032 7.25224 14.4755 8.2641C14.5569 8.43852 14.6344 8.59391 14.7066 8.73851C15.0071 9.34033 15.2143 9.75541 15.2143 10.5789C15.2143 11.0154 15.0522 11.4277 14.7734 11.7265C14.4957 12.0241 14.1267 12.1842 13.75 12.1842C13.3733 12.1842 13.0043 12.0241 12.7266 11.7265C12.4478 11.4277 12.2857 11.0154 12.2857 10.5789C12.2857 10.3637 12.148 10.1726 11.9437 10.1046C11.7395 10.0365 11.5147 10.1069 11.3856 10.2791C10.8714 10.9653 10.5 12.0328 10.5 13.1053C10.5 13.9404 10.6534 14.7681 10.9523 15.5413C11.2511 16.3146 11.69 17.0194 12.2453 17.6146C12.8007 18.2098 13.462 18.684 14.1924 19.0083C14.9228 19.3326 15.7071 19.5 16.5 19.5C17.2929 19.5 18.0772 19.3326 18.8076 19.0083C19.538 18.684 20.1993 18.2098 20.7547 17.6146C21.31 17.0194 21.7489 16.3146 22.0477 15.5413C22.3466 14.7681 22.5 13.9404 22.5 13.1053C22.5 11.2497 21.6296 9.51855 19.9683 8.09411C18.4836 6.82105 17.3635 4.90161 16.9915 2.90828Z" fill="#F53137" stroke="#F53137" stroke-linecap="round" stroke-linejoin="round"/>
<path d="M6.5 9V14M4 11.5H9" stroke="black" stroke-width="2"/>
<path d="M27.679 17.6612V16.0552H31.9252C31.9657 16.0552 31.9982 16.0389 32.0225 16.0065C32.0549 15.9822 32.0712 15.9497 32.0712 15.9092V14.875H28.1778C27.8777 14.875 27.5979 14.7979 27.3383 14.6438C27.0869 14.4897 26.8841 14.2869 26.73 14.0355C26.5759 13.7841 26.4988 13.5042 26.4988 13.196V9.49733C26.4988 9.18911 26.5759 8.90928 26.73 8.65783C26.8841 8.40639 27.0869 8.20361 27.3383 8.0495C27.5979 7.89539 27.8777 7.81833 28.1778 7.81833H31.9982C32.3064 7.81833 32.5862 7.89539 32.8377 8.0495C33.0891 8.20361 33.2878 8.40639 33.4338 8.65783C33.5879 8.90928 33.665 9.18911 33.665 9.49733V15.9822C33.665 16.2985 33.592 16.5824 33.446 16.8338C33.3 17.0853 33.0972 17.284 32.8377 17.43C32.5862 17.5841 32.3064 17.6612 31.9982 17.6612H27.679ZM28.2387 13.2812H31.9252C31.9657 13.2812 31.9982 13.269 32.0225 13.2447C32.0549 13.2122 32.0712 13.1757 32.0712 13.1352V9.55817C32.0712 9.51761 32.0549 9.48517 32.0225 9.46083C31.9982 9.42839 31.9657 9.41217 31.9252 9.41217H28.2387C28.1981 9.41217 28.1616 9.42839 28.1292 9.46083C28.1048 9.48517 28.0927 9.51761 28.0927 9.55817V13.1352C28.0927 13.1757 28.1048 13.2122 28.1292 13.2447C28.1616 13.269 28.1981 13.2812 28.2387 13.2812ZM36.3555 14.875C36.0472 14.875 35.7633 14.7979 35.5038 14.6438C35.2523 14.4897 35.0496 14.2869 34.8954 14.0355C34.7494 13.7841 34.6764 13.5042 34.6764 13.196V10.5437H40.2488V9.55817C40.2488 9.51761 40.2326 9.48517 40.2001 9.46083C40.1758 9.42839 40.1433 9.41217 40.1028 9.41217H34.6764V7.81833H40.1636C40.4718 7.81833 40.7517 7.89539 41.0031 8.0495C41.2627 8.20361 41.4655 8.40639 41.6115 8.65783C41.7656 8.90928 41.8426 9.18911 41.8426 9.49733V14.875H36.3555ZM36.4163 13.2812H40.2488V11.9793H36.2703V13.1352C36.2703 13.1757 36.2825 13.2122 36.3068 13.2447C36.3392 13.269 36.3757 13.2812 36.4163 13.2812ZM42.8396 14.875V7.81833H51.5875C51.9038 7.81833 52.1877 7.89539 52.4391 8.0495C52.6906 8.20361 52.8893 8.40639 53.0353 8.65783C53.1894 8.90928 53.2665 9.18911 53.2665 9.49733V14.875H51.6848V9.55817C51.6848 9.51761 51.6686 9.48517 51.6361 9.46083C51.6037 9.42839 51.5672 9.41217 51.5266 9.41217H49.0081C48.9676 9.41217 48.9311 9.42839 48.8986 9.46083C48.8743 9.48517 48.8621 9.51761 48.8621 9.55817V14.875H47.2561V9.55817C47.2561 9.51761 47.2399 9.48517 47.2075 9.46083C47.1831 9.42839 47.1507 9.41217 47.1101 9.41217H44.5795C44.5389 9.41217 44.5024 9.42839 44.47 9.46083C44.4456 9.48517 44.4335 9.51761 44.4335 9.55817V14.875H42.8396ZM56.0428 14.875C55.7346 14.875 55.4548 14.7979 55.2033 14.6438C54.9519 14.4897 54.7491 14.2869 54.595 14.0355C54.4409 13.7841 54.3638 13.5042 54.3638 13.196V9.49733C54.3638 9.18911 54.4409 8.90928 54.595 8.65783C54.7491 8.40639 54.9519 8.20361 55.2033 8.0495C55.4548 7.89539 55.7346 7.81833 56.0428 7.81833H59.851C60.1592 7.81833 60.4391 7.89539 60.6905 8.0495C60.9501 8.20361 61.1528 8.40639 61.2988 8.65783C61.4529 8.90928 61.53 9.18911 61.53 9.49733V12.1497H55.9577V13.1352C55.9577 13.1757 55.9698 13.2122 55.9942 13.2447C56.0266 13.269 56.0631 13.2812 56.1037 13.2812H61.53V14.875H56.0428ZM55.9577 10.714H59.9362V9.55817C59.9362 9.51761 59.9199 9.48517 59.8875 9.46083C59.8632 9.42839 59.8307 9.41217 59.7902 9.41217H56.1037C56.0631 9.41217 56.0266 9.42839 55.9942 9.46083C55.9698 9.48517 55.9577 9.51761 55.9577 9.55817V10.714ZM62.8243 14.875V7.81833H71.5722C71.8885 7.81833 72.1724 7.89539 72.4238 8.0495C72.6753 8.20361 72.874 8.40639 73.02 8.65783C73.1741 8.90928 73.2512 9.18911 73.2512 9.49733V14.875H71.6695V9.55817C71.6695 9.51761 71.6533 9.48517 71.6208 9.46083C71.5884 9.42839 71.5519 9.41217 71.5113 9.41217H68.9928C68.9523 9.41217 68.9158 9.42839 68.8833 9.46083C68.859 9.48517 68.8468 9.51761 68.8468 9.55817V14.875H67.2408V9.55817C67.2408 9.51761 67.2246 9.48517 67.1922 9.46083C67.1678 9.42839 67.1354 9.41217 67.0948 9.41217H64.5642C64.5236 9.41217 64.4871 9.42839 64.4547 9.46083C64.4303 9.48517 64.4182 9.51761 64.4182 9.55817V14.875H62.8243ZM76.3602 14.875C76.052 14.875 75.7722 14.7979 75.5207 14.6438C75.2693 14.4897 75.0665 14.2869 74.9124 14.0355C74.7583 13.7841 74.6812 13.5042 74.6812 13.196V9.49733C74.6812 9.18911 74.7583 8.90928 74.9124 8.65783C75.0665 8.40639 75.2693 8.20361 75.5207 8.0495C75.7722 7.89539 76.052 7.81833 76.3602 7.81833H80.1684C80.4766 7.81833 80.7564 7.89539 81.0079 8.0495C81.2674 8.20361 81.4702 8.40639 81.6162 8.65783C81.7703 8.90928 81.8474 9.18911 81.8474 9.49733V13.196C81.8474 13.5042 81.7703 13.7841 81.6162 14.0355C81.4702 14.2869 81.2715 14.4897 81.02 14.6438C80.7686 14.7979 80.4847 14.875 80.1684 14.875H76.3602ZM76.421 13.2812H80.1075C80.1481 13.2812 80.1805 13.269 80.2049 13.2447C80.2373 13.2122 80.2535 13.1757 80.2535 13.1352V9.55817C80.2535 9.51761 80.2373 9.48517 80.2049 9.46083C80.1805 9.42839 80.1481 9.41217 80.1075 9.41217H76.421C76.3805 9.41217 76.344 9.42839 76.3115 9.46083C76.2872 9.48517 76.275 9.51761 76.275 9.55817V13.1352C76.275 13.1757 76.2872 13.2122 76.3115 13.2447C76.344 13.269 76.3805 13.2812 76.421 13.2812ZM84.4435 14.875C84.1272 14.875 83.8433 14.7979 83.5919 14.6438C83.3404 14.4897 83.1376 14.2869 82.9835 14.0355C82.8375 13.7841 82.7645 13.5042 82.7645 13.196V9.49733C82.7645 9.18911 82.8375 8.90928 82.9835 8.65783C83.1376 8.40639 83.3404 8.20361 83.5919 8.0495C83.8433 7.89539 84.1272 7.81833 84.4435 7.81833H88.349V5.50667H89.9429V14.875H84.4435ZM84.5165 13.2812H88.203C88.2436 13.2812 88.276 13.269 88.3004 13.2447C88.3328 13.2122 88.349 13.1757 88.349 13.1352V9.55817C88.349 9.51761 88.3328 9.48517 88.3004 9.46083C88.276 9.42839 88.2436 9.41217 88.203 9.41217H84.5165C84.476 9.41217 84.4395 9.42839 84.407 9.46083C84.3827 9.48517 84.3705 9.51761 84.3705 9.55817V13.1352C84.3705 13.1757 84.3827 13.2122 84.407 13.2447C84.4395 13.269 84.476 13.2812 84.5165 13.2812ZM92.6379 14.875C92.3297 14.875 92.0498 14.7979 91.7984 14.6438C91.5469 14.4897 91.3442 14.2869 91.19 14.0355C91.0359 13.7841 90.9589 13.5042 90.9589 13.196V9.49733C90.9589 9.18911 91.0359 8.90928 91.19 8.65783C91.3442 8.40639 91.5469 8.20361 91.7984 8.0495C92.0498 7.89539 92.3297 7.81833 92.6379 7.81833H96.446C96.7543 7.81833 97.0341 7.89539 97.2855 8.0495C97.5451 8.20361 97.7479 8.40639 97.8939 8.65783C98.048 8.90928 98.125 9.18911 98.125 9.49733V12.1497H92.5527V13.1352C92.5527 13.1757 92.5649 13.2122 92.5892 13.2447C92.6217 13.269 92.6582 13.2812 92.6987 13.2812H98.125V14.875H92.6379ZM92.5527 10.714H96.5312V9.55817C96.5312 9.51761 96.515 9.48517 96.4825 9.46083C96.4582 9.42839 96.4258 9.41217 96.3852 9.41217H92.6987C92.6582 9.41217 92.6217 9.42839 92.5892 9.46083C92.5649 9.48517 92.5527 9.51761 92.5527 9.55817V10.714Z" fill="white"/>
</svg>
