<svg width="57" height="24" viewBox="0 0 57 24" fill="none" xmlns="http://www.w3.org/2000/svg">
<g clip-path="url(#clip0_2_159)">
<path fill-rule="evenodd" clip-rule="evenodd" d="M1.5 2.95C1.5 2.42533 1.92736 2 2.45455 2H21.5455C22.0726 2 22.5 2.42533 22.5 2.95V21.05C22.5 21.5747 22.0726 22 21.5455 22H2.45455C1.92736 22 1.5 21.5747 1.5 21.05L1.5 2.95ZM20.5 20V8.25H3.5L3.5 20H20.5Z" fill="white" stroke="white"/>
<circle cx="19" cy="5" r="2" fill="#F53137"/>
<circle cx="14" cy="5" r="2" fill="#F53137"/>
<circle cx="9" cy="5" r="2" fill="#F53137"/>
<path d="M27.656 18.748V17.164H31.844C31.884 17.164 31.916 17.148 31.94 17.116C31.972 17.092 31.988 17.06 31.988 17.02V16H28.148C27.852 16 27.576 15.924 27.32 15.772C27.072 15.62 26.872 15.42 26.72 15.172C26.568 14.924 26.492 14.648 26.492 14.344V10.696C26.492 10.392 26.568 10.116 26.72 9.868C26.872 9.62 27.072 9.42 27.32 9.268C27.576 9.116 27.852 9.04 28.148 9.04H31.916C32.22 9.04 32.496 9.116 32.744 9.268C32.992 9.42 33.188 9.62 33.332 9.868C33.484 10.116 33.56 10.392 33.56 10.696V17.092C33.56 17.404 33.488 17.684 33.344 17.932C33.2 18.18 33 18.376 32.744 18.52C32.496 18.672 32.22 18.748 31.916 18.748H27.656ZM28.208 14.428H31.844C31.884 14.428 31.916 14.416 31.94 14.392C31.972 14.36 31.988 14.324 31.988 14.284V10.756C31.988 10.716 31.972 10.684 31.94 10.66C31.916 10.628 31.884 10.612 31.844 10.612H28.208C28.168 10.612 28.132 10.628 28.1 10.66C28.076 10.684 28.064 10.716 28.064 10.756V14.284C28.064 14.324 28.076 14.36 28.1 14.392C28.132 14.416 28.168 14.428 28.208 14.428ZM36.4714 16C36.1674 16 35.8914 15.924 35.6434 15.772C35.3954 15.62 35.1954 15.42 35.0434 15.172C34.8914 14.924 34.8154 14.648 34.8154 14.344V6.748H36.3994V14.284C36.3994 14.324 36.4114 14.36 36.4354 14.392C36.4674 14.416 36.5034 14.428 36.5434 14.428H37.8754V16H36.4714ZM38.8235 16V8.416C38.8235 8.112 38.8995 7.836 39.0515 7.588C39.2035 7.34 39.4035 7.14 39.6515 6.988C39.8995 6.836 40.1755 6.76 40.4795 6.76H43.1075V8.344H40.5395C40.4995 8.344 40.4635 8.36 40.4315 8.392C40.4075 8.416 40.3955 8.448 40.3955 8.488V9.04H43.1075V10.612H40.3955V16H38.8235ZM46.4998 16L43.7638 9.04H45.4318L47.1238 13.144L48.8998 9.04H50.5318L52.4278 13.168L53.9998 9.04H55.6678L53.0518 16H51.8278L49.7278 11.356L47.7238 16H46.4998Z" fill="white"/>
</g>
<defs>
<clipPath id="clip0_2_159">
<rect width="57" height="24" fill="white"/>
</clipPath>
</defs>
</svg>
