<svg width="100" height="24" viewBox="0 0 100 24" fill="none" xmlns="http://www.w3.org/2000/svg">
<path d="M23 3C20.3701 3.03651 17.6181 3.34124 15.2741 3.91958C15.6692 5.51403 15.9349 7.01687 16.0338 8.22479L16.0674 8.62624L7.71443 12L16.045 15.3659L16.0376 15.7416C16.0094 17.0877 15.6524 18.5722 15.2648 20.0745C17.6118 20.6545 20.3664 20.9634 23 21L23 3Z" fill="#F53137"/>
<path d="M13.2953 4.49435C8.43772 5.86876 5.10972 8.14848 1 12C5.10723 15.8491 8.44278 18.1318 13.2968 19.5068L13.9056 16.5069L4.72029 11.9921L13.9 7.47924L13.2953 4.49435Z" fill="white"/>
<path d="M37.1593 10.8047L43.6903 2.99761H47.3186V21.0141H43.9905V7.802L37.1593 15.9344L30.303 7.802V21.0141H27V2.99761H30.6033L37.1593 10.8047Z" fill="white"/>
<path d="M61.2853 6.49761C62.2362 6.49761 63.0453 6.83959 63.7125 7.52355C64.3965 8.19082 64.7385 8.9999 64.7385 9.95077V21.0109H53.4532C52.5023 21.0109 51.6849 20.6772 51.0009 20.01C50.3336 19.326 50 18.5086 50 17.5577V12.1027H61.4605V9.95077C61.4605 9.83399 61.4021 9.77561 61.2853 9.77561H50V6.49761H61.2853ZM61.4605 17.7329V15.4058H53.278V17.5577C53.278 17.6745 53.3364 17.7329 53.4532 17.7329H61.4605Z" fill="white"/>
<path d="M70.4532 17.7329H81.7385V21.0109H70.4532C69.5023 21.0109 68.6849 20.6772 68.0009 20.01C67.3336 19.326 67 18.5086 67 17.5577V9.95077C67 8.9999 67.3336 8.19082 68.0009 7.52355C68.6849 6.83959 69.5023 6.49761 70.4532 6.49761H81.6884V9.77561H70.4532C70.3364 9.77561 70.278 9.83399 70.278 9.95077V17.5577C70.278 17.6745 70.3364 17.7329 70.4532 17.7329Z" fill="white"/>
<path d="M94.912 6.48435C95.8461 6.48435 96.6552 6.82633 97.3392 7.51028C98.0231 8.17756 98.3651 8.98664 98.3651 9.9375V20.9976H95.0871V9.9375C95.0871 9.82073 95.0287 9.76234 94.912 9.76234H87.0798C86.963 9.76234 86.9046 9.82073 86.9046 9.9375V20.9976H83.6266V1.73H86.9046V6.48435H94.912Z" fill="white"/>
<path d="M37.1593 10.8047L43.6903 2.99761H47.3186V21.0141H43.9905V7.802L37.1593 15.9344L30.303 7.802V21.0141H27V2.99761H30.6033L37.1593 10.8047Z" fill="white"/>
<path d="M61.2853 6.49761C62.2362 6.49761 63.0453 6.83959 63.7125 7.52355C64.3965 8.19082 64.7385 8.9999 64.7385 9.95077V21.0109H53.4532C52.5023 21.0109 51.6849 20.6772 51.0009 20.01C50.3336 19.326 50 18.5086 50 17.5577V12.1027H61.4605V9.95077C61.4605 9.83399 61.4021 9.77561 61.2853 9.77561H50V6.49761H61.2853ZM61.4605 17.7329V15.4058H53.278V17.5577C53.278 17.6745 53.3364 17.7329 53.4532 17.7329H61.4605Z" fill="white"/>
<path d="M70.4532 17.7329H81.7385V21.0109H70.4532C69.5023 21.0109 68.6849 20.6772 68.0009 20.01C67.3336 19.326 67 18.5086 67 17.5577V9.95077C67 8.9999 67.3336 8.19082 68.0009 7.52355C68.6849 6.83959 69.5023 6.49761 70.4532 6.49761H81.6884V9.77561H70.4532C70.3364 9.77561 70.278 9.83399 70.278 9.95077V17.5577C70.278 17.6745 70.3364 17.7329 70.4532 17.7329Z" fill="white"/>
<path d="M94.912 6.48435C95.8461 6.48435 96.6552 6.82633 97.3392 7.51028C98.0231 8.17756 98.3651 8.98664 98.3651 9.9375V20.9976H95.0871V9.9375C95.0871 9.82073 95.0287 9.76234 94.912 9.76234H87.0798C86.963 9.76234 86.9046 9.82073 86.9046 9.9375V20.9976H83.6266V1.73H86.9046V6.48435H94.912Z" fill="white"/>
</svg>
