<?xml version="1.0" encoding="UTF-8" standalone="no"?>
<!-- Created with Inkscape (http://www.inkscape.org/) -->

<svg
   width="400"
   height="120"
   viewBox="0 0 105.83333 31.750001"
   version="1.1"
   id="svg107616"
   inkscape:version="1.1.1 (3bf5ae0d25, 2021-09-20)"
   sodipodi:docname="sysaudio-full-dark.svg"
   xmlns:inkscape="http://www.inkscape.org/namespaces/inkscape"
   xmlns:sodipodi="http://sodipodi.sourceforge.net/DTD/sodipodi-0.dtd"
   xmlns="http://www.w3.org/2000/svg"
   xmlns:svg="http://www.w3.org/2000/svg">
  <sodipodi:namedview
     id="namedview107618"
     pagecolor="#000000"
     bordercolor="#666666"
     borderopacity="1.0"
     inkscape:pageshadow="2"
     inkscape:pageopacity="0"
     inkscape:pagecheckerboard="true"
     inkscape:document-units="mm"
     showgrid="true"
     units="px"
     inkscape:object-nodes="true"
     gridtolerance="10000"
     guidetolerance="10000"
     inkscape:snap-page="false"
     inkscape:snap-grids="false"
     inkscape:snap-to-guides="false"
     inkscape:snap-smooth-nodes="true"
     inkscape:snap-midpoints="true"
     inkscape:zoom="6.2217172"
     inkscape:cx="165.06697"
     inkscape:cy="97.56149"
     inkscape:window-width="3840"
     inkscape:window-height="2066"
     inkscape:window-x="-11"
     inkscape:window-y="-11"
     inkscape:window-maximized="1"
     inkscape:current-layer="layer1">
    <inkscape:grid
       type="xygrid"
       id="grid111742"
       empspacing="10"
       snapvisiblegridlinesonly="true"
       visible="true"
       enabled="true"
       dotted="true" />
    <sodipodi:guide
       position="0,31.75"
       orientation="0,400"
       id="guide113514" />
    <sodipodi:guide
       position="105.83333,31.75"
       orientation="120,0"
       id="guide113516" />
    <sodipodi:guide
       position="105.83333,0"
       orientation="0,-400"
       id="guide113518" />
    <sodipodi:guide
       position="0,0"
       orientation="-120,0"
       id="guide113520" />
  </sodipodi:namedview>
  <defs
     id="defs107613">
    <clipPath
       id="clip0_17_168">
      <rect
         width="24"
         height="24"
         fill="white"
         id="rect119280" />
    </clipPath>
  </defs>
  <g
     inkscape:label="Layer 1"
     inkscape:groupmode="layer"
     id="layer1">
    <g
       aria-label="mach
sysaudio"
       id="text116068"
       style="font-size:11.9944px;font-family:Orbitron;-inkscape-font-specification:Orbitron;stroke-width:0.264583">
      <path
         d="m 42.854719,4.6632231 q 0.719664,0 1.223429,0.5157592 0.515759,0.5157592 0.515759,1.2234288 V 11.619975 H 42.770758 V 6.4983663 H 40.467834 V 11.619975 H 38.620696 V 6.4983663 H 36.317771 V 11.619975 H 34.482628 V 4.6632231 Z"
         style="-inkscape-font-specification:'Orbitron Heavy';fill:#ffffff"
         id="path846" />
      <path
         d="m 51.130838,4.6632231 q 0.719664,0 1.223429,0.5157592 0.515759,0.5157592 0.515759,1.2234288 v 5.2175639 h -5.313519 q -0.719664,0 -1.235423,-0.515759 -0.503765,-0.515759 -0.503765,-1.2234289 V 7.2180303 h 5.217564 V 6.4983663 H 45.817319 V 4.6632231 Z m -0.09595,5.1216088 v -0.959552 h -3.382421 v 0.959552 z"
         style="-inkscape-font-specification:'Orbitron Heavy';fill:#ffffff"
         id="path848" />
      <path
         d="m 60.750307,6.4983663 h -5.20557 v 3.2864656 h 5.217564 v 1.8351431 h -5.313519 q -0.70767,0 -1.223429,-0.515759 -0.515759,-0.515759 -0.515759,-1.2234289 v -3.478376 q 0,-0.7076696 0.515759,-1.2234288 0.515759,-0.5157592 1.223429,-0.5157592 h 5.301525 z"
         style="-inkscape-font-specification:'Orbitron Heavy';fill:#ffffff"
         id="path850" />
      <path
         d="m 67.047349,4.6632231 q 0.707669,0 1.223429,0.5157592 0.515759,0.5157592 0.515759,1.2234288 V 11.619975 H 66.951394 V 6.4983663 H 63.568973 V 11.619975 H 61.73383 V 2.3842871 h 1.835143 v 2.278936 z"
         style="-inkscape-font-specification:'Orbitron Heavy';fill:#ffffff"
         id="path852" />
      <path
         d="m 41.475363,21.395411 v 0.347838 h -1.847137 v -0.251883 h -3.382421 v 0.719664 h 3.478376 q 0.731658,0 1.235423,0.51576 0.515759,0.503764 0.515759,1.223428 v 0.923569 q 0,0.70767 -0.515759,1.223429 -0.503765,0.515759 -1.235423,0.515759 H 36.14985 q -0.70767,0 -1.223429,-0.515759 -0.515759,-0.515759 -0.515759,-1.223429 V 24.52595 h 1.835143 v 0.251882 h 3.382421 V 24.058168 H 36.14985 q -0.70767,0 -1.223429,-0.515759 -0.515759,-0.515759 -0.515759,-1.223429 v -0.923569 q 0,-0.707669 0.515759,-1.223429 0.515759,-0.515759 1.223429,-0.515759 h 3.574331 q 0.731658,0 1.235423,0.515759 0.515759,0.51576 0.515759,1.223429 z"
         style="-inkscape-font-specification:'Orbitron Heavy';fill:#ffffff"
         id="path854" />
      <path
         d="m 49.631542,27.368622 q 0,0.719664 -0.515759,1.223429 -0.503765,0.515759 -1.223429,0.515759 h -4.222028 v -1.847137 h 4.126073 v -0.647698 h -3.478376 q -0.719664,0 -1.235423,-0.515759 -0.515759,-0.515759 -0.515759,-1.223429 v -5.193575 h 1.835143 v 5.09762 h 3.394415 v -5.09762 h 1.835143 z"
         style="-inkscape-font-specification:'Orbitron Heavy';fill:#ffffff"
         id="path856" />
      <path
         d="m 57.799719,21.395411 v 0.347838 h -1.847137 v -0.251883 h -3.382421 v 0.719664 h 3.478376 q 0.731658,0 1.235423,0.51576 0.515759,0.503764 0.515759,1.223428 v 0.923569 q 0,0.70767 -0.515759,1.223429 -0.503765,0.515759 -1.235423,0.515759 h -3.574331 q -0.70767,0 -1.223429,-0.515759 -0.515759,-0.515759 -0.515759,-1.223429 V 24.52595 h 1.835143 v 0.251882 h 3.382421 v -0.719664 h -3.478376 q -0.70767,0 -1.223429,-0.515759 -0.515759,-0.515759 -0.515759,-1.223429 v -0.923569 q 0,-0.707669 0.515759,-1.223429 0.515759,-0.515759 1.223429,-0.515759 h 3.574331 q 0.731658,0 1.235423,0.515759 0.515759,0.51576 0.515759,1.223429 z"
         style="-inkscape-font-specification:'Orbitron Heavy';fill:#ffffff"
         id="path858" />
      <path
         d="m 64.32466,19.656223 q 0.719664,0 1.223429,0.515759 0.515759,0.51576 0.515759,1.223429 v 5.217564 h -5.313519 q -0.719664,0 -1.235423,-0.515759 -0.503765,-0.515759 -0.503765,-1.223429 V 22.21103 h 5.217564 v -0.719664 h -5.217564 v -1.835143 z m -0.09595,5.121609 V 23.81828 h -3.382421 v 0.959552 z"
         style="-inkscape-font-specification:'Orbitron Heavy';fill:#ffffff"
         id="path860" />
      <path
         d="m 72.564792,19.656223 h 1.835143 v 5.217564 q 0,0.70767 -0.515759,1.223429 -0.503765,0.515759 -1.223429,0.515759 h -3.574331 q -0.719664,0 -1.235423,-0.515759 -0.503765,-0.515759 -0.503765,-1.223429 v -5.217564 h 1.835143 v 5.121609 h 3.382421 z"
         style="-inkscape-font-specification:'Orbitron Heavy';fill:#ffffff"
         id="path862" />
      <path
         d="m 80.55306,17.377287 h 1.835143 v 9.235688 H 77.06269 q -0.719664,0 -1.235424,-0.515759 -0.503764,-0.515759 -0.503764,-1.223429 v -3.478376 q 0,-0.707669 0.503764,-1.223429 0.51576,-0.515759 1.235424,-0.515759 h 3.49037 z m -3.382421,4.114079 v 3.286466 h 3.382421 v -3.286466 z"
         style="-inkscape-font-specification:'Orbitron Heavy';fill:#ffffff"
         id="path864" />
      <path
         d="m 83.671602,26.612975 v -6.956752 h 1.835144 v 6.956752 z m 0,-9.235688 h 1.835144 v 1.847138 h -1.835144 z"
         style="-inkscape-font-specification:'Orbitron Heavy';fill:#ffffff"
         id="path866" />
      <path
         d="m 88.145492,19.656223 h 3.574332 q 0.719664,0 1.223428,0.515759 0.51576,0.51576 0.51576,1.223429 v 3.478376 q 0,0.70767 -0.51576,1.223429 -0.503764,0.515759 -1.223428,0.515759 h -3.574332 q -0.707669,0 -1.223428,-0.515759 -0.51576,-0.515759 -0.51576,-1.223429 v -3.478376 q 0,-0.707669 0.51576,-1.223429 0.515759,-0.515759 1.223428,-0.515759 z m 0.09596,1.835143 v 3.286466 h 3.38242 v -3.286466 z"
         style="-inkscape-font-specification:'Orbitron Heavy';fill:#ffffff"
         id="path868" />
    </g>
    <g
       style="fill:none"
       id="g21174"
       transform="matrix(1.1710787,0,0,1.1710787,4.1072618,2.8189213)">
      <path
         d="M 6.66266,1 C 6.51229,1 6.38516,1.11131 6.36529,1.26035 l -0.32,2.4 C 6.02131,3.8402 6.16122,4 6.34266,4 H 8.65735 C 8.83878,4 8.97869,3.8402 8.95471,3.66035 l -0.32,-2.4 C 8.61484,1.11131 8.48771,1 8.33735,1 Z"
         fill="#ffffff"
         id="path21126" />
      <path
         d="m 8.33734,14 c 0.15037,0 0.2775,-0.1113 0.29737,-0.2604 l 0.32,-2.4 C 8.97869,11.1598 8.83878,11 8.65734,11 H 6.34265 c -0.18143,0 -0.32134,0.1598 -0.29736,0.3396 l 0.32,2.4 C 6.38516,13.8887 6.51229,14 6.66265,14 Z"
         fill="#ffffff"
         id="path21128" />
      <path
         d="M 14,6.66266 C 14,6.51229 13.8887,6.38516 13.7396,6.36529 l -2.4,-0.32 C 11.1598,6.02131 11,6.16122 11,6.34265 v 2.3147 c 0,0.18143 0.1598,0.32134 0.3396,0.29736 l 2.4,-0.32 C 13.8887,8.61484 14,8.48771 14,8.33735 Z"
         fill="#ffffff"
         id="path21130" />
      <path
         d="m 1,8.33734 c 0,0.15037 0.11131,0.2775 0.26035,0.29737 l 2.4,0.32 C 3.8402,8.97869 4,8.83878 4,8.65735 V 6.34265 C 4,6.16122 3.8402,6.02131 3.66035,6.04529 l -2.4,0.32 C 1.11131,6.38516 1,6.51229 1,6.66265 Z"
         fill="#ffffff"
         id="path21132" />
      <path
         d="M 11.5041,2.31172 C 11.3978,2.20539 11.2292,2.1942 11.1097,2.28554 L 9.1864,3.75632 C 9.04228,3.86654 9.02821,4.07847 9.15651,4.20676 l 1.63669,1.63673 c 0.1283,0.1283 0.3403,0.11423 0.4505,-0.02989 L 12.7145,3.89027 C 12.8058,3.77083 12.7946,3.60222 12.6883,3.4959 Z"
         fill="#ffffff"
         id="path21134" />
      <path
         d="m 3.4959,12.6883 c 0.10632,0.1063 0.27492,0.1175 0.39437,0.0262 L 5.8136,11.2437 C 5.95772,11.1335 5.97179,10.9215 5.84349,10.7932 L 4.20676,9.15651 C 4.07846,9.02821 3.86653,9.04228 3.75632,9.1864 l -1.47078,1.9233 c -0.09134,0.1195 -0.08015,0.2881 0.02617,0.3944 z"
         fill="#ffffff"
         id="path21136" />
      <path
         d="m 12.6883,11.5041 c 0.1063,-0.1063 0.1175,-0.2749 0.0262,-0.3944 L 11.2437,9.1864 C 11.1335,9.04227 10.9215,9.02821 10.7932,9.1565 l -1.63669,1.6367 c -0.1283,0.1283 -0.11423,0.3403 0.02989,0.4505 l 1.9233,1.4708 c 0.1195,0.0913 0.2881,0.0801 0.3944,-0.0262 z"
         fill="#ffffff"
         id="path21138" />
      <path
         d="M 2.31171,3.49589 C 2.20539,3.60222 2.1942,3.77082 2.28554,3.89026 l 1.47078,1.92333 c 0.11021,0.14413 0.32214,0.15819 0.45044,0.0299 L 5.84349,4.20676 C 5.97179,4.07846 5.95772,3.86653 5.8136,3.75632 L 3.89027,2.28553 C 3.77083,2.1942 3.60222,2.20539 3.4959,2.31171 Z"
         fill="#ffffff"
         id="path21140" />
      <circle
         cx="7.5"
         cy="7.5"
         r="4.5"
         fill="#ffffff"
         id="circle21142" />
      <path
         d="m 4.16667,15.9627 c -0.27615,0 -0.5,-0.2239 -0.5,-0.5 v -2.9876 c 0,-0.2761 0.22385,-0.5 0.5,-0.5 h 2 v 3.9876 z"
         fill="#f53137"
         stroke="#f53137"
         id="path21144" />
      <path
         d="m 12.8333,9.02814 c 0,-0.38389 -0.4147,-0.62458 -0.748,-0.43416 L 6.16667,11.9751 v 3.9876 l 5.91563,3.4346 c 0.3333,0.1935 0.751,-0.047 0.751,-0.4324 z"
         fill="#f53137"
         stroke="#f53137"
         id="path21146" />
      <path
         d="m 14.5,16.9167 c 0,0 0.8333,-1.4584 0.8333,-2.9167 0,-1.4583 -0.8333,-2.9167 -0.8333,-2.9167"
         stroke="#ffffff"
         stroke-width="2"
         stroke-linecap="round"
         id="path21148" />
      <path
         d="m 16.4444,18.8611 c 0,0 1.3889,-2.4305 1.3889,-4.8611 0,-2.4306 -1.3889,-4.86111 -1.3889,-4.86111"
         stroke="#ffffff"
         stroke-width="2"
         stroke-linecap="round"
         id="path21150" />
      <path
         d="m 18.3889,20.8056 c 0,0 1.9444,-3.4028 1.9444,-6.8056 0,-3.4028 -1.9444,-6.80556 -1.9444,-6.80556"
         stroke="#ffffff"
         stroke-width="2"
         stroke-linecap="round"
         id="path21152" />
    </g>
  </g>
</svg>
