<?xml version="1.0" encoding="UTF-8" standalone="no"?>
<!-- Created with Inkscape (http://www.inkscape.org/) -->

<svg
   width="81"
   height="22"
   viewBox="0 0 21.431249 5.8208335"
   version="1.1"
   id="svg8058"
   inkscape:version="1.1.1 (3bf5ae0d25, 2021-09-20)"
   sodipodi:docname="sysgpu-light.svg"
   xmlns:inkscape="http://www.inkscape.org/namespaces/inkscape"
   xmlns:sodipodi="http://sodipodi.sourceforge.net/DTD/sodipodi-0.dtd"
   xmlns="http://www.w3.org/2000/svg"
   xmlns:svg="http://www.w3.org/2000/svg">
  <sodipodi:namedview
     id="namedview8060"
     pagecolor="#ffffff"
     bordercolor="#666666"
     borderopacity="1.0"
     inkscape:pageshadow="2"
     inkscape:pageopacity="0.0"
     inkscape:pagecheckerboard="0"
     inkscape:document-units="mm"
     showgrid="false"
     units="px"
     fit-margin-top="2"
     fit-margin-left="2"
     fit-margin-right="2"
     fit-margin-bottom="2"
     inkscape:zoom="24.886869"
     inkscape:cx="46.49038"
     inkscape:cy="9.7641853"
     inkscape:window-width="3840"
     inkscape:window-height="2066"
     inkscape:window-x="-11"
     inkscape:window-y="-11"
     inkscape:window-maximized="1"
     inkscape:current-layer="layer1" />
  <defs
     id="defs8055" />
  <g
     inkscape:label="Layer 1"
     inkscape:groupmode="layer"
     id="layer1"
     transform="translate(-39.61521,-61.715319)">
    <g
       style="fill:none"
       id="g3731"
       transform="matrix(0.26458333,0,0,0.26458333,39.760713,61.089393)">
      <path
         style="fill:none;stroke:#3cc1f5;stroke-width:2;stroke-linecap:butt;stroke-linejoin:miter;stroke-miterlimit:4;stroke-dasharray:none;stroke-opacity:1"
         d="M 19.926784,19.686789 C 14.619797,22.480087 9.9653095,21.577403 4.5865783,19.934211"
         id="path404"
         sodipodi:nodetypes="cc" />
      <path
         style="fill:#3cc1f5;fill-opacity:1;stroke:#3cc1f5;stroke-width:0.651902px;stroke-linecap:butt;stroke-linejoin:miter;stroke-opacity:1"
         d="m 14.989132,5.3410799 c 2.420811,0.189736 4.596914,0.7372811 6.541424,2.3477434 -0.423938,0.415287 -0.84612,0.9498093 -0.84612,0.9498093 C 19.198734,7.3617353 16.762338,6.7569735 15.007054,6.7748151"
         id="path2750"
         sodipodi:nodetypes="ccsc" />
      <path
         style="fill:#3cc1f5;fill-opacity:1;stroke:#3cc1f5;stroke-width:0.612474px;stroke-linecap:butt;stroke-linejoin:miter;stroke-opacity:1"
         d="m 16.898253,9.6731884 c 1.909768,0.9837956 3.827721,1.5499976 6.140049,1.1097496 -0.09503,-0.550794 -0.125091,-1.2013826 -0.125091,-1.2013826 -1.791513,0.37555 -3.934464,-0.265363 -5.236238,-1.1098524"
         id="path2750-1"
         sodipodi:nodetypes="ccsc" />
      <path
         id="path2635"
         clip-path="none"
         style="fill:#000000;stroke:#000000;stroke-width:0.885782;stroke-opacity:1"
         d="m 12.150391,4.8085938 a 7.2323666,7.2323666 0 0 0 -7.2324222,7.2324222 7.2323666,7.2323666 0 0 0 2.2871093,5.257812 c 3.7395339,1.049897 6.6388959,0.991377 9.9374999,-0.04687 a 7.2323666,7.2323666 0 0 0 2.240234,-5.210937 7.2323666,7.2323666 0 0 0 -7.232421,-7.2324222 z" />
      <path
         style="fill:none;stroke:#3cc1f5;stroke-width:2;stroke-linecap:butt;stroke-linejoin:miter;stroke-miterlimit:4;stroke-dasharray:none;stroke-opacity:1"
         d="m 21.997407,15.835528 c -7.396334,3.563058 -11.308553,3.897487 -20.1512024,0.08247"
         id="path404-2"
         sodipodi:nodetypes="cc" />
      <path
         style="fill:#3cc1f5;fill-opacity:1;stroke:none;stroke-width:1.23832px;stroke-linecap:butt;stroke-linejoin:miter;stroke-opacity:1"
         d="m 10.199659,12.105362 -0.559864,2.048481 c -2.7734342,0.04607 -3.4144709,-1.652484 -4.5231935,-2.789569 1.6728572,-0.758767 2.863736,0.580254 5.0830575,0.741088 z"
         id="path18686"
         sodipodi:nodetypes="cccc" />
      <path
         style="fill:#3cc1f5;fill-opacity:1;stroke:none;stroke-width:1.23832px;stroke-linecap:butt;stroke-linejoin:miter;stroke-opacity:1"
         d="m 12.199659,12.105362 0.559864,2.048481 c 2.773434,0.04607 3.414471,-1.652484 4.523193,-2.789569 -1.672857,-0.758767 -2.863735,0.580254 -5.083057,0.741088 z"
         id="path19934"
         sodipodi:nodetypes="cccc" />
    </g>
    <g
       aria-label="sysgpu"
       id="text5349"
       style="font-weight:900;font-size:3.52777px;line-height:1.25;font-family:Orbitron;-inkscape-font-specification:'Orbitron Heavy';stroke-width:0.264583">
      <path
         d="m 48.608125,64.087857 v 0.102305 h -0.543277 v -0.07408 h -0.994831 v 0.211666 h 1.023053 q 0.215194,0 0.363361,0.151694 0.151694,0.148166 0.151694,0.359833 v 0.271638 q 0,0.208138 -0.151694,0.359832 -0.148167,0.151695 -0.363361,0.151695 h -1.051275 q -0.208139,0 -0.359833,-0.151695 -0.151694,-0.151694 -0.151694,-0.359832 v -0.102305 h 0.539749 v 0.07408 h 0.994831 v -0.211666 h -1.023053 q -0.208139,0 -0.359833,-0.151695 -0.151694,-0.151694 -0.151694,-0.359832 v -0.271638 q 0,-0.208139 0.151694,-0.359833 0.151694,-0.151694 0.359833,-0.151694 h 1.051275 q 0.215194,0 0.363361,0.151694 0.151694,0.151694 0.151694,0.359833 z"
         id="path831" />
      <path
         d="m 51.007004,65.844686 q 0,0.211666 -0.151694,0.359833 -0.148166,0.151694 -0.359832,0.151694 h -1.241775 v -0.543277 h 1.213553 v -0.190499 h -1.023054 q -0.211666,0 -0.36336,-0.151695 -0.151694,-0.151694 -0.151694,-0.359832 v -1.527525 h 0.539749 v 1.499303 h 0.998359 v -1.499303 h 0.539748 z"
         id="path833" />
      <path
         d="m 53.409413,64.087857 v 0.102305 h -0.543276 v -0.07408 h -0.994831 v 0.211666 h 1.023053 q 0.215194,0 0.36336,0.151694 0.151694,0.148166 0.151694,0.359833 v 0.271638 q 0,0.208138 -0.151694,0.359832 -0.148166,0.151695 -0.36336,0.151695 h -1.051276 q -0.208138,0 -0.359832,-0.151695 -0.151694,-0.151694 -0.151694,-0.359832 v -0.102305 h 0.539749 v 0.07408 h 0.994831 v -0.211666 h -1.023054 q -0.208138,0 -0.359832,-0.151695 -0.151694,-0.151694 -0.151694,-0.359832 v -0.271638 q 0,-0.208139 0.151694,-0.359833 0.151694,-0.151694 0.359832,-0.151694 h 1.051276 q 0.215194,0 0.36336,0.151694 0.151694,0.151694 0.151694,0.359833 z"
         id="path835" />
      <path
         d="m 55.765954,65.918769 q 0,0.211666 -0.151694,0.359833 -0.148166,0.151694 -0.359833,0.151694 h -1.241775 v -0.543277 h 1.213553 v -0.264582 h -1.023053 q -0.211666,0 -0.36336,-0.151695 -0.151694,-0.151694 -0.151694,-0.359832 v -1.023053 q 0,-0.208139 0.151694,-0.359833 0.151694,-0.151694 0.36336,-0.151694 h 1.051275 q 0.211667,0 0.359833,0.151694 0.151694,0.151694 0.151694,0.359833 z m -1.538108,-1.80269 v 0.966609 h 0.998359 v -0.966609 z"
         id="path837" />
      <path
         d="m 57.706223,63.57633 q 0.211666,0 0.359832,0.151694 0.151694,0.151694 0.151694,0.359833 v 1.023053 q 0,0.208138 -0.151694,0.359832 -0.148166,0.151695 -0.359832,0.151695 h -1.023054 v 0.811387 H 56.14342 V 63.57633 Z m -1.023054,0.539749 v 0.966609 H 57.678 v -0.966609 z"
         id="path839" />
      <path
         d="m 60.01691,63.57633 h 0.539749 v 1.53458 q 0,0.208138 -0.151694,0.359832 -0.148166,0.151695 -0.359832,0.151695 h -1.051276 q -0.211666,0 -0.36336,-0.151695 Q 58.48233,65.319048 58.48233,65.11091 v -1.53458 h 0.539749 v 1.506358 h 0.994831 z"
         id="path841" />
    </g>
  </g>
</svg>
