<svg width="62" height="24" viewBox="0 0 62 24" fill="none" xmlns="http://www.w3.org/2000/svg">
<g clip-path="url(#clip0_2_226)">
<path d="M6.66266 1C6.51229 1 6.38516 1.11131 6.36529 1.26035L6.04529 3.66035C6.02131 3.8402 6.16122 4 6.34265 4L8.65735 4C8.83878 4 8.97869 3.8402 8.95471 3.66035L8.63471 1.26035C8.61484 1.11131 8.48771 1 8.33735 1L6.66266 1Z" fill="#3CC1F5"/>
<path d="M8.33734 14C8.48771 14 8.61484 13.8887 8.63471 13.7396L8.95471 11.3396C8.97869 11.1598 8.83878 11 8.65735 11L6.34265 11C6.16122 11 6.02131 11.1598 6.04529 11.3396L6.36529 13.7396C6.38516 13.8887 6.51229 14 6.66265 14L8.33734 14Z" fill="#3CC1F5"/>
<path d="M14 6.66266C14 6.51229 13.8887 6.38516 13.7396 6.36529L11.3396 6.04529C11.1598 6.02131 11 6.16122 11 6.34265L11 8.65735C11 8.83878 11.1598 8.97869 11.3396 8.95471L13.7396 8.63471C13.8887 8.61484 14 8.48771 14 8.33735L14 6.66266Z" fill="#3CC1F5"/>
<path d="M1 8.33734C1 8.48771 1.11131 8.61484 1.26035 8.63471L3.66035 8.95471C3.8402 8.97869 4 8.83878 4 8.65735L4 6.34265C4 6.16122 3.8402 6.02131 3.66035 6.04529L1.26035 6.36529C1.11131 6.38516 1 6.51229 1 6.66265L1 8.33734Z" fill="#3CC1F5"/>
<path d="M11.5041 2.31171C11.3978 2.20539 11.2292 2.1942 11.1097 2.28553L9.1864 3.75631C9.04228 3.86653 9.02821 4.07846 9.15651 4.20675L10.7932 5.84349C10.9215 5.97178 11.1335 5.95772 11.2437 5.81359L12.7145 3.89026C12.8058 3.77082 12.7946 3.60221 12.6883 3.49589L11.5041 2.31171Z" fill="#3CC1F5"/>
<path d="M3.4959 12.6883C3.60222 12.7946 3.77082 12.8058 3.89027 12.7145L5.8136 11.2437C5.95772 11.1335 5.97179 10.9215 5.84349 10.7932L4.20676 9.1565C4.07846 9.0282 3.86653 9.04227 3.75632 9.18639L2.28554 11.1097C2.1942 11.2292 2.20539 11.3978 2.31171 11.5041L3.4959 12.6883Z" fill="#3CC1F5"/>
<path d="M12.6883 11.5041C12.7946 11.3978 12.8058 11.2292 12.7145 11.1097L11.2437 9.18639C11.1335 9.04227 10.9215 9.0282 10.7932 9.1565L9.15651 10.7932C9.02821 10.9215 9.04228 11.1335 9.18641 11.2437L11.1097 12.7145C11.2292 12.8058 11.3978 12.7946 11.5041 12.6883L12.6883 11.5041Z" fill="#3CC1F5"/>
<path d="M2.31171 3.49589C2.20539 3.60222 2.1942 3.77082 2.28554 3.89026L3.75632 5.81359C3.86653 5.95772 4.07846 5.97178 4.20676 5.84349L5.84349 4.20676C5.97179 4.07846 5.95772 3.86653 5.81359 3.75632L3.89026 2.28553C3.77082 2.1942 3.60222 2.20539 3.4959 2.31171L2.31171 3.49589Z" fill="#3CC1F5"/>
<circle cx="7.5" cy="7.5" r="4.5" fill="#3CC1F5"/>
<path d="M11.2765 21.0461L11.2856 21.0517L11.2948 21.057C11.8155 21.3527 12.3839 21.5 12.9908 21.5H13.6797H14.1797V21V19.0639V18.5639H13.6797H12.9908C12.8709 18.5639 12.7731 18.5293 12.6788 18.449C12.5982 18.3555 12.5644 18.2597 12.5644 18.1431V14.1292V13.8919L12.3806 13.7419L10.8666 12.5057L12.375 11.3099L12.5644 11.1597V10.9181V6.88056C12.5644 6.75805 12.601 6.67434 12.6782 6.59768L12.3257 6.24306L12.6782 6.59768C12.7805 6.49597 12.8777 6.45972 12.9908 6.45972H13.6797H14.1797V5.95972V4V3.5H13.6797H12.9908C12.3789 3.5 11.8072 3.65775 11.2857 3.97192C10.7855 4.26705 10.3796 4.67256 10.0699 5.17964L10.0698 5.17962L10.0671 5.18423C9.76379 5.69295 9.61648 6.26284 9.61648 6.88056V10.4515L8.7663 10.901L8.5 11.0418V11.3431V13.6097V13.8896L8.7386 14.036L9.61648 14.5743V18.1431C9.61648 18.748 9.76513 19.3143 10.0631 19.8325L10.0684 19.8418L10.0742 19.8509C10.3835 20.3393 10.7857 20.7389 11.2765 21.0461ZM16.344 21V21.5H16.844H17.5329C18.1398 21.5 18.7034 21.3526 19.212 21.053L19.212 21.0531L19.2166 21.0503C19.7261 20.7428 20.1342 20.3395 20.4315 19.8417C20.7481 19.3226 20.9073 18.753 20.9073 18.1431V14.5948L21.7655 14.057L22 13.9101V13.6333V11.3903V11.1031L21.752 10.9584L20.9073 10.4656V6.88056C20.9073 6.26066 20.7509 5.68975 20.4316 5.18182C20.1357 4.67086 19.7278 4.26551 19.2144 3.97188C18.7067 3.65646 18.1422 3.5 17.5329 3.5H16.844H16.344V4V5.95972V6.45972H16.844H17.5329C17.6445 6.45972 17.7257 6.49414 17.8068 6.58203L17.8215 6.59801L17.8376 6.61265C17.9261 6.6933 17.9594 6.77268 17.9594 6.88056V10.9653V11.2092L18.1516 11.3593L19.6536 12.5323L18.1432 13.7655L17.9594 13.9155V14.1528V18.1431C17.9594 18.2526 17.9241 18.3479 17.8218 18.4495C17.7446 18.5263 17.6589 18.5639 17.5329 18.5639H16.844H16.344V19.0639V21Z" fill="black" stroke="black"/>
<path d="M28.232 16C27.928 16 27.652 15.924 27.404 15.772C27.156 15.62 26.956 15.42 26.804 15.172C26.652 14.924 26.576 14.648 26.576 14.344V14.08H28.148V14.284C28.148 14.324 28.16 14.36 28.184 14.392C28.216 14.416 28.252 14.428 28.292 14.428H31.928C31.968 14.428 32 14.416 32.024 14.392C32.056 14.36 32.072 14.324 32.072 14.284V13.456C32.072 13.416 32.056 13.384 32.024 13.36C32 13.328 31.968 13.312 31.928 13.312H28.232C27.928 13.312 27.652 13.236 27.404 13.084C27.156 12.932 26.956 12.732 26.804 12.484C26.652 12.236 26.576 11.96 26.576 11.656V10.696C26.576 10.392 26.652 10.116 26.804 9.868C26.956 9.62 27.156 9.42 27.404 9.268C27.652 9.116 27.928 9.04 28.232 9.04H31.988C32.3 9.04 32.58 9.116 32.828 9.268C33.076 9.42 33.276 9.62 33.428 9.868C33.58 10.116 33.656 10.392 33.656 10.696V10.96H32.072V10.756C32.072 10.716 32.056 10.684 32.024 10.66C32 10.628 31.968 10.612 31.928 10.612H28.292C28.252 10.612 28.216 10.628 28.184 10.66C28.16 10.684 28.148 10.716 28.148 10.756V11.584C28.148 11.624 28.16 11.66 28.184 11.692C28.216 11.716 28.252 11.728 28.292 11.728H31.988C32.3 11.728 32.58 11.804 32.828 11.956C33.076 12.108 33.276 12.308 33.428 12.556C33.58 12.804 33.656 13.08 33.656 13.384V14.344C33.656 14.648 33.58 14.924 33.428 15.172C33.276 15.42 33.076 15.62 32.828 15.772C32.58 15.924 32.3 16 31.988 16H28.232ZM35.8946 18.58V16.996H40.0826C40.1226 16.996 40.1546 16.98 40.1786 16.948C40.2106 16.924 40.2266 16.892 40.2266 16.852V16H36.3866C36.0906 16 35.8146 15.924 35.5586 15.772C35.3106 15.62 35.1106 15.42 34.9586 15.172C34.8066 14.924 34.7306 14.648 34.7306 14.344V9.064H36.3026V14.284C36.3026 14.324 36.3146 14.36 36.3386 14.392C36.3706 14.416 36.4066 14.428 36.4466 14.428H40.0826C40.1226 14.428 40.1546 14.416 40.1786 14.392C40.2106 14.36 40.2266 14.324 40.2266 14.284V9.064H41.7986V16.924C41.7986 17.228 41.7266 17.504 41.5826 17.752C41.4386 18.008 41.2386 18.208 40.9826 18.352C40.7346 18.504 40.4586 18.58 40.1546 18.58H35.8946ZM44.5914 16C44.2874 16 44.0114 15.924 43.7634 15.772C43.5154 15.62 43.3154 15.42 43.1634 15.172C43.0114 14.924 42.9354 14.648 42.9354 14.344V14.08H44.5074V14.284C44.5074 14.324 44.5194 14.36 44.5434 14.392C44.5754 14.416 44.6114 14.428 44.6514 14.428H48.2874C48.3274 14.428 48.3594 14.416 48.3834 14.392C48.4154 14.36 48.4314 14.324 48.4314 14.284V13.456C48.4314 13.416 48.4154 13.384 48.3834 13.36C48.3594 13.328 48.3274 13.312 48.2874 13.312H44.5914C44.2874 13.312 44.0114 13.236 43.7634 13.084C43.5154 12.932 43.3154 12.732 43.1634 12.484C43.0114 12.236 42.9354 11.96 42.9354 11.656V10.696C42.9354 10.392 43.0114 10.116 43.1634 9.868C43.3154 9.62 43.5154 9.42 43.7634 9.268C44.0114 9.116 44.2874 9.04 44.5914 9.04H48.3474C48.6594 9.04 48.9394 9.116 49.1874 9.268C49.4354 9.42 49.6354 9.62 49.7874 9.868C49.9394 10.116 50.0154 10.392 50.0154 10.696V10.96H48.4314V10.756C48.4314 10.716 48.4154 10.684 48.3834 10.66C48.3594 10.628 48.3274 10.612 48.2874 10.612H44.6514C44.6114 10.612 44.5754 10.628 44.5434 10.66C44.5194 10.684 44.5074 10.716 44.5074 10.756V11.584C44.5074 11.624 44.5194 11.66 44.5434 11.692C44.5754 11.716 44.6114 11.728 44.6514 11.728H48.3474C48.6594 11.728 48.9394 11.804 49.1874 11.956C49.4354 12.108 49.6354 12.308 49.7874 12.556C49.9394 12.804 50.0154 13.08 50.0154 13.384V14.344C50.0154 14.648 49.9394 14.924 49.7874 15.172C49.6354 15.42 49.4354 15.62 49.1874 15.772C48.9394 15.924 48.6594 16 48.3474 16H44.5914ZM48.3419 18.628V17.044H51.2819C51.3219 17.044 51.3539 17.028 51.3779 16.996C51.4099 16.972 51.4259 16.94 51.4259 16.9V9.04H52.9979V16.972C52.9979 17.276 52.9219 17.552 52.7699 17.8C52.6259 18.056 52.4259 18.256 52.1699 18.4C51.9219 18.552 51.6459 18.628 51.3419 18.628H48.3419ZM51.4259 8.344V6.76H52.9979V8.344H51.4259ZM55.689 16C55.385 16 55.109 15.924 54.861 15.772C54.613 15.62 54.413 15.42 54.261 15.172C54.109 14.924 54.033 14.648 54.033 14.344V14.08H55.605V14.284C55.605 14.324 55.617 14.36 55.641 14.392C55.673 14.416 55.709 14.428 55.749 14.428H59.385C59.425 14.428 59.457 14.416 59.481 14.392C59.513 14.36 59.529 14.324 59.529 14.284V13.456C59.529 13.416 59.513 13.384 59.481 13.36C59.457 13.328 59.425 13.312 59.385 13.312H55.689C55.385 13.312 55.109 13.236 54.861 13.084C54.613 12.932 54.413 12.732 54.261 12.484C54.109 12.236 54.033 11.96 54.033 11.656V10.696C54.033 10.392 54.109 10.116 54.261 9.868C54.413 9.62 54.613 9.42 54.861 9.268C55.109 9.116 55.385 9.04 55.689 9.04H59.445C59.757 9.04 60.037 9.116 60.285 9.268C60.533 9.42 60.733 9.62 60.885 9.868C61.037 10.116 61.113 10.392 61.113 10.696V10.96H59.529V10.756C59.529 10.716 59.513 10.684 59.481 10.66C59.457 10.628 59.425 10.612 59.385 10.612H55.749C55.709 10.612 55.673 10.628 55.641 10.66C55.617 10.684 55.605 10.716 55.605 10.756V11.584C55.605 11.624 55.617 11.66 55.641 11.692C55.673 11.716 55.709 11.728 55.749 11.728H59.445C59.757 11.728 60.037 11.804 60.285 11.956C60.533 12.108 60.733 12.308 60.885 12.556C61.037 12.804 61.113 13.08 61.113 13.384V14.344C61.113 14.648 61.037 14.924 60.885 15.172C60.733 15.42 60.533 15.62 60.285 15.772C60.037 15.924 59.757 16 59.445 16H55.689Z" fill="black"/>
</g>
<defs>
<clipPath id="clip0_2_226">
<rect width="62" height="24" fill="white"/>
</clipPath>
</defs>
</svg>
