<?xml version="1.0" encoding="iso-8859-1"?><!DOCTYPE svg PUBLIC "-//W3C//DTD SVG 1.1//EN" "http://www.w3.org/Graphics/SVG/1.1/DTD/svg11.dtd"><svg version="1.1" xmlns="http://www.w3.org/2000/svg" xmlns:xlink="http://www.w3.org/1999/xlink" x="0px" y="0px" width="620" height="620" viewBox="0 0 620 620" enable-background="new 0 0 620 620" xml:space="preserve"><g><polygon points="317,293 374,342 401,295" style="fill:#C02C20;stroke:#C02C20;"/><polygon points="317,293 347,376 374,342" style="fill:#661A13;stroke:#661A13;"/><polygon points="401,295 361,223 317,293" style="fill:#EF4C26;stroke:#EF4C26;"/><polygon points="446,316 429,268 401,295" style="fill:#E3481C;stroke:#E3481C;"/><polygon points="429,268 361,223 401,295" style="fill:#F45325;stroke:#F45325;"/><polygon points="374,342 408,368 401,295" style="fill:#862013;stroke:#862013;"/><polygon points="347,376 376,382 374,342" style="fill:#2F100C;stroke:#2F100C;"/><polygon points="376,382 408,368 374,342" style="fill:#4C150F;stroke:#4C150F;"/><polygon points="361,223 354,217 317,293" style="fill:#EB502B;stroke:#EB502B;"/><polygon points="328,186 354,217 417,188" style="fill:#B65039;stroke:#B65039;"/><polygon points="408,368 446,316 401,295" style="fill:#831E12;stroke:#831E12;"/><polygon points="347,376 337,402 376,382" style="fill:#891A13;stroke:#891A13;"/><polygon points="376,382 406,420 408,368" style="fill:#691812;stroke:#691812;"/><polygon points="226,333 337,402 347,376" style="fill:#7C1C16;stroke:#7C1C16;"/><polygon points="446,316 460,279 429,268" style="fill:#D84D1D;stroke:#D84D1D;"/><polygon points="429,268 417,188 361,223" style="fill:#FBA049;stroke:#FBA049;"/><polygon points="337,402 406,420 376,382" style="fill:#3D110C;stroke:#3D110C;"/><polygon points="270,431 330,416 337,402" style="fill:#33100B;stroke:#33100B;"/><polygon points="354,217 295,185 317,293" style="fill:#BC422F;stroke:#BC422F;"/><polygon points="417,188 354,217 361,223" style="fill:#BB5A38;stroke:#BB5A38;"/><polygon points="513,356 479,308 446,316" style="fill:#F5C166;stroke:#F5C166;"/><polygon points="446,316 479,308 460,279" style="fill:#8D2D19;stroke:#8D2D19;"/><polygon points="330,416 406,420 337,402" style="fill:#40120C;stroke:#40120C;"/><polygon points="408,368 454,398 446,316" style="fill:#BE3A1E;stroke:#BE3A1E;"/><polygon points="457,207 429,268 460,279" style="fill:#F8A72F;stroke:#F8A72F;"/><polygon points="457,207 417,188 429,268" style="fill:#FAC27D;stroke:#FAC27D;"/><polygon points="317,293 226,333 347,376" style="fill:#87251A;stroke:#87251A;"/><polygon points="227,258 231,290 317,293" style="fill:#AD3325;stroke:#AD3325;"/><polygon points="328,186 295,185 354,217" style="fill:#943D30;stroke:#943D30;"/><polygon points="318,172 295,185 328,186" style="fill:#B43A2C;stroke:#B43A2C;"/><polygon points="406,420 454,398 408,368" style="fill:#5A140F;stroke:#5A140F;"/><polygon points="336,105 318,172 328,186" style="fill:#92382E;stroke:#92382E;"/><polygon points="231,290 226,333 317,293" style="fill:#E5632D;stroke:#E5632D;"/><polygon points="513,243 457,207 460,279" style="fill:#C96038;stroke:#C96038;"/><polygon points="187,315 197,354 226,333" style="fill:#551817;stroke:#551817;"/><polygon points="295,185 227,258 317,293" style="fill:#8F2F27;stroke:#8F2F27;"/><polygon points="457,207 419,171 417,188" style="fill:#D8291C;stroke:#D8291C;"/><polygon points="417,188 419,171 328,186" style="fill:#EE3722;stroke:#EE3722;"/><polygon points="406,420 447,450 454,398" style="fill:#78170F;stroke:#78170F;"/><polygon points="330,416 407,441 406,420" style="fill:#4E140E;stroke:#4E140E;"/><polygon points="330,416 337,468 407,441" style="fill:#AB2A17;stroke:#AB2A17;"/><polygon points="226,333 270,431 337,402" style="fill:#661915;stroke:#661915;"/><polygon points="454,398 513,356 446,316" style="fill:#E86228;stroke:#E86228;"/><polygon points="479,308 513,243 460,279" style="fill:#AD3A22;stroke:#AD3A22;"/><polygon points="531,391 513,356 454,398" style="fill:#A51E11;stroke:#A51E11;"/><polygon points="457,207 460,126 419,171" style="fill:#E37151;stroke:#E37151;"/><polygon points="539,300 513,243 479,308" style="fill:#BD452A;stroke:#BD452A;"/><polygon points="315,467 337,468 330,416" style="fill:#841B13;stroke:#841B13;"/><polygon points="226,333 197,354 270,431" style="fill:#5E1B18;stroke:#5E1B18;"/><polygon points="187,315 226,333 231,290" style="fill:#611B1B;stroke:#611B1B;"/><polygon points="270,431 315,467 330,416" style="fill:#48130E;stroke:#48130E;"/><polygon points="417,485 447,450 407,441" style="fill:#240D08;stroke:#240D08;"/><polygon points="407,441 447,450 406,420" style="fill:#62120D;stroke:#62120D;"/><polygon points="227,258 187,315 231,290" style="fill:#4D1C1D;stroke:#4D1C1D;"/><polygon points="227,258 188,224 187,315" style="fill:#41181A;stroke:#41181A;"/><polygon points="295,185 210,206 227,258" style="fill:#88271F;stroke:#88271F;"/><polygon points="253,125 210,206 295,185" style="fill:#AC4033;stroke:#AC4033;"/><polygon points="513,243 518,223 457,207" style="fill:#B11D14;stroke:#B11D14;"/><polygon points="539,300 518,223 513,243" style="fill:#3C1912;stroke:#3C1912;"/><polygon points="539,332 539,300 479,308" style="fill:#C33E1D;stroke:#C33E1D;"/><polygon points="221,439 257,451 270,431" style="fill:#250E0B;stroke:#250E0B;"/><polygon points="270,431 257,451 315,467" style="fill:#54140E;stroke:#54140E;"/><polygon points="513,356 539,332 479,308" style="fill:#DEA879;stroke:#DEA879;"/><polygon points="531,391 533,353 513,356" style="fill:#B72913;stroke:#B72913;"/><polygon points="533,353 539,332 513,356" style="fill:#9D2116;stroke:#9D2116;"/><polygon points="210,206 188,224 227,258" style="fill:#9F2921;stroke:#9F2921;"/><polygon points="518,223 507,180 457,207" style="fill:#CF2819;stroke:#CF2819;"/><polygon points="539,300 507,180 518,223" style="fill:#381B15;stroke:#381B15;"/><polygon points="375,516 417,485 337,468" style="fill:#942212;stroke:#942212;"/><polygon points="337,468 417,485 407,441" style="fill:#B73316;stroke:#B73316;"/><polygon points="512,429 531,391 454,398" style="fill:#9E1E0F;stroke:#9E1E0F;"/><polygon points="533,353 531,391 539,332" style="fill:#4C130C;stroke:#4C130C;"/><polygon points="512,429 454,398 488,457" style="fill:#75140C;stroke:#75140C;"/><polygon points="197,354 221,439 270,431" style="fill:#441812;stroke:#441812;"/><polygon points="419,171 336,105 328,186" style="fill:#AB4232;stroke:#AB4232;"/><polygon points="318,172 253,125 295,185" style="fill:#C3654C;stroke:#C3654C;"/><polygon points="460,126 336,105 419,171" style="fill:#CC8562;stroke:#CC8562;"/><polygon points="488,457 454,398 447,450" style="fill:#60130B;stroke:#60130B;"/><polygon points="456,503 488,457 447,450" style="fill:#4A110A;stroke:#4A110A;"/><polygon points="507,180 460,126 457,207" style="fill:#E08D67;stroke:#E08D67;"/><polygon points="336,105 253,125 318,172" style="fill:#A75846;stroke:#A75846;"/><polygon points="210,206 169,160 188,224" style="fill:#7A3833;stroke:#7A3833;"/><polygon points="197,354 176,402 221,439" style="fill:#451914;stroke:#451914;"/><polygon points="146,335 176,402 197,354" style="fill:#4A1816;stroke:#4A1816;"/><polygon points="146,335 197,354 187,315" style="fill:#511817;stroke:#511817;"/><polygon points="188,129 169,160 210,206" style="fill:#7D5B51;stroke:#7D5B51;"/><polygon points="281,84 250,122 253,125" style="fill:#9F9578;stroke:#9F9578;"/><polygon points="417,485 456,503 447,450" style="fill:#350F09;stroke:#350F09;"/><polygon points="304,511 375,516 337,468" style="fill:#3E110B;stroke:#3E110B;"/><polygon points="304,511 337,468 315,467" style="fill:#5A160F;stroke:#5A160F;"/><polygon points="304,511 315,467 257,451" style="fill:#32100B;stroke:#32100B;"/><polygon points="134,329 146,335 187,315" style="fill:#4B1717;stroke:#4B1717;"/><polygon points="299,561 304,511 230,543" style="fill:#280D08;stroke:#280D08;"/><polygon points="329,563 304,511 299,561" style="fill:#280D07;stroke:#280D07;"/><polygon points="413,536 456,503 417,485" style="fill:#320D07;stroke:#320D07;"/><polygon points="488,457 456,503 512,429" style="fill:#88160E;stroke:#88160E;"/><polygon points="97,262 134,329 187,315" style="fill:#572826;stroke:#572826;"/><polygon points="146,335 89,373 176,402" style="fill:#4F1715;stroke:#4F1715;"/><polygon points="308,58 281,84 336,105" style="fill:#988A71;stroke:#988A71;"/><polygon points="336,105 281,84 253,125" style="fill:#AAA782;stroke:#AAA782;"/><polygon points="188,224 97,262 187,315" style="fill:#7C322B;stroke:#7C322B;"/><polygon points="188,129 210,206 253,125" style="fill:#B86748;stroke:#B86748;"/><polygon points="188,129 253,125 250,122" style="fill:#B67A57;stroke:#B67A57;"/><polygon points="375,516 413,536 417,485" style="fill:#511009;stroke:#511009;"/><polygon points="329,563 413,536 375,516" style="fill:#2E0D08;stroke:#2E0D08;"/><polygon points="235,90 188,129 250,122" style="fill:#B1926F;stroke:#B1926F;"/><polygon points="281,84 235,90 250,122" style="fill:#7E836B;stroke:#7E836B;"/><polygon points="281,84 308,58 235,90" style="fill:#2C231D;stroke:#2C231D;"/><polygon points="460,126 308,58 336,105" style="fill:#BAAB89;stroke:#BAAB89;"/><polygon points="169,160 128,186 188,224" style="fill:#6E5D53;stroke:#6E5D53;"/><polygon points="188,129 128,186 169,160" style="fill:#3D3028;stroke:#3D3028;"/><polygon points="304,511 257,451 230,543" style="fill:#290E09;stroke:#290E09;"/><polygon points="304,511 329,563 375,516" style="fill:#2C0D08;stroke:#2C0D08;"/><polygon points="128,186 97,262 188,224" style="fill:#6D554C;stroke:#6D554C;"/><polygon points="230,543 257,451 188,522" style="fill:#2B0E09;stroke:#2B0E09;"/><polygon points="188,522 257,451 221,439" style="fill:#2C0F0B;stroke:#2C0F0B;"/><polygon points="134,329 89,373 146,335" style="fill:#5C2522;stroke:#5C2522;"/><polygon points="97,262 91,340 134,329" style="fill:#714A3F;stroke:#714A3F;"/><polygon points="143,476 221,439 176,402" style="fill:#2E100C;stroke:#2E100C;"/><polygon points="102,424 143,476 176,402" style="fill:#3E100C;stroke:#3E100C;"/><polygon points="143,476 188,522 221,439" style="fill:#320F0A;stroke:#320F0A;"/><polygon points="91,340 89,373 134,329" style="fill:#745646;stroke:#745646;"/><polygon points="89,373 102,424 176,402" style="fill:#471813;stroke:#471813;"/></g></svg>