<?xml version="1.0" encoding="UTF-8" standalone="no"?>
<svg
   width="24"
   height="24"
   viewBox="0 0 24 24"
   fill="none"
   version="1.1"
   id="svg4"
   sodipodi:docname="dusk-icon-light.svg"
   inkscape:version="1.1.1 (3bf5ae0d25, 2021-09-20)"
   xmlns:inkscape="http://www.inkscape.org/namespaces/inkscape"
   xmlns:sodipodi="http://sodipodi.sourceforge.net/DTD/sodipodi-0.dtd"
   xmlns="http://www.w3.org/2000/svg"
   xmlns:svg="http://www.w3.org/2000/svg">
  <defs
     id="defs8">
    <inkscape:path-effect
       effect="powerclip"
       id="path-effect14166"
       is_visible="true"
       lpeversion="1"
       inverse="true"
       flatten="false"
       hide_clip="false"
       message="Use fill-rule evenodd on &lt;b&gt;fill and stroke&lt;/b&gt; dialog if no flatten result after convert clip to paths." />
  </defs>
  <sodipodi:namedview
     id="namedview6"
     pagecolor="#ffffff"
     bordercolor="#666666"
     borderopacity="1.0"
     inkscape:pageshadow="2"
     inkscape:pageopacity="0.0"
     inkscape:pagecheckerboard="0"
     showgrid="false"
     inkscape:zoom="45.254834"
     inkscape:cx="0.088388348"
     inkscape:cy="16.086679"
     inkscape:window-width="3840"
     inkscape:window-height="2066"
     inkscape:window-x="-11"
     inkscape:window-y="-11"
     inkscape:window-maximized="1"
     inkscape:current-layer="svg4" />
  <path
     style="fill:none;stroke:#3cc1f5;stroke-width:2;stroke-linecap:butt;stroke-linejoin:miter;stroke-miterlimit:4;stroke-dasharray:none;stroke-opacity:1"
     d="M 19.926784,19.686789 C 14.619797,22.480087 9.9653095,21.577403 4.5865783,19.934211"
     id="path404"
     sodipodi:nodetypes="cc" />
  <path
     style="fill:#3cc1f5;fill-opacity:1;stroke:#3cc1f5;stroke-width:0.651902px;stroke-linecap:butt;stroke-linejoin:miter;stroke-opacity:1"
     d="m 14.989132,5.3410799 c 2.420811,0.189736 4.596914,0.7372811 6.541424,2.3477434 -0.423938,0.415287 -0.84612,0.9498093 -0.84612,0.9498093 C 19.198734,7.3617353 16.762338,6.7569735 15.007054,6.7748151"
     id="path2750"
     sodipodi:nodetypes="ccsc" />
  <path
     style="fill:#3cc1f5;fill-opacity:1;stroke:#3cc1f5;stroke-width:0.612474px;stroke-linecap:butt;stroke-linejoin:miter;stroke-opacity:1"
     d="m 16.898253,9.6731884 c 1.909768,0.9837956 3.827721,1.5499976 6.140049,1.1097496 -0.09503,-0.550794 -0.125091,-1.2013826 -0.125091,-1.2013826 -1.791513,0.37555 -3.934464,-0.265363 -5.236238,-1.1098524"
     id="path2750-1"
     sodipodi:nodetypes="ccsc" />
  <path
     id="path2635"
     clip-path="none"
     style="fill:#000000;stroke:#000000;stroke-width:0.885782;stroke-opacity:1"
     d="M 12.150391 4.8085938 A 7.2323666 7.2323666 0 0 0 4.9179688 12.041016 A 7.2323666 7.2323666 0 0 0 7.2050781 17.298828 C 10.944612 18.348725 13.843974 18.290205 17.142578 17.251953 A 7.2323666 7.2323666 0 0 0 19.382812 12.041016 A 7.2323666 7.2323666 0 0 0 12.150391 4.8085938 z " />
  <path
     style="fill:none;stroke:#3cc1f5;stroke-width:2;stroke-linecap:butt;stroke-linejoin:miter;stroke-miterlimit:4;stroke-dasharray:none;stroke-opacity:1"
     d="m 21.997407,15.835528 c -7.396334,3.563058 -11.308553,3.897487 -20.1512024,0.08247"
     id="path404-2"
     sodipodi:nodetypes="cc" />
  <path
     style="fill:#3cc1f5;fill-opacity:1;stroke:none;stroke-width:1.23832px;stroke-linecap:butt;stroke-linejoin:miter;stroke-opacity:1"
     d="m 10.199659,12.105362 -0.559864,2.048481 c -2.7734342,0.04607 -3.4144709,-1.652484 -4.5231935,-2.789569 1.6728572,-0.758767 2.863736,0.580254 5.0830575,0.741088 z"
     id="path18686"
     sodipodi:nodetypes="cccc" />
  <path
     style="fill:#3cc1f5;fill-opacity:1;stroke:none;stroke-width:1.23832px;stroke-linecap:butt;stroke-linejoin:miter;stroke-opacity:1"
     d="m 12.199659,12.105362 0.559864,2.048481 c 2.773434,0.04607 3.414471,-1.652484 4.523193,-2.789569 -1.672857,-0.758767 -2.863735,0.580254 -5.083057,0.741088 z"
     id="path19934"
     sodipodi:nodetypes="cccc" />
</svg>
