<svg width="51" height="24" viewBox="0 0 51 24" fill="none" xmlns="http://www.w3.org/2000/svg">
<g clip-path="url(#clip0_2_263)">
<rect x="5" y="5" width="14" height="14" rx="3" fill="white" stroke="black" stroke-width="3"/>
<path d="M19 7H23M23 17H19M23 12H19M1 7H5M5 17H1M5 12H1M17 19V23M7 23V19M12 23V19M17 1V5M7 5V1M12 5V1" stroke="black" stroke-width="3"/>
<path d="M27.656 17.748V16.164H31.844C31.884 16.164 31.916 16.148 31.94 16.116C31.972 16.092 31.988 16.06 31.988 16.02V15H28.148C27.852 15 27.576 14.924 27.32 14.772C27.072 14.62 26.872 14.42 26.72 14.172C26.568 13.924 26.492 13.648 26.492 13.344V9.696C26.492 9.392 26.568 9.116 26.72 8.868C26.872 8.62 27.072 8.42 27.32 8.268C27.576 8.116 27.852 8.04 28.148 8.04H31.916C32.22 8.04 32.496 8.116 32.744 8.268C32.992 8.42 33.188 8.62 33.332 8.868C33.484 9.116 33.56 9.392 33.56 9.696V16.092C33.56 16.404 33.488 16.684 33.344 16.932C33.2 17.18 33 17.376 32.744 17.52C32.496 17.672 32.22 17.748 31.916 17.748H27.656ZM28.208 13.428H31.844C31.884 13.428 31.916 13.416 31.94 13.392C31.972 13.36 31.988 13.324 31.988 13.284V9.756C31.988 9.716 31.972 9.684 31.94 9.66C31.916 9.628 31.884 9.612 31.844 9.612H28.208C28.168 9.612 28.132 9.628 28.1 9.66C28.076 9.684 28.064 9.716 28.064 9.756V13.284C28.064 13.324 28.076 13.36 28.1 13.392C28.132 13.416 28.168 13.428 28.208 13.428ZM34.8394 17.76V8.04H40.2514C40.5554 8.04 40.8314 8.116 41.0794 8.268C41.3354 8.42 41.5354 8.62 41.6794 8.868C41.8314 9.116 41.9074 9.392 41.9074 9.696V13.344C41.9074 13.648 41.8314 13.924 41.6794 14.172C41.5354 14.42 41.3354 14.62 41.0794 14.772C40.8314 14.924 40.5554 15 40.2514 15H36.4114V17.76H34.8394ZM36.5554 13.428H40.1914C40.2314 13.428 40.2634 13.416 40.2874 13.392C40.3194 13.36 40.3354 13.324 40.3354 13.284V9.756C40.3354 9.716 40.3194 9.684 40.2874 9.66C40.2634 9.628 40.2314 9.612 40.1914 9.612H36.5554C36.5154 9.612 36.4794 9.628 36.4474 9.66C36.4234 9.684 36.4114 9.716 36.4114 9.756V13.284C36.4114 13.324 36.4234 13.36 36.4474 13.392C36.4794 13.416 36.5154 13.428 36.5554 13.428ZM44.4522 15C44.1482 15 43.8682 14.924 43.6122 14.772C43.3642 14.62 43.1642 14.42 43.0122 14.172C42.8682 13.924 42.7962 13.648 42.7962 13.344V8.04H44.3682V13.284C44.3682 13.324 44.3802 13.36 44.4042 13.392C44.4362 13.416 44.4722 13.428 44.5122 13.428H48.1482C48.1882 13.428 48.2202 13.416 48.2442 13.392C48.2762 13.36 48.2922 13.324 48.2922 13.284V8.04H49.8642V13.344C49.8642 13.648 49.7882 13.924 49.6362 14.172C49.4922 14.42 49.2962 14.62 49.0482 14.772C48.8002 14.924 48.5202 15 48.2082 15H44.4522Z" fill="black"/>
</g>
<defs>
<clipPath id="clip0_2_263">
<rect width="51" height="24" fill="white"/>
</clipPath>
</defs>
</svg>
