<svg width="87" height="24" viewBox="0 0 87 24" fill="none" xmlns="http://www.w3.org/2000/svg">
<g clip-path="url(#clip0_2_238)">
<path d="M6.66266 1C6.51229 1 6.38516 1.11131 6.36529 1.26035L6.04529 3.66035C6.02131 3.8402 6.16122 4 6.34265 4L8.65735 4C8.83878 4 8.97869 3.8402 8.95471 3.66035L8.63471 1.26035C8.61484 1.11131 8.48771 1 8.33735 1L6.66266 1Z" fill="black"/>
<path d="M8.33734 14C8.48771 14 8.61484 13.8887 8.63471 13.7396L8.95471 11.3396C8.97869 11.1598 8.83878 11 8.65735 11L6.34265 11C6.16122 11 6.02131 11.1598 6.04529 11.3396L6.36529 13.7396C6.38516 13.8887 6.51229 14 6.66265 14L8.33734 14Z" fill="black"/>
<path d="M14 6.66266C14 6.51229 13.8887 6.38516 13.7396 6.36529L11.3396 6.04529C11.1598 6.02131 11 6.16122 11 6.34265L11 8.65735C11 8.83878 11.1598 8.97869 11.3396 8.95471L13.7396 8.63471C13.8887 8.61484 14 8.48771 14 8.33735L14 6.66266Z" fill="black"/>
<path d="M1 8.33734C1 8.48771 1.11131 8.61484 1.26035 8.63471L3.66035 8.95471C3.8402 8.97869 4 8.83878 4 8.65735L4 6.34265C4 6.16122 3.8402 6.02131 3.66035 6.04529L1.26035 6.36529C1.11131 6.38516 1 6.51229 1 6.66265L1 8.33734Z" fill="black"/>
<path d="M11.5041 2.31172C11.3978 2.20539 11.2292 2.1942 11.1097 2.28554L9.1864 3.75632C9.04228 3.86654 9.02821 4.07847 9.15651 4.20676L10.7932 5.84349C10.9215 5.97179 11.1335 5.95772 11.2437 5.8136L12.7145 3.89027C12.8058 3.77083 12.7946 3.60222 12.6883 3.4959L11.5041 2.31172Z" fill="black"/>
<path d="M3.4959 12.6883C3.60222 12.7946 3.77082 12.8058 3.89027 12.7145L5.8136 11.2437C5.95772 11.1335 5.97179 10.9215 5.84349 10.7932L4.20676 9.15651C4.07846 9.02821 3.86653 9.04228 3.75632 9.1864L2.28554 11.1097C2.1942 11.2292 2.20539 11.3978 2.31171 11.5041L3.4959 12.6883Z" fill="black"/>
<path d="M12.6883 11.5041C12.7946 11.3978 12.8058 11.2292 12.7145 11.1097L11.2437 9.1864C11.1335 9.04227 10.9215 9.02821 10.7932 9.1565L9.15651 10.7932C9.02821 10.9215 9.04228 11.1335 9.18641 11.2437L11.1097 12.7145C11.2292 12.8058 11.3978 12.7946 11.5041 12.6883L12.6883 11.5041Z" fill="black"/>
<path d="M2.31171 3.49589C2.20539 3.60222 2.1942 3.77082 2.28554 3.89026L3.75632 5.81359C3.86653 5.95772 4.07846 5.97178 4.20676 5.84349L5.84349 4.20676C5.97179 4.07846 5.95772 3.86653 5.81359 3.75632L3.89026 2.28553C3.77082 2.1942 3.60222 2.20539 3.4959 2.31171L2.31171 3.49589Z" fill="black"/>
<circle cx="7.5" cy="7.5" r="4.5" fill="black"/>
<g clip-path="url(#clip1_2_238)">
<path d="M4.16666 15.9627C3.89052 15.9627 3.66666 15.7388 3.66666 15.4627V12.4751C3.66666 12.199 3.89052 11.9751 4.16666 11.9751H6.16666V15.9627H4.16666Z" fill="#3CC1F5" stroke="#3CC1F5"/>
<path d="M12.8333 9.02814C12.8333 8.64425 12.4186 8.40356 12.0853 8.59398L6.16667 11.9751V15.9627L12.0823 19.3973C12.4156 19.5908 12.8333 19.3503 12.8333 18.9649V9.02814Z" fill="#3CC1F5" stroke="#3CC1F5"/>
<path d="M14.5 16.9167C14.5 16.9167 15.3333 15.4583 15.3333 14C15.3333 12.5417 14.5 11.0833 14.5 11.0833" stroke="black" stroke-width="2" stroke-linecap="round"/>
<path d="M16.4444 18.8611C16.4444 18.8611 17.8333 16.4306 17.8333 14C17.8333 11.5694 16.4444 9.13889 16.4444 9.13889" stroke="black" stroke-width="2" stroke-linecap="round"/>
<path d="M18.3889 20.8056C18.3889 20.8056 20.3333 17.4028 20.3333 14C20.3333 10.5972 18.3889 7.19444 18.3889 7.19444" stroke="black" stroke-width="2" stroke-linecap="round"/>
</g>
<path d="M28.232 16C27.928 16 27.652 15.924 27.404 15.772C27.156 15.62 26.956 15.42 26.804 15.172C26.652 14.924 26.576 14.648 26.576 14.344V14.08H28.148V14.284C28.148 14.324 28.16 14.36 28.184 14.392C28.216 14.416 28.252 14.428 28.292 14.428H31.928C31.968 14.428 32 14.416 32.024 14.392C32.056 14.36 32.072 14.324 32.072 14.284V13.456C32.072 13.416 32.056 13.384 32.024 13.36C32 13.328 31.968 13.312 31.928 13.312H28.232C27.928 13.312 27.652 13.236 27.404 13.084C27.156 12.932 26.956 12.732 26.804 12.484C26.652 12.236 26.576 11.96 26.576 11.656V10.696C26.576 10.392 26.652 10.116 26.804 9.868C26.956 9.62 27.156 9.42 27.404 9.268C27.652 9.116 27.928 9.04 28.232 9.04H31.988C32.3 9.04 32.58 9.116 32.828 9.268C33.076 9.42 33.276 9.62 33.428 9.868C33.58 10.116 33.656 10.392 33.656 10.696V10.96H32.072V10.756C32.072 10.716 32.056 10.684 32.024 10.66C32 10.628 31.968 10.612 31.928 10.612H28.292C28.252 10.612 28.216 10.628 28.184 10.66C28.16 10.684 28.148 10.716 28.148 10.756V11.584C28.148 11.624 28.16 11.66 28.184 11.692C28.216 11.716 28.252 11.728 28.292 11.728H31.988C32.3 11.728 32.58 11.804 32.828 11.956C33.076 12.108 33.276 12.308 33.428 12.556C33.58 12.804 33.656 13.08 33.656 13.384V14.344C33.656 14.648 33.58 14.924 33.428 15.172C33.276 15.42 33.076 15.62 32.828 15.772C32.58 15.924 32.3 16 31.988 16H28.232ZM35.8946 18.58V16.996H40.0826C40.1226 16.996 40.1546 16.98 40.1786 16.948C40.2106 16.924 40.2266 16.892 40.2266 16.852V16H36.3866C36.0906 16 35.8146 15.924 35.5586 15.772C35.3106 15.62 35.1106 15.42 34.9586 15.172C34.8066 14.924 34.7306 14.648 34.7306 14.344V9.064H36.3026V14.284C36.3026 14.324 36.3146 14.36 36.3386 14.392C36.3706 14.416 36.4066 14.428 36.4466 14.428H40.0826C40.1226 14.428 40.1546 14.416 40.1786 14.392C40.2106 14.36 40.2266 14.324 40.2266 14.284V9.064H41.7986V16.924C41.7986 17.228 41.7266 17.504 41.5826 17.752C41.4386 18.008 41.2386 18.208 40.9826 18.352C40.7346 18.504 40.4586 18.58 40.1546 18.58H35.8946ZM44.5914 16C44.2874 16 44.0114 15.924 43.7634 15.772C43.5154 15.62 43.3154 15.42 43.1634 15.172C43.0114 14.924 42.9354 14.648 42.9354 14.344V14.08H44.5074V14.284C44.5074 14.324 44.5194 14.36 44.5434 14.392C44.5754 14.416 44.6114 14.428 44.6514 14.428H48.2874C48.3274 14.428 48.3594 14.416 48.3834 14.392C48.4154 14.36 48.4314 14.324 48.4314 14.284V13.456C48.4314 13.416 48.4154 13.384 48.3834 13.36C48.3594 13.328 48.3274 13.312 48.2874 13.312H44.5914C44.2874 13.312 44.0114 13.236 43.7634 13.084C43.5154 12.932 43.3154 12.732 43.1634 12.484C43.0114 12.236 42.9354 11.96 42.9354 11.656V10.696C42.9354 10.392 43.0114 10.116 43.1634 9.868C43.3154 9.62 43.5154 9.42 43.7634 9.268C44.0114 9.116 44.2874 9.04 44.5914 9.04H48.3474C48.6594 9.04 48.9394 9.116 49.1874 9.268C49.4354 9.42 49.6354 9.62 49.7874 9.868C49.9394 10.116 50.0154 10.392 50.0154 10.696V10.96H48.4314V10.756C48.4314 10.716 48.4154 10.684 48.3834 10.66C48.3594 10.628 48.3274 10.612 48.2874 10.612H44.6514C44.6114 10.612 44.5754 10.628 44.5434 10.66C44.5194 10.684 44.5074 10.716 44.5074 10.756V11.584C44.5074 11.624 44.5194 11.66 44.5434 11.692C44.5754 11.716 44.6114 11.728 44.6514 11.728H48.3474C48.6594 11.728 48.9394 11.804 49.1874 11.956C49.4354 12.108 49.6354 12.308 49.7874 12.556C49.9394 12.804 50.0154 13.08 50.0154 13.384V14.344C50.0154 14.648 49.9394 14.924 49.7874 15.172C49.6354 15.42 49.4354 15.62 49.1874 15.772C48.9394 15.924 48.6594 16 48.3474 16H44.5914ZM52.8659 16C52.5619 16 52.2819 15.924 52.0259 15.772C51.7779 15.62 51.5779 15.42 51.4259 15.172C51.2819 14.924 51.2099 14.648 51.2099 14.344V11.728H56.7059V10.756C56.7059 10.716 56.6899 10.684 56.6579 10.66C56.6339 10.628 56.6019 10.612 56.5619 10.612H51.2099V9.04H56.6219C56.9259 9.04 57.2019 9.116 57.4499 9.268C57.7059 9.42 57.9059 9.62 58.0499 9.868C58.2019 10.116 58.2779 10.392 58.2779 10.696V16H52.8659ZM52.9259 14.428H56.7059V13.144H52.7819V14.284C52.7819 14.324 52.7939 14.36 52.8179 14.392C52.8499 14.416 52.8859 14.428 52.9259 14.428ZM61.21 16C60.906 16 60.626 15.924 60.37 15.772C60.122 15.62 59.922 15.42 59.77 15.172C59.626 14.924 59.554 14.648 59.554 14.344V9.04H61.126V14.284C61.126 14.324 61.138 14.36 61.162 14.392C61.194 14.416 61.23 14.428 61.27 14.428H64.906C64.946 14.428 64.978 14.416 65.002 14.392C65.034 14.36 65.05 14.324 65.05 14.284V9.04H66.622V14.344C66.622 14.648 66.546 14.924 66.394 15.172C66.25 15.42 66.054 15.62 65.806 15.772C65.558 15.924 65.278 16 64.966 16H61.21ZM69.2289 16C68.9169 16 68.6369 15.924 68.3889 15.772C68.1409 15.62 67.9409 15.42 67.7889 15.172C67.6449 14.924 67.5729 14.648 67.5729 14.344V10.696C67.5729 10.392 67.6449 10.116 67.7889 9.868C67.9409 9.62 68.1409 9.42 68.3889 9.268C68.6369 9.116 68.9169 9.04 69.2289 9.04H73.0809V6.76H74.6529V16H69.2289ZM69.3009 14.428H72.9369C72.9769 14.428 73.0089 14.416 73.0329 14.392C73.0649 14.36 73.0809 14.324 73.0809 14.284V10.756C73.0809 10.716 73.0649 10.684 73.0329 10.66C73.0089 10.628 72.9769 10.612 72.9369 10.612H69.3009C69.2609 10.612 69.2249 10.628 69.1929 10.66C69.1689 10.684 69.1569 10.716 69.1569 10.756V14.284C69.1569 14.324 69.1689 14.36 69.1929 14.392C69.2249 14.416 69.2609 14.428 69.3009 14.428ZM75.9248 16V9.04H77.4968V16H75.9248ZM75.9248 8.344V6.76H77.4968V8.344H75.9248ZM80.2289 16C79.9249 16 79.6489 15.924 79.4009 15.772C79.1529 15.62 78.9529 15.42 78.8009 15.172C78.6489 14.924 78.5729 14.648 78.5729 14.344V10.696C78.5729 10.392 78.6489 10.116 78.8009 9.868C78.9529 9.62 79.1529 9.42 79.4009 9.268C79.6489 9.116 79.9249 9.04 80.2289 9.04H83.9849C84.2889 9.04 84.5649 9.116 84.8129 9.268C85.0689 9.42 85.2689 9.62 85.4129 9.868C85.5649 10.116 85.6409 10.392 85.6409 10.696V14.344C85.6409 14.648 85.5649 14.924 85.4129 15.172C85.2689 15.42 85.0729 15.62 84.8249 15.772C84.5769 15.924 84.2969 16 83.9849 16H80.2289ZM80.2889 14.428H83.9249C83.9649 14.428 83.9969 14.416 84.0209 14.392C84.0529 14.36 84.0689 14.324 84.0689 14.284V10.756C84.0689 10.716 84.0529 10.684 84.0209 10.66C83.9969 10.628 83.9649 10.612 83.9249 10.612H80.2889C80.2489 10.612 80.2129 10.628 80.1809 10.66C80.1569 10.684 80.1449 10.716 80.1449 10.756V14.284C80.1449 14.324 80.1569 14.36 80.1809 14.392C80.2129 14.416 80.2489 14.428 80.2889 14.428Z" fill="black"/>
</g>
<defs>
<clipPath id="clip0_2_238">
<rect width="87" height="24" fill="white"/>
</clipPath>
<clipPath id="clip1_2_238">
<rect width="20" height="20" fill="white" transform="translate(2 4)"/>
</clipPath>
</defs>
</svg>
