<?xml version="1.0" encoding="UTF-8" standalone="no"?>
<!-- Created with Inkscape (http://www.inkscape.org/) -->

<svg
   width="400"
   height="120"
   viewBox="0 0 105.83333 31.750001"
   version="1.1"
   id="svg107616"
   inkscape:version="1.1.1 (3bf5ae0d25, 2021-09-20)"
   sodipodi:docname="glfw-full-dark.svg"
   xmlns:inkscape="http://www.inkscape.org/namespaces/inkscape"
   xmlns:sodipodi="http://sodipodi.sourceforge.net/DTD/sodipodi-0.dtd"
   xmlns="http://www.w3.org/2000/svg"
   xmlns:svg="http://www.w3.org/2000/svg">
  <sodipodi:namedview
     id="namedview107618"
     pagecolor="#000000"
     bordercolor="#666666"
     borderopacity="1.0"
     inkscape:pageshadow="2"
     inkscape:pageopacity="0"
     inkscape:pagecheckerboard="true"
     inkscape:document-units="mm"
     showgrid="true"
     units="px"
     inkscape:object-nodes="true"
     gridtolerance="10000"
     guidetolerance="10000"
     inkscape:snap-page="false"
     inkscape:snap-grids="false"
     inkscape:snap-to-guides="false"
     inkscape:snap-smooth-nodes="true"
     inkscape:snap-midpoints="true"
     inkscape:zoom="4.3994184"
     inkscape:cx="141.83693"
     inkscape:cy="121.83429"
     inkscape:window-width="3840"
     inkscape:window-height="2066"
     inkscape:window-x="-11"
     inkscape:window-y="-11"
     inkscape:window-maximized="1"
     inkscape:current-layer="layer1">
    <inkscape:grid
       type="xygrid"
       id="grid111742"
       empspacing="10"
       snapvisiblegridlinesonly="true"
       visible="true"
       enabled="true"
       dotted="true" />
    <sodipodi:guide
       position="0,31.75"
       orientation="0,400"
       id="guide113514" />
    <sodipodi:guide
       position="105.83333,31.75"
       orientation="120,0"
       id="guide113516" />
    <sodipodi:guide
       position="105.83333,0"
       orientation="0,-400"
       id="guide113518" />
    <sodipodi:guide
       position="0,0"
       orientation="-120,0"
       id="guide113520" />
  </sodipodi:namedview>
  <defs
     id="defs107613">
    <clipPath
       id="clip0_17_168">
      <rect
         width="24"
         height="24"
         fill="white"
         id="rect119280" />
    </clipPath>
  </defs>
  <g
     inkscape:label="Layer 1"
     inkscape:groupmode="layer"
     id="layer1">
    <g
       aria-label="mach
glfw"
       id="text116068"
       style="font-size:11.9944px;font-family:Orbitron;-inkscape-font-specification:Orbitron;stroke-width:0.264583">
      <path
         d="m 42.854719,4.6632231 q 0.719664,0 1.223429,0.5157592 0.515759,0.5157592 0.515759,1.2234288 V 11.619975 H 42.770758 V 6.4983663 H 40.467834 V 11.619975 H 38.620696 V 6.4983663 H 36.317771 V 11.619975 H 34.482628 V 4.6632231 Z"
         style="-inkscape-font-specification:'Orbitron Heavy';fill:#ffffff"
         id="path836" />
      <path
         d="m 51.130838,4.6632231 q 0.719664,0 1.223429,0.5157592 0.515759,0.5157592 0.515759,1.2234288 v 5.2175639 h -5.313519 q -0.719664,0 -1.235423,-0.515759 -0.503765,-0.515759 -0.503765,-1.2234289 V 7.2180303 h 5.217564 V 6.4983663 H 45.817319 V 4.6632231 Z m -0.09595,5.1216088 v -0.959552 h -3.382421 v 0.959552 z"
         style="-inkscape-font-specification:'Orbitron Heavy';fill:#ffffff"
         id="path838" />
      <path
         d="m 60.750307,6.4983663 h -5.20557 v 3.2864656 h 5.217564 v 1.8351431 h -5.313519 q -0.70767,0 -1.223429,-0.515759 -0.515759,-0.515759 -0.515759,-1.2234289 v -3.478376 q 0,-0.7076696 0.515759,-1.2234288 0.515759,-0.5157592 1.223429,-0.5157592 h 5.301525 z"
         style="-inkscape-font-specification:'Orbitron Heavy';fill:#ffffff"
         id="path840" />
      <path
         d="m 67.047349,4.6632231 q 0.707669,0 1.223429,0.5157592 0.515759,0.5157592 0.515759,1.2234288 V 11.619975 H 66.951394 V 6.4983663 H 63.568973 V 11.619975 H 61.73383 V 2.3842871 h 1.835143 v 2.278936 z"
         style="-inkscape-font-specification:'Orbitron Heavy';fill:#ffffff"
         id="path842" />
      <path
         d="m 41.391402,27.620505 q 0,0.719664 -0.515759,1.223429 -0.503765,0.515759 -1.223429,0.515759 h -4.222028 v -1.847138 h 4.126073 v -0.89958 h -3.478376 q -0.719664,0 -1.235423,-0.515759 -0.515759,-0.515759 -0.515759,-1.223429 v -3.478376 q 0,-0.707669 0.515759,-1.223429 0.515759,-0.515759 1.235423,-0.515759 h 3.574331 q 0.719664,0 1.223429,0.515759 0.515759,0.51576 0.515759,1.223429 z m -5.229558,-6.129139 v 3.286466 h 3.394415 v -3.286466 z"
         style="-inkscape-font-specification:'Orbitron Heavy';fill:#ffffff"
         id="path844" />
      <path
         d="m 42.650798,17.365293 h 1.847138 v 7.412539 h 1.403344 v 1.835143 h -1.511294 q -0.70767,0 -1.223429,-0.515759 -0.515759,-0.515759 -0.515759,-1.223429 z"
         style="-inkscape-font-specification:'Orbitron Heavy';fill:#ffffff"
         id="path846" />
      <path
         d="m 51.238767,19.224425 h -2.578796 v 0.431798 h 2.578796 v 1.835143 h -2.578796 v 5.121609 h -1.835143 v -7.4965 q 0,-0.707669 0.503765,-1.223429 0.515759,-0.515759 1.247418,-0.515759 h 2.662756 z"
         style="-inkscape-font-specification:'Orbitron Heavy';fill:#ffffff"
         id="path848" />
      <path
         d="m 61.745845,19.656223 h 1.943093 l -2.614779,6.956752 h -1.391351 l -1.883121,-4.150062 -1.79916,4.150062 h -1.379356 l -2.734723,-6.956752 h 1.943093 l 1.4993,3.610315 0.515759,-1.19944 q 0.119944,-0.275872 0.491771,-1.127474 0.38382,-0.851602 0.563736,-1.283401 h 1.775172 l 1.679216,3.658292 z"
         style="-inkscape-font-specification:'Orbitron Heavy';fill:#ffffff"
         id="path850" />
    </g>
    <g
       style="fill:none"
       id="g10549"
       transform="matrix(1.084171,0,0,1.084171,4.1916238,4.1757435)">
      <path
         fill-rule="evenodd"
         clip-rule="evenodd"
         d="M 1.5,2.95 C 1.5,2.42533 1.92736,2 2.45455,2 H 21.5455 C 22.0726,2 22.5,2.42533 22.5,2.95 v 18.1 C 22.5,21.5747 22.0726,22 21.5455,22 H 2.45455 C 1.92736,22 1.5,21.5747 1.5,21.05 Z M 20.5,20 V 8.25 H 3.5 V 20 Z"
         fill="#ffffff"
         stroke="#ffffff"
         id="path10531" />
      <circle
         cx="19"
         cy="5"
         r="2"
         fill="#f53137"
         id="circle10533" />
      <circle
         cx="14"
         cy="5"
         r="2"
         fill="#f53137"
         id="circle10535" />
      <circle
         cx="9"
         cy="5"
         r="2"
         fill="#f53137"
         id="circle10537" />
    </g>
  </g>
</svg>
