<svg width="24" height="24" viewBox="0 0 24 24" fill="none" xmlns="http://www.w3.org/2000/svg">
<path d="M6.66266 1C6.51229 1 6.38516 1.11131 6.36529 1.26035L6.04529 3.66035C6.02131 3.8402 6.16122 4 6.34266 4L8.65735 4C8.83878 4 8.97869 3.8402 8.95471 3.66035L8.63471 1.26035C8.61484 1.11131 8.48771 1 8.33735 1L6.66266 1Z" fill="white"/>
<path d="M8.33734 14C8.48771 14 8.61484 13.8887 8.63471 13.7396L8.95471 11.3396C8.97869 11.1598 8.83878 11 8.65734 11L6.34265 11C6.16122 11 6.02131 11.1598 6.04529 11.3396L6.36529 13.7396C6.38516 13.8887 6.51229 14 6.66265 14L8.33734 14Z" fill="white"/>
<path d="M14 6.66266C14 6.51229 13.8887 6.38516 13.7396 6.36529L11.3396 6.04529C11.1598 6.02131 11 6.16122 11 6.34265L11 8.65735C11 8.83878 11.1598 8.97869 11.3396 8.95471L13.7396 8.63471C13.8887 8.61484 14 8.48771 14 8.33735L14 6.66266Z" fill="white"/>
<path d="M1 8.33734C1 8.48771 1.11131 8.61484 1.26035 8.63471L3.66035 8.95471C3.8402 8.97869 4 8.83878 4 8.65735L4 6.34265C4 6.16122 3.8402 6.02131 3.66035 6.04529L1.26035 6.36529C1.11131 6.38516 1 6.51229 1 6.66265L1 8.33734Z" fill="white"/>
<path d="M11.5041 2.31172C11.3978 2.20539 11.2292 2.1942 11.1097 2.28554L9.1864 3.75632C9.04228 3.86654 9.02821 4.07847 9.15651 4.20676L10.7932 5.84349C10.9215 5.97179 11.1335 5.95772 11.2437 5.8136L12.7145 3.89027C12.8058 3.77083 12.7946 3.60222 12.6883 3.4959L11.5041 2.31172Z" fill="white"/>
<path d="M3.4959 12.6883C3.60222 12.7946 3.77082 12.8058 3.89027 12.7145L5.8136 11.2437C5.95772 11.1335 5.97179 10.9215 5.84349 10.7932L4.20676 9.15651C4.07846 9.02821 3.86653 9.04228 3.75632 9.1864L2.28554 11.1097C2.1942 11.2292 2.20539 11.3978 2.31171 11.5041L3.4959 12.6883Z" fill="white"/>
<path d="M12.6883 11.5041C12.7946 11.3978 12.8058 11.2292 12.7145 11.1097L11.2437 9.1864C11.1335 9.04227 10.9215 9.02821 10.7932 9.1565L9.15651 10.7932C9.02821 10.9215 9.04228 11.1335 9.1864 11.2437L11.1097 12.7145C11.2292 12.8058 11.3978 12.7946 11.5041 12.6883L12.6883 11.5041Z" fill="white"/>
<path d="M2.31171 3.49589C2.20539 3.60222 2.1942 3.77082 2.28554 3.89026L3.75632 5.81359C3.86653 5.95772 4.07846 5.97178 4.20676 5.84349L5.84349 4.20676C5.97179 4.07846 5.95772 3.86653 5.8136 3.75632L3.89027 2.28553C3.77083 2.1942 3.60222 2.20539 3.4959 2.31171L2.31171 3.49589Z" fill="white"/>
<circle cx="7.5" cy="7.5" r="4.5" fill="white"/>
<path d="M4.16667 15.9627C3.89052 15.9627 3.66667 15.7388 3.66667 15.4627V12.4751C3.66667 12.199 3.89052 11.9751 4.16667 11.9751H6.16667V15.9627H4.16667Z" fill="#F53137" stroke="#F53137"/>
<path d="M12.8333 9.02814C12.8333 8.64425 12.4186 8.40356 12.0853 8.59398L6.16667 11.9751V15.9627L12.0823 19.3973C12.4156 19.5908 12.8333 19.3503 12.8333 18.9649V9.02814Z" fill="#F53137" stroke="#F53137"/>
<path d="M14.5 16.9167C14.5 16.9167 15.3333 15.4583 15.3333 14C15.3333 12.5417 14.5 11.0833 14.5 11.0833" stroke="white" stroke-width="2" stroke-linecap="round"/>
<path d="M16.4444 18.8611C16.4444 18.8611 17.8333 16.4306 17.8333 14C17.8333 11.5694 16.4444 9.13889 16.4444 9.13889" stroke="white" stroke-width="2" stroke-linecap="round"/>
<path d="M18.3889 20.8056C18.3889 20.8056 20.3333 17.4028 20.3333 14C20.3333 10.5972 18.3889 7.19444 18.3889 7.19444" stroke="white" stroke-width="2" stroke-linecap="round"/>
</svg>
