<svg width="24" height="24" viewBox="0 0 24 24" fill="none" xmlns="http://www.w3.org/2000/svg">
<path d="M6.66266 1C6.51229 1 6.38516 1.11131 6.36529 1.26035L6.04529 3.66035C6.02131 3.8402 6.16122 4 6.34265 4L8.65735 4C8.83878 4 8.97869 3.8402 8.95471 3.66035L8.63471 1.26035C8.61484 1.11131 8.48771 1 8.33735 1L6.66266 1Z" fill="#3CC1F5"/>
<path d="M8.33734 14C8.48771 14 8.61484 13.8887 8.63471 13.7396L8.95471 11.3396C8.97869 11.1598 8.83878 11 8.65735 11L6.34265 11C6.16122 11 6.02131 11.1598 6.04529 11.3396L6.36529 13.7396C6.38516 13.8887 6.51229 14 6.66265 14L8.33734 14Z" fill="#3CC1F5"/>
<path d="M14 6.66266C14 6.51229 13.8887 6.38516 13.7396 6.36529L11.3396 6.04529C11.1598 6.02131 11 6.16122 11 6.34265L11 8.65735C11 8.83878 11.1598 8.97869 11.3396 8.95471L13.7396 8.63471C13.8887 8.61484 14 8.48771 14 8.33735L14 6.66266Z" fill="#3CC1F5"/>
<path d="M1 8.33734C1 8.48771 1.11131 8.61484 1.26035 8.63471L3.66035 8.95471C3.8402 8.97869 4 8.83878 4 8.65735L4 6.34265C4 6.16122 3.8402 6.02131 3.66035 6.04529L1.26035 6.36529C1.11131 6.38516 1 6.51229 1 6.66265L1 8.33734Z" fill="#3CC1F5"/>
<path d="M11.5041 2.31171C11.3978 2.20539 11.2292 2.1942 11.1097 2.28553L9.1864 3.75631C9.04228 3.86653 9.02821 4.07846 9.15651 4.20675L10.7932 5.84349C10.9215 5.97178 11.1335 5.95772 11.2437 5.81359L12.7145 3.89026C12.8058 3.77082 12.7946 3.60221 12.6883 3.49589L11.5041 2.31171Z" fill="#3CC1F5"/>
<path d="M3.4959 12.6883C3.60222 12.7946 3.77082 12.8058 3.89027 12.7145L5.8136 11.2437C5.95772 11.1335 5.97179 10.9215 5.84349 10.7932L4.20676 9.1565C4.07846 9.0282 3.86653 9.04227 3.75632 9.18639L2.28554 11.1097C2.1942 11.2292 2.20539 11.3978 2.31171 11.5041L3.4959 12.6883Z" fill="#3CC1F5"/>
<path d="M12.6883 11.5041C12.7946 11.3978 12.8058 11.2292 12.7145 11.1097L11.2437 9.18639C11.1335 9.04227 10.9215 9.0282 10.7932 9.1565L9.15651 10.7932C9.02821 10.9215 9.04228 11.1335 9.1864 11.2437L11.1097 12.7145C11.2292 12.8058 11.3978 12.7946 11.5041 12.6883L12.6883 11.5041Z" fill="#3CC1F5"/>
<path d="M2.31171 3.49589C2.20539 3.60222 2.1942 3.77082 2.28554 3.89026L3.75632 5.81359C3.86653 5.95772 4.07846 5.97178 4.20676 5.84349L5.84349 4.20676C5.97179 4.07846 5.95772 3.86653 5.8136 3.75632L3.89027 2.28553C3.77083 2.1942 3.60222 2.20539 3.4959 2.31171L2.31171 3.49589Z" fill="#3CC1F5"/>
<circle cx="7.5" cy="7.5" r="4.5" fill="#3CC1F5"/>
<path d="M11.2765 21.0461L11.2856 21.0517L11.2948 21.057C11.8155 21.3527 12.3839 21.5 12.9908 21.5H13.6797H14.1797V21V19.0639V18.5639H13.6797H12.9908C12.8709 18.5639 12.7731 18.5293 12.6788 18.449C12.5982 18.3555 12.5644 18.2597 12.5644 18.1431V14.1292V13.8919L12.3806 13.7419L10.8666 12.5057L12.375 11.3099L12.5644 11.1597V10.9181V6.88056C12.5644 6.75805 12.601 6.67434 12.6782 6.59768L12.3257 6.24306L12.6782 6.59768C12.7805 6.49597 12.8777 6.45972 12.9908 6.45972H13.6797H14.1797V5.95972V4V3.5H13.6797H12.9908C12.3789 3.5 11.8072 3.65775 11.2857 3.97192C10.7855 4.26705 10.3796 4.67256 10.0699 5.17964L10.0698 5.17962L10.0671 5.18423C9.76379 5.69295 9.61648 6.26284 9.61648 6.88056V10.4515L8.7663 10.901L8.5 11.0418V11.3431V13.6097V13.8896L8.7386 14.036L9.61648 14.5743V18.1431C9.61648 18.748 9.76513 19.3143 10.0631 19.8325L10.0684 19.8418L10.0742 19.8509C10.3835 20.3393 10.7857 20.7389 11.2765 21.0461ZM16.344 21V21.5H16.844H17.5329C18.1398 21.5 18.7034 21.3526 19.212 21.053L19.212 21.0531L19.2166 21.0503C19.7261 20.7428 20.1342 20.3395 20.4315 19.8417C20.7481 19.3226 20.9073 18.753 20.9073 18.1431V14.5948L21.7655 14.057L22 13.9101V13.6333V11.3903V11.1031L21.752 10.9584L20.9073 10.4656V6.88056C20.9073 6.26066 20.7509 5.68975 20.4316 5.18182C20.1357 4.67086 19.7278 4.26551 19.2144 3.97188C18.7067 3.65646 18.1422 3.5 17.5329 3.5H16.844H16.344V4V5.95972V6.45972H16.844H17.5329C17.6445 6.45972 17.7257 6.49414 17.8068 6.58203L17.8215 6.59801L17.8376 6.61265C17.9261 6.6933 17.9594 6.77268 17.9594 6.88056V10.9653V11.2092L18.1516 11.3593L19.6536 12.5323L18.1432 13.7655L17.9594 13.9155V14.1528V18.1431C17.9594 18.2526 17.9241 18.3479 17.8218 18.4495C17.7446 18.5263 17.6589 18.5639 17.5329 18.5639H16.844H16.344V19.0639V21Z" fill="black" stroke="black"/>
</svg>
