<?xml version="1.0" encoding="UTF-8" standalone="no"?>
<!-- Created with Inkscape (http://www.inkscape.org/) -->

<svg
   width="400"
   height="120"
   viewBox="0 0 105.83333 31.750001"
   version="1.1"
   id="svg107616"
   inkscape:version="1.1.1 (3bf5ae0d25, 2021-09-20)"
   sodipodi:docname="dusk-full-light.svg"
   xmlns:inkscape="http://www.inkscape.org/namespaces/inkscape"
   xmlns:sodipodi="http://sodipodi.sourceforge.net/DTD/sodipodi-0.dtd"
   xmlns="http://www.w3.org/2000/svg"
   xmlns:svg="http://www.w3.org/2000/svg">
  <sodipodi:namedview
     id="namedview107618"
     pagecolor="#ffffff"
     bordercolor="#666666"
     borderopacity="1.0"
     inkscape:pageshadow="2"
     inkscape:pageopacity="0"
     inkscape:pagecheckerboard="true"
     inkscape:document-units="mm"
     showgrid="true"
     units="px"
     inkscape:object-nodes="true"
     gridtolerance="10000"
     guidetolerance="10000"
     inkscape:snap-page="false"
     inkscape:snap-grids="false"
     inkscape:snap-to-guides="false"
     inkscape:snap-smooth-nodes="true"
     inkscape:snap-midpoints="true"
     inkscape:zoom="6.2217172"
     inkscape:cx="113.4735"
     inkscape:cy="104.63349"
     inkscape:window-width="3840"
     inkscape:window-height="2066"
     inkscape:window-x="-11"
     inkscape:window-y="-11"
     inkscape:window-maximized="1"
     inkscape:current-layer="layer1">
    <inkscape:grid
       type="xygrid"
       id="grid111742"
       empspacing="10"
       snapvisiblegridlinesonly="true"
       visible="true"
       enabled="true"
       dotted="true" />
    <sodipodi:guide
       position="0,31.75"
       orientation="0,400"
       id="guide113514" />
    <sodipodi:guide
       position="105.83333,31.75"
       orientation="120,0"
       id="guide113516" />
    <sodipodi:guide
       position="105.83333,0"
       orientation="0,-400"
       id="guide113518" />
    <sodipodi:guide
       position="0,0"
       orientation="-120,0"
       id="guide113520" />
  </sodipodi:namedview>
  <defs
     id="defs107613">
    <clipPath
       id="clip0_17_168">
      <rect
         width="24"
         height="24"
         fill="white"
         id="rect119280" />
    </clipPath>
    <clipPath
       id="clip0_45_53">
      <rect
         width="24"
         height="24"
         fill="white"
         id="rect132054" />
    </clipPath>
    <clipPath
       id="clip0_2_216">
      <rect
         width="51"
         height="24"
         fill="white"
         id="rect142552" />
    </clipPath>
    <style
       class="style-fonts"
       id="style157659">
      @font-face {
        font-family: &quot;Virgil&quot;;
        src: url(&quot;https://excalidraw.com/Virgil.woff2&quot;);
      }
      @font-face {
        font-family: &quot;Cascadia&quot;;
        src: url(&quot;https://excalidraw.com/Cascadia.woff2&quot;);
      }
    </style>
    <inkscape:path-effect
       effect="powerclip"
       id="path-effect14166"
       is_visible="true"
       lpeversion="1"
       inverse="true"
       flatten="false"
       hide_clip="false"
       message="Use fill-rule evenodd on &lt;b&gt;fill and stroke&lt;/b&gt; dialog if no flatten result after convert clip to paths." />
  </defs>
  <g
     inkscape:label="Layer 1"
     inkscape:groupmode="layer"
     id="layer1">
    <g
       aria-label="mach
dusk"
       id="text116068"
       style="font-size:11.9944px;font-family:Orbitron;-inkscape-font-specification:Orbitron;stroke-width:0.264583">
      <path
         d="m 42.854719,4.6632231 q 0.719664,0 1.223429,0.5157592 0.515759,0.5157592 0.515759,1.2234288 V 11.619975 H 42.770758 V 6.4983663 H 40.467834 V 11.619975 H 38.620696 V 6.4983663 H 36.317771 V 11.619975 H 34.482628 V 4.6632231 Z"
         style="-inkscape-font-specification:'Orbitron Heavy'"
         id="path845" />
      <path
         d="m 51.130838,4.6632231 q 0.719664,0 1.223429,0.5157592 0.515759,0.5157592 0.515759,1.2234288 v 5.2175639 h -5.313519 q -0.719664,0 -1.235423,-0.515759 -0.503765,-0.515759 -0.503765,-1.2234289 V 7.2180303 h 5.217564 V 6.4983663 H 45.817319 V 4.6632231 Z m -0.09595,5.1216088 v -0.959552 h -3.382421 v 0.959552 z"
         style="-inkscape-font-specification:'Orbitron Heavy'"
         id="path847" />
      <path
         d="m 60.750307,6.4983663 h -5.20557 v 3.2864656 h 5.217564 v 1.8351431 h -5.313519 q -0.70767,0 -1.223429,-0.515759 -0.515759,-0.515759 -0.515759,-1.2234289 v -3.478376 q 0,-0.7076696 0.515759,-1.2234288 0.515759,-0.5157592 1.223429,-0.5157592 h 5.301525 z"
         style="-inkscape-font-specification:'Orbitron Heavy'"
         id="path849" />
      <path
         d="m 67.047349,4.6632231 q 0.707669,0 1.223429,0.5157592 0.515759,0.5157592 0.515759,1.2234288 V 11.619975 H 66.951394 V 6.4983663 H 63.568973 V 11.619975 H 61.73383 V 2.3842871 h 1.835143 v 2.278936 z"
         style="-inkscape-font-specification:'Orbitron Heavy'"
         id="path851" />
      <path
         d="m 39.34036,17.377287 h 1.835143 v 9.235688 H 35.84999 q -0.719664,0 -1.235424,-0.515759 -0.503764,-0.515759 -0.503764,-1.223429 v -3.478376 q 0,-0.707669 0.503764,-1.223429 0.51576,-0.515759 1.235424,-0.515759 h 3.49037 z m -3.382421,4.114079 v 3.286466 h 3.382421 v -3.286466 z"
         style="-inkscape-font-specification:'Orbitron Heavy'"
         id="path853" />
      <path
         d="m 47.388582,19.656223 h 1.835143 v 5.217564 q 0,0.70767 -0.515759,1.223429 -0.503765,0.515759 -1.223429,0.515759 h -3.574331 q -0.719664,0 -1.235423,-0.515759 -0.503765,-0.515759 -0.503765,-1.223429 v -5.217564 h 1.835143 v 5.121609 h 3.382421 z"
         style="-inkscape-font-specification:'Orbitron Heavy'"
         id="path855" />
      <path
         d="m 57.235972,21.395411 v 0.347838 h -1.847138 v -0.251883 h -3.382421 v 0.719664 h 3.478377 q 0.731658,0 1.235423,0.51576 0.515759,0.503764 0.515759,1.223428 v 0.923569 q 0,0.70767 -0.515759,1.223429 -0.503765,0.515759 -1.235423,0.515759 h -3.574332 q -0.707669,0 -1.223429,-0.515759 Q 50.17127,25.581457 50.17127,24.873787 V 24.52595 h 1.835143 v 0.251882 h 3.382421 v -0.719664 h -3.478376 q -0.707669,0 -1.223429,-0.515759 Q 50.17127,23.02665 50.17127,22.31898 v -0.923569 q 0,-0.707669 0.515759,-1.223429 0.51576,-0.515759 1.223429,-0.515759 h 3.574332 q 0.731658,0 1.235423,0.515759 0.515759,0.51576 0.515759,1.223429 z"
         style="-inkscape-font-specification:'Orbitron Heavy'"
         id="path857" />
      <path
         d="m 63.305106,19.656223 h 1.847138 v 0.623709 l -2.59079,2.854667 2.59079,2.854667 v 0.623709 H 63.305106 L 60.94221,24.058168 h -0.935564 v 2.554807 h -1.835143 v -9.235688 h 1.835143 v 4.833743 h 0.935564 z"
         style="-inkscape-font-specification:'Orbitron Heavy'"
         id="path859" />
    </g>
    <g
       style="fill:none"
       id="g165283"
       transform="matrix(1.0848024,0,0,1.0848024,3.7117688,1.3620751)">
      <path
         style="fill:none;stroke:#3cc1f5;stroke-width:2;stroke-linecap:butt;stroke-linejoin:miter;stroke-miterlimit:4;stroke-dasharray:none;stroke-opacity:1"
         d="M 19.926784,19.686789 C 14.619797,22.480087 9.9653095,21.577403 4.5865783,19.934211"
         id="path404"
         sodipodi:nodetypes="cc" />
      <path
         style="fill:#3cc1f5;fill-opacity:1;stroke:#3cc1f5;stroke-width:0.651902px;stroke-linecap:butt;stroke-linejoin:miter;stroke-opacity:1"
         d="m 14.989132,5.3410799 c 2.420811,0.189736 4.596914,0.7372811 6.541424,2.3477434 -0.423938,0.415287 -0.84612,0.9498093 -0.84612,0.9498093 C 19.198734,7.3617353 16.762338,6.7569735 15.007054,6.7748151"
         id="path2750"
         sodipodi:nodetypes="ccsc" />
      <path
         style="fill:#3cc1f5;fill-opacity:1;stroke:#3cc1f5;stroke-width:0.612474px;stroke-linecap:butt;stroke-linejoin:miter;stroke-opacity:1"
         d="m 16.898253,9.6731884 c 1.909768,0.9837956 3.827721,1.5499976 6.140049,1.1097496 -0.09503,-0.550794 -0.125091,-1.2013826 -0.125091,-1.2013826 -1.791513,0.37555 -3.934464,-0.265363 -5.236238,-1.1098524"
         id="path2750-1"
         sodipodi:nodetypes="ccsc" />
      <path
         id="path2635"
         clip-path="none"
         style="fill:#000000;stroke:#000000;stroke-width:0.885782;stroke-opacity:1"
         d="m 12.150391,4.8085938 a 7.2323666,7.2323666 0 0 0 -7.2324222,7.2324222 7.2323666,7.2323666 0 0 0 2.2871093,5.257812 c 3.7395339,1.049897 6.6388959,0.991377 9.9374999,-0.04687 a 7.2323666,7.2323666 0 0 0 2.240234,-5.210937 7.2323666,7.2323666 0 0 0 -7.232421,-7.2324222 z" />
      <path
         style="fill:none;stroke:#3cc1f5;stroke-width:2;stroke-linecap:butt;stroke-linejoin:miter;stroke-miterlimit:4;stroke-dasharray:none;stroke-opacity:1"
         d="m 21.997407,15.835528 c -7.396334,3.563058 -11.308553,3.897487 -20.1512024,0.08247"
         id="path404-2"
         sodipodi:nodetypes="cc" />
      <path
         style="fill:#3cc1f5;fill-opacity:1;stroke:none;stroke-width:1.23832px;stroke-linecap:butt;stroke-linejoin:miter;stroke-opacity:1"
         d="m 10.199659,12.105362 -0.559864,2.048481 c -2.7734342,0.04607 -3.4144709,-1.652484 -4.5231935,-2.789569 1.6728572,-0.758767 2.863736,0.580254 5.0830575,0.741088 z"
         id="path18686"
         sodipodi:nodetypes="cccc" />
      <path
         style="fill:#3cc1f5;fill-opacity:1;stroke:none;stroke-width:1.23832px;stroke-linecap:butt;stroke-linejoin:miter;stroke-opacity:1"
         d="m 12.199659,12.105362 0.559864,2.048481 c 2.773434,0.04607 3.414471,-1.652484 4.523193,-2.789569 -1.672857,-0.758767 -2.863735,0.580254 -5.083057,0.741088 z"
         id="path19934"
         sodipodi:nodetypes="cccc" />
    </g>
  </g>
</svg>
