<svg width="84" height="24" viewBox="0 0 84 24" fill="none" xmlns="http://www.w3.org/2000/svg">
<g clip-path="url(#clip0_2_196)">
<path d="M14.5 3.5H2.5C1.94772 3.5 1.5 3.94771 1.5 4.5V4.80769C1.5 5.35998 1.94772 5.80769 2.5 5.80769L3.66667 5.80769V19.1923H2.5C1.94772 19.1923 1.5 19.64 1.5 20.1923V20.5C1.5 21.0523 1.94771 21.5 2.5 21.5H8.72222C9.27451 21.5 9.72222 21.0523 9.72222 20.5V20.1923C9.72222 19.64 9.27451 19.1923 8.72222 19.1923L6.83333 19.1923V13.6538L10.1667 13.6538V14.6154C10.1667 15.1677 10.6144 15.6154 11.1667 15.6154H11.6111C12.1634 15.6154 12.6111 15.1677 12.6111 14.6154V10.3846C12.6111 9.83233 12.1634 9.38462 11.6111 9.38462H11.1667C10.6144 9.38462 10.1667 9.83233 10.1667 10.3846V11.3462L6.83333 11.3462L6.83333 5.80769L13.0556 5.80769V7.42308C13.0556 7.97536 13.5033 8.42308 14.0556 8.42308H14.5C15.0523 8.42308 15.5 7.97536 15.5 7.42308V4.5C15.5 3.94772 15.0523 3.5 14.5 3.5Z" fill="white" stroke="white" stroke-linejoin="round"/>
<path d="M15.5795 13.2102V12.2727H22.125V13.2102H19.3807V21H18.3239V13.2102H15.5795Z" fill="white"/>
<path d="M15.5795 13.2102H14.5795C14.5795 13.7625 15.0273 14.2102 15.5795 14.2102V13.2102ZM15.5795 12.2727V11.2727C15.0273 11.2727 14.5795 11.7204 14.5795 12.2727H15.5795ZM22.125 12.2727H23.125C23.125 11.7204 22.6773 11.2727 22.125 11.2727V12.2727ZM22.125 13.2102V14.2102C22.6773 14.2102 23.125 13.7625 23.125 13.2102H22.125ZM19.3807 13.2102V12.2102C18.8284 12.2102 18.3807 12.6579 18.3807 13.2102H19.3807ZM19.3807 21V22C19.933 22 20.3807 21.5523 20.3807 21H19.3807ZM18.3239 21H17.3239C17.3239 21.5523 17.7716 22 18.3239 22V21ZM18.3239 13.2102H19.3239C19.3239 12.6579 18.8761 12.2102 18.3239 12.2102V13.2102ZM16.5795 13.2102V12.2727H14.5795V13.2102H16.5795ZM15.5795 13.2727H22.125V11.2727H15.5795V13.2727ZM21.125 12.2727V13.2102H23.125V12.2727H21.125ZM22.125 12.2102H19.3807V14.2102H22.125V12.2102ZM18.3807 13.2102V21H20.3807V13.2102H18.3807ZM19.3807 20H18.3239V22H19.3807V20ZM19.3239 21V13.2102H17.3239V21H19.3239ZM18.3239 12.2102H15.5795V14.2102H18.3239V12.2102Z" fill="white"/>
<path d="M26.636 17V9.416C26.636 9.112 26.712 8.836 26.864 8.588C27.016 8.34 27.216 8.14 27.464 7.988C27.712 7.836 27.988 7.76 28.292 7.76H30.92V9.344H28.352C28.312 9.344 28.276 9.36 28.244 9.392C28.22 9.416 28.208 9.448 28.208 9.488V10.04H30.92V11.612H28.208V17H26.636ZM31.7803 17V11.696C31.7803 11.392 31.8563 11.116 32.0083 10.868C32.1603 10.62 32.3603 10.42 32.6083 10.268C32.8643 10.116 33.1403 10.04 33.4363 10.04H37.3003V11.612H33.4963C33.4563 11.612 33.4203 11.628 33.3883 11.66C33.3643 11.684 33.3523 11.716 33.3523 11.756V17H31.7803ZM39.7758 17C39.4718 17 39.1958 16.924 38.9478 16.772C38.6998 16.62 38.4998 16.42 38.3478 16.172C38.1958 15.924 38.1198 15.648 38.1198 15.344V11.696C38.1198 11.392 38.1958 11.116 38.3478 10.868C38.4998 10.62 38.6998 10.42 38.9478 10.268C39.1958 10.116 39.4718 10.04 39.7758 10.04H43.5318C43.8358 10.04 44.1118 10.116 44.3598 10.268C44.6158 10.42 44.8158 10.62 44.9598 10.868C45.1118 11.116 45.1878 11.392 45.1878 11.696V14.312H39.6918V15.284C39.6918 15.324 39.7038 15.36 39.7278 15.392C39.7598 15.416 39.7958 15.428 39.8358 15.428H45.1878V17H39.7758ZM39.6918 12.896H43.6158V11.756C43.6158 11.716 43.5998 11.684 43.5678 11.66C43.5438 11.628 43.5118 11.612 43.4718 11.612H39.8358C39.7958 11.612 39.7598 11.628 39.7278 11.66C39.7038 11.684 39.6918 11.716 39.6918 11.756V12.896ZM47.8266 17C47.5226 17 47.2466 16.924 46.9986 16.772C46.7506 16.62 46.5506 16.42 46.3986 16.172C46.2466 15.924 46.1706 15.648 46.1706 15.344V11.696C46.1706 11.392 46.2466 11.116 46.3986 10.868C46.5506 10.62 46.7506 10.42 46.9986 10.268C47.2466 10.116 47.5226 10.04 47.8266 10.04H51.5826C51.8866 10.04 52.1626 10.116 52.4106 10.268C52.6666 10.42 52.8666 10.62 53.0106 10.868C53.1626 11.116 53.2386 11.392 53.2386 11.696V14.312H47.7426V15.284C47.7426 15.324 47.7546 15.36 47.7786 15.392C47.8106 15.416 47.8466 15.428 47.8866 15.428H53.2386V17H47.8266ZM47.7426 12.896H51.6666V11.756C51.6666 11.716 51.6506 11.684 51.6186 11.66C51.5946 11.628 51.5626 11.612 51.5226 11.612H47.8866C47.8466 11.612 47.8106 11.628 47.7786 11.66C47.7546 11.684 47.7426 11.716 47.7426 11.756V12.896ZM56.1592 17C55.8552 17 55.5792 16.924 55.3312 16.772C55.0832 16.62 54.8832 16.42 54.7312 16.172C54.5792 15.924 54.5032 15.648 54.5032 15.344V7.904H56.0752V10.04H58.7872V11.612H56.0752V15.284C56.0752 15.324 56.0872 15.36 56.1112 15.392C56.1432 15.416 56.1792 15.428 56.2192 15.428H58.7872V17H56.1592ZM60.8789 19.58V17.996H65.0669C65.1069 17.996 65.1389 17.98 65.1629 17.948C65.1949 17.924 65.2109 17.892 65.2109 17.852V17H61.3709C61.0749 17 60.7989 16.924 60.5429 16.772C60.2949 16.62 60.0949 16.42 59.9429 16.172C59.7909 15.924 59.7149 15.648 59.7149 15.344V10.064H61.2869V15.284C61.2869 15.324 61.2989 15.36 61.3229 15.392C61.3549 15.416 61.3909 15.428 61.4309 15.428H65.0669C65.1069 15.428 65.1389 15.416 65.1629 15.392C65.1949 15.36 65.2109 15.324 65.2109 15.284V10.064H66.7829V17.924C66.7829 18.228 66.7109 18.504 66.5669 18.752C66.4229 19.008 66.2229 19.208 65.9669 19.352C65.7189 19.504 65.4429 19.58 65.1389 19.58H60.8789ZM67.9918 19.76V10.04H73.4037C73.7078 10.04 73.9838 10.116 74.2318 10.268C74.4878 10.42 74.6878 10.62 74.8318 10.868C74.9838 11.116 75.0598 11.392 75.0598 11.696V15.344C75.0598 15.648 74.9838 15.924 74.8318 16.172C74.6878 16.42 74.4878 16.62 74.2318 16.772C73.9838 16.924 73.7078 17 73.4037 17H69.5638V19.76H67.9918ZM69.7078 15.428H73.3438C73.3837 15.428 73.4158 15.416 73.4398 15.392C73.4718 15.36 73.4878 15.324 73.4878 15.284V11.756C73.4878 11.716 73.4718 11.684 73.4398 11.66C73.4158 11.628 73.3837 11.612 73.3438 11.612H69.7078C69.6678 11.612 69.6318 11.628 69.5998 11.66C69.5758 11.684 69.5638 11.716 69.5638 11.756V15.284C69.5638 15.324 69.5758 15.36 69.5998 15.392C69.6318 15.416 69.6678 15.428 69.7078 15.428ZM77.5805 17C77.2765 17 77.0005 16.924 76.7525 16.772C76.5045 16.62 76.3045 16.42 76.1525 16.172C76.0005 15.924 75.9245 15.648 75.9245 15.344V11.696C75.9245 11.392 76.0005 11.116 76.1525 10.868C76.3045 10.62 76.5045 10.42 76.7525 10.268C77.0005 10.116 77.2765 10.04 77.5805 10.04H81.3365C81.6405 10.04 81.9165 10.116 82.1645 10.268C82.4205 10.42 82.6205 10.62 82.7645 10.868C82.9165 11.116 82.9925 11.392 82.9925 11.696V14.312H77.4965V15.284C77.4965 15.324 77.5085 15.36 77.5325 15.392C77.5645 15.416 77.6005 15.428 77.6405 15.428H82.9925V17H77.5805ZM77.4965 12.896H81.4205V11.756C81.4205 11.716 81.4045 11.684 81.3725 11.66C81.3485 11.628 81.3165 11.612 81.2765 11.612H77.6405C77.6005 11.612 77.5645 11.628 77.5325 11.66C77.5085 11.684 77.4965 11.716 77.4965 11.756V12.896Z" fill="white"/>
</g>
<defs>
<clipPath id="clip0_2_196">
<rect width="84" height="24" fill="white"/>
</clipPath>
</defs>
</svg>
