<?xml version="1.0" encoding="UTF-8" standalone="no"?>
<!-- Created with Inkscape (http://www.inkscape.org/) -->

<svg
   width="400"
   height="120"
   viewBox="0 0 105.83333 31.750001"
   version="1.1"
   id="svg107616"
   inkscape:version="1.1.1 (3bf5ae0d25, 2021-09-20)"
   sodipodi:docname="gamemode-full-dark.svg"
   xmlns:inkscape="http://www.inkscape.org/namespaces/inkscape"
   xmlns:sodipodi="http://sodipodi.sourceforge.net/DTD/sodipodi-0.dtd"
   xmlns="http://www.w3.org/2000/svg"
   xmlns:svg="http://www.w3.org/2000/svg">
  <sodipodi:namedview
     id="namedview107618"
     pagecolor="#000000"
     bordercolor="#666666"
     borderopacity="1.0"
     inkscape:pageshadow="2"
     inkscape:pageopacity="0"
     inkscape:pagecheckerboard="true"
     inkscape:document-units="mm"
     showgrid="true"
     units="px"
     inkscape:object-nodes="true"
     gridtolerance="10000"
     guidetolerance="10000"
     inkscape:snap-page="false"
     inkscape:snap-grids="false"
     inkscape:snap-to-guides="false"
     inkscape:snap-smooth-nodes="true"
     inkscape:snap-midpoints="true"
     inkscape:zoom="6.2217172"
     inkscape:cx="211.51717"
     inkscape:cy="107.52658"
     inkscape:window-width="3840"
     inkscape:window-height="2066"
     inkscape:window-x="-11"
     inkscape:window-y="-11"
     inkscape:window-maximized="1"
     inkscape:current-layer="layer1">
    <inkscape:grid
       type="xygrid"
       id="grid111742"
       empspacing="10"
       snapvisiblegridlinesonly="true"
       visible="true"
       enabled="true"
       dotted="true" />
    <sodipodi:guide
       position="0,31.75"
       orientation="0,400"
       id="guide113514" />
    <sodipodi:guide
       position="105.83333,31.75"
       orientation="120,0"
       id="guide113516" />
    <sodipodi:guide
       position="105.83333,0"
       orientation="0,-400"
       id="guide113518" />
    <sodipodi:guide
       position="0,0"
       orientation="-120,0"
       id="guide113520" />
  </sodipodi:namedview>
  <defs
     id="defs107613">
    <clipPath
       id="clip0_17_168">
      <rect
         width="24"
         height="24"
         fill="white"
         id="rect119280" />
    </clipPath>
  </defs>
  <g
     inkscape:label="Layer 1"
     inkscape:groupmode="layer"
     id="layer1">
    <g
       aria-label="mach
gamemode"
       id="text116068"
       style="font-size:11.9944px;font-family:Orbitron;-inkscape-font-specification:Orbitron;stroke-width:0.264583">
      <path
         d="m 42.854719,4.6632231 q 0.719664,0 1.223429,0.5157592 0.515759,0.5157592 0.515759,1.2234288 V 11.619975 H 42.770758 V 6.4983663 H 40.467834 V 11.619975 H 38.620696 V 6.4983663 H 36.317771 V 11.619975 H 34.482628 V 4.6632231 Z"
         style="-inkscape-font-specification:'Orbitron Heavy';fill:#ffffff"
         id="path835" />
      <path
         d="m 51.130838,4.6632231 q 0.719664,0 1.223429,0.5157592 0.515759,0.5157592 0.515759,1.2234288 v 5.2175639 h -5.313519 q -0.719664,0 -1.235423,-0.515759 -0.503765,-0.515759 -0.503765,-1.2234289 V 7.2180303 h 5.217564 V 6.4983663 H 45.817319 V 4.6632231 Z m -0.09595,5.1216088 v -0.959552 h -3.382421 v 0.959552 z"
         style="-inkscape-font-specification:'Orbitron Heavy';fill:#ffffff"
         id="path837" />
      <path
         d="m 60.750307,6.4983663 h -5.20557 v 3.2864656 h 5.217564 v 1.8351431 h -5.313519 q -0.70767,0 -1.223429,-0.515759 -0.515759,-0.515759 -0.515759,-1.2234289 v -3.478376 q 0,-0.7076696 0.515759,-1.2234288 0.515759,-0.5157592 1.223429,-0.5157592 h 5.301525 z"
         style="-inkscape-font-specification:'Orbitron Heavy';fill:#ffffff"
         id="path839" />
      <path
         d="m 67.047349,4.6632231 q 0.707669,0 1.223429,0.5157592 0.515759,0.5157592 0.515759,1.2234288 V 11.619975 H 66.951394 V 6.4983663 H 63.568973 V 11.619975 H 61.73383 V 2.3842871 h 1.835143 v 2.278936 z"
         style="-inkscape-font-specification:'Orbitron Heavy';fill:#ffffff"
         id="path841" />
      <path
         d="m 41.391402,27.620505 q 0,0.719664 -0.515759,1.223429 -0.503765,0.515759 -1.223429,0.515759 h -4.222028 v -1.847138 h 4.126073 v -0.89958 h -3.478376 q -0.719664,0 -1.235423,-0.515759 -0.515759,-0.515759 -0.515759,-1.223429 v -3.478376 q 0,-0.707669 0.515759,-1.223429 0.515759,-0.515759 1.235423,-0.515759 h 3.574331 q 0.719664,0 1.223429,0.515759 0.515759,0.51576 0.515759,1.223429 z m -5.229558,-6.129139 v 3.286466 h 3.394415 v -3.286466 z"
         style="-inkscape-font-specification:'Orbitron Heavy';fill:#ffffff"
         id="path843" />
      <path
         d="m 47.664439,19.656223 q 0.719664,0 1.223429,0.515759 0.515759,0.51576 0.515759,1.223429 v 5.217564 h -5.313519 q -0.719664,0 -1.235423,-0.515759 Q 42.35092,25.581457 42.35092,24.873787 V 22.21103 h 5.217564 V 21.491366 H 42.35092 v -1.835143 z m -0.09596,5.121609 V 23.81828 h -3.382421 v 0.959552 z"
         style="-inkscape-font-specification:'Orbitron Heavy';fill:#ffffff"
         id="path845" />
      <path
         d="m 58.723241,19.656223 q 0.719664,0 1.223429,0.515759 0.515759,0.51576 0.515759,1.223429 v 5.217564 H 58.63928 v -5.121609 h -2.302925 v 5.121609 h -1.847137 v -5.121609 h -2.302925 v 5.121609 H 50.35115 v -6.956752 z"
         style="-inkscape-font-specification:'Orbitron Heavy';fill:#ffffff"
         id="path847" />
      <path
         d="m 66.879408,19.656223 q 0.719664,0 1.223428,0.515759 0.51576,0.51576 0.51576,1.223429 v 2.662757 h -5.217564 v 0.719664 h 5.217564 v 1.835143 h -5.31352 q -0.707669,0 -1.223428,-0.515759 -0.51576,-0.515759 -0.51576,-1.223429 v -3.478376 q 0,-0.707669 0.51576,-1.223429 0.515759,-0.515759 1.223428,-0.515759 z m -3.478376,2.794695 h 3.38242 v -0.959552 h -3.38242 z"
         style="-inkscape-font-specification:'Orbitron Heavy';fill:#ffffff"
         id="path849" />
      <path
         d="m 78.27408,19.656223 q 0.719664,0 1.223429,0.515759 0.515759,0.51576 0.515759,1.223429 v 5.217564 H 78.19012 v -5.121609 h -2.302925 v 5.121609 h -1.847138 v -5.121609 h -2.302925 v 5.121609 h -1.835143 v -6.956752 z"
         style="-inkscape-font-specification:'Orbitron Heavy';fill:#ffffff"
         id="path851" />
      <path
         d="m 83.335701,19.656223 h 3.574331 q 0.719664,0 1.223429,0.515759 0.515759,0.51576 0.515759,1.223429 v 3.478376 q 0,0.70767 -0.515759,1.223429 -0.503765,0.515759 -1.223429,0.515759 h -3.574331 q -0.70767,0 -1.223429,-0.515759 -0.515759,-0.515759 -0.515759,-1.223429 v -3.478376 q 0,-0.707669 0.515759,-1.223429 0.515759,-0.515759 1.223429,-0.515759 z m 0.09596,1.835143 v 3.286466 h 3.382421 v -3.286466 z"
         style="-inkscape-font-specification:'Orbitron Heavy';fill:#ffffff"
         id="path853" />
      <path
         d="m 94.790349,17.377287 h 1.835144 v 9.235688 h -5.325514 q -0.719664,0 -1.235423,-0.515759 -0.503765,-0.515759 -0.503765,-1.223429 v -3.478376 q 0,-0.707669 0.503765,-1.223429 0.515759,-0.515759 1.235423,-0.515759 h 3.49037 z m -3.38242,4.114079 v 3.286466 h 3.38242 v -3.286466 z"
         style="-inkscape-font-specification:'Orbitron Heavy';fill:#ffffff"
         id="path855" />
      <path
         d="m 102.93453,19.656223 q 0.71967,0 1.22343,0.515759 0.51576,0.51576 0.51576,1.223429 v 2.662757 h -5.217562 v 0.719664 h 5.217562 v 1.835143 h -5.313517 q -0.70767,0 -1.223429,-0.515759 -0.515759,-0.515759 -0.515759,-1.223429 v -3.478376 q 0,-0.707669 0.515759,-1.223429 0.515759,-0.515759 1.223429,-0.515759 z m -3.478372,2.794695 h 3.382422 v -0.959552 h -3.382422 z"
         style="-inkscape-font-specification:'Orbitron Heavy';fill:#ffffff"
         id="path857" />
    </g>
    <g
       style="fill:none"
       id="g8991"
       transform="matrix(1.0833146,0,0,1.0833146,4.1553103,2.8651469)">
      <path
         fill-rule="evenodd"
         clip-rule="evenodd"
         d="M 14.9286,8.05262 14.9285,8.0525 C 14.7398,7.64822 14.6299,7.25952 14.587,6.8859 14.529,6.38108 14.1017,6 13.5935,6 H 5.88054 C 4.3637,6 2.45431,7.40724 1.98852,9.80281 1.59751,11.8138 1,16.0407 1,17.9768 c 0,0.6416 0.15266,1.4874 0.64052,2.2568 0.50639,0.7987 1.34266,1.4611 2.58332,1.7164 1.13715,0.2339 1.97049,-0.3731 2.51431,-1.0201 0.50719,-0.6035 0.92093,-1.4204 1.27086,-2.1114 l 0.03033,-0.0599 c 0.36769,-0.7257 0.68048,-1.3344 1.02414,-1.7721 0.34194,-0.4356 0.56041,-0.5044 0.6976,-0.5044 h 0.63712 c 0.3235,0 0.6269,-0.1565 0.8146,-0.42 0.1876,-0.2634 0.2362,-0.6014 0.1304,-0.9071 C 11.1164,14.4995 11,13.8054 11,13.1053 c 0,-0.9711 0.3403,-1.9319 0.7857,-2.5264 0,0.5589 0.2073,1.0942 0.5753,1.4887 l 0.7312,-0.6822 -0.7312,0.6822 c 0.369,0.3954 0.8689,0.6166 1.389,0.6166 0.5201,0 1.02,-0.2212 1.389,-0.6166 0.368,-0.3945 0.5753,-0.9299 0.5753,-1.4887 0,-0.4315 -0.0487,-0.7876 -0.1591,-1.13925 C 15.4567,9.12599 15.315,8.84118 15.184,8.57783 v -2e-5 L 15.1677,8.54515 C 15.0931,8.39508 15.0147,8.23724 14.9286,8.05262 Z"
         fill="#ffffff"
         id="path8976" />
      <path
         d="M 16.9915,2.90828 C 16.958,2.7287 16.8292,2.58169 16.6556,2.52483 16.482,2.46798 16.2912,2.51032 16.158,2.63529 15.2537,3.48335 14.5857,4.36263 14.2692,5.3049 c -0.3229,0.96128 -0.266,1.94734 0.2063,2.9592 0.0814,0.17442 0.1589,0.32981 0.2311,0.47441 0.3005,0.60182 0.5077,1.0169 0.5077,1.84039 0,0.4365 -0.1621,0.8488 -0.4409,1.1476 -0.2777,0.2976 -0.6467,0.4577 -1.0234,0.4577 -0.3767,0 -0.7457,-0.1601 -1.0234,-0.4577 -0.2788,-0.2988 -0.4409,-0.7111 -0.4409,-1.1476 0,-0.2152 -0.1377,-0.4063 -0.342,-0.4743 -0.2042,-0.0681 -0.429,0.0023 -0.5581,0.1745 -0.5142,0.6862 -0.8856,1.7537 -0.8856,2.8262 0,0.8351 0.1534,1.6628 0.4523,2.436 0.2988,0.7733 0.7377,1.4781 1.293,2.0733 0.5554,0.5952 1.2167,1.0694 1.9471,1.3937 0.7304,0.3243 1.5147,0.4917 2.3076,0.4917 0.7929,0 1.5772,-0.1674 2.3076,-0.4917 0.7304,-0.3243 1.3917,-0.7985 1.9471,-1.3937 0.5553,-0.5952 0.9942,-1.3 1.293,-2.0733 C 22.3466,14.7681 22.5,13.9404 22.5,13.1053 22.5,11.2497 21.6296,9.51855 19.9683,8.09411 18.4836,6.82105 17.3635,4.90161 16.9915,2.90828 Z"
         fill="#f53137"
         stroke="#f53137"
         stroke-linecap="round"
         stroke-linejoin="round"
         id="path8978" />
      <path
         d="m 6.5,9 v 5 M 4,11.5 h 5"
         stroke="#000000"
         stroke-width="2"
         id="path8980" />
    </g>
  </g>
</svg>
