<?xml version="1.0" encoding="UTF-8" standalone="no"?>
<!-- Created with Inkscape (http://www.inkscape.org/) -->

<svg
   width="400"
   height="120"
   viewBox="0 0 105.83333 31.750001"
   version="1.1"
   id="svg107616"
   inkscape:version="1.1.1 (3bf5ae0d25, 2021-09-20)"
   sodipodi:docname="model3d-full-dark.svg"
   xmlns:inkscape="http://www.inkscape.org/namespaces/inkscape"
   xmlns:sodipodi="http://sodipodi.sourceforge.net/DTD/sodipodi-0.dtd"
   xmlns="http://www.w3.org/2000/svg"
   xmlns:svg="http://www.w3.org/2000/svg">
  <sodipodi:namedview
     id="namedview107618"
     pagecolor="#000000"
     bordercolor="#666666"
     borderopacity="1.0"
     inkscape:pageshadow="2"
     inkscape:pageopacity="0"
     inkscape:pagecheckerboard="true"
     inkscape:document-units="mm"
     showgrid="true"
     units="px"
     inkscape:object-nodes="true"
     gridtolerance="10000"
     guidetolerance="10000"
     inkscape:snap-page="false"
     inkscape:snap-grids="false"
     inkscape:snap-to-guides="false"
     inkscape:snap-smooth-nodes="true"
     inkscape:snap-midpoints="true"
     inkscape:zoom="6.2217172"
     inkscape:cx="192.71207"
     inkscape:cy="92.418215"
     inkscape:window-width="3840"
     inkscape:window-height="2066"
     inkscape:window-x="-11"
     inkscape:window-y="-11"
     inkscape:window-maximized="1"
     inkscape:current-layer="layer1">
    <inkscape:grid
       type="xygrid"
       id="grid111742"
       empspacing="10"
       snapvisiblegridlinesonly="true"
       visible="true"
       enabled="true"
       dotted="true" />
    <sodipodi:guide
       position="0,31.75"
       orientation="0,400"
       id="guide113514" />
    <sodipodi:guide
       position="105.83333,31.75"
       orientation="120,0"
       id="guide113516" />
    <sodipodi:guide
       position="105.83333,0"
       orientation="0,-400"
       id="guide113518" />
    <sodipodi:guide
       position="0,0"
       orientation="-120,0"
       id="guide113520" />
  </sodipodi:namedview>
  <defs
     id="defs107613">
    <clipPath
       id="clip0_17_168">
      <rect
         width="24"
         height="24"
         fill="white"
         id="rect119280" />
    </clipPath>
  </defs>
  <g
     inkscape:label="Layer 1"
     inkscape:groupmode="layer"
     id="layer1">
    <g
       aria-label="mach
model3d"
       id="text116068"
       style="font-size:11.9944px;font-family:Orbitron;-inkscape-font-specification:Orbitron;stroke-width:0.264583">
      <path
         d="m 42.854719,4.6632231 q 0.719664,0 1.223429,0.5157592 0.515759,0.5157592 0.515759,1.2234288 V 11.619975 H 42.770758 V 6.4983663 H 40.467834 V 11.619975 H 38.620696 V 6.4983663 H 36.317771 V 11.619975 H 34.482628 V 4.6632231 Z"
         style="-inkscape-font-specification:'Orbitron Heavy';fill:#ffffff"
         id="path833" />
      <path
         d="m 51.130838,4.6632231 q 0.719664,0 1.223429,0.5157592 0.515759,0.5157592 0.515759,1.2234288 v 5.2175639 h -5.313519 q -0.719664,0 -1.235423,-0.515759 -0.503765,-0.515759 -0.503765,-1.2234289 V 7.2180303 h 5.217564 V 6.4983663 H 45.817319 V 4.6632231 Z m -0.09595,5.1216088 v -0.959552 h -3.382421 v 0.959552 z"
         style="-inkscape-font-specification:'Orbitron Heavy';fill:#ffffff"
         id="path835" />
      <path
         d="m 60.750307,6.4983663 h -5.20557 v 3.2864656 h 5.217564 v 1.8351431 h -5.313519 q -0.70767,0 -1.223429,-0.515759 -0.515759,-0.515759 -0.515759,-1.2234289 v -3.478376 q 0,-0.7076696 0.515759,-1.2234288 0.515759,-0.5157592 1.223429,-0.5157592 h 5.301525 z"
         style="-inkscape-font-specification:'Orbitron Heavy';fill:#ffffff"
         id="path837" />
      <path
         d="m 67.047349,4.6632231 q 0.707669,0 1.223429,0.5157592 0.515759,0.5157592 0.515759,1.2234288 V 11.619975 H 66.951394 V 6.4983663 H 63.568973 V 11.619975 H 61.73383 V 2.3842871 h 1.835143 v 2.278936 z"
         style="-inkscape-font-specification:'Orbitron Heavy';fill:#ffffff"
         id="path839" />
      <path
         d="m 42.854719,19.656223 q 0.719664,0 1.223429,0.515759 0.515759,0.51576 0.515759,1.223429 v 5.217564 h -1.823149 v -5.121609 h -2.302924 v 5.121609 h -1.847138 v -5.121609 h -2.302925 v 5.121609 h -1.835143 v -6.956752 z"
         style="-inkscape-font-specification:'Orbitron Heavy';fill:#ffffff"
         id="path841" />
      <path
         d="m 47.916341,19.656223 h 3.574331 q 0.719664,0 1.223429,0.515759 0.515759,0.51576 0.515759,1.223429 v 3.478376 q 0,0.70767 -0.515759,1.223429 -0.503765,0.515759 -1.223429,0.515759 h -3.574331 q -0.70767,0 -1.223429,-0.515759 -0.515759,-0.515759 -0.515759,-1.223429 v -3.478376 q 0,-0.707669 0.515759,-1.223429 0.515759,-0.515759 1.223429,-0.515759 z m 0.09595,1.835143 v 3.286466 h 3.382421 v -3.286466 z"
         style="-inkscape-font-specification:'Orbitron Heavy';fill:#ffffff"
         id="path843" />
      <path
         d="m 59.370986,17.377287 h 1.835144 v 9.235688 h -5.325514 q -0.719664,0 -1.235423,-0.515759 -0.503765,-0.515759 -0.503765,-1.223429 v -3.478376 q 0,-0.707669 0.503765,-1.223429 0.515759,-0.515759 1.235423,-0.515759 h 3.49037 z m -3.38242,4.114079 v 3.286466 h 3.38242 v -3.286466 z"
         style="-inkscape-font-specification:'Orbitron Heavy';fill:#ffffff"
         id="path845" />
      <path
         d="m 67.515173,19.656223 q 0.719664,0 1.223429,0.515759 0.515759,0.51576 0.515759,1.223429 v 2.662757 h -5.217564 v 0.719664 h 5.217564 v 1.835143 h -5.313519 q -0.70767,0 -1.223429,-0.515759 -0.515759,-0.515759 -0.515759,-1.223429 v -3.478376 q 0,-0.707669 0.515759,-1.223429 0.515759,-0.515759 1.223429,-0.515759 z m -3.478376,2.794695 h 3.382421 v -0.959552 h -3.382421 z"
         style="-inkscape-font-specification:'Orbitron Heavy';fill:#ffffff"
         id="path847" />
      <path
         d="m 70.201902,17.365293 h 1.847138 v 7.412539 h 1.403345 v 1.835143 H 71.94109 q -0.707669,0 -1.223428,-0.515759 -0.51576,-0.515759 -0.51576,-1.223429 z"
         style="-inkscape-font-specification:'Orbitron Heavy';fill:#ffffff"
         id="path849" />
      <path
         d="m 82.412199,19.716195 v 1.727194 q 0,0.29986 -0.07197,0.551742 0.395815,0.479776 0.395815,1.091491 v 1.787165 q 0,0.70767 -0.515759,1.223429 -0.503765,0.515759 -1.223429,0.515759 h -4.98967 q -0.719664,0 -1.235423,-0.515759 -0.51576,-0.515759 -0.51576,-1.223429 v -0.671686 h 1.835144 v 0.575731 h 4.809754 v -1.595255 h -5.229558 v -1.835143 h 4.905709 V 19.81215 h -4.485905 v 0.671687 h -1.835144 v -0.767642 q 0,-0.719664 0.51576,-1.223429 0.515759,-0.515759 1.235423,-0.515759 h 4.665821 q 0.719664,0 1.223429,0.515759 0.515759,0.503765 0.515759,1.223429 z"
         style="-inkscape-font-specification:'Orbitron Heavy';fill:#ffffff"
         id="path851" />
      <path
         d="m 89.033086,17.377287 h 1.835143 v 9.235688 h -5.325513 q -0.719664,0 -1.235423,-0.515759 -0.503765,-0.515759 -0.503765,-1.223429 v -3.478376 q 0,-0.707669 0.503765,-1.223429 0.515759,-0.515759 1.235423,-0.515759 h 3.49037 z m -3.382421,4.114079 v 3.286466 h 3.382421 v -3.286466 z"
         style="-inkscape-font-specification:'Orbitron Heavy';fill:#ffffff"
         id="path853" />
    </g>
    <g
       style="fill:none"
       id="g17209"
       transform="matrix(1.1907474,0,0,1.1907474,2.8811422,1.6115052)">
      <path
         fill-rule="evenodd"
         clip-rule="evenodd"
         d="m 13.7655,14.8006 c -0.2061,-0.3911 -0.2303,-0.8741 -0.0029,-1.311 0.3694,-0.7097 1.2313,-0.9615 1.9185,-0.6316 l 2.6784,1.2857 c 0.366,0.1757 0.6504,0.5016 0.7629,0.9084 0.1129,0.4085 0.0359,0.8413 -0.2026,1.1847 l -1.7859,2.5714 c -0.4513,0.65 -1.3334,0.8043 -1.9796,0.3904 -0.5425,-0.3476 -0.7801,-1.0067 -0.6009,-1.6036 -0.7049,0.0784 -1.4353,0.1193 -2.1821,0.1193 -0.5918,0 -1.1745,-0.0257 -1.7435,-0.0757 0.6785,1.1909 1.355,1.5043 1.7435,1.5043 0.7603,0 1.4463,0.6018 1.4463,1.4285 C 13.8176,21.3981 13.1316,22 12.3713,22 10.3157,22 8.82267,20.4295 7.9297,18.7144 7.65655,18.1897 7.41757,17.615 7.21618,17.0005 6.57464,16.8074 5.97488,16.5779 5.4279,16.3152 3.67707,15.4745 2,14.0389 2,12 2,9.96107 3.67707,8.52549 5.4279,7.68476 5.97488,7.42211 6.57464,7.19255 7.21618,6.99946 7.41757,6.38503 7.65655,5.81029 7.9297,5.28563 8.82267,3.57045 10.3157,2 12.3713,2 c 1.3754,0 2.515,0.72298 3.3527,1.67146 0.7764,0.87911 1.3793,2.03722 1.8024,3.32801 0.0802,0.02413 0.1597,0.04881 0.2384,0.07405 1.5511,0.49695 2.9438,1.24521 3.8646,2.2572 0.5481,0.60235 0.4773,1.52638 -0.1392,2.04368 -0.593,0.4977 -1.4855,0.4451 -2.0121,-0.1337 C 19.0216,10.739 18.1529,10.2016 16.8722,9.79125 15.6154,9.38859 14.0663,9.14286 12.3713,9.14286 c -0.9899,0 -1.926,0.08368 -2.78132,0.23201 C 9.43977,10.1826 9.35504,11.066 9.35504,12 c 0,0.934 0.08473,1.8174 0.23494,2.6251 0.85532,0.1484 1.79142,0.232 2.78132,0.232 0.4773,0 0.9431,-0.0194 1.3942,-0.0565 z M 6.54045,10.3295 C 6.489,10.8749 6.46253,11.4332 6.46253,12 c 0,0.5668 0.02647,1.1251 0.07792,1.6705 C 5.19595,12.9882 4.89251,12.3197 4.89251,12 c 0,-0.3197 0.30344,-0.9882 1.64794,-1.6705 z M 14.1145,6.36132 C 13.5466,6.31148 12.964,6.28571 12.3713,6.28571 c -0.5918,0 -1.1745,0.02572 -1.7435,0.07567 0.6785,-1.19091 1.355,-1.50424 1.7435,-1.50424 0.278,0 0.6852,0.14047 1.173,0.69275 0.1952,0.22102 0.3876,0.49229 0.5702,0.81143 z"
         fill="#ffffff"
         id="path17200" />
    </g>
  </g>
</svg>
