<svg width="24" height="24" viewBox="0 0 24 24" fill="none" xmlns="http://www.w3.org/2000/svg">
<path fill-rule="evenodd" clip-rule="evenodd" d="M13.7655 14.8006C13.5594 14.4095 13.5352 13.9265 13.7626 13.4896C14.132 12.7799 14.9939 12.5281 15.6811 12.858L18.3595 14.1437C18.7255 14.3194 19.0099 14.6453 19.1224 15.0521C19.2353 15.4606 19.1583 15.8934 18.9198 16.2368L17.1339 18.8082C16.6826 19.4582 15.8005 19.6125 15.1543 19.1986C14.6118 18.851 14.3742 18.1919 14.5534 17.595C13.8485 17.6734 13.1181 17.7143 12.3713 17.7143C11.7795 17.7143 11.1968 17.6886 10.6278 17.6386C11.3063 18.8295 11.9828 19.1429 12.3713 19.1429C13.1316 19.1429 13.8176 19.7447 13.8176 20.5714C13.8176 21.3981 13.1316 22 12.3713 22C10.3157 22 8.82267 20.4295 7.9297 18.7144C7.65655 18.1897 7.41757 17.615 7.21618 17.0005C6.57464 16.8074 5.97488 16.5779 5.4279 16.3152C3.67707 15.4745 2 14.0389 2 12C2 9.96107 3.67707 8.52549 5.4279 7.68476C5.97488 7.42211 6.57464 7.19255 7.21618 6.99946C7.41757 6.38503 7.65655 5.81029 7.9297 5.28563C8.82267 3.57045 10.3157 2 12.3713 2C13.7467 2 14.8863 2.72298 15.724 3.67146C16.5004 4.55057 17.1033 5.70868 17.5264 6.99947C17.6066 7.0236 17.6861 7.04828 17.7648 7.07352C19.3159 7.57047 20.7086 8.31873 21.6294 9.33072C22.1775 9.93307 22.1067 10.8571 21.4902 11.3744C20.8972 11.8721 20.0047 11.8195 19.4781 11.2407C19.0216 10.739 18.1529 10.2016 16.8722 9.79125C15.6154 9.38859 14.0663 9.14286 12.3713 9.14286C11.3814 9.14286 10.4453 9.22654 9.58998 9.37487C9.43977 10.1826 9.35504 11.066 9.35504 12C9.35504 12.934 9.43977 13.8174 9.58998 14.6251C10.4453 14.7735 11.3814 14.8571 12.3713 14.8571C12.8486 14.8571 13.3144 14.8377 13.7655 14.8006ZM6.54045 10.3295C6.489 10.8749 6.46253 11.4332 6.46253 12C6.46253 12.5668 6.489 13.1251 6.54045 13.6705C5.19595 12.9882 4.89251 12.3197 4.89251 12C4.89251 11.6803 5.19595 11.0118 6.54045 10.3295ZM14.1145 6.36132C13.5466 6.31148 12.964 6.28571 12.3713 6.28571C11.7795 6.28571 11.1968 6.31143 10.6278 6.36138C11.3063 5.17047 11.9828 4.85714 12.3713 4.85714C12.6493 4.85714 13.0565 4.99761 13.5443 5.54989C13.7395 5.77091 13.9319 6.04218 14.1145 6.36132Z" fill="white"/>
</svg>
