<?xml version="1.0" encoding="UTF-8" standalone="no"?>
<svg
   width="62"
   height="24"
   viewBox="0 0 62 24"
   fill="none"
   version="1.1"
   id="svg31"
   sodipodi:docname="opus-dark.svg"
   inkscape:version="1.1.1 (3bf5ae0d25, 2021-09-20)"
   xmlns:inkscape="http://www.inkscape.org/namespaces/inkscape"
   xmlns:sodipodi="http://sodipodi.sourceforge.net/DTD/sodipodi-0.dtd"
   xmlns="http://www.w3.org/2000/svg"
   xmlns:svg="http://www.w3.org/2000/svg">
  <sodipodi:namedview
     id="namedview33"
     pagecolor="#000000"
     bordercolor="#666666"
     borderopacity="1.0"
     inkscape:pageshadow="2"
     inkscape:pageopacity="0"
     inkscape:pagecheckerboard="0"
     showgrid="false"
     inkscape:zoom="11.701613"
     inkscape:cx="64.264645"
     inkscape:cy="25.722949"
     inkscape:window-width="3840"
     inkscape:window-height="2066"
     inkscape:window-x="-11"
     inkscape:window-y="-11"
     inkscape:window-maximized="1"
     inkscape:current-layer="g24" />
  <g
     clip-path="url(#clip0_2_165)"
     id="g24">
    <g
       aria-label="opus"
       id="text2859"
       style="font-size:13.3333px;font-family:Orbitron;-inkscape-font-specification:Orbitron">
      <path
         d="m 27.933328,8.0000017 h 3.973324 q 0.799998,0 1.359996,0.5733319 0.573332,0.5733318 0.573332,1.3599965 v 3.8666569 q 0,0.786665 -0.573332,1.359997 -0.559998,0.573331 -1.359996,0.573331 h -3.973324 q -0.786664,0 -1.359996,-0.573331 Q 26,14.586652 26,13.799987 V 9.9333301 q 0,-0.7866647 0.573332,-1.3599965 0.573332,-0.5733319 1.359996,-0.5733319 z m 0.106667,2.0399953 v 3.653324 h 3.75999 v -3.653324 z"
         style="-inkscape-font-specification:'Orbitron Heavy';fill:#ffffff"
         id="path831" />
      <path
         d="m 41.173287,8.0000017 q 0.799998,0 1.359997,0.5733319 0.573332,0.5733318 0.573332,1.3599965 v 3.8666569 q 0,0.786665 -0.573332,1.359997 -0.559999,0.573331 -1.359997,0.573331 h -3.866656 v 3.066659 H 35.266636 V 8.0000017 Z m -3.866656,2.0399953 v 3.653324 h 3.75999 v -3.653324 z"
         style="-inkscape-font-specification:'Orbitron Heavy';fill:#ffffff"
         id="path833" />
      <path
         d="m 49.906593,8.0000017 h 2.039994 v 5.7999853 q 0,0.786665 -0.573331,1.359997 -0.559999,0.573331 -1.359997,0.573331 h -3.973323 q -0.799998,0 -1.37333,-0.573331 -0.559999,-0.573332 -0.559999,-1.359997 V 8.0000017 h 2.039995 v 5.6933193 h 3.759991 z"
         style="-inkscape-font-specification:'Orbitron Heavy';fill:#ffffff"
         id="path835" />
      <path
         d="M 60.853219,9.9333301 V 10.319996 H 58.799891 V 10.039997 H 55.0399 v 0.799998 h 3.866657 q 0.813332,0 1.37333,0.573331 0.573332,0.559999 0.573332,1.359997 v 1.026664 q 0,0.786665 -0.573332,1.359997 -0.559998,0.573331 -1.37333,0.573331 h -3.973323 q -0.786665,0 -1.359997,-0.573331 -0.573331,-0.573332 -0.573331,-1.359997 V 13.413321 H 55.0399 v 0.28 h 3.759991 v -0.799998 h -3.866657 q -0.786665,0 -1.359997,-0.573332 -0.573331,-0.573332 -0.573331,-1.359997 V 9.9333301 q 0,-0.7866647 0.573331,-1.3599965 0.573332,-0.5733319 1.359997,-0.5733319 h 3.973323 q 0.813332,0 1.37333,0.5733319 0.573332,0.5733318 0.573332,1.3599965 z"
         style="-inkscape-font-specification:'Orbitron Heavy';fill:#ffffff"
         id="path837" />
    </g>
    <g
       style="fill:none"
       id="g16300"
       transform="translate(1.0411758)">
      <g
         id="g1351"
         transform="translate(0.08619456)">
        <path
           style="fill:none;stroke:#f53137;stroke-width:4;stroke-linecap:butt;stroke-linejoin:miter;stroke-miterlimit:4;stroke-dasharray:none;stroke-opacity:1"
           d="m 5.8726129,1.9243992 c 0.08247,20.1512018 0,0 0.08247,20.1512018"
           id="path404-2"
           sodipodi:nodetypes="cc" />
        <path
           style="fill:none;stroke:#f53137;stroke-width:4;stroke-linecap:butt;stroke-linejoin:miter;stroke-miterlimit:4;stroke-dasharray:none;stroke-opacity:1"
           d="m 11.872613,4.8633115 0.08247,14.2733765"
           id="path21575"
           sodipodi:nodetypes="cc" />
        <path
           style="fill:none;stroke:#f53137;stroke-width:4;stroke-linecap:butt;stroke-linejoin:miter;stroke-miterlimit:4;stroke-dasharray:none;stroke-opacity:1"
           d="m 17.872613,7.91271 0.08247,8.17458"
           id="path21866"
           sodipodi:nodetypes="cc" />
      </g>
    </g>
  </g>
  <defs
     id="defs29">
    <clipPath
       id="clip0_2_165">
      <rect
         width="62"
         height="24"
         fill="white"
         id="rect26" />
    </clipPath>
    <inkscape:path-effect
       effect="powerclip"
       id="path-effect14166"
       is_visible="true"
       lpeversion="1"
       inverse="true"
       flatten="false"
       hide_clip="false"
       message="Use fill-rule evenodd on &lt;b&gt;fill and stroke&lt;/b&gt; dialog if no flatten result after convert clip to paths." />
  </defs>
</svg>
