<svg version="1.1" xmlns="http://www.w3.org/2000/svg" viewBox="0 0 347 293.5208333333335" width="1041" height="880.5625000000005">
  <!-- svg-source:excalidraw -->
  
  <defs>
    <style>
      @font-face {
        font-family: "Virgil";
        src: url("https://excalidraw.com/Virgil.woff2");
      }
      @font-face {
        font-family: "Cascadia";
        src: url("https://excalidraw.com/Cascadia.woff2");
      }
    </style>
  </defs>
  <g stroke-linecap="round" transform="translate(102.14285714285688 47) rotate(0 53 53)"><path d="M106 53 C106 55.31, 105.85 57.63, 105.55 59.92 C105.25 62.2, 104.79 64.49, 104.19 66.72 C103.6 68.94, 102.85 71.15, 101.97 73.28 C101.08 75.41, 100.05 77.5, 98.9 79.5 C97.75 81.5, 96.45 83.43, 95.05 85.26 C93.64 87.09, 92.11 88.85, 90.48 90.48 C88.85 92.11, 87.09 93.64, 85.26 95.05 C83.43 96.45, 81.5 97.75, 79.5 98.9 C77.5 100.05, 75.41 101.08, 73.28 101.97 C71.15 102.85, 68.94 103.6, 66.72 104.19 C64.49 104.79, 62.2 105.25, 59.92 105.55 C57.63 105.85, 55.31 106, 53 106 C50.69 106, 48.37 105.85, 46.08 105.55 C43.8 105.25, 41.51 104.79, 39.28 104.19 C37.06 103.6, 34.85 102.85, 32.72 101.97 C30.59 101.08, 28.5 100.05, 26.5 98.9 C24.5 97.75, 22.57 96.45, 20.74 95.05 C18.91 93.64, 17.15 92.11, 15.52 90.48 C13.89 88.85, 12.36 87.09, 10.95 85.26 C9.55 83.43, 8.25 81.5, 7.1 79.5 C5.95 77.5, 4.92 75.41, 4.03 73.28 C3.15 71.15, 2.4 68.94, 1.81 66.72 C1.21 64.49, 0.75 62.2, 0.45 59.92 C0.15 57.63, 0 55.31, 0 53 C0 50.69, 0.15 48.37, 0.45 46.08 C0.75 43.8, 1.21 41.51, 1.81 39.28 C2.4 37.06, 3.15 34.85, 4.03 32.72 C4.92 30.59, 5.95 28.5, 7.1 26.5 C8.25 24.5, 9.55 22.57, 10.95 20.74 C12.36 18.91, 13.89 17.15, 15.52 15.52 C17.15 13.89, 18.91 12.36, 20.74 10.95 C22.57 9.55, 24.5 8.25, 26.5 7.1 C28.5 5.95, 30.59 4.92, 32.72 4.03 C34.85 3.15, 37.06 2.4, 39.28 1.81 C41.51 1.21, 43.8 0.75, 46.08 0.45 C48.37 0.15, 50.69 0, 53 0 C55.31 0, 57.63 0.15, 59.92 0.45 C62.2 0.75, 64.49 1.21, 66.72 1.81 C68.94 2.4, 71.15 3.15, 73.28 4.03 C75.41 4.92, 77.5 5.95, 79.5 7.1 C81.5 8.25, 83.43 9.55, 85.26 10.95 C87.09 12.36, 88.85 13.89, 90.48 15.52 C92.11 17.15, 93.64 18.91, 95.05 20.74 C96.45 22.57, 97.75 24.5, 98.9 26.5 C100.05 28.5, 101.08 30.59, 101.97 32.72 C102.85 34.85, 103.6 37.06, 104.19 39.28 C104.79 41.51, 105.25 43.8, 105.55 46.08 C105.85 48.37, 105.92 51.85, 106 53 C106.08 54.15, 106.08 51.85, 106 53" stroke="none" stroke-width="0" fill="#fff"></path><path d="M106 53 C106 55.31, 105.85 57.63, 105.55 59.92 C105.25 62.2, 104.79 64.49, 104.19 66.72 C103.6 68.94, 102.85 71.15, 101.97 73.28 C101.08 75.41, 100.05 77.5, 98.9 79.5 C97.75 81.5, 96.45 83.43, 95.05 85.26 C93.64 87.09, 92.11 88.85, 90.48 90.48 C88.85 92.11, 87.09 93.64, 85.26 95.05 C83.43 96.45, 81.5 97.75, 79.5 98.9 C77.5 100.05, 75.41 101.08, 73.28 101.97 C71.15 102.85, 68.94 103.6, 66.72 104.19 C64.49 104.79, 62.2 105.25, 59.92 105.55 C57.63 105.85, 55.31 106, 53 106 C50.69 106, 48.37 105.85, 46.08 105.55 C43.8 105.25, 41.51 104.79, 39.28 104.19 C37.06 103.6, 34.85 102.85, 32.72 101.97 C30.59 101.08, 28.5 100.05, 26.5 98.9 C24.5 97.75, 22.57 96.45, 20.74 95.05 C18.91 93.64, 17.15 92.11, 15.52 90.48 C13.89 88.85, 12.36 87.09, 10.95 85.26 C9.55 83.43, 8.25 81.5, 7.1 79.5 C5.95 77.5, 4.92 75.41, 4.03 73.28 C3.15 71.15, 2.4 68.94, 1.81 66.72 C1.21 64.49, 0.75 62.2, 0.45 59.92 C0.15 57.63, 0 55.31, 0 53 C0 50.69, 0.15 48.37, 0.45 46.08 C0.75 43.8, 1.21 41.51, 1.81 39.28 C2.4 37.06, 3.15 34.85, 4.03 32.72 C4.92 30.59, 5.95 28.5, 7.1 26.5 C8.25 24.5, 9.55 22.57, 10.95 20.74 C12.36 18.91, 13.89 17.15, 15.52 15.52 C17.15 13.89, 18.91 12.36, 20.74 10.95 C22.57 9.55, 24.5 8.25, 26.5 7.1 C28.5 5.95, 30.59 4.92, 32.72 4.03 C34.85 3.15, 37.06 2.4, 39.28 1.81 C41.51 1.21, 43.8 0.75, 46.08 0.45 C48.37 0.15, 50.69 0, 53 0 C55.31 0, 57.63 0.15, 59.92 0.45 C62.2 0.75, 64.49 1.21, 66.72 1.81 C68.94 2.4, 71.15 3.15, 73.28 4.03 C75.41 4.92, 77.5 5.95, 79.5 7.1 C81.5 8.25, 83.43 9.55, 85.26 10.95 C87.09 12.36, 88.85 13.89, 90.48 15.52 C92.11 17.15, 93.64 18.91, 95.05 20.74 C96.45 22.57, 97.75 24.5, 98.9 26.5 C100.05 28.5, 101.08 30.59, 101.97 32.72 C102.85 34.85, 103.6 37.06, 104.19 39.28 C104.79 41.51, 105.25 43.8, 105.55 46.08 C105.85 48.37, 105.92 51.85, 106 53 C106.08 54.15, 106.08 51.85, 106 53" stroke="#000" stroke-width="4" fill="none"></path></g><g stroke-linecap="round" transform="translate(133.14285714285688 10) rotate(0 22 22)"><path d="M44 22 C44 23.27, 43.89 24.57, 43.67 25.82 C43.44 27.07, 43.11 28.33, 42.67 29.52 C42.24 30.72, 41.69 31.9, 41.05 33 C40.42 34.1, 39.67 35.17, 38.85 36.14 C38.03 37.12, 37.12 38.03, 36.14 38.85 C35.17 39.67, 34.1 40.42, 33 41.05 C31.9 41.69, 30.72 42.24, 29.52 42.67 C28.33 43.11, 27.07 43.44, 25.82 43.67 C24.57 43.89, 23.27 44, 22 44 C20.73 44, 19.43 43.89, 18.18 43.67 C16.93 43.44, 15.67 43.11, 14.48 42.67 C13.28 42.24, 12.1 41.69, 11 41.05 C9.9 40.42, 8.83 39.67, 7.86 38.85 C6.88 38.03, 5.97 37.12, 5.15 36.14 C4.33 35.17, 3.58 34.1, 2.95 33 C2.31 31.9, 1.76 30.72, 1.33 29.52 C0.89 28.33, 0.56 27.07, 0.33 25.82 C0.11 24.57, 0 23.27, 0 22 C0 20.73, 0.11 19.43, 0.33 18.18 C0.56 16.93, 0.89 15.67, 1.33 14.48 C1.76 13.28, 2.31 12.1, 2.95 11 C3.58 9.9, 4.33 8.83, 5.15 7.86 C5.97 6.88, 6.88 5.97, 7.86 5.15 C8.83 4.33, 9.9 3.58, 11 2.95 C12.1 2.31, 13.28 1.76, 14.48 1.33 C15.67 0.89, 16.93 0.56, 18.18 0.33 C19.43 0.11, 20.73 0, 22 0 C23.27 0, 24.57 0.11, 25.82 0.33 C27.07 0.56, 28.33 0.89, 29.52 1.33 C30.72 1.76, 31.9 2.31, 33 2.95 C34.1 3.58, 35.17 4.33, 36.14 5.15 C37.12 5.97, 38.03 6.88, 38.85 7.86 C39.67 8.83, 40.42 9.9, 41.05 11 C41.69 12.1, 42.24 13.28, 42.67 14.48 C43.11 15.67, 43.44 16.93, 43.67 18.18 C43.89 19.43, 43.94 21.36, 44 22 C44.06 22.64, 44.06 21.36, 44 22" stroke="none" stroke-width="0" fill="#000"></path><path d="M44 22 C44 23.27, 43.89 24.57, 43.67 25.82 C43.44 27.07, 43.11 28.33, 42.67 29.52 C42.24 30.72, 41.69 31.9, 41.05 33 C40.42 34.1, 39.67 35.17, 38.85 36.14 C38.03 37.12, 37.12 38.03, 36.14 38.85 C35.17 39.67, 34.1 40.42, 33 41.05 C31.9 41.69, 30.72 42.24, 29.52 42.67 C28.33 43.11, 27.07 43.44, 25.82 43.67 C24.57 43.89, 23.27 44, 22 44 C20.73 44, 19.43 43.89, 18.18 43.67 C16.93 43.44, 15.67 43.11, 14.48 42.67 C13.28 42.24, 12.1 41.69, 11 41.05 C9.9 40.42, 8.83 39.67, 7.86 38.85 C6.88 38.03, 5.97 37.12, 5.15 36.14 C4.33 35.17, 3.58 34.1, 2.95 33 C2.31 31.9, 1.76 30.72, 1.33 29.52 C0.89 28.33, 0.56 27.07, 0.33 25.82 C0.11 24.57, 0 23.27, 0 22 C0 20.73, 0.11 19.43, 0.33 18.18 C0.56 16.93, 0.89 15.67, 1.33 14.48 C1.76 13.28, 2.31 12.1, 2.95 11 C3.58 9.9, 4.33 8.83, 5.15 7.86 C5.97 6.88, 6.88 5.97, 7.86 5.15 C8.83 4.33, 9.9 3.58, 11 2.95 C12.1 2.31, 13.28 1.76, 14.48 1.33 C15.67 0.89, 16.93 0.56, 18.18 0.33 C19.43 0.11, 20.73 0, 22 0 C23.27 0, 24.57 0.11, 25.82 0.33 C27.07 0.56, 28.33 0.89, 29.52 1.33 C30.72 1.76, 31.9 2.31, 33 2.95 C34.1 3.58, 35.17 4.33, 36.14 5.15 C37.12 5.97, 38.03 6.88, 38.85 7.86 C39.67 8.83, 40.42 9.9, 41.05 11 C41.69 12.1, 42.24 13.28, 42.67 14.48 C43.11 15.67, 43.44 16.93, 43.67 18.18 C43.89 19.43, 43.94 21.36, 44 22 C44.06 22.64, 44.06 21.36, 44 22" stroke="#000" stroke-width="2" fill="none"></path></g><g stroke-linecap="round" transform="translate(106.14285714285688 51) rotate(0 49 49)"><path d="M98 49 C98 51.13, 97.86 53.28, 97.58 55.4 C97.3 57.51, 96.88 59.62, 96.33 61.68 C95.78 63.74, 95.09 65.78, 94.27 67.75 C93.45 69.72, 92.5 71.65, 91.44 73.5 C90.37 75.35, 89.17 77.14, 87.87 78.83 C86.58 80.52, 85.16 82.14, 83.65 83.65 C82.14 85.16, 80.52 86.58, 78.83 87.87 C77.14 89.17, 75.35 90.37, 73.5 91.44 C71.65 92.5, 69.72 93.45, 67.75 94.27 C65.78 95.09, 63.74 95.78, 61.68 96.33 C59.62 96.88, 57.51 97.3, 55.4 97.58 C53.28 97.86, 51.13 98, 49 98 C46.87 98, 44.72 97.86, 42.6 97.58 C40.49 97.3, 38.38 96.88, 36.32 96.33 C34.26 95.78, 32.22 95.09, 30.25 94.27 C28.28 93.45, 26.35 92.5, 24.5 91.44 C22.65 90.37, 20.86 89.17, 19.17 87.87 C17.48 86.58, 15.86 85.16, 14.35 83.65 C12.84 82.14, 11.42 80.52, 10.13 78.83 C8.83 77.14, 7.63 75.35, 6.56 73.5 C5.5 71.65, 4.55 69.72, 3.73 67.75 C2.91 65.78, 2.22 63.74, 1.67 61.68 C1.12 59.62, 0.7 57.51, 0.42 55.4 C0.14 53.28, 0 51.13, 0 49 C0 46.87, 0.14 44.72, 0.42 42.6 C0.7 40.49, 1.12 38.38, 1.67 36.32 C2.22 34.26, 2.91 32.22, 3.73 30.25 C4.55 28.28, 5.5 26.35, 6.56 24.5 C7.63 22.65, 8.83 20.86, 10.13 19.17 C11.42 17.48, 12.84 15.86, 14.35 14.35 C15.86 12.84, 17.48 11.42, 19.17 10.13 C20.86 8.83, 22.65 7.63, 24.5 6.56 C26.35 5.5, 28.28 4.55, 30.25 3.73 C32.22 2.91, 34.26 2.22, 36.32 1.67 C38.38 1.12, 40.49 0.7, 42.6 0.42 C44.72 0.14, 46.87 0, 49 0 C51.13 0, 53.28 0.14, 55.4 0.42 C57.51 0.7, 59.62 1.12, 61.68 1.67 C63.74 2.22, 65.78 2.91, 67.75 3.73 C69.72 4.55, 71.65 5.5, 73.5 6.56 C75.35 7.63, 77.14 8.83, 78.83 10.13 C80.52 11.42, 82.14 12.84, 83.65 14.35 C85.16 15.86, 86.58 17.48, 87.87 19.17 C89.17 20.86, 90.37 22.65, 91.44 24.5 C92.5 26.35, 93.45 28.28, 94.27 30.25 C95.09 32.22, 95.78 34.26, 96.33 36.32 C96.88 38.38, 97.3 40.49, 97.58 42.6 C97.86 44.72, 97.93 47.93, 98 49 C98.07 50.07, 98.07 47.93, 98 49" stroke="none" stroke-width="0" fill="#fff"></path><path d="M98 49 C98 51.13, 97.86 53.28, 97.58 55.4 C97.3 57.51, 96.88 59.62, 96.33 61.68 C95.78 63.74, 95.09 65.78, 94.27 67.75 C93.45 69.72, 92.5 71.65, 91.44 73.5 C90.37 75.35, 89.17 77.14, 87.87 78.83 C86.58 80.52, 85.16 82.14, 83.65 83.65 C82.14 85.16, 80.52 86.58, 78.83 87.87 C77.14 89.17, 75.35 90.37, 73.5 91.44 C71.65 92.5, 69.72 93.45, 67.75 94.27 C65.78 95.09, 63.74 95.78, 61.68 96.33 C59.62 96.88, 57.51 97.3, 55.4 97.58 C53.28 97.86, 51.13 98, 49 98 C46.87 98, 44.72 97.86, 42.6 97.58 C40.49 97.3, 38.38 96.88, 36.32 96.33 C34.26 95.78, 32.22 95.09, 30.25 94.27 C28.28 93.45, 26.35 92.5, 24.5 91.44 C22.65 90.37, 20.86 89.17, 19.17 87.87 C17.48 86.58, 15.86 85.16, 14.35 83.65 C12.84 82.14, 11.42 80.52, 10.13 78.83 C8.83 77.14, 7.63 75.35, 6.56 73.5 C5.5 71.65, 4.55 69.72, 3.73 67.75 C2.91 65.78, 2.22 63.74, 1.67 61.68 C1.12 59.62, 0.7 57.51, 0.42 55.4 C0.14 53.28, 0 51.13, 0 49 C0 46.87, 0.14 44.72, 0.42 42.6 C0.7 40.49, 1.12 38.38, 1.67 36.32 C2.22 34.26, 2.91 32.22, 3.73 30.25 C4.55 28.28, 5.5 26.35, 6.56 24.5 C7.63 22.65, 8.83 20.86, 10.13 19.17 C11.42 17.48, 12.84 15.86, 14.35 14.35 C15.86 12.84, 17.48 11.42, 19.17 10.13 C20.86 8.83, 22.65 7.63, 24.5 6.56 C26.35 5.5, 28.28 4.55, 30.25 3.73 C32.22 2.91, 34.26 2.22, 36.32 1.67 C38.38 1.12, 40.49 0.7, 42.6 0.42 C44.72 0.14, 46.87 0, 49 0 C51.13 0, 53.28 0.14, 55.4 0.42 C57.51 0.7, 59.62 1.12, 61.68 1.67 C63.74 2.22, 65.78 2.91, 67.75 3.73 C69.72 4.55, 71.65 5.5, 73.5 6.56 C75.35 7.63, 77.14 8.83, 78.83 10.13 C80.52 11.42, 82.14 12.84, 83.65 14.35 C85.16 15.86, 86.58 17.48, 87.87 19.17 C89.17 20.86, 90.37 22.65, 91.44 24.5 C92.5 26.35, 93.45 28.28, 94.27 30.25 C95.09 32.22, 95.78 34.26, 96.33 36.32 C96.88 38.38, 97.3 40.49, 97.58 42.6 C97.86 44.72, 97.93 47.93, 98 49 C98.07 50.07, 98.07 47.93, 98 49" stroke="#000" stroke-width="4" fill="none"></path></g><g stroke-linecap="round"><g transform="translate(150.6904761904825 49.190476190479785) rotate(0 1.247619047619537 29.17261904761881)" fill-rule="evenodd"><path d="M0 0 L-22.8 9.2 L-30 14.29 L-36.88 22.74 L-42.38 32.86 L-46.25 44.76 L-47.05 50.51 L-46.19 54.76 L-43.25 57.26 L-38.66 58.54 L-27.14 58.1 L-12.44 53.04 L0.95 46.19 L4.37 42.94 L7.54 36.61 L9.52 35.24 L12.25 36.17 L18.5 41.6 L22.38 43.33 L33.27 43.54 L38.94 42.63 L43.33 40.95 L48.18 34.35 L49.52 26.67 L47.26 20.89 L42.38 15.71 L27.62 6.19 L13.81 0 L0 0" stroke="none" stroke-width="0" fill="#000" fill-rule="evenodd"></path><path d="M0 0 C-2.54 0.95, -10.24 3.33, -15.24 5.71 C-20.24 8.1, -25.48 9.76, -30 14.29 C-34.52 18.81, -39.68 26.11, -42.38 32.86 C-45.08 39.6, -48.73 50.56, -46.19 54.76 C-43.65 58.97, -35 59.52, -27.14 58.1 C-19.29 56.67, -5.16 50, 0.95 46.19 C7.06 42.38, 5.95 35.71, 9.52 35.24 C13.1 34.76, 16.75 42.38, 22.38 43.33 C28.02 44.29, 38.81 43.73, 43.33 40.95 C47.86 38.17, 49.68 30.87, 49.52 26.67 C49.37 22.46, 46.03 19.13, 42.38 15.71 C38.73 12.3, 32.38 8.81, 27.62 6.19 C22.86 3.57, 18.41 1.03, 13.81 0 C9.21 -1.03, 2.3 0, 0 0 M0 0 C-2.54 0.95, -10.24 3.33, -15.24 5.71 C-20.24 8.1, -25.48 9.76, -30 14.29 C-34.52 18.81, -39.68 26.11, -42.38 32.86 C-45.08 39.6, -48.73 50.56, -46.19 54.76 C-43.65 58.97, -35 59.52, -27.14 58.1 C-19.29 56.67, -5.16 50, 0.95 46.19 C7.06 42.38, 5.95 35.71, 9.52 35.24 C13.1 34.76, 16.75 42.38, 22.38 43.33 C28.02 44.29, 38.81 43.73, 43.33 40.95 C47.86 38.17, 49.68 30.87, 49.52 26.67 C49.37 22.46, 46.03 19.13, 42.38 15.71 C38.73 12.3, 32.38 8.81, 27.62 6.19 C22.86 3.57, 18.41 1.03, 13.81 0 C9.21 -1.03, 2.3 0, 0 0" stroke="#000" stroke-width="4" fill="none"></path></g></g><g stroke-linecap="round"><g transform="translate(259.8922774670209 144.83333333333348) rotate(0 9.445208136447036 69.34375)" fill-rule="evenodd"><path d="M0 0 L20.89 21.19 L32.27 36.02 L35.94 43.95 L37.41 52 L36.41 60.95 L33.41 71.27 L23.52 93.69 L11.86 114.51 L2.52 129 L-3.93 136.26 L-9.5 138.69 L-13.94 136.52 L-16.97 130 L-17.88 124.58 L-18.36 98.81 L-17.25 78.46 L-15.39 60 L-12.15 42.89 L0 0" stroke="none" stroke-width="0" fill="#000" fill-rule="evenodd"></path><path d="M0 0 C6.24 8.67, 36.99 30.5, 37.41 52 C37.83 73.5, 11.59 116, 2.52 129 C-6.54 142, -13.99 141.5, -16.97 130 C-19.96 118.5, -18.22 81.67, -15.39 60 C-12.56 38.33, -2.57 10, 0 0 M0 0 C6.24 8.67, 36.99 30.5, 37.41 52 C37.83 73.5, 11.59 116, 2.52 129 C-6.54 142, -13.99 141.5, -16.97 130 C-19.96 118.5, -18.22 81.67, -15.39 60 C-12.56 38.33, -2.57 10, 0 0" stroke="#000" stroke-width="2" fill="none"></path></g></g><g stroke-linecap="round"><g transform="translate(86 145.33333333333348) rotate(0 -19.548249999999825 68.1875)" fill-rule="evenodd"><path d="M0 0 L-29.12 31.94 L-45.42 52.57 L-51.09 62.31 L-54 71 L-53.86 79.18 L-51.34 87.55 L-41.56 103.88 L-20 128 L-14.13 133.83 L-9.38 136.38 L-5.19 134.98 L-1 129 L3.94 116.46 L9.13 98.31 L13.25 78.26 L15 60 L13.08 42.96 L8.5 25.69 L0 0" stroke="none" stroke-width="0" fill="#000" fill-rule="evenodd"></path><path d="M0 0 C-9 11.83, -50.67 49.67, -54 71 C-57.33 92.33, -28.83 118.33, -20 128 C-11.17 137.67, -6.83 140.33, -1 129 C4.83 117.67, 14.83 81.5, 15 60 C15.17 38.5, 2.5 10, 0 0 M0 0 C-9 11.83, -50.67 49.67, -54 71 C-57.33 92.33, -28.83 118.33, -20 128 C-11.17 137.67, -6.83 140.33, -1 129 C4.83 117.67, 14.83 81.5, 15 60 C15.17 38.5, 2.5 10, 0 0" stroke="#000" stroke-width="2" fill="none"></path></g></g><g stroke-linecap="round" transform="translate(81 133.33333333333348) rotate(0 89.5 62.5)"><path d="M0 0 L179 0 L179 125 L0 125" stroke="none" stroke-width="0" fill="#000"></path><path d="M0 0 C40.23 0, 80.45 0, 179 0 M0 0 C41.6 0, 83.2 0, 179 0 M179 0 C179 49.27, 179 98.55, 179 125 M179 0 C179 46.23, 179 92.47, 179 125 M179 125 C120.99 125, 62.99 125, 0 125 M179 125 C121.05 125, 63.1 125, 0 125 M0 125 C0 85.15, 0 45.31, 0 0 M0 125 C0 96.53, 0 68.06, 0 0" stroke="#fff" stroke-width="2" fill="none"></path></g><g stroke-linecap="round" transform="translate(81 259.3333333333335) rotate(0 89.5 4)"><path d="M0 0 L179 0 L179 8 L0 8" stroke="none" stroke-width="0" fill="#000"></path><path d="M0 0 C58.28 0, 116.56 0, 179 0 M0 0 C57.26 0, 114.52 0, 179 0 M179 0 C179 2.1, 179 4.2, 179 8 M179 0 C179 2.33, 179 4.66, 179 8 M179 8 C132.62 8, 86.24 8, 0 8 M179 8 C122.97 8, 66.95 8, 0 8 M0 8 C0 5.95, 0 3.89, 0 0 M0 8 C0 6.22, 0 4.43, 0 0" stroke="#fff" stroke-width="2" fill="none"></path></g><g stroke-linecap="round" transform="translate(10 268.3333333333335) rotate(0 163.5 7.5)"><path d="M0 0 L327 0 L327 15 L0 15" stroke="none" stroke-width="0" fill="#000"></path><path d="M0 0 C111.08 0, 222.16 0, 327 0 M0 0 C109.76 0, 219.52 0, 327 0 M327 0 C327 4.96, 327 9.92, 327 15 M327 0 C327 4.46, 327 8.92, 327 15 M327 15 C238.85 15, 150.69 15, 0 15 M327 15 C249.17 15, 171.33 15, 0 15 M0 15 C0 10.2, 0 5.41, 0 0 M0 15 C0 9.54, 0 4.08, 0 0" stroke="#000000" stroke-width="1" fill="none"></path></g><g stroke-linecap="round" transform="translate(160 187.33333333333348) rotate(0 11 11)"><path d="M22 11 C22 11.64, 21.94 12.28, 21.83 12.91 C21.72 13.54, 21.55 14.16, 21.34 14.76 C21.12 15.36, 20.84 15.95, 20.53 16.5 C20.21 17.05, 19.84 17.58, 19.43 18.07 C19.02 18.56, 18.56 19.02, 18.07 19.43 C17.58 19.84, 17.05 20.21, 16.5 20.53 C15.95 20.84, 15.36 21.12, 14.76 21.34 C14.16 21.55, 13.54 21.72, 12.91 21.83 C12.28 21.94, 11.64 22, 11 22 C10.36 22, 9.72 21.94, 9.09 21.83 C8.46 21.72, 7.84 21.55, 7.24 21.34 C6.64 21.12, 6.05 20.84, 5.5 20.53 C4.95 20.21, 4.42 19.84, 3.93 19.43 C3.44 19.02, 2.98 18.56, 2.57 18.07 C2.16 17.58, 1.79 17.05, 1.47 16.5 C1.16 15.95, 0.88 15.36, 0.66 14.76 C0.45 14.16, 0.28 13.54, 0.17 12.91 C0.06 12.28, 0 11.64, 0 11 C0 10.36, 0.06 9.72, 0.17 9.09 C0.28 8.46, 0.45 7.84, 0.66 7.24 C0.88 6.64, 1.16 6.05, 1.47 5.5 C1.79 4.95, 2.16 4.42, 2.57 3.93 C2.98 3.44, 3.44 2.98, 3.93 2.57 C4.42 2.16, 4.95 1.79, 5.5 1.47 C6.05 1.16, 6.64 0.88, 7.24 0.66 C7.84 0.45, 8.46 0.28, 9.09 0.17 C9.72 0.06, 10.36 0, 11 0 C11.64 0, 12.28 0.06, 12.91 0.17 C13.54 0.28, 14.16 0.45, 14.76 0.66 C15.36 0.88, 15.95 1.16, 16.5 1.47 C17.05 1.79, 17.58 2.16, 18.07 2.57 C18.56 2.98, 19.02 3.44, 19.43 3.93 C19.84 4.42, 20.21 4.95, 20.53 5.5 C20.84 6.05, 21.12 6.64, 21.34 7.24 C21.55 7.84, 21.72 8.46, 21.83 9.09 C21.94 9.72, 21.97 10.68, 22 11 C22.03 11.32, 22.03 10.68, 22 11" stroke="none" stroke-width="0" fill="#fff"></path><path d="M22 11 C22 11.64, 21.94 12.28, 21.83 12.91 C21.72 13.54, 21.55 14.16, 21.34 14.76 C21.12 15.36, 20.84 15.95, 20.53 16.5 C20.21 17.05, 19.84 17.58, 19.43 18.07 C19.02 18.56, 18.56 19.02, 18.07 19.43 C17.58 19.84, 17.05 20.21, 16.5 20.53 C15.95 20.84, 15.36 21.12, 14.76 21.34 C14.16 21.55, 13.54 21.72, 12.91 21.83 C12.28 21.94, 11.64 22, 11 22 C10.36 22, 9.72 21.94, 9.09 21.83 C8.46 21.72, 7.84 21.55, 7.24 21.34 C6.64 21.12, 6.05 20.84, 5.5 20.53 C4.95 20.21, 4.42 19.84, 3.93 19.43 C3.44 19.02, 2.98 18.56, 2.57 18.07 C2.16 17.58, 1.79 17.05, 1.47 16.5 C1.16 15.95, 0.88 15.36, 0.66 14.76 C0.45 14.16, 0.28 13.54, 0.17 12.91 C0.06 12.28, 0 11.64, 0 11 C0 10.36, 0.06 9.72, 0.17 9.09 C0.28 8.46, 0.45 7.84, 0.66 7.24 C0.88 6.64, 1.16 6.05, 1.47 5.5 C1.79 4.95, 2.16 4.42, 2.57 3.93 C2.98 3.44, 3.44 2.98, 3.93 2.57 C4.42 2.16, 4.95 1.79, 5.5 1.47 C6.05 1.16, 6.64 0.88, 7.24 0.66 C7.84 0.45, 8.46 0.28, 9.09 0.17 C9.72 0.06, 10.36 0, 11 0 C11.64 0, 12.28 0.06, 12.91 0.17 C13.54 0.28, 14.16 0.45, 14.76 0.66 C15.36 0.88, 15.95 1.16, 16.5 1.47 C17.05 1.79, 17.58 2.16, 18.07 2.57 C18.56 2.98, 19.02 3.44, 19.43 3.93 C19.84 4.42, 20.21 4.95, 20.53 5.5 C20.84 6.05, 21.12 6.64, 21.34 7.24 C21.55 7.84, 21.72 8.46, 21.83 9.09 C21.94 9.72, 21.97 10.68, 22 11 C22.03 11.32, 22.03 10.68, 22 11" stroke="#fff" stroke-width="2" fill="none"></path></g></svg>