<svg width="108" height="24" viewBox="0 0 108 24" fill="none" xmlns="http://www.w3.org/2000/svg">
<path d="M0.784 17V6.92H2.814L6.468 11.274L10.108 6.92H12.152V17H10.29V9.608L6.468 14.158L2.632 9.622V17H0.784ZM15.5526 17C15.1979 17 14.8712 16.9113 14.5726 16.734C14.2832 16.5567 14.0499 16.3233 13.8726 16.034C13.7046 15.7447 13.6206 15.4227 13.6206 15.068V12.016H20.0326V10.882C20.0326 10.8353 20.0139 10.798 19.9766 10.77C19.9486 10.7327 19.9112 10.714 19.8646 10.714H13.6206V8.88H19.9346C20.2892 8.88 20.6112 8.96867 20.9006 9.146C21.1992 9.32333 21.4326 9.55667 21.6006 9.846C21.7779 10.1353 21.8666 10.4573 21.8666 10.812V17H15.5526ZM15.6226 15.166H20.0326V13.668H15.4546V14.998C15.4546 15.0447 15.4686 15.0867 15.4966 15.124C15.5339 15.152 15.5759 15.166 15.6226 15.166ZM24.8765 17C24.5218 17 24.1998 16.9113 23.9105 16.734C23.6211 16.5567 23.3878 16.3233 23.2105 16.034C23.0331 15.7447 22.9445 15.4227 22.9445 15.068V10.812C22.9445 10.4573 23.0331 10.1353 23.2105 9.846C23.3878 9.55667 23.6211 9.32333 23.9105 9.146C24.1998 8.96867 24.5218 8.88 24.8765 8.88H31.1765V10.714H24.9465C24.8998 10.714 24.8578 10.7327 24.8205 10.77C24.7925 10.798 24.7785 10.8353 24.7785 10.882V14.998C24.7785 15.0447 24.7925 15.0867 24.8205 15.124C24.8578 15.152 24.8998 15.166 24.9465 15.166H31.1905V17H24.8765ZM32.379 17V6.22H34.213V8.88H38.693C39.0477 8.88 39.3697 8.96867 39.659 9.146C39.9484 9.32333 40.1817 9.55667 40.359 9.846C40.5364 10.1353 40.625 10.4573 40.625 10.812V17H38.791V10.882C38.791 10.8353 38.7724 10.798 38.735 10.77C38.707 10.7327 38.6697 10.714 38.623 10.714H34.381C34.3344 10.714 34.2924 10.7327 34.255 10.77C34.227 10.798 34.213 10.8353 34.213 10.882V17H32.379Z" fill="black"/>
<path d="M68.604 17C68.2493 17 67.9273 16.9113 67.638 16.734C67.3487 16.5567 67.1153 16.3233 66.938 16.034C66.7607 15.7447 66.672 15.4227 66.672 15.068V14.76H68.506V14.998C68.506 15.0447 68.52 15.0867 68.548 15.124C68.5853 15.152 68.6273 15.166 68.674 15.166H72.916C72.9627 15.166 73 15.152 73.028 15.124C73.0653 15.0867 73.084 15.0447 73.084 14.998V14.032C73.084 13.9853 73.0653 13.948 73.028 13.92C73 13.8827 72.9627 13.864 72.916 13.864H68.604C68.2493 13.864 67.9273 13.7753 67.638 13.598C67.3487 13.4207 67.1153 13.1873 66.938 12.898C66.7607 12.6087 66.672 12.2867 66.672 11.932V10.812C66.672 10.4573 66.7607 10.1353 66.938 9.846C67.1153 9.55667 67.3487 9.32333 67.638 9.146C67.9273 8.96867 68.2493 8.88 68.604 8.88H72.986C73.35 8.88 73.6767 8.96867 73.966 9.146C74.2553 9.32333 74.4887 9.55667 74.666 9.846C74.8433 10.1353 74.932 10.4573 74.932 10.812V11.12H73.084V10.882C73.084 10.8353 73.0653 10.798 73.028 10.77C73 10.7327 72.9627 10.714 72.916 10.714H68.674C68.6273 10.714 68.5853 10.7327 68.548 10.77C68.52 10.798 68.506 10.8353 68.506 10.882V11.848C68.506 11.8947 68.52 11.9367 68.548 11.974C68.5853 12.002 68.6273 12.016 68.674 12.016H72.986C73.35 12.016 73.6767 12.1047 73.966 12.282C74.2553 12.4593 74.4887 12.6927 74.666 12.982C74.8433 13.2713 74.932 13.5933 74.932 13.948V15.068C74.932 15.4227 74.8433 15.7447 74.666 16.034C74.4887 16.3233 74.2553 16.5567 73.966 16.734C73.6767 16.9113 73.35 17 72.986 17H68.604ZM77.5437 20.01V18.162H82.4297C82.4763 18.162 82.5137 18.1433 82.5417 18.106C82.579 18.078 82.5977 18.0407 82.5977 17.994V17H78.1177C77.7723 17 77.4503 16.9113 77.1517 16.734C76.8623 16.5567 76.629 16.3233 76.4517 16.034C76.2743 15.7447 76.1857 15.4227 76.1857 15.068V8.908H78.0197V14.998C78.0197 15.0447 78.0337 15.0867 78.0617 15.124C78.099 15.152 78.141 15.166 78.1877 15.166H82.4297C82.4763 15.166 82.5137 15.152 82.5417 15.124C82.579 15.0867 82.5977 15.0447 82.5977 14.998V8.908H84.4317V18.078C84.4317 18.4327 84.3477 18.7547 84.1797 19.044C84.0117 19.3427 83.7783 19.576 83.4797 19.744C83.1903 19.9213 82.8683 20.01 82.5137 20.01H77.5437ZM87.6899 17C87.3353 17 87.0133 16.9113 86.7239 16.734C86.4346 16.5567 86.2013 16.3233 86.0239 16.034C85.8466 15.7447 85.7579 15.4227 85.7579 15.068V14.76H87.5919V14.998C87.5919 15.0447 87.6059 15.0867 87.6339 15.124C87.6713 15.152 87.7133 15.166 87.7599 15.166H92.0019C92.0486 15.166 92.0859 15.152 92.1139 15.124C92.1513 15.0867 92.1699 15.0447 92.1699 14.998V14.032C92.1699 13.9853 92.1513 13.948 92.1139 13.92C92.0859 13.8827 92.0486 13.864 92.0019 13.864H87.6899C87.3353 13.864 87.0133 13.7753 86.7239 13.598C86.4346 13.4207 86.2013 13.1873 86.0239 12.898C85.8466 12.6087 85.7579 12.2867 85.7579 11.932V10.812C85.7579 10.4573 85.8466 10.1353 86.0239 9.846C86.2013 9.55667 86.4346 9.32333 86.7239 9.146C87.0133 8.96867 87.3353 8.88 87.6899 8.88H92.0719C92.4359 8.88 92.7626 8.96867 93.0519 9.146C93.3413 9.32333 93.5746 9.55667 93.7519 9.846C93.9293 10.1353 94.0179 10.4573 94.0179 10.812V11.12H92.1699V10.882C92.1699 10.8353 92.1513 10.798 92.1139 10.77C92.0859 10.7327 92.0486 10.714 92.0019 10.714H87.7599C87.7133 10.714 87.6713 10.7327 87.6339 10.77C87.6059 10.798 87.5919 10.8353 87.5919 10.882V11.848C87.5919 11.8947 87.6059 11.9367 87.6339 11.974C87.6713 12.002 87.7133 12.016 87.7599 12.016H92.0719C92.4359 12.016 92.7626 12.1047 93.0519 12.282C93.3413 12.4593 93.5746 12.6927 93.7519 12.982C93.9293 13.2713 94.0179 13.5933 94.0179 13.948V15.068C94.0179 15.4227 93.9293 15.7447 93.7519 16.034C93.5746 16.3233 93.3413 16.5567 93.0519 16.734C92.7626 16.9113 92.4359 17 92.0719 17H87.6899ZM92.0656 20.066V18.218H95.4956C95.5423 18.218 95.5796 18.1993 95.6076 18.162C95.6449 18.134 95.6636 18.0967 95.6636 18.05V8.88H97.4976V18.134C97.4976 18.4887 97.4089 18.8107 97.2316 19.1C97.0636 19.3987 96.8303 19.632 96.5316 19.8C96.2423 19.9773 95.9203 20.066 95.5656 20.066H92.0656ZM95.6636 8.068V6.22H97.4976V8.068H95.6636ZM100.637 17C100.283 17 99.9605 16.9113 99.6712 16.734C99.3819 16.5567 99.1485 16.3233 98.9712 16.034C98.7939 15.7447 98.7052 15.4227 98.7052 15.068V14.76H100.539V14.998C100.539 15.0447 100.553 15.0867 100.581 15.124C100.619 15.152 100.661 15.166 100.707 15.166H104.949C104.996 15.166 105.033 15.152 105.061 15.124C105.099 15.0867 105.117 15.0447 105.117 14.998V14.032C105.117 13.9853 105.099 13.948 105.061 13.92C105.033 13.8827 104.996 13.864 104.949 13.864H100.637C100.283 13.864 99.9605 13.7753 99.6712 13.598C99.3819 13.4207 99.1485 13.1873 98.9712 12.898C98.7939 12.6087 98.7052 12.2867 98.7052 11.932V10.812C98.7052 10.4573 98.7939 10.1353 98.9712 9.846C99.1485 9.55667 99.3819 9.32333 99.6712 9.146C99.9605 8.96867 100.283 8.88 100.637 8.88H105.019C105.383 8.88 105.71 8.96867 105.999 9.146C106.289 9.32333 106.522 9.55667 106.699 9.846C106.877 10.1353 106.965 10.4573 106.965 10.812V11.12H105.117V10.882C105.117 10.8353 105.099 10.798 105.061 10.77C105.033 10.7327 104.996 10.714 104.949 10.714H100.707C100.661 10.714 100.619 10.7327 100.581 10.77C100.553 10.798 100.539 10.8353 100.539 10.882V11.848C100.539 11.8947 100.553 11.9367 100.581 11.974C100.619 12.002 100.661 12.016 100.707 12.016H105.019C105.383 12.016 105.71 12.1047 105.999 12.282C106.289 12.4593 106.522 12.6927 106.699 12.982C106.877 13.2713 106.965 13.5933 106.965 13.948V15.068C106.965 15.4227 106.877 15.7447 106.699 16.034C106.522 16.3233 106.289 16.5567 105.999 16.734C105.71 16.9113 105.383 17 105.019 17H100.637Z" fill="black"/>
<path d="M50.6333 3V5.16667H52.3667V3H50.6333Z" fill="black"/>
<path d="M52.3667 16V13.8333H50.6333V16H52.3667Z" fill="black"/>
<path d="M55.3257 4.3L54.1 5.52565L55.3257 6.7513L56.5513 5.52565L55.3257 4.3Z" fill="black"/>
<path d="M47.6743 14.7L48.9 13.4743L47.6743 12.2487L46.4487 13.4743L47.6743 14.7Z" fill="black"/>
<path d="M56.5513 13.3257L55.3257 12.1L54.1 13.3257L55.3257 14.5513L56.5513 13.3257Z" fill="black"/>
<path d="M46.3 5.52565L47.5257 6.7513L48.7513 5.52565L47.5257 4.3L46.3 5.52565Z" fill="black"/>
<path d="M58 8.63333H55.8333V10.3667H58V8.63333Z" fill="black"/>
<path d="M45 10.3667H46.7333L46.7333 8.63333L45 8.63333L45 10.3667Z" fill="black"/>
<path d="M56.2 9.5C56.2 12.0957 54.0957 14.2 51.5 14.2C48.9043 14.2 46.8 12.0957 46.8 9.5C46.8 6.90426 48.9043 4.8 51.5 4.8C54.0957 4.8 56.2 6.90426 56.2 9.5ZM51.5 11.5C52.6046 11.5 53.5 10.6046 53.5 9.5C53.5 8.39543 52.6046 7.5 51.5 7.5C50.3954 7.5 49.5 8.39543 49.5 9.5C49.5 10.6046 50.3954 11.5 51.5 11.5Z" fill="#FFFF59" stroke="black"/>
<path d="M55.8136 20.1671L55.8226 20.1728L55.8319 20.1781C56.208 20.393 56.6191 20.5 57.056 20.5H57.52H58.02V20V18.688V18.188H57.52H57.056C57.0194 18.188 56.9927 18.1807 56.9625 18.1575C56.9393 18.1273 56.932 18.1006 56.932 18.064V15.344V15.1077L56.7494 14.9576L55.8827 14.2457L56.7438 13.5589L56.932 13.4088V13.168V10.432C56.932 10.3897 56.9409 10.3742 56.9615 10.3536L56.6288 10.0208L56.9615 10.3536C57.0021 10.313 57.0266 10.308 57.056 10.308H57.52H58.02V9.808V8.48V7.98H57.52H57.056C56.6141 7.98 56.1997 8.09494 55.8228 8.32322C55.4621 8.53748 55.1701 8.83161 54.9486 9.19651L54.9486 9.1965L54.9459 9.2011C54.7257 9.57265 54.62 9.98737 54.62 10.432V12.7556L54.1332 13.0146L53.868 13.1556V13.456V14.992V15.271L54.1054 15.4175L54.62 15.735V18.064C54.62 18.5009 54.727 18.912 54.9419 19.2881L54.9472 19.2974L54.9529 19.3064C55.1741 19.6577 55.4623 19.9459 55.8136 20.1671ZM58.141 20V20.5H58.641H59.105C59.5419 20.5 59.9507 20.3929 60.3199 20.1741L60.3199 20.1742L60.3245 20.1714C60.6894 19.9499 60.9835 19.6579 61.1978 19.2972C61.426 18.9203 61.541 18.5059 61.541 18.064V15.7479L62.0436 15.431L62.277 15.2839V15.008V13.488V13.2017L62.0301 13.0568L61.541 12.7697V10.432C61.541 9.98519 61.4289 9.56949 61.1978 9.19871C60.985 8.82993 60.6911 8.53597 60.3223 8.32318C59.954 8.09365 59.5442 7.98 59.105 7.98H58.641H58.141V8.48V9.808V10.308H58.641H59.105C59.1263 10.308 59.135 10.3116 59.1379 10.3129C59.141 10.3143 59.1514 10.3193 59.1684 10.3379L59.1831 10.3539L59.1991 10.3686C59.2177 10.3856 59.2227 10.396 59.2241 10.3991C59.2254 10.402 59.229 10.4107 59.229 10.432V13.2V13.443L59.4201 13.5932L60.2747 14.2647L59.4116 14.9736L59.229 15.1237V15.36V18.064C59.229 18.0934 59.224 18.1179 59.1834 18.1584C59.1628 18.1791 59.1473 18.188 59.105 18.188H58.641H58.141V18.688V20Z" fill="#FFFF59" stroke="black"/>
</svg>
