<svg width="24" height="24" viewBox="0 0 24 24" fill="none" xmlns="http://www.w3.org/2000/svg">
<path d="M8.05132 1V3.67647H10.221V1H8.05132Z" fill="#FFFF59"/>
<path d="M10.221 17.0588V14.3824H8.05132V17.0588H10.221Z" fill="#FFFF59"/>
<path d="M13.9248 2.60588L12.3906 4.11992L13.9248 5.63396L15.4589 4.11992L13.9248 2.60588Z" fill="#FFFF59"/>
<path d="M4.34752 15.4529L5.88168 13.9389L4.34752 12.4249L2.81335 13.9389L4.34752 15.4529Z" fill="#FFFF59"/>
<path d="M15.4589 13.7552L13.9248 12.2412L12.3906 13.7552L13.9248 15.2693L15.4589 13.7552Z" fill="#FFFF59"/>
<path d="M2.62723 4.11992L4.16139 5.63396L5.69556 4.11992L4.16139 2.60588L2.62723 4.11992Z" fill="#FFFF59"/>
<path d="M17.2723 7.95882H14.5602V10.1H17.2723V7.95882Z" fill="#FFFF59"/>
<path d="M1 10.1H3.16964L3.16964 7.95882L1 7.95882L1 10.1Z" fill="#FFFF59"/>
<path d="M15.1451 9.02941C15.1451 12.2947 12.461 14.9529 9.13614 14.9529C5.81126 14.9529 3.12723 12.2947 3.12723 9.02941C3.12723 5.76414 5.81126 3.10588 9.13614 3.10588C12.461 3.10588 15.1451 5.76414 15.1451 9.02941ZM9.13614 11.3823C10.443 11.3823 11.5137 10.3351 11.5137 9.02941C11.5137 7.72371 10.443 6.67647 9.13614 6.67647C7.82929 6.67647 6.75857 7.72371 6.75857 9.02941C6.75857 10.3351 7.82929 11.3823 9.13614 11.3823Z" fill="black" stroke="#FFFF59"/>
<path d="M14.8131 22.112L14.8222 22.1177L14.8315 22.123C15.2717 22.3746 15.7527 22.5 16.2652 22.5H16.8289H17.3289V22V20.4056V19.9056H16.8289H16.2652C16.1922 19.9056 16.1345 19.8865 16.0754 19.8375C16.0263 19.7783 16.0072 19.7205 16.0072 19.6472V16.3417V16.1054L15.8247 15.9554L14.6691 15.0057L15.8191 14.088L16.0072 13.9379V13.6972V10.3722C16.0072 10.2931 16.0288 10.2466 16.0746 10.2007L15.7418 9.86802L16.0746 10.2007C16.1427 10.1326 16.1993 10.1139 16.2652 10.1139H16.8289H17.3289V9.61389V8V7.5H16.8289H16.2652C15.7477 7.5 15.2634 7.63449 14.8224 7.90182C14.3998 8.15285 14.0575 8.49752 13.797 8.92671L13.797 8.92669L13.7943 8.93129C13.5375 9.36483 13.4135 9.84956 13.4135 10.3722V13.2608L12.7651 13.6058L12.5 13.7469V14.0472V15.9139V16.1928L12.7374 16.3394L13.4135 16.7567V19.6472C13.4135 20.1599 13.5388 20.641 13.7903 21.0813L13.7956 21.0906L13.8013 21.0997C14.0614 21.513 14.4 21.8517 14.8131 22.112ZM17.6906 22V22.5H18.1906H18.7542C19.2667 22.5 19.7443 22.3745 20.1754 22.119L20.1754 22.119L20.1799 22.1162C20.609 21.8556 20.9535 21.5131 21.2044 21.0904C21.4716 20.6493 21.606 20.1649 21.606 19.6472V16.773L22.2667 16.3562L22.5 16.2091V15.9333V14.0861V13.7999L22.2532 13.655L21.606 13.2749V10.3722C21.606 9.8474 21.4744 9.36167 21.2044 8.92889C20.955 8.49585 20.6107 8.15134 20.1778 7.90179C19.7476 7.63319 19.2691 7.5 18.7542 7.5H18.1906H17.6906V8V9.61389V10.1139H18.1906H18.7542C18.8185 10.1139 18.8606 10.1307 18.9103 10.185L18.925 10.201L18.941 10.2157C18.9953 10.2655 19.0122 10.3076 19.0122 10.3722V13.7361V13.9791L19.2032 14.1292L20.3468 15.0281L19.1948 15.9748L19.0122 16.1248V16.3611V19.6472C19.0122 19.7134 18.9934 19.7701 18.9254 19.8382C18.8795 19.884 18.8331 19.9056 18.7542 19.9056H18.1906H17.6906V20.4056V22Z" fill="black" stroke="#FFFF59"/>
</svg>
