<svg width="24" height="24" viewBox="0 0 24 24" fill="none" xmlns="http://www.w3.org/2000/svg">
<path d="M23 3C20.3701 3.03651 17.6181 3.34124 15.2741 3.91958C15.6692 5.51403 15.9349 7.01687 16.0338 8.22479L16.0674 8.62624L7.71443 12L16.045 15.3659L16.0376 15.7416C16.0094 17.0877 15.6524 18.5722 15.2648 20.0745C17.6118 20.6545 20.3664 20.9634 23 21L23 3Z" fill="#F53137"/>
<path d="M13.2953 4.49435C8.43772 5.86876 5.10972 8.14848 1 12C5.10723 15.8491 8.44278 18.1318 13.2968 19.5068L13.9056 16.5069L4.72029 11.9921L13.9 7.47924L13.2953 4.49435Z" fill="white"/>
</svg>
