<svg width="66" height="24" viewBox="0 0 66 24" fill="none" xmlns="http://www.w3.org/2000/svg">
<path d="M29.12 18C28.7147 18 28.3413 17.8987 28 17.696C27.6693 17.4933 27.4027 17.2267 27.2 16.896C26.9973 16.5547 26.896 16.1813 26.896 15.776V8.704C26.896 8.29867 26.9973 7.93067 27.2 7.6C27.4027 7.25867 27.6693 6.98667 28 6.784C28.3413 6.58133 28.7147 6.48 29.12 6.48H36.176C36.5813 6.48 36.9547 6.58133 37.296 6.784C37.6373 6.98667 37.9093 7.25867 38.112 7.6C38.3147 7.93067 38.416 8.29867 38.416 8.704V9.6H36.288V8.8C36.288 8.74667 36.2667 8.704 36.224 8.672C36.1813 8.62933 36.1333 8.608 36.08 8.608H29.2C29.1467 8.608 29.0987 8.62933 29.056 8.672C29.024 8.704 29.008 8.74667 29.008 8.8V15.68C29.008 15.7333 29.024 15.7813 29.056 15.824C29.0987 15.856 29.1467 15.872 29.2 15.872H36.08C36.1333 15.872 36.1813 15.856 36.224 15.824C36.2667 15.7813 36.288 15.7333 36.288 15.68V13.6H33.68V11.472H38.416V15.776C38.416 16.1813 38.3147 16.5547 38.112 16.896C37.9093 17.2267 37.6373 17.4933 37.296 17.696C36.9547 17.8987 36.5813 18 36.176 18H29.12ZM40.1773 18V6.496H49.4573C49.8626 6.496 50.2359 6.59733 50.5773 6.8C50.9186 7.00267 51.1906 7.27467 51.3933 7.616C51.5959 7.94667 51.6973 8.31467 51.6973 8.72V11.824C51.6973 12.2293 51.5959 12.6027 51.3933 12.944C51.1906 13.2853 50.9186 13.5573 50.5773 13.76C50.2359 13.952 49.8626 14.048 49.4573 14.048L42.2893 14.064V18H40.1773ZM42.4813 11.92H49.3613C49.4146 11.92 49.4626 11.904 49.5053 11.872C49.5479 11.84 49.5693 11.7973 49.5693 11.744V8.8C49.5693 8.74667 49.5479 8.704 49.5053 8.672C49.4626 8.62933 49.4146 8.608 49.3613 8.608H42.4813C42.4279 8.608 42.3799 8.62933 42.3373 8.672C42.3053 8.704 42.2893 8.74667 42.2893 8.8V11.744C42.2893 11.7973 42.3053 11.84 42.3373 11.872C42.3799 11.904 42.4279 11.92 42.4813 11.92ZM55.0255 18C54.6202 18 54.2468 17.8987 53.9055 17.696C53.5748 17.4933 53.3082 17.2267 53.1055 16.896C52.9028 16.5547 52.8015 16.1813 52.8015 15.776V6.48H54.9135V15.68C54.9135 15.7333 54.9295 15.7813 54.9615 15.824C55.0042 15.856 55.0522 15.872 55.1055 15.872H61.9855C62.0388 15.872 62.0868 15.856 62.1295 15.824C62.1722 15.7813 62.1935 15.7333 62.1935 15.68V6.48H64.3215V15.776C64.3215 16.1813 64.2202 16.5547 64.0175 16.896C63.8148 17.2267 63.5428 17.4933 63.2015 17.696C62.8708 17.8987 62.5028 18 62.0975 18H55.0255Z" fill="black"/>
<rect x="4" y="4" width="16" height="16" stroke="#F53137" stroke-width="2"/>
<rect x="7" y="7" width="10" height="10" fill="black"/>
<path d="M21 7H23M23 17H21M23 12H21M1 7H3M3 17H1M3 12H1M17 21V23M7 23V21M12 23V21M17 0.999999V3M7 3V0.999999M12 3V0.999999" stroke="#F53137" stroke-width="2"/>
</svg>
