<svg version="1.1" xmlns="http://www.w3.org/2000/svg" viewBox="0 0 113 131" width="339" height="393">
  <!-- svg-source:excalidraw -->
  
  <defs>
    <style>
      @font-face {
        font-family: "Virgil";
        src: url("https://excalidraw.com/Virgil.woff2");
      }
      @font-face {
        font-family: "Cascadia";
        src: url("https://excalidraw.com/Cascadia.woff2");
      }
    </style>
  </defs>
  <g transform="translate(28 79) rotate(0 28 10)"><text x="28" y="16" font-family="Cascadia, Segoe UI Emoji" font-size="16px" fill="#000000" text-anchor="middle" style="white-space: pre;" direction="ltr">pub fn</text></g><g stroke-linecap="round" transform="translate(10 59) rotate(0 46.5 31)"><path d="M0 0 C28.01 0, 56.01 0, 93 0 M0 0 C25.3 0, 50.59 0, 93 0 M93 0 C93 12.51, 93 25.01, 93 62 M93 0 C93 17.36, 93 34.72, 93 62 M93 62 C56.34 62, 19.68 62, 0 62 M93 62 C67.7 62, 42.39 62, 0 62 M0 62 C0 40.48, 0 18.96, 0 0 M0 62 C0 43.83, 0 25.67, 0 0" stroke="#000000" stroke-width="4" fill="none"></path></g><g stroke-linecap="round"><g transform="translate(21 72) rotate(0 36 0)"><path d="M0 0 C12 0, 60 0, 72 0 M0 0 C12 0, 60 0, 72 0" stroke="#000000" stroke-width="4" fill="none"></path></g></g><g stroke-linecap="round"><g transform="translate(21 109) rotate(0 36 0)"><path d="M0 0 C12 0, 60 0, 72 0 M0 0 C12 0, 60 0, 72 0" stroke="#000000" stroke-width="4" fill="none"></path></g></g><g stroke-linecap="round" transform="translate(18 10) rotate(0 39.5 24.5)"><path d="M0 0 C17.4 0, 34.79 0, 79 0 M0 0 C26.7 0, 53.4 0, 79 0 M79 0 C79 18.17, 79 36.35, 79 49 M79 0 C79 19.13, 79 38.27, 79 49 M79 49 C59.93 49, 40.85 49, 0 49 M79 49 C48.2 49, 17.41 49, 0 49 M0 49 C0 35.82, 0 22.63, 0 0 M0 49 C0 33.72, 0 18.43, 0 0" stroke="#000000" stroke-width="2" fill="none"></path></g><g stroke-linecap="round"><g transform="translate(27 27) rotate(0 0 16)"><path d="M0 0 C0 5.33, 0 26.67, 0 32 M0 0 C0 5.33, 0 26.67, 0 32" stroke="#000000" stroke-width="4" fill="none"></path></g></g><g stroke-linecap="round"><g transform="translate(19 20) rotate(0 38.5 0)"><path d="M0 0 C12.83 0, 64.17 0, 77 0 M0 0 C12.83 0, 64.17 0, 77 0" stroke="#000000" stroke-width="2" fill="none"></path></g></g><g stroke-linecap="round"><g transform="translate(34.66666666666697 30) rotate(0 6.5 0)"><path d="M0 0 C2.17 0, 10.83 0, 13 0 M0 0 C2.17 0, 10.83 0, 13 0" stroke="#000000" stroke-width="2" fill="none"></path></g></g><g stroke-linecap="round"><g transform="translate(77.5 37) rotate(0 6.5 0)"><path d="M0 0 C2.17 0, 10.83 0, 13 0 M0 0 C2.17 0, 10.83 0, 13 0" stroke="#000000" stroke-width="2" fill="none"></path></g></g><g stroke-linecap="round"><g transform="translate(77.5 51) rotate(0 6.5 0)"><path d="M0 0 C2.17 0, 10.83 0, 13 0 M0 0 C2.17 0, 10.83 0, 13 0" stroke="#000000" stroke-width="2" fill="none"></path></g></g><g stroke-linecap="round"><g transform="translate(34.5 44) rotate(0 6.5 0)"><path d="M0 0 C2.17 0, 10.83 0, 13 0 M0 0 C2.17 0, 10.83 0, 13 0" stroke="#000000" stroke-width="2" fill="none"></path></g></g><g stroke-linecap="round"><g transform="translate(54.66666666666697 30) rotate(0 18 0)"><path d="M0 0 C6 0, 30 0, 36 0 M0 0 C6 0, 30 0, 36 0" stroke="#000000" stroke-width="2" fill="none"></path></g></g><g stroke-linecap="round"><g transform="translate(34.66666666666697 37) rotate(0 18 0)"><path d="M0 0 C6 0, 30 0, 36 0 M0 0 C6 0, 30 0, 36 0" stroke="#000000" stroke-width="2" fill="none"></path></g></g><g stroke-linecap="round"><g transform="translate(34.66666666666606 51) rotate(0 18 0)"><path d="M0 0 C6 0, 30 0, 36 0 M0 0 C6 0, 30 0, 36 0" stroke="#000000" stroke-width="2" fill="none"></path></g></g><g stroke-linecap="round"><g transform="translate(54.47605893186028 43.8710865561693) rotate(0 18 0)"><path d="M0 0 C6 0, 30 0, 36 0 M0 0 C6 0, 30 0, 36 0" stroke="#000000" stroke-width="2" fill="none"></path></g></g><g stroke-linecap="round" transform="translate(88.14272559852725 12.871086556169303) rotate(0 2 2)"><path d="M4 2 C4 2.12, 3.99 2.23, 3.97 2.35 C3.95 2.46, 3.92 2.58, 3.88 2.68 C3.84 2.79, 3.79 2.9, 3.73 3 C3.67 3.1, 3.61 3.2, 3.53 3.29 C3.46 3.37, 3.37 3.46, 3.29 3.53 C3.2 3.61, 3.1 3.67, 3 3.73 C2.9 3.79, 2.79 3.84, 2.68 3.88 C2.58 3.92, 2.46 3.95, 2.35 3.97 C2.23 3.99, 2.12 4, 2 4 C1.88 4, 1.77 3.99, 1.65 3.97 C1.54 3.95, 1.42 3.92, 1.32 3.88 C1.21 3.84, 1.1 3.79, 1 3.73 C0.9 3.67, 0.8 3.61, 0.71 3.53 C0.63 3.46, 0.54 3.37, 0.47 3.29 C0.39 3.2, 0.33 3.1, 0.27 3 C0.21 2.9, 0.16 2.79, 0.12 2.68 C0.08 2.58, 0.05 2.46, 0.03 2.35 C0.01 2.23, 0 2.12, 0 2 C0 1.88, 0.01 1.77, 0.03 1.65 C0.05 1.54, 0.08 1.42, 0.12 1.32 C0.16 1.21, 0.21 1.1, 0.27 1 C0.33 0.9, 0.39 0.8, 0.47 0.71 C0.54 0.63, 0.63 0.54, 0.71 0.47 C0.8 0.39, 0.9 0.33, 1 0.27 C1.1 0.21, 1.21 0.16, 1.32 0.12 C1.42 0.08, 1.54 0.05, 1.65 0.03 C1.77 0.01, 1.88 0, 2 0 C2.12 0, 2.23 0.01, 2.35 0.03 C2.46 0.05, 2.58 0.08, 2.68 0.12 C2.79 0.16, 2.9 0.21, 3 0.27 C3.1 0.33, 3.2 0.39, 3.29 0.47 C3.37 0.54, 3.46 0.63, 3.53 0.71 C3.61 0.8, 3.67 0.9, 3.73 1 C3.79 1.1, 3.84 1.21, 3.88 1.32 C3.92 1.42, 3.95 1.54, 3.97 1.65 C3.99 1.77, 3.99 1.94, 4 2 C4.01 2.06, 4.01 1.94, 4 2" stroke="#000000" stroke-width="1" fill="none"></path></g><g stroke-linecap="round" transform="translate(81.14272559852725 12.871086556168848) rotate(0 2 2)"><path d="M4 2 C4 2.12, 3.99 2.23, 3.97 2.35 C3.95 2.46, 3.92 2.58, 3.88 2.68 C3.84 2.79, 3.79 2.9, 3.73 3 C3.67 3.1, 3.61 3.2, 3.53 3.29 C3.46 3.37, 3.37 3.46, 3.29 3.53 C3.2 3.61, 3.1 3.67, 3 3.73 C2.9 3.79, 2.79 3.84, 2.68 3.88 C2.58 3.92, 2.46 3.95, 2.35 3.97 C2.23 3.99, 2.12 4, 2 4 C1.88 4, 1.77 3.99, 1.65 3.97 C1.54 3.95, 1.42 3.92, 1.32 3.88 C1.21 3.84, 1.1 3.79, 1 3.73 C0.9 3.67, 0.8 3.61, 0.71 3.53 C0.63 3.46, 0.54 3.37, 0.47 3.29 C0.39 3.2, 0.33 3.1, 0.27 3 C0.21 2.9, 0.16 2.79, 0.12 2.68 C0.08 2.58, 0.05 2.46, 0.03 2.35 C0.01 2.23, 0 2.12, 0 2 C0 1.88, 0.01 1.77, 0.03 1.65 C0.05 1.54, 0.08 1.42, 0.12 1.32 C0.16 1.21, 0.21 1.1, 0.27 1 C0.33 0.9, 0.39 0.8, 0.47 0.71 C0.54 0.63, 0.63 0.54, 0.71 0.47 C0.8 0.39, 0.9 0.33, 1 0.27 C1.1 0.21, 1.21 0.16, 1.32 0.12 C1.42 0.08, 1.54 0.05, 1.65 0.03 C1.77 0.01, 1.88 0, 2 0 C2.12 0, 2.23 0.01, 2.35 0.03 C2.46 0.05, 2.58 0.08, 2.68 0.12 C2.79 0.16, 2.9 0.21, 3 0.27 C3.1 0.33, 3.2 0.39, 3.29 0.47 C3.37 0.54, 3.46 0.63, 3.53 0.71 C3.61 0.8, 3.67 0.9, 3.73 1 C3.79 1.1, 3.84 1.21, 3.88 1.32 C3.92 1.42, 3.95 1.54, 3.97 1.65 C3.99 1.77, 3.99 1.94, 4 2 C4.01 2.06, 4.01 1.94, 4 2" stroke="#000000" stroke-width="1" fill="none"></path></g><g stroke-linecap="round" transform="translate(73.80939226519422 12.871086556168848) rotate(0 2 2)"><path d="M4 2 C4 2.12, 3.99 2.23, 3.97 2.35 C3.95 2.46, 3.92 2.58, 3.88 2.68 C3.84 2.79, 3.79 2.9, 3.73 3 C3.67 3.1, 3.61 3.2, 3.53 3.29 C3.46 3.37, 3.37 3.46, 3.29 3.53 C3.2 3.61, 3.1 3.67, 3 3.73 C2.9 3.79, 2.79 3.84, 2.68 3.88 C2.58 3.92, 2.46 3.95, 2.35 3.97 C2.23 3.99, 2.12 4, 2 4 C1.88 4, 1.77 3.99, 1.65 3.97 C1.54 3.95, 1.42 3.92, 1.32 3.88 C1.21 3.84, 1.1 3.79, 1 3.73 C0.9 3.67, 0.8 3.61, 0.71 3.53 C0.63 3.46, 0.54 3.37, 0.47 3.29 C0.39 3.2, 0.33 3.1, 0.27 3 C0.21 2.9, 0.16 2.79, 0.12 2.68 C0.08 2.58, 0.05 2.46, 0.03 2.35 C0.01 2.23, 0 2.12, 0 2 C0 1.88, 0.01 1.77, 0.03 1.65 C0.05 1.54, 0.08 1.42, 0.12 1.32 C0.16 1.21, 0.21 1.1, 0.27 1 C0.33 0.9, 0.39 0.8, 0.47 0.71 C0.54 0.63, 0.63 0.54, 0.71 0.47 C0.8 0.39, 0.9 0.33, 1 0.27 C1.1 0.21, 1.21 0.16, 1.32 0.12 C1.42 0.08, 1.54 0.05, 1.65 0.03 C1.77 0.01, 1.88 0, 2 0 C2.12 0, 2.23 0.01, 2.35 0.03 C2.46 0.05, 2.58 0.08, 2.68 0.12 C2.79 0.16, 2.9 0.21, 3 0.27 C3.1 0.33, 3.2 0.39, 3.29 0.47 C3.37 0.54, 3.46 0.63, 3.53 0.71 C3.61 0.8, 3.67 0.9, 3.73 1 C3.79 1.1, 3.84 1.21, 3.88 1.32 C3.92 1.42, 3.95 1.54, 3.97 1.65 C3.99 1.77, 3.99 1.94, 4 2 C4.01 2.06, 4.01 1.94, 4 2" stroke="#000000" stroke-width="1" fill="none"></path></g></svg>