<svg version="1.1" xmlns="http://www.w3.org/2000/svg" viewBox="0 0 398.84410169353396 393.72693914927413" width="1196.5323050806019" height="1181.1808174478224">
  <!-- svg-source:excalidraw -->
  
  <defs>
    <style>
      @font-face {
        font-family: "Virgil";
        src: url("https://excalidraw.com/Virgil.woff2");
      }
      @font-face {
        font-family: "Cascadia";
        src: url("https://excalidraw.com/Cascadia.woff2");
      }
    </style>
  </defs>
  <g stroke-linecap="round" transform="translate(154.30065721620758 10.159748206555378) rotate(0 37 37)"><path d="M74 37 C74 38.93, 73.85 40.88, 73.54 42.79 C73.24 44.69, 72.79 46.6, 72.19 48.43 C71.59 50.27, 70.84 52.08, 69.97 53.8 C69.09 55.52, 68.07 57.19, 66.93 58.75 C65.8 60.31, 64.53 61.8, 63.16 63.16 C61.8 64.53, 60.31 65.8, 58.75 66.93 C57.19 68.07, 55.52 69.09, 53.8 69.97 C52.08 70.84, 50.27 71.59, 48.43 72.19 C46.6 72.79, 44.69 73.24, 42.79 73.54 C40.88 73.85, 38.93 74, 37 74 C35.07 74, 33.12 73.85, 31.21 73.54 C29.31 73.24, 27.4 72.79, 25.57 72.19 C23.73 71.59, 21.92 70.84, 20.2 69.97 C18.48 69.09, 16.81 68.07, 15.25 66.93 C13.69 65.8, 12.2 64.53, 10.84 63.16 C9.47 61.8, 8.2 60.31, 7.07 58.75 C5.93 57.19, 4.91 55.52, 4.03 53.8 C3.16 52.08, 2.41 50.27, 1.81 48.43 C1.21 46.6, 0.76 44.69, 0.46 42.79 C0.15 40.88, 0 38.93, 0 37 C0 35.07, 0.15 33.12, 0.46 31.21 C0.76 29.31, 1.21 27.4, 1.81 25.57 C2.41 23.73, 3.16 21.92, 4.03 20.2 C4.91 18.48, 5.93 16.81, 7.07 15.25 C8.2 13.69, 9.47 12.2, 10.84 10.84 C12.2 9.47, 13.69 8.2, 15.25 7.07 C16.81 5.93, 18.48 4.91, 20.2 4.03 C21.92 3.16, 23.73 2.41, 25.57 1.81 C27.4 1.21, 29.31 0.76, 31.21 0.46 C33.12 0.15, 35.07 0, 37 0 C38.93 0, 40.88 0.15, 42.79 0.46 C44.69 0.76, 46.6 1.21, 48.43 1.81 C50.27 2.41, 52.08 3.16, 53.8 4.03 C55.52 4.91, 57.19 5.93, 58.75 7.07 C60.31 8.2, 61.8 9.47, 63.16 10.84 C64.53 12.2, 65.8 13.69, 66.93 15.25 C68.07 16.81, 69.09 18.48, 69.97 20.2 C70.84 21.92, 71.59 23.73, 72.19 25.57 C72.79 27.4, 73.24 29.31, 73.54 31.21 C73.85 33.12, 73.92 36.04, 74 37 C74.08 37.96, 74.08 36.04, 74 37" stroke="none" stroke-width="0" fill="#000"></path><path d="M74 37 C74 38.93, 73.85 40.88, 73.54 42.79 C73.24 44.69, 72.79 46.6, 72.19 48.43 C71.59 50.27, 70.84 52.08, 69.97 53.8 C69.09 55.52, 68.07 57.19, 66.93 58.75 C65.8 60.31, 64.53 61.8, 63.16 63.16 C61.8 64.53, 60.31 65.8, 58.75 66.93 C57.19 68.07, 55.52 69.09, 53.8 69.97 C52.08 70.84, 50.27 71.59, 48.43 72.19 C46.6 72.79, 44.69 73.24, 42.79 73.54 C40.88 73.85, 38.93 74, 37 74 C35.07 74, 33.12 73.85, 31.21 73.54 C29.31 73.24, 27.4 72.79, 25.57 72.19 C23.73 71.59, 21.92 70.84, 20.2 69.97 C18.48 69.09, 16.81 68.07, 15.25 66.93 C13.69 65.8, 12.2 64.53, 10.84 63.16 C9.47 61.8, 8.2 60.31, 7.07 58.75 C5.93 57.19, 4.91 55.52, 4.03 53.8 C3.16 52.08, 2.41 50.27, 1.81 48.43 C1.21 46.6, 0.76 44.69, 0.46 42.79 C0.15 40.88, 0 38.93, 0 37 C0 35.07, 0.15 33.12, 0.46 31.21 C0.76 29.31, 1.21 27.4, 1.81 25.57 C2.41 23.73, 3.16 21.92, 4.03 20.2 C4.91 18.48, 5.93 16.81, 7.07 15.25 C8.2 13.69, 9.47 12.2, 10.84 10.84 C12.2 9.47, 13.69 8.2, 15.25 7.07 C16.81 5.93, 18.48 4.91, 20.2 4.03 C21.92 3.16, 23.73 2.41, 25.57 1.81 C27.4 1.21, 29.31 0.76, 31.21 0.46 C33.12 0.15, 35.07 0, 37 0 C38.93 0, 40.88 0.15, 42.79 0.46 C44.69 0.76, 46.6 1.21, 48.43 1.81 C50.27 2.41, 52.08 3.16, 53.8 4.03 C55.52 4.91, 57.19 5.93, 58.75 7.07 C60.31 8.2, 61.8 9.47, 63.16 10.84 C64.53 12.2, 65.8 13.69, 66.93 15.25 C68.07 16.81, 69.09 18.48, 69.97 20.2 C70.84 21.92, 71.59 23.73, 72.19 25.57 C72.79 27.4, 73.24 29.31, 73.54 31.21 C73.85 33.12, 73.92 36.04, 74 37 C74.08 37.96, 74.08 36.04, 74 37" stroke="#000000" stroke-width="1" fill="none"></path></g><g stroke-linecap="round"><g transform="translate(133.30065721620758 66.15974820655538) rotate(0 62.748999999999796 156.875)" fill-rule="evenodd"><path d="M0 0 L14.75 14.94 L24.8 23.84 L35 30 L45.51 32.83 L56.81 33.75 L68.21 33.05 L79 31 L89.13 25.92 L108.27 11.45 L112.72 9.47 L117 9 L126.27 12.64 L135.75 20.25 L143.11 29.48 L145.26 33.98 L146 38 L144.86 41.5 L141.92 44.73 L122.7 58.37 L118.67 62.81 L116 68 L113.91 78.41 L124.18 238.52 L125.58 279.99 L125 294 L123.25 303.26 L120.47 309.34 L116.95 312.69 L113 313.75 L105.03 310.78 L99 304 L97.23 299.01 L96.04 291.89 L93.49 252.67 L91 234 L86.38 215.39 L77.57 186.98 L72.14 175.5 L70 174 L68.25 176.05 L65.39 188.83 L62.41 218.95 L61 238 L60.68 256 L61.54 292.38 L60 304 L55.63 310.62 L49.38 313.56 L46.07 313 L42.94 310.73 L40.18 306.48 L38 300 L36.41 290.55 L34.28 263.27 L31 181 L29.81 121.75 L28.35 94.84 L26.65 83.46 L24 74 L19.83 66.93 L14.1 62.09 L0.31 56.75 L-12.63 53.28 L-17.31 50.79 L-20 47 L-20.43 41.76 L-19.03 35.55 L-12.75 21.81 L0 0" stroke="none" stroke-width="0" fill="#000" fill-rule="evenodd"></path><path d="M0 0 C5.83 5, 21.83 24.83, 35 30 C48.17 35.17, 65.33 34.5, 79 31 C92.67 27.5, 105.83 7.83, 117 9 C128.17 10.17, 146.17 28.17, 146 38 C145.83 47.83, 120.83 53, 116 68 C111.17 83, 115.5 90.33, 117 128 C118.5 165.67, 128 264.67, 125 294 C122 323.33, 104.67 314, 99 304 C93.33 294, 95.83 255.67, 91 234 C86.17 212.33, 75 173.33, 70 174 C65 174.67, 62.67 216.33, 61 238 C59.33 259.67, 63.83 293.67, 60 304 C56.17 314.33, 42.83 320.5, 38 300 C33.17 279.5, 33.33 218.67, 31 181 C28.67 143.33, 32.5 96.33, 24 74 C15.5 51.67, -16 59.33, -20 47 C-24 34.67, -3.33 7.83, 0 0 M0 0 C5.83 5, 21.83 24.83, 35 30 C48.17 35.17, 65.33 34.5, 79 31 C92.67 27.5, 105.83 7.83, 117 9 C128.17 10.17, 146.17 28.17, 146 38 C145.83 47.83, 120.83 53, 116 68 C111.17 83, 115.5 90.33, 117 128 C118.5 165.67, 128 264.67, 125 294 C122 323.33, 104.67 314, 99 304 C93.33 294, 95.83 255.67, 91 234 C86.17 212.33, 75 173.33, 70 174 C65 174.67, 62.67 216.33, 61 238 C59.33 259.67, 63.83 293.67, 60 304 C56.17 314.33, 42.83 320.5, 38 300 C33.17 279.5, 33.33 218.67, 31 181 C28.67 143.33, 32.5 96.33, 24 74 C15.5 51.67, -16 59.33, -20 47 C-24 34.67, -3.33 7.83, 0 0" stroke="#000000" stroke-width="1" fill="none"></path></g></g><g stroke-linecap="round" transform="translate(259.6072898126031 10) rotate(355.4587474542961 37 37)"><path d="M74 37 C74 38.93, 73.85 40.88, 73.54 42.79 C73.24 44.69, 72.79 46.6, 72.19 48.43 C71.59 50.27, 70.84 52.08, 69.97 53.8 C69.09 55.52, 68.07 57.19, 66.93 58.75 C65.8 60.31, 64.53 61.8, 63.16 63.16 C61.8 64.53, 60.31 65.8, 58.75 66.93 C57.19 68.07, 55.52 69.09, 53.8 69.97 C52.08 70.84, 50.27 71.59, 48.43 72.19 C46.6 72.79, 44.69 73.24, 42.79 73.54 C40.88 73.85, 38.93 74, 37 74 C35.07 74, 33.12 73.85, 31.21 73.54 C29.31 73.24, 27.4 72.79, 25.57 72.19 C23.73 71.59, 21.92 70.84, 20.2 69.97 C18.48 69.09, 16.81 68.07, 15.25 66.93 C13.69 65.8, 12.2 64.53, 10.84 63.16 C9.47 61.8, 8.2 60.31, 7.07 58.75 C5.93 57.19, 4.91 55.52, 4.03 53.8 C3.16 52.08, 2.41 50.27, 1.81 48.43 C1.21 46.6, 0.76 44.69, 0.46 42.79 C0.15 40.88, 0 38.93, 0 37 C0 35.07, 0.15 33.12, 0.46 31.21 C0.76 29.31, 1.21 27.4, 1.81 25.57 C2.41 23.73, 3.16 21.92, 4.03 20.2 C4.91 18.48, 5.93 16.81, 7.07 15.25 C8.2 13.69, 9.47 12.2, 10.84 10.84 C12.2 9.47, 13.69 8.2, 15.25 7.07 C16.81 5.93, 18.48 4.91, 20.2 4.03 C21.92 3.16, 23.73 2.41, 25.57 1.81 C27.4 1.21, 29.31 0.76, 31.21 0.46 C33.12 0.15, 35.07 0, 37 0 C38.93 0, 40.88 0.15, 42.79 0.46 C44.69 0.76, 46.6 1.21, 48.43 1.81 C50.27 2.41, 52.08 3.16, 53.8 4.03 C55.52 4.91, 57.19 5.93, 58.75 7.07 C60.31 8.2, 61.8 9.47, 63.16 10.84 C64.53 12.2, 65.8 13.69, 66.93 15.25 C68.07 16.81, 69.09 18.48, 69.97 20.2 C70.84 21.92, 71.59 23.73, 72.19 25.57 C72.79 27.4, 73.24 29.31, 73.54 31.21 C73.85 33.12, 73.92 36.04, 74 37 C74.08 37.96, 74.08 36.04, 74 37" stroke="none" stroke-width="0" fill="#000"></path><path d="M74 37 C74 38.93, 73.85 40.88, 73.54 42.79 C73.24 44.69, 72.79 46.6, 72.19 48.43 C71.59 50.27, 70.84 52.08, 69.97 53.8 C69.09 55.52, 68.07 57.19, 66.93 58.75 C65.8 60.31, 64.53 61.8, 63.16 63.16 C61.8 64.53, 60.31 65.8, 58.75 66.93 C57.19 68.07, 55.52 69.09, 53.8 69.97 C52.08 70.84, 50.27 71.59, 48.43 72.19 C46.6 72.79, 44.69 73.24, 42.79 73.54 C40.88 73.85, 38.93 74, 37 74 C35.07 74, 33.12 73.85, 31.21 73.54 C29.31 73.24, 27.4 72.79, 25.57 72.19 C23.73 71.59, 21.92 70.84, 20.2 69.97 C18.48 69.09, 16.81 68.07, 15.25 66.93 C13.69 65.8, 12.2 64.53, 10.84 63.16 C9.47 61.8, 8.2 60.31, 7.07 58.75 C5.93 57.19, 4.91 55.52, 4.03 53.8 C3.16 52.08, 2.41 50.27, 1.81 48.43 C1.21 46.6, 0.76 44.69, 0.46 42.79 C0.15 40.88, 0 38.93, 0 37 C0 35.07, 0.15 33.12, 0.46 31.21 C0.76 29.31, 1.21 27.4, 1.81 25.57 C2.41 23.73, 3.16 21.92, 4.03 20.2 C4.91 18.48, 5.93 16.81, 7.07 15.25 C8.2 13.69, 9.47 12.2, 10.84 10.84 C12.2 9.47, 13.69 8.2, 15.25 7.07 C16.81 5.93, 18.48 4.91, 20.2 4.03 C21.92 3.16, 23.73 2.41, 25.57 1.81 C27.4 1.21, 29.31 0.76, 31.21 0.46 C33.12 0.15, 35.07 0, 37 0 C38.93 0, 40.88 0.15, 42.79 0.46 C44.69 0.76, 46.6 1.21, 48.43 1.81 C50.27 2.41, 52.08 3.16, 53.8 4.03 C55.52 4.91, 57.19 5.93, 58.75 7.07 C60.31 8.2, 61.8 9.47, 63.16 10.84 C64.53 12.2, 65.8 13.69, 66.93 15.25 C68.07 16.81, 69.09 18.48, 69.97 20.2 C70.84 21.92, 71.59 23.73, 72.19 25.57 C72.79 27.4, 73.24 29.31, 73.54 31.21 C73.85 33.12, 73.92 36.04, 74 37 C74.08 37.96, 74.08 36.04, 74 37" stroke="#000000" stroke-width="1" fill="none"></path></g><g stroke-linecap="round"><g transform="translate(252.51760897643817 65.0718445967018) rotate(355.4587474542961 62.748999999999796 156.875)" fill-rule="evenodd"><path d="M0 0 L14.75 14.94 L24.8 23.84 L35 30 L45.51 32.83 L56.81 33.75 L68.21 33.05 L79 31 L89.13 25.92 L108.27 11.45 L112.72 9.47 L117 9 L126.27 12.64 L135.75 20.25 L143.11 29.48 L145.26 33.98 L146 38 L144.86 41.5 L141.92 44.73 L122.7 58.37 L118.67 62.81 L116 68 L113.91 78.41 L124.18 238.52 L125.58 279.99 L125 294 L123.25 303.26 L120.47 309.34 L116.95 312.69 L113 313.75 L105.03 310.78 L99 304 L97.23 299.01 L96.04 291.89 L93.49 252.67 L91 234 L86.38 215.39 L77.57 186.98 L72.14 175.5 L70 174 L68.25 176.05 L65.39 188.83 L62.41 218.95 L61 238 L60.68 256 L61.54 292.38 L60 304 L55.63 310.62 L49.38 313.56 L46.07 313 L42.94 310.73 L40.18 306.48 L38 300 L36.41 290.55 L34.28 263.27 L31 181 L29.81 121.75 L28.35 94.84 L26.65 83.46 L24 74 L19.83 66.93 L14.1 62.09 L0.31 56.75 L-12.63 53.28 L-17.31 50.79 L-20 47 L-20.43 41.76 L-19.03 35.55 L-12.75 21.81 L0 0" stroke="none" stroke-width="0" fill="#000" fill-rule="evenodd"></path><path d="M0 0 C5.83 5, 21.83 24.83, 35 30 C48.17 35.17, 65.33 34.5, 79 31 C92.67 27.5, 105.83 7.83, 117 9 C128.17 10.17, 146.17 28.17, 146 38 C145.83 47.83, 120.83 53, 116 68 C111.17 83, 115.5 90.33, 117 128 C118.5 165.67, 128 264.67, 125 294 C122 323.33, 104.67 314, 99 304 C93.33 294, 95.83 255.67, 91 234 C86.17 212.33, 75 173.33, 70 174 C65 174.67, 62.67 216.33, 61 238 C59.33 259.67, 63.83 293.67, 60 304 C56.17 314.33, 42.83 320.5, 38 300 C33.17 279.5, 33.33 218.67, 31 181 C28.67 143.33, 32.5 96.33, 24 74 C15.5 51.67, -16 59.33, -20 47 C-24 34.67, -3.33 7.83, 0 0 M0 0 C5.83 5, 21.83 24.83, 35 30 C48.17 35.17, 65.33 34.5, 79 31 C92.67 27.5, 105.83 7.83, 117 9 C128.17 10.17, 146.17 28.17, 146 38 C145.83 47.83, 120.83 53, 116 68 C111.17 83, 115.5 90.33, 117 128 C118.5 165.67, 128 264.67, 125 294 C122 323.33, 104.67 314, 99 304 C93.33 294, 95.83 255.67, 91 234 C86.17 212.33, 75 173.33, 70 174 C65 174.67, 62.67 216.33, 61 238 C59.33 259.67, 63.83 293.67, 60 304 C56.17 314.33, 42.83 320.5, 38 300 C33.17 279.5, 33.33 218.67, 31 181 C28.67 143.33, 32.5 96.33, 24 74 C15.5 51.67, -16 59.33, -20 47 C-24 34.67, -3.33 7.83, 0 0" stroke="#000000" stroke-width="1" fill="none"></path></g></g><g stroke-linecap="round" transform="translate(56.82779272595326 10.344149443557853) rotate(5.240848827231611 37 37)"><path d="M74 37 C74 38.93, 73.85 40.88, 73.54 42.79 C73.24 44.69, 72.79 46.6, 72.19 48.43 C71.59 50.27, 70.84 52.08, 69.97 53.8 C69.09 55.52, 68.07 57.19, 66.93 58.75 C65.8 60.31, 64.53 61.8, 63.16 63.16 C61.8 64.53, 60.31 65.8, 58.75 66.93 C57.19 68.07, 55.52 69.09, 53.8 69.97 C52.08 70.84, 50.27 71.59, 48.43 72.19 C46.6 72.79, 44.69 73.24, 42.79 73.54 C40.88 73.85, 38.93 74, 37 74 C35.07 74, 33.12 73.85, 31.21 73.54 C29.31 73.24, 27.4 72.79, 25.57 72.19 C23.73 71.59, 21.92 70.84, 20.2 69.97 C18.48 69.09, 16.81 68.07, 15.25 66.93 C13.69 65.8, 12.2 64.53, 10.84 63.16 C9.47 61.8, 8.2 60.31, 7.07 58.75 C5.93 57.19, 4.91 55.52, 4.03 53.8 C3.16 52.08, 2.41 50.27, 1.81 48.43 C1.21 46.6, 0.76 44.69, 0.46 42.79 C0.15 40.88, 0 38.93, 0 37 C0 35.07, 0.15 33.12, 0.46 31.21 C0.76 29.31, 1.21 27.4, 1.81 25.57 C2.41 23.73, 3.16 21.92, 4.03 20.2 C4.91 18.48, 5.93 16.81, 7.07 15.25 C8.2 13.69, 9.47 12.2, 10.84 10.84 C12.2 9.47, 13.69 8.2, 15.25 7.07 C16.81 5.93, 18.48 4.91, 20.2 4.03 C21.92 3.16, 23.73 2.41, 25.57 1.81 C27.4 1.21, 29.31 0.76, 31.21 0.46 C33.12 0.15, 35.07 0, 37 0 C38.93 0, 40.88 0.15, 42.79 0.46 C44.69 0.76, 46.6 1.21, 48.43 1.81 C50.27 2.41, 52.08 3.16, 53.8 4.03 C55.52 4.91, 57.19 5.93, 58.75 7.07 C60.31 8.2, 61.8 9.47, 63.16 10.84 C64.53 12.2, 65.8 13.69, 66.93 15.25 C68.07 16.81, 69.09 18.48, 69.97 20.2 C70.84 21.92, 71.59 23.73, 72.19 25.57 C72.79 27.4, 73.24 29.31, 73.54 31.21 C73.85 33.12, 73.92 36.04, 74 37 C74.08 37.96, 74.08 36.04, 74 37" stroke="none" stroke-width="0" fill="#000"></path><path d="M74 37 C74 38.93, 73.85 40.88, 73.54 42.79 C73.24 44.69, 72.79 46.6, 72.19 48.43 C71.59 50.27, 70.84 52.08, 69.97 53.8 C69.09 55.52, 68.07 57.19, 66.93 58.75 C65.8 60.31, 64.53 61.8, 63.16 63.16 C61.8 64.53, 60.31 65.8, 58.75 66.93 C57.19 68.07, 55.52 69.09, 53.8 69.97 C52.08 70.84, 50.27 71.59, 48.43 72.19 C46.6 72.79, 44.69 73.24, 42.79 73.54 C40.88 73.85, 38.93 74, 37 74 C35.07 74, 33.12 73.85, 31.21 73.54 C29.31 73.24, 27.4 72.79, 25.57 72.19 C23.73 71.59, 21.92 70.84, 20.2 69.97 C18.48 69.09, 16.81 68.07, 15.25 66.93 C13.69 65.8, 12.2 64.53, 10.84 63.16 C9.47 61.8, 8.2 60.31, 7.07 58.75 C5.93 57.19, 4.91 55.52, 4.03 53.8 C3.16 52.08, 2.41 50.27, 1.81 48.43 C1.21 46.6, 0.76 44.69, 0.46 42.79 C0.15 40.88, 0 38.93, 0 37 C0 35.07, 0.15 33.12, 0.46 31.21 C0.76 29.31, 1.21 27.4, 1.81 25.57 C2.41 23.73, 3.16 21.92, 4.03 20.2 C4.91 18.48, 5.93 16.81, 7.07 15.25 C8.2 13.69, 9.47 12.2, 10.84 10.84 C12.2 9.47, 13.69 8.2, 15.25 7.07 C16.81 5.93, 18.48 4.91, 20.2 4.03 C21.92 3.16, 23.73 2.41, 25.57 1.81 C27.4 1.21, 29.31 0.76, 31.21 0.46 C33.12 0.15, 35.07 0, 37 0 C38.93 0, 40.88 0.15, 42.79 0.46 C44.69 0.76, 46.6 1.21, 48.43 1.81 C50.27 2.41, 52.08 3.16, 53.8 4.03 C55.52 4.91, 57.19 5.93, 58.75 7.07 C60.31 8.2, 61.8 9.47, 63.16 10.84 C64.53 12.2, 65.8 13.69, 66.93 15.25 C68.07 16.81, 69.09 18.48, 69.97 20.2 C70.84 21.92, 71.59 23.73, 72.19 25.57 C72.79 27.4, 73.24 29.31, 73.54 31.21 C73.85 33.12, 73.92 36.04, 74 37 C74.08 37.96, 74.08 36.04, 74 37" stroke="#000000" stroke-width="1" fill="none"></path></g><g stroke-linecap="round"><g transform="translate(19.74306527214776 66.04269502800344) rotate(5.240848827231611 62.748999999999796 156.875)" fill-rule="evenodd"><path d="M0 0 L14.75 14.94 L24.8 23.84 L35 30 L45.51 32.83 L56.81 33.75 L68.21 33.05 L79 31 L89.13 25.92 L108.27 11.45 L112.72 9.47 L117 9 L126.27 12.64 L135.75 20.25 L143.11 29.48 L145.26 33.98 L146 38 L144.86 41.5 L141.92 44.73 L122.7 58.37 L118.67 62.81 L116 68 L113.91 78.41 L124.18 238.52 L125.58 279.99 L125 294 L123.25 303.26 L120.47 309.34 L116.95 312.69 L113 313.75 L105.03 310.78 L99 304 L97.23 299.01 L96.04 291.89 L93.49 252.67 L91 234 L86.38 215.39 L77.57 186.98 L72.14 175.5 L70 174 L68.25 176.05 L65.39 188.83 L62.41 218.95 L61 238 L60.68 256 L61.54 292.38 L60 304 L55.63 310.62 L49.38 313.56 L46.07 313 L42.94 310.73 L40.18 306.48 L38 300 L36.41 290.55 L34.28 263.27 L31 181 L29.81 121.75 L28.35 94.84 L26.65 83.46 L24 74 L19.83 66.93 L14.1 62.09 L0.31 56.75 L-12.63 53.28 L-17.31 50.79 L-20 47 L-20.43 41.76 L-19.03 35.55 L-12.75 21.81 L0 0" stroke="none" stroke-width="0" fill="#000" fill-rule="evenodd"></path><path d="M0 0 C5.83 5, 21.83 24.83, 35 30 C48.17 35.17, 65.33 34.5, 79 31 C92.67 27.5, 105.83 7.83, 117 9 C128.17 10.17, 146.17 28.17, 146 38 C145.83 47.83, 120.83 53, 116 68 C111.17 83, 115.5 90.33, 117 128 C118.5 165.67, 128 264.67, 125 294 C122 323.33, 104.67 314, 99 304 C93.33 294, 95.83 255.67, 91 234 C86.17 212.33, 75 173.33, 70 174 C65 174.67, 62.67 216.33, 61 238 C59.33 259.67, 63.83 293.67, 60 304 C56.17 314.33, 42.83 320.5, 38 300 C33.17 279.5, 33.33 218.67, 31 181 C28.67 143.33, 32.5 96.33, 24 74 C15.5 51.67, -16 59.33, -20 47 C-24 34.67, -3.33 7.83, 0 0 M0 0 C5.83 5, 21.83 24.83, 35 30 C48.17 35.17, 65.33 34.5, 79 31 C92.67 27.5, 105.83 7.83, 117 9 C128.17 10.17, 146.17 28.17, 146 38 C145.83 47.83, 120.83 53, 116 68 C111.17 83, 115.5 90.33, 117 128 C118.5 165.67, 128 264.67, 125 294 C122 323.33, 104.67 314, 99 304 C93.33 294, 95.83 255.67, 91 234 C86.17 212.33, 75 173.33, 70 174 C65 174.67, 62.67 216.33, 61 238 C59.33 259.67, 63.83 293.67, 60 304 C56.17 314.33, 42.83 320.5, 38 300 C33.17 279.5, 33.33 218.67, 31 181 C28.67 143.33, 32.5 96.33, 24 74 C15.5 51.67, -16 59.33, -20 47 C-24 34.67, -3.33 7.83, 0 0" stroke="#000000" stroke-width="1" fill="none"></path></g></g></svg>