<svg width="112" height="24" viewBox="0 0 112 24" fill="none" xmlns="http://www.w3.org/2000/svg">
<path d="M73.928 18V6.48H84.568V8.976H76.44V10.992H82.984V13.488H76.44V15.504H84.568V18H73.928ZM88.514 18C88.0767 18 87.6767 17.8933 87.314 17.68C86.962 17.4667 86.6793 17.184 86.466 16.832C86.2527 16.4693 86.146 16.0693 86.146 15.632V8.848C86.146 8.41067 86.2527 8.016 86.466 7.664C86.6793 7.30133 86.962 7.01333 87.314 6.8C87.6767 6.58667 88.0767 6.48 88.514 6.48H97.634V8.976H89.154C88.9833 8.976 88.85 9.01867 88.754 9.104C88.6687 9.18933 88.626 9.32267 88.626 9.504V14.976C88.626 15.1467 88.6687 15.28 88.754 15.376C88.85 15.4613 88.9833 15.504 89.154 15.504H97.634V18H88.514ZM101.638 18C101.212 18 100.817 17.8933 100.454 17.68C100.092 17.4667 99.8036 17.1787 99.5903 16.816C99.3769 16.4533 99.2703 16.0587 99.2703 15.632V14.56H101.75V15.504H108.278V13.488H101.638C101.212 13.488 100.817 13.3813 100.454 13.168C100.092 12.9547 99.8036 12.672 99.5903 12.32C99.3769 11.9573 99.2703 11.5573 99.2703 11.12V8.848C99.2703 8.41067 99.3769 8.016 99.5903 7.664C99.8036 7.30133 100.092 7.01333 100.454 6.8C100.817 6.58667 101.212 6.48 101.638 6.48H108.422C108.849 6.48 109.238 6.58667 109.59 6.8C109.953 7.01333 110.241 7.30133 110.454 7.664C110.678 8.016 110.79 8.41067 110.79 8.848V9.92H108.278V8.976H101.75V10.992H108.422C108.849 10.992 109.238 11.0987 109.59 11.312C109.953 11.5253 110.241 11.8133 110.454 12.176C110.678 12.528 110.79 12.9227 110.79 13.36V15.632C110.79 16.0587 110.678 16.4533 110.454 16.816C110.241 17.1787 109.953 17.4667 109.59 17.68C109.238 17.8933 108.849 18 108.422 18H101.638Z" fill="white"/>
<path d="M0.896 17V5.48H3.456L7.36 10.136L11.248 5.48H13.824V17H11.328V9.272L7.36 14.008L3.376 9.288V17H0.896ZM17.8395 17C17.4128 17 17.0235 16.8933 16.6715 16.68C16.3195 16.4667 16.0368 16.184 15.8235 15.832C15.6208 15.48 15.5195 15.096 15.5195 14.68V11.128H22.4795V10.168H15.5195V7.72H22.6075C23.0342 7.72 23.4235 7.82667 23.7755 8.04C24.1275 8.25333 24.4048 8.536 24.6075 8.888C24.8208 9.24 24.9275 9.624 24.9275 10.04V17H17.8395ZM17.9675 14.552H22.4795V13.272H17.9675V14.552ZM28.3704 17C27.9544 17 27.5704 16.8933 27.2184 16.68C26.8664 16.4667 26.5837 16.184 26.3704 15.832C26.157 15.48 26.0504 15.096 26.0504 14.68V10.04C26.0504 9.624 26.157 9.24 26.3704 8.888C26.5837 8.536 26.8664 8.25333 27.2184 8.04C27.5704 7.82667 27.9544 7.72 28.3704 7.72H35.4424V10.168H28.4984V14.552H35.4584V17H28.3704ZM36.7703 17V4.68H39.2183V7.72H43.8583C44.2743 7.72 44.6583 7.82667 45.0103 8.04C45.3623 8.25333 45.6449 8.536 45.8583 8.888C46.0716 9.24 46.1783 9.624 46.1783 10.04V17H43.7303V10.168H39.2183V17H36.7703Z" fill="white"/>
<path d="M60 2L60.2428 1.56292L60 1.42802L59.7572 1.56292L60 2ZM69 7H69.5V6.7058L69.2428 6.56292L69 7ZM69 17L69.2428 17.4371L69.5 17.2942V17H69ZM60 22L59.7572 22.4371L60 22.572L60.2428 22.4371L60 22ZM51 17H50.5V17.2942L50.7572 17.4371L51 17ZM51 7L50.7572 6.56292L50.5 6.7058V7H51ZM60 7L60.2428 6.56292L60 6.42802L59.7572 6.56292L60 7ZM64.5 9.5H65V9.2058L64.7428 9.06292L64.5 9.5ZM64.5 14.5L64.7428 14.9371L65 14.7942V14.5H64.5ZM60 17L59.7572 17.4371L60 17.572L60.2428 17.4371L60 17ZM55.5 14.5H55V14.7942L55.2572 14.9371L55.5 14.5ZM55.5 9.5L55.2572 9.06292L55 9.2058V9.5H55.5ZM59.7572 2.43708L68.7572 7.43708L69.2428 6.56292L60.2428 1.56292L59.7572 2.43708ZM68.5 7V17H69.5V7H68.5ZM68.7572 16.5629L59.7572 21.5629L60.2428 22.4371L69.2428 17.4371L68.7572 16.5629ZM60.2428 21.5629L51.2428 16.5629L50.7572 17.4371L59.7572 22.4371L60.2428 21.5629ZM51.5 17V7H50.5V17H51.5ZM51.2428 7.43708L60.2428 2.43708L59.7572 1.56292L50.7572 6.56292L51.2428 7.43708ZM50.7792 7.44863L59.7792 11.8772L60.2208 10.9799L51.2208 6.55137L50.7792 7.44863ZM60.2208 11.8772L69.2208 7.44863L68.7792 6.55137L59.7792 10.9799L60.2208 11.8772ZM59.5 11.4286V22H60.5V11.4286H59.5ZM59.7572 7.43708L64.2572 9.93708L64.7428 9.06292L60.2428 6.56292L59.7572 7.43708ZM64 9.5V14.5H65V9.5H64ZM64.2572 14.0629L59.7572 16.5629L60.2428 17.4371L64.7428 14.9371L64.2572 14.0629ZM60.2428 16.5629L55.7428 14.0629L55.2572 14.9371L59.7572 17.4371L60.2428 16.5629ZM56 14.5V9.5H55V14.5H56ZM55.7428 9.93708L60.2428 7.43708L59.7572 6.56292L55.2572 9.06292L55.7428 9.93708Z" fill="#FFFF59"/>
</svg>
