<svg width="63" height="24" viewBox="0 0 63 24" fill="none" xmlns="http://www.w3.org/2000/svg">
<path d="M24.928 18V6.48H35.568V8.976H27.44V10.992H33.984V13.488H27.44V15.504H35.568V18H24.928ZM39.514 18C39.0767 18 38.6767 17.8933 38.314 17.68C37.962 17.4667 37.6793 17.184 37.466 16.832C37.2527 16.4693 37.146 16.0693 37.146 15.632V8.848C37.146 8.41067 37.2527 8.016 37.466 7.664C37.6793 7.30133 37.962 7.01333 38.314 6.8C38.6767 6.58667 39.0767 6.48 39.514 6.48H48.634V8.976H40.154C39.9833 8.976 39.85 9.01867 39.754 9.104C39.6687 9.18933 39.626 9.32267 39.626 9.504V14.976C39.626 15.1467 39.6687 15.28 39.754 15.376C39.85 15.4613 39.9833 15.504 40.154 15.504H48.634V18H39.514ZM52.6383 18C52.2116 18 51.8169 17.8933 51.4543 17.68C51.0916 17.4667 50.8036 17.1787 50.5903 16.816C50.3769 16.4533 50.2703 16.0587 50.2703 15.632V14.56H52.7503V15.504H59.2783V13.488H52.6383C52.2116 13.488 51.8169 13.3813 51.4543 13.168C51.0916 12.9547 50.8036 12.672 50.5903 12.32C50.3769 11.9573 50.2703 11.5573 50.2703 11.12V8.848C50.2703 8.41067 50.3769 8.016 50.5903 7.664C50.8036 7.30133 51.0916 7.01333 51.4543 6.8C51.8169 6.58667 52.2116 6.48 52.6383 6.48H59.4223C59.8489 6.48 60.2383 6.58667 60.5903 6.8C60.9529 7.01333 61.2409 7.30133 61.4543 7.664C61.6783 8.016 61.7903 8.41067 61.7903 8.848V9.92H59.2783V8.976H52.7503V10.992H59.4223C59.8489 10.992 60.2383 11.0987 60.5903 11.312C60.9529 11.5253 61.2409 11.8133 61.4543 12.176C61.6783 12.528 61.7903 12.9227 61.7903 13.36V15.632C61.7903 16.0587 61.6783 16.4533 61.4543 16.816C61.2409 17.1787 60.9529 17.4667 60.5903 17.68C60.2383 17.8933 59.8489 18 59.4223 18H52.6383Z" fill="white"/>
<path d="M11 2L11.2428 1.56292L11 1.42802L10.7572 1.56292L11 2ZM20 7H20.5V6.7058L20.2428 6.56292L20 7ZM20 17L20.2428 17.4371L20.5 17.2942V17H20ZM11 22L10.7572 22.4371L11 22.572L11.2428 22.4371L11 22ZM2 17H1.5V17.2942L1.75718 17.4371L2 17ZM2 7L1.75718 6.56292L1.5 6.7058V7H2ZM11 7L11.2428 6.56292L11 6.42802L10.7572 6.56292L11 7ZM15.5 9.5H16V9.2058L15.7428 9.06292L15.5 9.5ZM15.5 14.5L15.7428 14.9371L16 14.7942V14.5H15.5ZM11 17L10.7572 17.4371L11 17.572L11.2428 17.4371L11 17ZM6.5 14.5H6V14.7942L6.25718 14.9371L6.5 14.5ZM6.5 9.5L6.25718 9.06292L6 9.2058V9.5H6.5ZM10.7572 2.43708L19.7572 7.43708L20.2428 6.56292L11.2428 1.56292L10.7572 2.43708ZM19.5 7V17H20.5V7H19.5ZM19.7572 16.5629L10.7572 21.5629L11.2428 22.4371L20.2428 17.4371L19.7572 16.5629ZM11.2428 21.5629L2.24282 16.5629L1.75718 17.4371L10.7572 22.4371L11.2428 21.5629ZM2.5 17V7H1.5V17H2.5ZM2.24282 7.43708L11.2428 2.43708L10.7572 1.56292L1.75718 6.56292L2.24282 7.43708ZM1.77925 7.44863L10.7792 11.8772L11.2208 10.9799L2.22075 6.55137L1.77925 7.44863ZM11.2208 11.8772L20.2208 7.44863L19.7792 6.55137L10.7792 10.9799L11.2208 11.8772ZM10.5 11.4286V22H11.5V11.4286H10.5ZM10.7572 7.43708L15.2572 9.93708L15.7428 9.06292L11.2428 6.56292L10.7572 7.43708ZM15 9.5V14.5H16V9.5H15ZM15.2572 14.0629L10.7572 16.5629L11.2428 17.4371L15.7428 14.9371L15.2572 14.0629ZM11.2428 16.5629L6.74282 14.0629L6.25718 14.9371L10.7572 17.4371L11.2428 16.5629ZM7 14.5V9.5H6V14.5H7ZM6.74282 9.93708L11.2428 7.43708L10.7572 6.56292L6.25718 9.06292L6.74282 9.93708Z" fill="#FFFF59"/>
</svg>
