<svg width="70" height="24" viewBox="0 0 70 24" fill="none" xmlns="http://www.w3.org/2000/svg">
<g clip-path="url(#clip0_2_148)">
<path d="M17.5 4C17.2239 4 17 4.22386 17 4.5V21.5C17 21.7761 17.2239 22 17.5 22H18.5C18.7761 22 19 21.7761 19 21.5V14H21.5C21.7761 14 22 13.7761 22 13.5V12.5C22 12.2239 21.7761 12 21.5 12H19V4.5C19 4.22386 18.7761 4 18.5 4H17.5Z" fill="white" stroke="white"/>
<path d="M6.5 4C6.77614 4 7 4.22386 7 4.5V21.5C7 21.7761 6.77614 22 6.5 22H5.5C5.22386 22 5 21.7761 5 21.5V14H2.5C2.22386 14 2 13.7761 2 13.5V12.5C2 12.2239 2.22386 12 2.5 12H5V4.5C5 4.22386 5.22386 4 5.5 4H6.5Z" fill="white" stroke="white"/>
<rect x="12" y="17" width="4" height="4" fill="#F53137"/>
<rect x="8" y="13" width="4" height="4" fill="#F53137"/>
<rect x="8" y="5" width="4" height="4" fill="#F53137"/>
<path d="M26.648 17V7.76H28.22V10.04H32.06C32.364 10.04 32.64 10.116 32.888 10.268C33.144 10.42 33.344 10.62 33.488 10.868C33.64 11.116 33.716 11.392 33.716 11.696V15.344C33.716 15.648 33.64 15.924 33.488 16.172C33.344 16.42 33.144 16.62 32.888 16.772C32.64 16.924 32.364 17 32.06 17H26.648ZM28.364 15.428H32C32.04 15.428 32.072 15.416 32.096 15.392C32.128 15.36 32.144 15.324 32.144 15.284V11.756C32.144 11.716 32.128 11.684 32.096 11.66C32.072 11.628 32.04 11.612 32 11.612H28.364C28.324 11.612 28.288 11.628 28.256 11.66C28.232 11.684 28.22 11.716 28.22 11.756V15.284C28.22 15.324 28.232 15.36 28.256 15.392C28.288 15.416 28.324 15.428 28.364 15.428ZM36.2019 17C35.8979 17 35.6179 16.924 35.3619 16.772C35.1139 16.62 34.9139 16.42 34.7619 16.172C34.6179 15.924 34.5459 15.648 34.5459 15.344V12.728H40.0419V11.756C40.0419 11.716 40.0259 11.684 39.9939 11.66C39.9699 11.628 39.9379 11.612 39.8979 11.612H34.5459V10.04H39.9579C40.2619 10.04 40.5379 10.116 40.7859 10.268C41.0419 10.42 41.2419 10.62 41.3859 10.868C41.5379 11.116 41.6139 11.392 41.6139 11.696V17H36.2019ZM36.2619 15.428H40.0419V14.144H36.1179V15.284C36.1179 15.324 36.1299 15.36 36.1539 15.392C36.1859 15.416 36.2219 15.428 36.2619 15.428ZM44.2281 17C43.9241 17 43.6481 16.924 43.4001 16.772C43.1521 16.62 42.9521 16.42 42.8001 16.172C42.6481 15.924 42.5721 15.648 42.5721 15.344V15.08H44.1441V15.284C44.1441 15.324 44.1561 15.36 44.1801 15.392C44.2121 15.416 44.2481 15.428 44.2881 15.428H47.9241C47.9641 15.428 47.9961 15.416 48.0201 15.392C48.0521 15.36 48.0681 15.324 48.0681 15.284V14.456C48.0681 14.416 48.0521 14.384 48.0201 14.36C47.9961 14.328 47.9641 14.312 47.9241 14.312H44.2281C43.9241 14.312 43.6481 14.236 43.4001 14.084C43.1521 13.932 42.9521 13.732 42.8001 13.484C42.6481 13.236 42.5721 12.96 42.5721 12.656V11.696C42.5721 11.392 42.6481 11.116 42.8001 10.868C42.9521 10.62 43.1521 10.42 43.4001 10.268C43.6481 10.116 43.9241 10.04 44.2281 10.04H47.9841C48.2961 10.04 48.5761 10.116 48.8241 10.268C49.0721 10.42 49.2721 10.62 49.4241 10.868C49.5761 11.116 49.6521 11.392 49.6521 11.696V11.96H48.0681V11.756C48.0681 11.716 48.0521 11.684 48.0201 11.66C47.9961 11.628 47.9641 11.612 47.9241 11.612H44.2881C44.2481 11.612 44.2121 11.628 44.1801 11.66C44.1561 11.684 44.1441 11.716 44.1441 11.756V12.584C44.1441 12.624 44.1561 12.66 44.1801 12.692C44.2121 12.716 44.2481 12.728 44.2881 12.728H47.9841C48.2961 12.728 48.5761 12.804 48.8241 12.956C49.0721 13.108 49.2721 13.308 49.4241 13.556C49.5761 13.804 49.6521 14.08 49.6521 14.384V15.344C49.6521 15.648 49.5761 15.924 49.4241 16.172C49.2721 16.42 49.0721 16.62 48.8241 16.772C48.5761 16.924 48.2961 17 47.9841 17H44.2281ZM50.8467 17V10.04H52.4187V17H50.8467ZM50.8467 9.344V7.76H52.4187V9.344H50.8467ZM55.4429 17C55.1389 17 54.8629 16.924 54.6149 16.772C54.3669 16.62 54.1669 16.42 54.0149 16.172C53.8629 15.924 53.7869 15.648 53.7869 15.344V15.08H55.3589V15.284C55.3589 15.324 55.3709 15.36 55.3949 15.392C55.4269 15.416 55.4629 15.428 55.5029 15.428H59.1389C59.1789 15.428 59.2109 15.416 59.2349 15.392C59.2669 15.36 59.2829 15.324 59.2829 15.284V14.456C59.2829 14.416 59.2669 14.384 59.2349 14.36C59.2109 14.328 59.1789 14.312 59.1389 14.312H55.4429C55.1389 14.312 54.8629 14.236 54.6149 14.084C54.3669 13.932 54.1669 13.732 54.0149 13.484C53.8629 13.236 53.7869 12.96 53.7869 12.656V11.696C53.7869 11.392 53.8629 11.116 54.0149 10.868C54.1669 10.62 54.3669 10.42 54.6149 10.268C54.8629 10.116 55.1389 10.04 55.4429 10.04H59.1989C59.5109 10.04 59.7909 10.116 60.0389 10.268C60.2869 10.42 60.4869 10.62 60.6389 10.868C60.7909 11.116 60.8669 11.392 60.8669 11.696V11.96H59.2829V11.756C59.2829 11.716 59.2669 11.684 59.2349 11.66C59.2109 11.628 59.1789 11.612 59.1389 11.612H55.5029C55.4629 11.612 55.4269 11.628 55.3949 11.66C55.3709 11.684 55.3589 11.716 55.3589 11.756V12.584C55.3589 12.624 55.3709 12.66 55.3949 12.692C55.4269 12.716 55.4629 12.728 55.5029 12.728H59.1989C59.5109 12.728 59.7909 12.804 60.0389 12.956C60.2869 13.108 60.4869 13.308 60.6389 13.556C60.7909 13.804 60.8669 14.08 60.8669 14.384V15.344C60.8669 15.648 60.7909 15.924 60.6389 16.172C60.4869 16.42 60.2869 16.62 60.0389 16.772C59.7909 16.924 59.5109 17 59.1989 17H55.4429ZM63.3897 17C63.0857 17 62.8057 16.924 62.5497 16.772C62.3017 16.62 62.1017 16.42 61.9497 16.172C61.8057 15.924 61.7337 15.648 61.7337 15.344V10.04H63.3057V15.284C63.3057 15.324 63.3177 15.36 63.3417 15.392C63.3737 15.416 63.4097 15.428 63.4497 15.428H67.0857C67.1257 15.428 67.1577 15.416 67.1817 15.392C67.2137 15.36 67.2297 15.324 67.2297 15.284V10.04H68.8017V15.344C68.8017 15.648 68.7257 15.924 68.5737 16.172C68.4297 16.42 68.2337 16.62 67.9857 16.772C67.7377 16.924 67.4577 17 67.1457 17H63.3897Z" fill="white"/>
<rect x="12" y="9" width="4" height="4" fill="#F53137"/>
</g>
<defs>
<clipPath id="clip0_2_148">
<rect width="70" height="24" fill="white"/>
</clipPath>
</defs>
</svg>
