<svg width="24" height="24" viewBox="0 0 24 24" fill="none" xmlns="http://www.w3.org/2000/svg">
<path d="M7.59098 2.56601L7.41024 3.0322L7.59098 2.56601C7.33395 2.46636 7.04677 2.48003 6.80036 2.60365C6.55396 2.72727 6.37132 2.9493 6.29753 3.21492L1.53564 20.3577C1.4299 20.7384 1.56402 21.1453 1.8754 21.3884C2.18679 21.6316 2.61403 21.6631 2.9577 21.4682L13.4311 15.5298L21.1566 18.6664C21.5331 18.8192 21.965 18.7228 22.2408 18.4244L21.8736 18.085L22.2408 18.4244C22.5166 18.1259 22.5786 17.6877 22.3965 17.3244L16.9543 6.46732C16.8457 6.25068 16.6604 6.08217 16.4345 5.99458L7.59098 2.56601ZM16.2281 9.37543L19.4898 15.8825L14.5973 13.8961L16.2281 9.37543ZM14.8398 7.47031L13.1692 12.1014L9.41018 5.36527L14.8398 7.47031ZM7.54302 6.02586L12.0356 14.0766L4.04876 18.6052L7.54302 6.02586Z" fill="white" stroke="white" stroke-linejoin="round"/>
</svg>
