<?xml version="1.0" encoding="UTF-8" standalone="no"?>
<!-- Created with Inkscape (http://www.inkscape.org/) -->

<svg
   width="400"
   height="120"
   viewBox="0 0 105.83333 31.750001"
   version="1.1"
   id="svg107616"
   inkscape:version="1.1.1 (3bf5ae0d25, 2021-09-20)"
   sodipodi:docname="earcut-full-dark.svg"
   xmlns:inkscape="http://www.inkscape.org/namespaces/inkscape"
   xmlns:sodipodi="http://sodipodi.sourceforge.net/DTD/sodipodi-0.dtd"
   xmlns="http://www.w3.org/2000/svg"
   xmlns:svg="http://www.w3.org/2000/svg">
  <sodipodi:namedview
     id="namedview107618"
     pagecolor="#000000"
     bordercolor="#666666"
     borderopacity="1.0"
     inkscape:pageshadow="2"
     inkscape:pageopacity="0"
     inkscape:pagecheckerboard="true"
     inkscape:document-units="mm"
     showgrid="true"
     units="px"
     inkscape:object-nodes="true"
     gridtolerance="10000"
     guidetolerance="10000"
     inkscape:snap-page="false"
     inkscape:snap-grids="false"
     inkscape:snap-to-guides="false"
     inkscape:snap-smooth-nodes="true"
     inkscape:snap-midpoints="true"
     inkscape:zoom="4.3994184"
     inkscape:cx="178.43268"
     inkscape:cy="137.97278"
     inkscape:window-width="3840"
     inkscape:window-height="2066"
     inkscape:window-x="-11"
     inkscape:window-y="-11"
     inkscape:window-maximized="1"
     inkscape:current-layer="layer1">
    <inkscape:grid
       type="xygrid"
       id="grid111742"
       empspacing="10"
       snapvisiblegridlinesonly="true"
       visible="true"
       enabled="true"
       dotted="true" />
    <sodipodi:guide
       position="0,31.75"
       orientation="0,400"
       id="guide113514" />
    <sodipodi:guide
       position="105.83333,31.75"
       orientation="120,0"
       id="guide113516" />
    <sodipodi:guide
       position="105.83333,0"
       orientation="0,-400"
       id="guide113518" />
    <sodipodi:guide
       position="0,0"
       orientation="-120,0"
       id="guide113520" />
  </sodipodi:namedview>
  <defs
     id="defs107613">
    <clipPath
       id="clip0_17_168">
      <rect
         width="24"
         height="24"
         fill="white"
         id="rect119280" />
    </clipPath>
  </defs>
  <g
     inkscape:label="Layer 1"
     inkscape:groupmode="layer"
     id="layer1">
    <g
       aria-label="mach
earcut"
       id="text116068"
       style="font-size:11.9944px;font-family:Orbitron;-inkscape-font-specification:Orbitron;stroke-width:0.264583">
      <path
         d="m 42.854719,4.6632231 q 0.719664,0 1.223429,0.5157592 0.515759,0.5157592 0.515759,1.2234288 V 11.619975 H 42.770758 V 6.4983663 H 40.467834 V 11.619975 H 38.620696 V 6.4983663 H 36.317771 V 11.619975 H 34.482628 V 4.6632231 Z"
         style="-inkscape-font-specification:'Orbitron Heavy';fill:#ffffff"
         id="path833" />
      <path
         d="m 51.130838,4.6632231 q 0.719664,0 1.223429,0.5157592 0.515759,0.5157592 0.515759,1.2234288 v 5.2175639 h -5.313519 q -0.719664,0 -1.235423,-0.515759 -0.503765,-0.515759 -0.503765,-1.2234289 V 7.2180303 h 5.217564 V 6.4983663 H 45.817319 V 4.6632231 Z m -0.09595,5.1216088 v -0.959552 h -3.382421 v 0.959552 z"
         style="-inkscape-font-specification:'Orbitron Heavy';fill:#ffffff"
         id="path835" />
      <path
         d="m 60.750307,6.4983663 h -5.20557 v 3.2864656 h 5.217564 v 1.8351431 h -5.313519 q -0.70767,0 -1.223429,-0.515759 -0.515759,-0.515759 -0.515759,-1.2234289 v -3.478376 q 0,-0.7076696 0.515759,-1.2234288 0.515759,-0.5157592 1.223429,-0.5157592 h 5.301525 z"
         style="-inkscape-font-specification:'Orbitron Heavy';fill:#ffffff"
         id="path837" />
      <path
         d="m 67.047349,4.6632231 q 0.707669,0 1.223429,0.5157592 0.515759,0.5157592 0.515759,1.2234288 V 11.619975 H 66.951394 V 6.4983663 H 63.568973 V 11.619975 H 61.73383 V 2.3842871 h 1.835143 v 2.278936 z"
         style="-inkscape-font-specification:'Orbitron Heavy';fill:#ffffff"
         id="path839" />
      <path
         d="m 39.760164,19.656223 q 0.719664,0 1.223429,0.515759 0.515759,0.51576 0.515759,1.223429 v 2.662757 h -5.217564 v 0.719664 h 5.217564 v 1.835143 h -5.313519 q -0.70767,0 -1.223429,-0.515759 -0.515759,-0.515759 -0.515759,-1.223429 v -3.478376 q 0,-0.707669 0.515759,-1.223429 0.515759,-0.515759 1.223429,-0.515759 z m -3.478376,2.794695 h 3.382421 v -0.959552 h -3.382421 z"
         style="-inkscape-font-specification:'Orbitron Heavy';fill:#ffffff"
         id="path841" />
      <path
         d="m 48.072277,19.656223 q 0.719664,0 1.223429,0.515759 0.515759,0.51576 0.515759,1.223429 v 5.217564 h -5.313519 q -0.719664,0 -1.235424,-0.515759 -0.503764,-0.515759 -0.503764,-1.223429 V 22.21103 h 5.217564 v -0.719664 h -5.217564 v -1.835143 z m -0.09595,5.121609 V 23.81828 h -3.382421 v 0.959552 z"
         style="-inkscape-font-specification:'Orbitron Heavy';fill:#ffffff"
         id="path843" />
      <path
         d="m 52.510179,19.656223 h 3.838208 v 1.835143 H 52.59414 v 5.121609 h -1.835143 v -5.217564 q 0,-0.707669 0.515759,-1.223429 0.515759,-0.515759 1.235423,-0.515759 z"
         style="-inkscape-font-specification:'Orbitron Heavy';fill:#ffffff"
         id="path845" />
      <path
         d="M 64.096759,21.491366 H 58.89119 v 3.286466 h 5.217564 v 1.835143 h -5.313519 q -0.70767,0 -1.223429,-0.515759 -0.515759,-0.515759 -0.515759,-1.223429 v -3.478376 q 0,-0.707669 0.515759,-1.223429 0.515759,-0.515759 1.223429,-0.515759 h 5.301524 z"
         style="-inkscape-font-specification:'Orbitron Heavy';fill:#ffffff"
         id="path847" />
      <path
         d="m 70.30985,19.656223 h 1.835143 v 5.217564 q 0,0.70767 -0.515759,1.223429 -0.503765,0.515759 -1.223429,0.515759 h -3.574331 q -0.719664,0 -1.235423,-0.515759 -0.503765,-0.515759 -0.503765,-1.223429 v -5.217564 h 1.835143 v 5.121609 h 3.382421 z"
         style="-inkscape-font-specification:'Orbitron Heavy';fill:#ffffff"
         id="path849" />
      <path
         d="m 77.542452,21.491366 h -2.578796 v 3.286466 h 2.578796 v 1.835143 h -2.662757 q -0.731659,0 -1.247418,-0.515759 -0.503765,-0.515759 -0.503765,-1.223429 v -7.280601 h 1.835144 v 2.063037 h 2.578796 z"
         style="-inkscape-font-specification:'Orbitron Heavy';fill:#ffffff"
         id="path851" />
    </g>
    <g
       style="fill:none"
       id="g4373"
       transform="matrix(1.0792449,0,0,1.0792449,4.2043315,2.8514274)">
      <path
         d="M 7.59098,2.56601 7.41024,3.0322 7.59098,2.56601 C 7.33395,2.46636 7.04677,2.48003 6.80036,2.60365 6.55396,2.72727 6.37132,2.9493 6.29753,3.21492 L 1.53564,20.3577 c -0.10574,0.3807 0.02838,0.7876 0.33976,1.0307 0.31139,0.2432 0.73863,0.2747 1.0823,0.0798 l 10.4734,-5.9384 7.7255,3.1366 c 0.3765,0.1528 0.8084,0.0564 1.0842,-0.242 l -0.3672,-0.3394 0.3672,0.3394 c 0.2758,-0.2985 0.3378,-0.7367 0.1557,-1.1 L 16.9543,6.46732 C 16.8457,6.25068 16.6604,6.08217 16.4345,5.99458 Z m 8.63712,6.80942 3.2617,6.50707 -4.8925,-1.9864 z M 14.8398,7.47031 13.1692,12.1014 9.41018,5.36527 Z M 7.54302,6.02586 12.0356,14.0766 4.04876,18.6052 Z"
         fill="#ffffff"
         stroke="#ffffff"
         stroke-linejoin="round"
         id="path4364" />
    </g>
  </g>
</svg>
