<svg width="51" height="24" viewBox="0 0 51 24" fill="none" xmlns="http://www.w3.org/2000/svg">
<g clip-path="url(#clip0_2_216)">
<path fill-rule="evenodd" clip-rule="evenodd" d="M11.294 5.37654C11.7352 5.14115 12.2648 5.14115 12.706 5.37654L17.206 7.77713C17.6947 8.03785 18 8.54668 18 9.10059V14.1577C18 14.6723 17.7362 15.1511 17.301 15.4259L12.801 18.2682C12.3117 18.5773 11.6883 18.5773 11.199 18.2682L6.69897 15.4259C6.26385 15.1511 6 14.6723 6 14.1577V9.10059C6 8.54668 6.30526 8.03785 6.79398 7.77713L11.294 5.37654ZM9 11.6993L10.5 12.5658V14.2784L9 13.331V11.6993ZM13.5 14.2784L15 13.331V11.6993L13.5 12.5658V14.2784ZM12 9.96772L13.4109 9.15274L12 8.40009L10.5891 9.15274L12 9.96772Z" fill="#3CC1F5"/>
<path fill-rule="evenodd" clip-rule="evenodd" d="M11.3155 0.665274C11.7452 0.444909 12.2548 0.444909 12.6845 0.665274L21.6845 5.28066C22.1851 5.5374 22.5 6.05274 22.5 6.61538V16.6154C22.5 17.143 22.2229 17.6317 21.7701 17.9026L12.7701 23.2872C12.2959 23.5709 11.7041 23.5709 11.2299 23.2872L2.22987 17.9026C1.77715 17.6317 1.5 17.143 1.5 16.6154V6.61538C1.5 6.05274 1.81487 5.5374 2.31553 5.28066L11.3155 0.665274ZM4.5 9.15734L6.76221 10.4067L10.5 12.5658V19.3546L4.5 15.7649V9.15734ZM13.5 19.3546V12.5658L17.2378 10.4067L19.5 9.15734V15.7649L13.5 19.3546ZM17.8084 6.66443L12 3.68574L6.19155 6.66443L8.22516 7.78753L8.25029 7.80172L12 9.96773L15.7497 7.80172L15.7748 7.78753L17.8084 6.66443Z" fill="black"/>
<path d="M28.268 15C27.964 15 27.688 14.924 27.44 14.772C27.192 14.62 26.992 14.42 26.84 14.172C26.688 13.924 26.612 13.648 26.612 13.344V9.696C26.612 9.392 26.688 9.116 26.84 8.868C26.992 8.62 27.192 8.42 27.44 8.268C27.688 8.116 27.964 8.04 28.268 8.04H32.024C32.328 8.04 32.604 8.116 32.852 8.268C33.108 8.42 33.308 8.62 33.452 8.868C33.604 9.116 33.68 9.392 33.68 9.696V12.312H28.184V13.284C28.184 13.324 28.196 13.36 28.22 13.392C28.252 13.416 28.288 13.428 28.328 13.428H33.68V15H28.268ZM28.184 10.896H32.108V9.756C32.108 9.716 32.092 9.684 32.06 9.66C32.036 9.628 32.004 9.612 31.964 9.612H28.328C28.288 9.612 28.252 9.628 28.22 9.66C28.196 9.684 28.184 9.716 28.184 9.756V10.896ZM36.2953 15C35.9913 15 35.7153 14.924 35.4673 14.772C35.2193 14.62 35.0193 14.42 34.8673 14.172C34.7153 13.924 34.6393 13.648 34.6393 13.344V9.696C34.6393 9.392 34.7153 9.116 34.8673 8.868C35.0193 8.62 35.2193 8.42 35.4673 8.268C35.7153 8.116 35.9913 8.04 36.2953 8.04H41.6953V9.612H36.3553C36.3153 9.612 36.2793 9.628 36.2473 9.66C36.2233 9.684 36.2113 9.716 36.2113 9.756V13.284C36.2113 13.324 36.2233 13.36 36.2473 13.392C36.2793 13.416 36.3153 13.428 36.3553 13.428H41.7073V15H36.2953ZM44.6031 15C44.2991 15 44.0231 14.924 43.7751 14.772C43.5271 14.62 43.3271 14.42 43.1751 14.172C43.0231 13.924 42.9471 13.648 42.9471 13.344V13.08H44.5191V13.284C44.5191 13.324 44.5311 13.36 44.5551 13.392C44.5871 13.416 44.6231 13.428 44.6631 13.428H48.2991C48.3391 13.428 48.3711 13.416 48.3951 13.392C48.4271 13.36 48.4431 13.324 48.4431 13.284V12.456C48.4431 12.416 48.4271 12.384 48.3951 12.36C48.3711 12.328 48.3391 12.312 48.2991 12.312H44.6031C44.2991 12.312 44.0231 12.236 43.7751 12.084C43.5271 11.932 43.3271 11.732 43.1751 11.484C43.0231 11.236 42.9471 10.96 42.9471 10.656V9.696C42.9471 9.392 43.0231 9.116 43.1751 8.868C43.3271 8.62 43.5271 8.42 43.7751 8.268C44.0231 8.116 44.2991 8.04 44.6031 8.04H48.3591C48.6711 8.04 48.9511 8.116 49.1991 8.268C49.4471 8.42 49.6471 8.62 49.7991 8.868C49.9511 9.116 50.0271 9.392 50.0271 9.696V9.96H48.4431V9.756C48.4431 9.716 48.4271 9.684 48.3951 9.66C48.3711 9.628 48.3391 9.612 48.2991 9.612H44.6631C44.6231 9.612 44.5871 9.628 44.5551 9.66C44.5311 9.684 44.5191 9.716 44.5191 9.756V10.584C44.5191 10.624 44.5311 10.66 44.5551 10.692C44.5871 10.716 44.6231 10.728 44.6631 10.728H48.3591C48.6711 10.728 48.9511 10.804 49.1991 10.956C49.4471 11.108 49.6471 11.308 49.7991 11.556C49.9511 11.804 50.0271 12.08 50.0271 12.384V13.344C50.0271 13.648 49.9511 13.924 49.7991 14.172C49.6471 14.42 49.4471 14.62 49.1991 14.772C48.9511 14.924 48.6711 15 48.3591 15H44.6031Z" fill="black"/>
</g>
<defs>
<clipPath id="clip0_2_216">
<rect width="51" height="24" fill="white"/>
</clipPath>
</defs>
</svg>
