<svg width="98" height="24" viewBox="0 0 98 24" fill="none" xmlns="http://www.w3.org/2000/svg">
<path fill-rule="evenodd" clip-rule="evenodd" d="M14.9286 8.05262L14.9285 8.0525C14.7398 7.64822 14.6299 7.25952 14.587 6.8859C14.529 6.38108 14.1017 6 13.5935 6H5.88054C4.3637 6 2.45431 7.40724 1.98852 9.80281C1.59751 11.8138 1 16.0407 1 17.9768C1 18.6184 1.15266 19.4642 1.64052 20.2336C2.14691 21.0323 2.98318 21.6947 4.22384 21.95C5.36099 22.1839 6.19433 21.5769 6.73815 20.9299C7.24534 20.3264 7.65908 19.5095 8.00901 18.8185L8.03934 18.7586C8.40703 18.0329 8.71982 17.4242 9.06348 16.9865C9.40542 16.5509 9.62389 16.4821 9.76108 16.4821H10.3982C10.7217 16.4821 11.0251 16.3256 11.2128 16.0621C11.4004 15.7987 11.449 15.4607 11.3432 15.155C11.1164 14.4995 11 13.8054 11 13.1053C11 12.1342 11.3403 11.1734 11.7857 10.5789C11.7857 11.1378 11.993 11.6731 12.361 12.0676L13.0922 11.3854L12.361 12.0676C12.73 12.463 13.2299 12.6842 13.75 12.6842C14.2701 12.6842 14.77 12.463 15.139 12.0676C15.507 11.6731 15.7143 11.1377 15.7143 10.5789C15.7143 10.1474 15.6656 9.7913 15.5552 9.43965C15.4567 9.12599 15.315 8.84118 15.184 8.57783L15.184 8.57781L15.1677 8.54515C15.0931 8.39508 15.0147 8.23724 14.9286 8.05262Z" fill="black"/>
<path d="M16.9915 2.90828C16.958 2.7287 16.8292 2.58169 16.6556 2.52483C16.482 2.46798 16.2912 2.51032 16.158 2.63529C15.2537 3.48335 14.5857 4.36263 14.2692 5.3049C13.9463 6.26618 14.0032 7.25224 14.4755 8.2641C14.5569 8.43852 14.6344 8.59391 14.7066 8.73851C15.0071 9.34033 15.2143 9.75541 15.2143 10.5789C15.2143 11.0154 15.0522 11.4277 14.7734 11.7265C14.4957 12.0241 14.1267 12.1842 13.75 12.1842C13.3733 12.1842 13.0043 12.0241 12.7266 11.7265C12.4478 11.4277 12.2857 11.0154 12.2857 10.5789C12.2857 10.3637 12.148 10.1726 11.9437 10.1046C11.7395 10.0365 11.5147 10.1069 11.3856 10.2791C10.8714 10.9653 10.5 12.0328 10.5 13.1053C10.5 13.9404 10.6534 14.7681 10.9523 15.5413C11.2511 16.3146 11.69 17.0194 12.2453 17.6146C12.8007 18.2098 13.462 18.684 14.1924 19.0083C14.9228 19.3326 15.7071 19.5 16.5 19.5C17.2929 19.5 18.0772 19.3326 18.8076 19.0083C19.538 18.684 20.1993 18.2098 20.7547 17.6146C21.31 17.0194 21.7489 16.3146 22.0477 15.5413C22.3466 14.7681 22.5 13.9404 22.5 13.1053C22.5 11.2497 21.6296 9.51855 19.9683 8.09411C18.4836 6.82105 17.3635 4.90161 16.9915 2.90828Z" fill="#3CC1F5" stroke="#3CC1F5" stroke-linecap="round" stroke-linejoin="round"/>
<path d="M6.5 9V14M4 11.5H9" stroke="white" stroke-width="2"/>
<path d="M27.656 17.748V16.164H31.844C31.884 16.164 31.916 16.148 31.94 16.116C31.972 16.092 31.988 16.06 31.988 16.02V15H28.148C27.852 15 27.576 14.924 27.32 14.772C27.072 14.62 26.872 14.42 26.72 14.172C26.568 13.924 26.492 13.648 26.492 13.344V9.696C26.492 9.392 26.568 9.116 26.72 8.868C26.872 8.62 27.072 8.42 27.32 8.268C27.576 8.116 27.852 8.04 28.148 8.04H31.916C32.22 8.04 32.496 8.116 32.744 8.268C32.992 8.42 33.188 8.62 33.332 8.868C33.484 9.116 33.56 9.392 33.56 9.696V16.092C33.56 16.404 33.488 16.684 33.344 16.932C33.2 17.18 33 17.376 32.744 17.52C32.496 17.672 32.22 17.748 31.916 17.748H27.656ZM28.208 13.428H31.844C31.884 13.428 31.916 13.416 31.94 13.392C31.972 13.36 31.988 13.324 31.988 13.284V9.756C31.988 9.716 31.972 9.684 31.94 9.66C31.916 9.628 31.884 9.612 31.844 9.612H28.208C28.168 9.612 28.132 9.628 28.1 9.66C28.076 9.684 28.064 9.716 28.064 9.756V13.284C28.064 13.324 28.076 13.36 28.1 13.392C28.132 13.416 28.168 13.428 28.208 13.428ZM36.2136 15C35.9096 15 35.6296 14.924 35.3736 14.772C35.1256 14.62 34.9256 14.42 34.7736 14.172C34.6296 13.924 34.5576 13.648 34.5576 13.344V10.728H40.0536V9.756C40.0536 9.716 40.0376 9.684 40.0056 9.66C39.9816 9.628 39.9496 9.612 39.9096 9.612H34.5576V8.04H39.9696C40.2736 8.04 40.5496 8.116 40.7976 8.268C41.0536 8.42 41.2536 8.62 41.3976 8.868C41.5496 9.116 41.6256 9.392 41.6256 9.696V15H36.2136ZM36.2736 13.428H40.0536V12.144H36.1296V13.284C36.1296 13.324 36.1416 13.36 36.1656 13.392C36.1976 13.416 36.2336 13.428 36.2736 13.428ZM42.6089 15V8.04H51.2369C51.5489 8.04 51.8289 8.116 52.0769 8.268C52.3249 8.42 52.5209 8.62 52.6649 8.868C52.8169 9.116 52.8929 9.392 52.8929 9.696V15H51.3329V9.756C51.3329 9.716 51.3169 9.684 51.2849 9.66C51.2529 9.628 51.2169 9.612 51.1769 9.612H48.6929C48.6529 9.612 48.6169 9.628 48.5849 9.66C48.5609 9.684 48.5489 9.716 48.5489 9.756V15H46.9649V9.756C46.9649 9.716 46.9489 9.684 46.9169 9.66C46.8929 9.628 46.8609 9.612 46.8209 9.612H44.3249C44.2849 9.612 44.2489 9.628 44.2169 9.66C44.1929 9.684 44.1809 9.716 44.1809 9.756V15H42.6089ZM55.6313 15C55.3273 15 55.0513 14.924 54.8033 14.772C54.5553 14.62 54.3553 14.42 54.2033 14.172C54.0513 13.924 53.9753 13.648 53.9753 13.344V9.696C53.9753 9.392 54.0513 9.116 54.2033 8.868C54.3553 8.62 54.5553 8.42 54.8033 8.268C55.0513 8.116 55.3273 8.04 55.6313 8.04H59.3873C59.6913 8.04 59.9673 8.116 60.2153 8.268C60.4713 8.42 60.6713 8.62 60.8153 8.868C60.9673 9.116 61.0433 9.392 61.0433 9.696V12.312H55.5473V13.284C55.5473 13.324 55.5593 13.36 55.5833 13.392C55.6153 13.416 55.6513 13.428 55.6913 13.428H61.0433V15H55.6313ZM55.5473 10.896H59.4713V9.756C59.4713 9.716 59.4553 9.684 59.4233 9.66C59.3993 9.628 59.3673 9.612 59.3273 9.612H55.6913C55.6513 9.612 55.6153 9.628 55.5833 9.66C55.5593 9.684 55.5473 9.716 55.5473 9.756V10.896ZM62.3199 15V8.04H70.9479C71.2599 8.04 71.5399 8.116 71.7879 8.268C72.0359 8.42 72.2319 8.62 72.3759 8.868C72.5279 9.116 72.6039 9.392 72.6039 9.696V15H71.0439V9.756C71.0439 9.716 71.0279 9.684 70.9959 9.66C70.9639 9.628 70.9279 9.612 70.8879 9.612H68.4039C68.3639 9.612 68.3279 9.628 68.2959 9.66C68.2719 9.684 68.2599 9.716 68.2599 9.756V15H66.6759V9.756C66.6759 9.716 66.6599 9.684 66.6279 9.66C66.6039 9.628 66.5719 9.612 66.5319 9.612H64.0359C63.9959 9.612 63.9599 9.628 63.9279 9.66C63.9039 9.684 63.8919 9.716 63.8919 9.756V15H62.3199ZM75.6703 15C75.3663 15 75.0903 14.924 74.8423 14.772C74.5943 14.62 74.3943 14.42 74.2423 14.172C74.0903 13.924 74.0143 13.648 74.0143 13.344V9.696C74.0143 9.392 74.0903 9.116 74.2423 8.868C74.3943 8.62 74.5943 8.42 74.8423 8.268C75.0903 8.116 75.3663 8.04 75.6703 8.04H79.4263C79.7303 8.04 80.0063 8.116 80.2543 8.268C80.5103 8.42 80.7103 8.62 80.8543 8.868C81.0063 9.116 81.0823 9.392 81.0823 9.696V13.344C81.0823 13.648 81.0063 13.924 80.8543 14.172C80.7103 14.42 80.5143 14.62 80.2663 14.772C80.0183 14.924 79.7383 15 79.4263 15H75.6703ZM75.7303 13.428H79.3663C79.4063 13.428 79.4383 13.416 79.4623 13.392C79.4943 13.36 79.5103 13.324 79.5103 13.284V9.756C79.5103 9.716 79.4943 9.684 79.4623 9.66C79.4383 9.628 79.4063 9.612 79.3663 9.612H75.7303C75.6903 9.612 75.6543 9.628 75.6223 9.66C75.5983 9.684 75.5863 9.716 75.5863 9.756V13.284C75.5863 13.324 75.5983 13.36 75.6223 13.392C75.6543 13.416 75.6903 13.428 75.7303 13.428ZM83.6429 15C83.3309 15 83.0509 14.924 82.8029 14.772C82.5549 14.62 82.3549 14.42 82.2029 14.172C82.0589 13.924 81.9869 13.648 81.9869 13.344V9.696C81.9869 9.392 82.0589 9.116 82.2029 8.868C82.3549 8.62 82.5549 8.42 82.8029 8.268C83.0509 8.116 83.3309 8.04 83.6429 8.04H87.4949V5.76H89.0669V15H83.6429ZM83.7149 13.428H87.3509C87.3909 13.428 87.4229 13.416 87.4469 13.392C87.4789 13.36 87.4949 13.324 87.4949 13.284V9.756C87.4949 9.716 87.4789 9.684 87.4469 9.66C87.4229 9.628 87.3909 9.612 87.3509 9.612H83.7149C83.6749 9.612 83.6389 9.628 83.6069 9.66C83.5829 9.684 83.5709 9.716 83.5709 9.756V13.284C83.5709 13.324 83.5829 13.36 83.6069 13.392C83.6389 13.416 83.6749 13.428 83.7149 13.428ZM91.725 15C91.421 15 91.145 14.924 90.897 14.772C90.649 14.62 90.449 14.42 90.297 14.172C90.145 13.924 90.069 13.648 90.069 13.344V9.696C90.069 9.392 90.145 9.116 90.297 8.868C90.449 8.62 90.649 8.42 90.897 8.268C91.145 8.116 91.421 8.04 91.725 8.04H95.481C95.785 8.04 96.061 8.116 96.309 8.268C96.565 8.42 96.765 8.62 96.909 8.868C97.061 9.116 97.137 9.392 97.137 9.696V12.312H91.641V13.284C91.641 13.324 91.653 13.36 91.677 13.392C91.709 13.416 91.745 13.428 91.785 13.428H97.137V15H91.725ZM91.641 10.896H95.565V9.756C95.565 9.716 95.549 9.684 95.517 9.66C95.493 9.628 95.461 9.612 95.421 9.612H91.785C91.745 9.612 91.709 9.628 91.677 9.66C91.653 9.684 91.641 9.716 91.641 9.756V10.896Z" fill="black"/>
</svg>
