<?xml version="1.0" encoding="UTF-8" standalone="no"?>
<!-- Created with Inkscape (http://www.inkscape.org/) -->

<svg
   width="400"
   height="120"
   viewBox="0 0 105.83333 31.750001"
   version="1.1"
   id="svg107616"
   inkscape:version="1.1.1 (3bf5ae0d25, 2021-09-20)"
   sodipodi:docname="gpu-dawn-full-dark.svg"
   xmlns:inkscape="http://www.inkscape.org/namespaces/inkscape"
   xmlns:sodipodi="http://sodipodi.sourceforge.net/DTD/sodipodi-0.dtd"
   xmlns="http://www.w3.org/2000/svg"
   xmlns:svg="http://www.w3.org/2000/svg">
  <sodipodi:namedview
     id="namedview107618"
     pagecolor="#000000"
     bordercolor="#666666"
     borderopacity="1.0"
     inkscape:pageshadow="2"
     inkscape:pageopacity="0"
     inkscape:pagecheckerboard="true"
     inkscape:document-units="mm"
     showgrid="true"
     units="px"
     inkscape:object-nodes="true"
     gridtolerance="10000"
     guidetolerance="10000"
     inkscape:snap-page="false"
     inkscape:snap-grids="false"
     inkscape:snap-to-guides="false"
     inkscape:snap-smooth-nodes="true"
     inkscape:snap-midpoints="true"
     inkscape:zoom="4.3994184"
     inkscape:cx="163.43069"
     inkscape:cy="141.38232"
     inkscape:window-width="3840"
     inkscape:window-height="2066"
     inkscape:window-x="-11"
     inkscape:window-y="-11"
     inkscape:window-maximized="1"
     inkscape:current-layer="layer1">
    <inkscape:grid
       type="xygrid"
       id="grid111742"
       empspacing="10"
       snapvisiblegridlinesonly="true"
       visible="true"
       enabled="true"
       dotted="true" />
    <sodipodi:guide
       position="0,31.75"
       orientation="0,400"
       id="guide113514" />
    <sodipodi:guide
       position="105.83333,31.75"
       orientation="120,0"
       id="guide113516" />
    <sodipodi:guide
       position="105.83333,0"
       orientation="0,-400"
       id="guide113518" />
    <sodipodi:guide
       position="0,0"
       orientation="-120,0"
       id="guide113520" />
  </sodipodi:namedview>
  <defs
     id="defs107613">
    <clipPath
       id="clip0_17_168">
      <rect
         width="24"
         height="24"
         fill="white"
         id="rect119280" />
    </clipPath>
  </defs>
  <g
     inkscape:label="Layer 1"
     inkscape:groupmode="layer"
     id="layer1">
    <g
       aria-label="mach
gpu-dawn"
       id="text116068"
       style="font-size:11.9944px;font-family:Orbitron;-inkscape-font-specification:Orbitron;stroke-width:0.264583">
      <path
         d="m 42.854719,4.6632231 q 0.719664,0 1.223429,0.5157592 0.515759,0.5157592 0.515759,1.2234288 V 11.619975 H 42.770758 V 6.4983663 H 40.467834 V 11.619975 H 38.620696 V 6.4983663 H 36.317771 V 11.619975 H 34.482628 V 4.6632231 Z"
         style="-inkscape-font-specification:'Orbitron Heavy';fill:#ffffff"
         id="path834" />
      <path
         d="m 51.130838,4.6632231 q 0.719664,0 1.223429,0.5157592 0.515759,0.5157592 0.515759,1.2234288 v 5.2175639 h -5.313519 q -0.719664,0 -1.235423,-0.515759 -0.503765,-0.515759 -0.503765,-1.2234289 V 7.2180303 h 5.217564 V 6.4983663 H 45.817319 V 4.6632231 Z m -0.09595,5.1216088 v -0.959552 h -3.382421 v 0.959552 z"
         style="-inkscape-font-specification:'Orbitron Heavy';fill:#ffffff"
         id="path836" />
      <path
         d="m 60.750307,6.4983663 h -5.20557 v 3.2864656 h 5.217564 v 1.8351431 h -5.313519 q -0.70767,0 -1.223429,-0.515759 -0.515759,-0.515759 -0.515759,-1.2234289 v -3.478376 q 0,-0.7076696 0.515759,-1.2234288 0.515759,-0.5157592 1.223429,-0.5157592 h 5.301525 z"
         style="-inkscape-font-specification:'Orbitron Heavy';fill:#ffffff"
         id="path838" />
      <path
         d="m 67.047349,4.6632231 q 0.707669,0 1.223429,0.5157592 0.515759,0.5157592 0.515759,1.2234288 V 11.619975 H 66.951394 V 6.4983663 H 63.568973 V 11.619975 H 61.73383 V 2.3842871 h 1.835143 v 2.278936 z"
         style="-inkscape-font-specification:'Orbitron Heavy';fill:#ffffff"
         id="path840" />
      <path
         d="m 41.391402,27.620505 q 0,0.719664 -0.515759,1.223429 -0.503765,0.515759 -1.223429,0.515759 h -4.222028 v -1.847138 h 4.126073 v -0.89958 h -3.478376 q -0.719664,0 -1.235423,-0.515759 -0.515759,-0.515759 -0.515759,-1.223429 v -3.478376 q 0,-0.707669 0.515759,-1.223429 0.515759,-0.515759 1.235423,-0.515759 h 3.574331 q 0.719664,0 1.223429,0.515759 0.515759,0.51576 0.515759,1.223429 z m -5.229558,-6.129139 v 3.286466 h 3.394415 v -3.286466 z"
         style="-inkscape-font-specification:'Orbitron Heavy';fill:#ffffff"
         id="path842" />
      <path
         d="m 47.988306,19.656223 q 0.719664,0 1.223429,0.515759 0.515759,0.51576 0.515759,1.223429 v 3.478376 q 0,0.70767 -0.515759,1.223429 -0.503765,0.515759 -1.223429,0.515759 H 44.50993 v 2.758712 h -1.835143 v -9.715464 z m -3.478376,1.835143 v 3.286466 h 3.382421 v -3.286466 z"
         style="-inkscape-font-specification:'Orbitron Heavy';fill:#ffffff"
         id="path844" />
      <path
         d="m 55.844633,19.656223 h 1.835143 v 5.217564 q 0,0.70767 -0.515759,1.223429 -0.503765,0.515759 -1.223429,0.515759 h -3.574331 q -0.719664,0 -1.235424,-0.515759 -0.503764,-0.515759 -0.503764,-1.223429 v -5.217564 h 1.835143 v 5.121609 h 3.382421 z"
         style="-inkscape-font-specification:'Orbitron Heavy';fill:#ffffff"
         id="path846" />
      <path
         d="m 64.036803,22.151058 v 1.835144 h -5.001665 v -1.835144 z"
         style="-inkscape-font-specification:'Orbitron Heavy';fill:#ffffff"
         id="path848" />
      <path
         d="m 70.033983,17.377287 h 1.835143 v 9.235688 h -5.325514 q -0.719664,0 -1.235423,-0.515759 -0.503765,-0.515759 -0.503765,-1.223429 v -3.478376 q 0,-0.707669 0.503765,-1.223429 0.515759,-0.515759 1.235423,-0.515759 h 3.490371 z m -3.382421,4.114079 v 3.286466 h 3.382421 v -3.286466 z"
         style="-inkscape-font-specification:'Orbitron Heavy';fill:#ffffff"
         id="path850" />
      <path
         d="m 78.466044,19.656223 q 0.719664,0 1.223429,0.515759 0.515759,0.51576 0.515759,1.223429 v 5.217564 h -5.313519 q -0.719664,0 -1.235423,-0.515759 -0.503765,-0.515759 -0.503765,-1.223429 V 22.21103 h 5.217564 v -0.719664 h -5.217564 v -1.835143 z m -0.09596,5.121609 V 23.81828 h -3.382421 v 0.959552 z"
         style="-inkscape-font-specification:'Orbitron Heavy';fill:#ffffff"
         id="path852" />
      <path
         d="m 90.616336,19.656223 h 1.943093 l -2.614779,6.956752 h -1.391351 l -1.88312,-4.150062 -1.79916,4.150062 h -1.379356 l -2.734724,-6.956752 h 1.943093 l 1.4993,3.610315 0.515759,-1.19944 q 0.119944,-0.275872 0.491771,-1.127474 0.383821,-0.851602 0.563737,-1.283401 h 1.775171 l 1.679216,3.658292 z"
         style="-inkscape-font-specification:'Orbitron Heavy';fill:#ffffff"
         id="path854" />
      <path
         d="m 98.604596,19.656223 q 0.719664,0 1.223429,0.515759 0.515755,0.51576 0.515755,1.223429 v 5.217564 H 98.508641 V 21.491366 H 95.12622 v 5.121609 h -1.835143 v -6.956752 z"
         style="-inkscape-font-specification:'Orbitron Heavy';fill:#ffffff"
         id="path856" />
    </g>
    <g
       style="fill:none"
       id="g11946"
       transform="matrix(1.0805809,0,0,1.0805809,4.2106666,2.8954191)">
      <rect
         x="5"
         y="5"
         width="14"
         height="14"
         rx="3"
         fill="#000000"
         stroke="#ffffff"
         stroke-width="3"
         id="rect11934" />
      <path
         d="m 19,7 h 4 m 0,10 h -4 m 4,-5 H 19 M 1,7 H 5 M 5,17 H 1 M 5,12 H 1 m 16,7 v 4 M 7,23 v -4 m 5,4 V 19 M 17,1 V 5 M 7,5 V 1 m 5,4 V 1"
         stroke="#ffffff"
         stroke-width="3"
         id="path11936" />
    </g>
  </g>
</svg>
