<svg width="82" height="24" viewBox="0 0 82 24" fill="none" xmlns="http://www.w3.org/2000/svg">
<g clip-path="url(#clip0_2_255)">
<path d="M24.648 15V8.04H33.276C33.588 8.04 33.868 8.116 34.116 8.268C34.364 8.42 34.56 8.62 34.704 8.868C34.856 9.116 34.932 9.392 34.932 9.696V15H33.372V9.756C33.372 9.716 33.356 9.684 33.324 9.66C33.292 9.628 33.256 9.612 33.216 9.612H30.732C30.692 9.612 30.656 9.628 30.624 9.66C30.6 9.684 30.588 9.716 30.588 9.756V15H29.004V9.756C29.004 9.716 28.988 9.684 28.956 9.66C28.932 9.628 28.9 9.612 28.86 9.612H26.364C26.324 9.612 26.288 9.628 26.256 9.66C26.232 9.684 26.22 9.716 26.22 9.756V15H24.648ZM37.9985 15C37.6945 15 37.4185 14.924 37.1705 14.772C36.9225 14.62 36.7225 14.42 36.5705 14.172C36.4185 13.924 36.3425 13.648 36.3425 13.344V9.696C36.3425 9.392 36.4185 9.116 36.5705 8.868C36.7225 8.62 36.9225 8.42 37.1705 8.268C37.4185 8.116 37.6945 8.04 37.9985 8.04H41.7545C42.0585 8.04 42.3345 8.116 42.5825 8.268C42.8385 8.42 43.0385 8.62 43.1825 8.868C43.3345 9.116 43.4105 9.392 43.4105 9.696V13.344C43.4105 13.648 43.3345 13.924 43.1825 14.172C43.0385 14.42 42.8425 14.62 42.5945 14.772C42.3465 14.924 42.0665 15 41.7545 15H37.9985ZM38.0585 13.428H41.6945C41.7345 13.428 41.7665 13.416 41.7905 13.392C41.8225 13.36 41.8385 13.324 41.8385 13.284V9.756C41.8385 9.716 41.8225 9.684 41.7905 9.66C41.7665 9.628 41.7345 9.612 41.6945 9.612H38.0585C38.0185 9.612 37.9825 9.628 37.9505 9.66C37.9265 9.684 37.9145 9.716 37.9145 9.756V13.284C37.9145 13.324 37.9265 13.36 37.9505 13.392C37.9825 13.416 38.0185 13.428 38.0585 13.428ZM45.9711 15C45.6591 15 45.3791 14.924 45.1311 14.772C44.8831 14.62 44.6831 14.42 44.5311 14.172C44.3871 13.924 44.3151 13.648 44.3151 13.344V9.696C44.3151 9.392 44.3871 9.116 44.5311 8.868C44.6831 8.62 44.8831 8.42 45.1311 8.268C45.3791 8.116 45.6591 8.04 45.9711 8.04H49.8231V5.76H51.3951V15H45.9711ZM46.0431 13.428H49.6791C49.7191 13.428 49.7511 13.416 49.7751 13.392C49.8071 13.36 49.8231 13.324 49.8231 13.284V9.756C49.8231 9.716 49.8071 9.684 49.7751 9.66C49.7511 9.628 49.7191 9.612 49.6791 9.612H46.0431C46.0031 9.612 45.9671 9.628 45.9351 9.66C45.9111 9.684 45.8991 9.716 45.8991 9.756V13.284C45.8991 13.324 45.9111 13.36 45.9351 13.392C45.9671 13.416 46.0031 13.428 46.0431 13.428ZM54.0532 15C53.7492 15 53.4732 14.924 53.2252 14.772C52.9772 14.62 52.7772 14.42 52.6252 14.172C52.4732 13.924 52.3972 13.648 52.3972 13.344V9.696C52.3972 9.392 52.4732 9.116 52.6252 8.868C52.7772 8.62 52.9772 8.42 53.2252 8.268C53.4732 8.116 53.7492 8.04 54.0532 8.04H57.8092C58.1132 8.04 58.3892 8.116 58.6372 8.268C58.8932 8.42 59.0932 8.62 59.2372 8.868C59.3892 9.116 59.4652 9.392 59.4652 9.696V12.312H53.9692V13.284C53.9692 13.324 53.9812 13.36 54.0052 13.392C54.0372 13.416 54.0732 13.428 54.1132 13.428H59.4652V15H54.0532ZM53.9692 10.896H57.8932V9.756C57.8932 9.716 57.8772 9.684 57.8452 9.66C57.8212 9.628 57.7892 9.612 57.7492 9.612H54.1132C54.0732 9.612 54.0372 9.628 54.0052 9.66C53.9812 9.684 53.9692 9.716 53.9692 9.756V10.896ZM62.0925 15C61.7885 15 61.5125 14.924 61.2645 14.772C61.0165 14.62 60.8165 14.42 60.6645 14.172C60.5125 13.924 60.4365 13.648 60.4365 13.344V5.748H62.0205V13.284C62.0205 13.324 62.0325 13.36 62.0565 13.392C62.0885 13.416 62.1245 13.428 62.1645 13.428H63.4965V15H62.0925ZM66.0306 15C65.7186 15 65.4386 14.924 65.1906 14.772C64.9426 14.62 64.7426 14.42 64.5906 14.172C64.4386 13.924 64.3626 13.648 64.3626 13.344V12.828H65.9346V13.284C65.9346 13.324 65.9466 13.36 65.9706 13.392C66.0026 13.416 66.0386 13.428 66.0786 13.428H71.2026C71.2426 13.428 71.2786 13.416 71.3106 13.392C71.3426 13.36 71.3586 13.324 71.3586 13.284V11.556C71.3586 11.516 71.3426 11.484 71.3106 11.46C71.2786 11.428 71.2426 11.412 71.2026 11.412H65.8506V9.84H70.8666C70.9066 9.84 70.9386 9.828 70.9626 9.804C70.9946 9.772 71.0106 9.736 71.0106 9.696V8.076C71.0106 8.036 70.9946 8.004 70.9626 7.98C70.9386 7.948 70.9066 7.932 70.8666 7.932H66.0786C66.0386 7.932 66.0026 7.948 65.9706 7.98C65.9466 8.004 65.9346 8.036 65.9346 8.076V8.64H64.3626V8.016C64.3626 7.704 64.4386 7.424 64.5906 7.176C64.7426 6.928 64.9426 6.732 65.1906 6.588C65.4386 6.436 65.7186 6.36 66.0306 6.36H70.9266C71.2386 6.36 71.5186 6.436 71.7666 6.588C72.0146 6.732 72.2106 6.928 72.3546 7.176C72.5066 7.424 72.5826 7.704 72.5826 8.016V9.768C72.5826 9.864 72.5746 9.964 72.5586 10.068C72.5426 10.164 72.5186 10.256 72.4866 10.344C72.6306 10.496 72.7386 10.676 72.8106 10.884C72.8906 11.084 72.9306 11.288 72.9306 11.496V13.344C72.9306 13.648 72.8546 13.924 72.7026 14.172C72.5506 14.42 72.3506 14.62 72.1026 14.772C71.8546 14.924 71.5786 15 71.2746 15H66.0306ZM75.5726 15C75.2606 15 74.9806 14.924 74.7326 14.772C74.4846 14.62 74.2846 14.42 74.1326 14.172C73.9886 13.924 73.9166 13.648 73.9166 13.344V9.696C73.9166 9.392 73.9886 9.116 74.1326 8.868C74.2846 8.62 74.4846 8.42 74.7326 8.268C74.9806 8.116 75.2606 8.04 75.5726 8.04H79.4246V5.76H80.9966V15H75.5726ZM75.6446 13.428H79.2806C79.3206 13.428 79.3526 13.416 79.3766 13.392C79.4086 13.36 79.4246 13.324 79.4246 13.284V9.756C79.4246 9.716 79.4086 9.684 79.3766 9.66C79.3526 9.628 79.3206 9.612 79.2806 9.612H75.6446C75.6046 9.612 75.5686 9.628 75.5366 9.66C75.5126 9.684 75.5006 9.716 75.5006 9.756V13.284C75.5006 13.324 75.5126 13.36 75.5366 13.392C75.5686 13.416 75.6046 13.428 75.6446 13.428Z" fill="black"/>
<path fill-rule="evenodd" clip-rule="evenodd" d="M12.7655 14.8006C12.5594 14.4095 12.5352 13.9265 12.7626 13.4896C13.132 12.7799 13.9939 12.5281 14.6811 12.858L17.3595 14.1437C17.7255 14.3194 18.0099 14.6453 18.1224 15.0521C18.2353 15.4606 18.1583 15.8934 17.9198 16.2368L16.1339 18.8082C15.6826 19.4582 14.8005 19.6125 14.1543 19.1986C13.6118 18.851 13.3742 18.1919 13.5534 17.595C12.8485 17.6734 12.1181 17.7143 11.3713 17.7143C10.7795 17.7143 10.1968 17.6886 9.6278 17.6386C10.3063 18.8295 10.9828 19.1429 11.3713 19.1429C12.1316 19.1429 12.8176 19.7447 12.8176 20.5714C12.8176 21.3981 12.1316 22 11.3713 22C9.31575 22 7.82267 20.4295 6.9297 18.7144C6.65655 18.1897 6.41757 17.615 6.21618 17.0005C5.57464 16.8074 4.97488 16.5779 4.4279 16.3152C2.67707 15.4745 1 14.0389 1 12C1 9.96107 2.67707 8.52549 4.4279 7.68476C4.97488 7.42211 5.57464 7.19255 6.21618 6.99946C6.41757 6.38503 6.65655 5.81029 6.9297 5.28563C7.82267 3.57045 9.31575 2 11.3713 2C12.7467 2 13.8863 2.72298 14.724 3.67146C15.5004 4.55057 16.1033 5.70868 16.5264 6.99947C16.6066 7.0236 16.6861 7.04828 16.7648 7.07352C18.3159 7.57047 19.7086 8.31873 20.6294 9.33072C21.1775 9.93307 21.1067 10.8571 20.4902 11.3744C19.8972 11.8721 19.0047 11.8195 18.4781 11.2407C18.0216 10.739 17.1529 10.2016 15.8722 9.79125C14.6154 9.38859 13.0663 9.14286 11.3713 9.14286C10.3814 9.14286 9.44526 9.22654 8.58998 9.37487C8.43977 10.1826 8.35504 11.066 8.35504 12C8.35504 12.934 8.43977 13.8174 8.58998 14.6251C9.44526 14.7735 10.3814 14.8571 11.3713 14.8571C11.8486 14.8571 12.3144 14.8377 12.7655 14.8006ZM5.54045 10.3295C5.489 10.8749 5.46253 11.4332 5.46253 12C5.46253 12.5668 5.489 13.1251 5.54045 13.6705C4.19595 12.9882 3.89251 12.3197 3.89251 12C3.89251 11.6803 4.19595 11.0118 5.54045 10.3295ZM13.1145 6.36132C12.5466 6.31148 11.964 6.28571 11.3713 6.28571C10.7795 6.28571 10.1968 6.31143 9.6278 6.36138C10.3063 5.17047 10.9828 4.85714 11.3713 4.85714C11.6493 4.85714 12.0565 4.99761 12.5443 5.54989C12.7395 5.77091 12.9319 6.04218 13.1145 6.36132Z" fill="black"/>
</g>
<defs>
<clipPath id="clip0_2_255">
<rect width="82" height="24" fill="white"/>
</clipPath>
</defs>
</svg>
