<svg width="81" height="24" viewBox="0 0 81 24" fill="none" xmlns="http://www.w3.org/2000/svg">
<g clip-path="url(#clip0_2_194)">
<path d="M23.648 15V8.04H32.276C32.588 8.04 32.868 8.116 33.116 8.268C33.364 8.42 33.56 8.62 33.704 8.868C33.856 9.116 33.932 9.392 33.932 9.696V15H32.372V9.756C32.372 9.716 32.356 9.684 32.324 9.66C32.292 9.628 32.256 9.612 32.216 9.612H29.732C29.692 9.612 29.656 9.628 29.624 9.66C29.6 9.684 29.588 9.716 29.588 9.756V15H28.004V9.756C28.004 9.716 27.988 9.684 27.956 9.66C27.932 9.628 27.9 9.612 27.86 9.612H25.364C25.324 9.612 25.288 9.628 25.256 9.66C25.232 9.684 25.22 9.716 25.22 9.756V15H23.648ZM36.9985 15C36.6945 15 36.4185 14.924 36.1705 14.772C35.9225 14.62 35.7225 14.42 35.5705 14.172C35.4185 13.924 35.3425 13.648 35.3425 13.344V9.696C35.3425 9.392 35.4185 9.116 35.5705 8.868C35.7225 8.62 35.9225 8.42 36.1705 8.268C36.4185 8.116 36.6945 8.04 36.9985 8.04H40.7545C41.0585 8.04 41.3345 8.116 41.5825 8.268C41.8385 8.42 42.0385 8.62 42.1825 8.868C42.3345 9.116 42.4105 9.392 42.4105 9.696V13.344C42.4105 13.648 42.3345 13.924 42.1825 14.172C42.0385 14.42 41.8425 14.62 41.5945 14.772C41.3465 14.924 41.0665 15 40.7545 15H36.9985ZM37.0585 13.428H40.6945C40.7345 13.428 40.7665 13.416 40.7905 13.392C40.8225 13.36 40.8385 13.324 40.8385 13.284V9.756C40.8385 9.716 40.8225 9.684 40.7905 9.66C40.7665 9.628 40.7345 9.612 40.6945 9.612H37.0585C37.0185 9.612 36.9825 9.628 36.9505 9.66C36.9265 9.684 36.9145 9.716 36.9145 9.756V13.284C36.9145 13.324 36.9265 13.36 36.9505 13.392C36.9825 13.416 37.0185 13.428 37.0585 13.428ZM44.9711 15C44.6591 15 44.3791 14.924 44.1311 14.772C43.8831 14.62 43.6831 14.42 43.5311 14.172C43.3871 13.924 43.3151 13.648 43.3151 13.344V9.696C43.3151 9.392 43.3871 9.116 43.5311 8.868C43.6831 8.62 43.8831 8.42 44.1311 8.268C44.3791 8.116 44.6591 8.04 44.9711 8.04H48.8231V5.76H50.3951V15H44.9711ZM45.0431 13.428H48.6791C48.7191 13.428 48.7511 13.416 48.7751 13.392C48.8071 13.36 48.8231 13.324 48.8231 13.284V9.756C48.8231 9.716 48.8071 9.684 48.7751 9.66C48.7511 9.628 48.7191 9.612 48.6791 9.612H45.0431C45.0031 9.612 44.9671 9.628 44.9351 9.66C44.9111 9.684 44.8991 9.716 44.8991 9.756V13.284C44.8991 13.324 44.9111 13.36 44.9351 13.392C44.9671 13.416 45.0031 13.428 45.0431 13.428ZM53.0532 15C52.7492 15 52.4732 14.924 52.2252 14.772C51.9772 14.62 51.7772 14.42 51.6252 14.172C51.4732 13.924 51.3972 13.648 51.3972 13.344V9.696C51.3972 9.392 51.4732 9.116 51.6252 8.868C51.7772 8.62 51.9772 8.42 52.2252 8.268C52.4732 8.116 52.7492 8.04 53.0532 8.04H56.8092C57.1132 8.04 57.3892 8.116 57.6372 8.268C57.8932 8.42 58.0932 8.62 58.2372 8.868C58.3892 9.116 58.4652 9.392 58.4652 9.696V12.312H52.9692V13.284C52.9692 13.324 52.9812 13.36 53.0052 13.392C53.0372 13.416 53.0732 13.428 53.1132 13.428H58.4652V15H53.0532ZM52.9692 10.896H56.8932V9.756C56.8932 9.716 56.8772 9.684 56.8452 9.66C56.8212 9.628 56.7892 9.612 56.7492 9.612H53.1132C53.0732 9.612 53.0372 9.628 53.0052 9.66C52.9812 9.684 52.9692 9.716 52.9692 9.756V10.896ZM61.0925 15C60.7885 15 60.5125 14.924 60.2645 14.772C60.0165 14.62 59.8165 14.42 59.6645 14.172C59.5125 13.924 59.4365 13.648 59.4365 13.344V5.748H61.0205V13.284C61.0205 13.324 61.0325 13.36 61.0565 13.392C61.0885 13.416 61.1245 13.428 61.1645 13.428H62.4965V15H61.0925ZM65.0306 15C64.7186 15 64.4386 14.924 64.1906 14.772C63.9426 14.62 63.7426 14.42 63.5906 14.172C63.4386 13.924 63.3626 13.648 63.3626 13.344V12.828H64.9346V13.284C64.9346 13.324 64.9466 13.36 64.9706 13.392C65.0026 13.416 65.0386 13.428 65.0786 13.428H70.2026C70.2426 13.428 70.2786 13.416 70.3106 13.392C70.3426 13.36 70.3586 13.324 70.3586 13.284V11.556C70.3586 11.516 70.3426 11.484 70.3106 11.46C70.2786 11.428 70.2426 11.412 70.2026 11.412H64.8506V9.84H69.8666C69.9066 9.84 69.9386 9.828 69.9626 9.804C69.9946 9.772 70.0106 9.736 70.0106 9.696V8.076C70.0106 8.036 69.9946 8.004 69.9626 7.98C69.9386 7.948 69.9066 7.932 69.8666 7.932H65.0786C65.0386 7.932 65.0026 7.948 64.9706 7.98C64.9466 8.004 64.9346 8.036 64.9346 8.076V8.64H63.3626V8.016C63.3626 7.704 63.4386 7.424 63.5906 7.176C63.7426 6.928 63.9426 6.732 64.1906 6.588C64.4386 6.436 64.7186 6.36 65.0306 6.36H69.9266C70.2386 6.36 70.5186 6.436 70.7666 6.588C71.0146 6.732 71.2106 6.928 71.3546 7.176C71.5066 7.424 71.5826 7.704 71.5826 8.016V9.768C71.5826 9.864 71.5746 9.964 71.5586 10.068C71.5426 10.164 71.5186 10.256 71.4866 10.344C71.6306 10.496 71.7386 10.676 71.8106 10.884C71.8906 11.084 71.9306 11.288 71.9306 11.496V13.344C71.9306 13.648 71.8546 13.924 71.7026 14.172C71.5506 14.42 71.3506 14.62 71.1026 14.772C70.8546 14.924 70.5786 15 70.2746 15H65.0306ZM74.5726 15C74.2606 15 73.9806 14.924 73.7326 14.772C73.4846 14.62 73.2846 14.42 73.1326 14.172C72.9886 13.924 72.9166 13.648 72.9166 13.344V9.696C72.9166 9.392 72.9886 9.116 73.1326 8.868C73.2846 8.62 73.4846 8.42 73.7326 8.268C73.9806 8.116 74.2606 8.04 74.5726 8.04H78.4246V5.76H79.9966V15H74.5726ZM74.6446 13.428H78.2806C78.3206 13.428 78.3526 13.416 78.3766 13.392C78.4086 13.36 78.4246 13.324 78.4246 13.284V9.756C78.4246 9.716 78.4086 9.684 78.3766 9.66C78.3526 9.628 78.3206 9.612 78.2806 9.612H74.6446C74.6046 9.612 74.5686 9.628 74.5366 9.66C74.5126 9.684 74.5006 9.716 74.5006 9.756V13.284C74.5006 13.324 74.5126 13.36 74.5366 13.392C74.5686 13.416 74.6046 13.428 74.6446 13.428Z" fill="white"/>
<path fill-rule="evenodd" clip-rule="evenodd" d="M12.7655 14.8006C12.5594 14.4095 12.5352 13.9265 12.7626 13.4896C13.132 12.7799 13.9939 12.5281 14.6811 12.858L17.3595 14.1437C17.7255 14.3194 18.0099 14.6453 18.1224 15.0521C18.2353 15.4606 18.1583 15.8934 17.9198 16.2368L16.1339 18.8082C15.6826 19.4582 14.8005 19.6125 14.1543 19.1986C13.6118 18.851 13.3742 18.1919 13.5534 17.595C12.8485 17.6734 12.1181 17.7143 11.3713 17.7143C10.7795 17.7143 10.1968 17.6886 9.6278 17.6386C10.3063 18.8295 10.9828 19.1429 11.3713 19.1429C12.1316 19.1429 12.8176 19.7447 12.8176 20.5714C12.8176 21.3981 12.1316 22 11.3713 22C9.31575 22 7.82267 20.4295 6.9297 18.7144C6.65655 18.1897 6.41757 17.615 6.21618 17.0005C5.57464 16.8074 4.97488 16.5779 4.4279 16.3152C2.67707 15.4745 1 14.0389 1 12C1 9.96107 2.67707 8.52549 4.4279 7.68476C4.97488 7.42211 5.57464 7.19255 6.21618 6.99946C6.41757 6.38503 6.65655 5.81029 6.9297 5.28563C7.82267 3.57045 9.31575 2 11.3713 2C12.7467 2 13.8863 2.72298 14.724 3.67146C15.5004 4.55057 16.1033 5.70868 16.5264 6.99947C16.6066 7.0236 16.6861 7.04828 16.7648 7.07352C18.3159 7.57047 19.7086 8.31873 20.6294 9.33072C21.1775 9.93307 21.1067 10.8571 20.4902 11.3744C19.8972 11.8721 19.0047 11.8195 18.4781 11.2407C18.0216 10.739 17.1529 10.2016 15.8722 9.79125C14.6154 9.38859 13.0663 9.14286 11.3713 9.14286C10.3814 9.14286 9.44526 9.22654 8.58998 9.37487C8.43977 10.1826 8.35504 11.066 8.35504 12C8.35504 12.934 8.43977 13.8174 8.58998 14.6251C9.44526 14.7735 10.3814 14.8571 11.3713 14.8571C11.8486 14.8571 12.3144 14.8377 12.7655 14.8006ZM5.54045 10.3295C5.489 10.8749 5.46253 11.4332 5.46253 12C5.46253 12.5668 5.489 13.1251 5.54045 13.6705C4.19595 12.9882 3.89251 12.3197 3.89251 12C3.89251 11.6803 4.19595 11.0118 5.54045 10.3295ZM13.1145 6.36132C12.5466 6.31148 11.964 6.28571 11.3713 6.28571C10.7795 6.28571 10.1968 6.31143 9.6278 6.36138C10.3063 5.17047 10.9828 4.85714 11.3713 4.85714C11.6493 4.85714 12.0565 4.99761 12.5443 5.54989C12.7395 5.77091 12.9319 6.04218 13.1145 6.36132Z" fill="white"/>
</g>
<defs>
<clipPath id="clip0_2_194">
<rect width="81" height="24" fill="white"/>
</clipPath>
</defs>
</svg>
