<?xml version="1.0" encoding="UTF-8" standalone="no"?>
<!-- Created with Inkscape (http://www.inkscape.org/) -->

<svg
   width="400"
   height="120"
   viewBox="0 0 105.83333 31.750001"
   version="1.1"
   id="svg107616"
   inkscape:version="1.1.1 (3bf5ae0d25, 2021-09-20)"
   sodipodi:docname="sysjs-full-dark.svg"
   xmlns:inkscape="http://www.inkscape.org/namespaces/inkscape"
   xmlns:sodipodi="http://sodipodi.sourceforge.net/DTD/sodipodi-0.dtd"
   xmlns="http://www.w3.org/2000/svg"
   xmlns:svg="http://www.w3.org/2000/svg">
  <sodipodi:namedview
     id="namedview107618"
     pagecolor="#000000"
     bordercolor="#666666"
     borderopacity="1.0"
     inkscape:pageshadow="2"
     inkscape:pageopacity="0"
     inkscape:pagecheckerboard="true"
     inkscape:document-units="mm"
     showgrid="true"
     units="px"
     inkscape:object-nodes="true"
     gridtolerance="10000"
     guidetolerance="10000"
     inkscape:snap-page="false"
     inkscape:snap-grids="false"
     inkscape:snap-to-guides="false"
     inkscape:snap-smooth-nodes="true"
     inkscape:snap-midpoints="true"
     inkscape:zoom="12.443434"
     inkscape:cx="72.809483"
     inkscape:cy="81.72985"
     inkscape:window-width="3840"
     inkscape:window-height="2066"
     inkscape:window-x="-11"
     inkscape:window-y="-11"
     inkscape:window-maximized="1"
     inkscape:current-layer="layer1">
    <inkscape:grid
       type="xygrid"
       id="grid111742"
       empspacing="10"
       snapvisiblegridlinesonly="true"
       visible="true"
       enabled="true"
       dotted="true" />
    <sodipodi:guide
       position="0,31.75"
       orientation="0,400"
       id="guide113514" />
    <sodipodi:guide
       position="105.83333,31.75"
       orientation="120,0"
       id="guide113516" />
    <sodipodi:guide
       position="105.83333,0"
       orientation="0,-400"
       id="guide113518" />
    <sodipodi:guide
       position="0,0"
       orientation="-120,0"
       id="guide113520" />
  </sodipodi:namedview>
  <defs
     id="defs107613">
    <clipPath
       id="clip0_17_168">
      <rect
         width="24"
         height="24"
         fill="white"
         id="rect119280" />
    </clipPath>
  </defs>
  <g
     inkscape:label="Layer 1"
     inkscape:groupmode="layer"
     id="layer1">
    <g
       aria-label="mach
sysjs"
       id="text116068"
       style="font-size:11.9944px;font-family:Orbitron;-inkscape-font-specification:Orbitron;stroke-width:0.264583">
      <path
         d="m 42.854719,4.6632231 q 0.719664,0 1.223429,0.5157592 0.515759,0.5157592 0.515759,1.2234288 V 11.619975 H 42.770758 V 6.4983663 H 40.467834 V 11.619975 H 38.620696 V 6.4983663 H 36.317771 V 11.619975 H 34.482628 V 4.6632231 Z"
         style="-inkscape-font-specification:'Orbitron Heavy';fill:#ffffff"
         id="path842" />
      <path
         d="m 51.130838,4.6632231 q 0.719664,0 1.223429,0.5157592 0.515759,0.5157592 0.515759,1.2234288 v 5.2175639 h -5.313519 q -0.719664,0 -1.235423,-0.515759 -0.503765,-0.515759 -0.503765,-1.2234289 V 7.2180303 h 5.217564 V 6.4983663 H 45.817319 V 4.6632231 Z m -0.09595,5.1216088 v -0.959552 h -3.382421 v 0.959552 z"
         style="-inkscape-font-specification:'Orbitron Heavy';fill:#ffffff"
         id="path844" />
      <path
         d="m 60.750307,6.4983663 h -5.20557 v 3.2864656 h 5.217564 v 1.8351431 h -5.313519 q -0.70767,0 -1.223429,-0.515759 -0.515759,-0.515759 -0.515759,-1.2234289 v -3.478376 q 0,-0.7076696 0.515759,-1.2234288 0.515759,-0.5157592 1.223429,-0.5157592 h 5.301525 z"
         style="-inkscape-font-specification:'Orbitron Heavy';fill:#ffffff"
         id="path846" />
      <path
         d="m 67.047349,4.6632231 q 0.707669,0 1.223429,0.5157592 0.515759,0.5157592 0.515759,1.2234288 V 11.619975 H 66.951394 V 6.4983663 H 63.568973 V 11.619975 H 61.73383 V 2.3842871 h 1.835143 v 2.278936 z"
         style="-inkscape-font-specification:'Orbitron Heavy';fill:#ffffff"
         id="path848" />
      <path
         d="m 41.475363,21.395411 v 0.347838 h -1.847137 v -0.251883 h -3.382421 v 0.719664 h 3.478376 q 0.731658,0 1.235423,0.51576 0.515759,0.503764 0.515759,1.223428 v 0.923569 q 0,0.70767 -0.515759,1.223429 -0.503765,0.515759 -1.235423,0.515759 H 36.14985 q -0.70767,0 -1.223429,-0.515759 -0.515759,-0.515759 -0.515759,-1.223429 V 24.52595 h 1.835143 v 0.251882 h 3.382421 V 24.058168 H 36.14985 q -0.70767,0 -1.223429,-0.515759 -0.515759,-0.515759 -0.515759,-1.223429 v -0.923569 q 0,-0.707669 0.515759,-1.223429 0.515759,-0.515759 1.223429,-0.515759 h 3.574331 q 0.731658,0 1.235423,0.515759 0.515759,0.51576 0.515759,1.223429 z"
         style="-inkscape-font-specification:'Orbitron Heavy';fill:#ffffff"
         id="path850" />
      <path
         d="m 49.631542,27.368622 q 0,0.719664 -0.515759,1.223429 -0.503765,0.515759 -1.223429,0.515759 h -4.222028 v -1.847137 h 4.126073 v -0.647698 h -3.478376 q -0.719664,0 -1.235423,-0.515759 -0.515759,-0.515759 -0.515759,-1.223429 v -5.193575 h 1.835143 v 5.09762 h 3.394415 v -5.09762 h 1.835143 z"
         style="-inkscape-font-specification:'Orbitron Heavy';fill:#ffffff"
         id="path852" />
      <path
         d="m 57.799719,21.395411 v 0.347838 h -1.847137 v -0.251883 h -3.382421 v 0.719664 h 3.478376 q 0.731658,0 1.235423,0.51576 0.515759,0.503764 0.515759,1.223428 v 0.923569 q 0,0.70767 -0.515759,1.223429 -0.503765,0.515759 -1.235423,0.515759 h -3.574331 q -0.70767,0 -1.223429,-0.515759 -0.515759,-0.515759 -0.515759,-1.223429 V 24.52595 h 1.835143 v 0.251882 h 3.382421 v -0.719664 h -3.478376 q -0.70767,0 -1.223429,-0.515759 -0.515759,-0.515759 -0.515759,-1.223429 v -0.923569 q 0,-0.707669 0.515759,-1.223429 0.515759,-0.515759 1.223429,-0.515759 h 3.574331 q 0.731658,0 1.235423,0.515759 0.515759,0.51576 0.515759,1.223429 z"
         style="-inkscape-font-specification:'Orbitron Heavy';fill:#ffffff"
         id="path854" />
      <path
         d="m 59.083107,17.377287 h 1.835144 v 1.847138 h -1.835144 z m 1.835144,2.278936 v 7.712399 q 0,0.719664 -0.51576,1.223429 -0.515759,0.515759 -1.235423,0.515759 h -3.022589 v -1.847137 h 2.938628 v -7.60445 z"
         style="-inkscape-font-specification:'Orbitron Heavy';fill:#ffffff"
         id="path856" />
      <path
         d="m 68.894507,21.395411 v 0.347838 h -1.847138 v -0.251883 h -3.38242 v 0.719664 h 3.478376 q 0.731658,0 1.235423,0.51576 0.515759,0.503764 0.515759,1.223428 v 0.923569 q 0,0.70767 -0.515759,1.223429 -0.503765,0.515759 -1.235423,0.515759 h -3.574332 q -0.707669,0 -1.223429,-0.515759 -0.515759,-0.515759 -0.515759,-1.223429 V 24.52595 h 1.835144 v 0.251882 h 3.38242 v -0.719664 h -3.478376 q -0.707669,0 -1.223429,-0.515759 -0.515759,-0.515759 -0.515759,-1.223429 v -0.923569 q 0,-0.707669 0.515759,-1.223429 0.51576,-0.515759 1.223429,-0.515759 h 3.574332 q 0.731658,0 1.235423,0.515759 0.515759,0.51576 0.515759,1.223429 z"
         style="-inkscape-font-specification:'Orbitron Heavy';fill:#ffffff"
         id="path858" />
    </g>
    <g
       style="fill:none"
       id="g19099"
       transform="matrix(1.1069986,0,0,1.1069986,4.1711536,4.4950014)">
      <path
         d="M 6.66266,1 C 6.51229,1 6.38516,1.11131 6.36529,1.26035 l -0.32,2.4 C 6.02131,3.8402 6.16122,4 6.34266,4 H 8.65735 C 8.83878,4 8.97869,3.8402 8.95471,3.66035 l -0.32,-2.4 C 8.61484,1.11131 8.48771,1 8.33735,1 Z"
         fill="#f53137"
         id="path19063" />
      <path
         d="m 8.33734,14 c 0.15037,0 0.2775,-0.1113 0.29737,-0.2604 l 0.32,-2.4 C 8.97869,11.1598 8.83878,11 8.65734,11 H 6.34265 c -0.18143,0 -0.32134,0.1598 -0.29736,0.3396 l 0.32,2.4 C 6.38516,13.8887 6.51229,14 6.66265,14 Z"
         fill="#f53137"
         id="path19065" />
      <path
         d="M 14,6.66266 C 14,6.51229 13.8887,6.38516 13.7396,6.36529 l -2.4,-0.32 C 11.1598,6.02131 11,6.16122 11,6.34265 v 2.3147 c 0,0.18143 0.1598,0.32134 0.3396,0.29736 l 2.4,-0.32 C 13.8887,8.61484 14,8.48771 14,8.33735 Z"
         fill="#f53137"
         id="path19067" />
      <path
         d="m 1,8.33734 c 0,0.15037 0.11131,0.2775 0.26035,0.29737 l 2.4,0.32 C 3.8402,8.97869 4,8.83878 4,8.65735 V 6.34265 C 4,6.16122 3.8402,6.02131 3.66035,6.04529 l -2.4,0.32 C 1.11131,6.38516 1,6.51229 1,6.66265 Z"
         fill="#f53137"
         id="path19069" />
      <path
         d="M 11.5041,2.31171 C 11.3978,2.20539 11.2292,2.1942 11.1097,2.28553 L 9.1864,3.75631 C 9.04228,3.86653 9.02821,4.07846 9.15651,4.20675 l 1.63669,1.63674 c 0.1283,0.12829 0.3403,0.11423 0.4505,-0.0299 L 12.7145,3.89026 C 12.8058,3.77082 12.7946,3.60221 12.6883,3.49589 Z"
         fill="#f53137"
         id="path19071" />
      <path
         d="m 3.4959,12.6883 c 0.10632,0.1063 0.27492,0.1175 0.39437,0.0262 L 5.8136,11.2437 C 5.95772,11.1335 5.97179,10.9215 5.84349,10.7932 L 4.20676,9.1565 C 4.07846,9.0282 3.86653,9.04227 3.75632,9.18639 L 2.28554,11.1097 c -0.09134,0.1195 -0.08015,0.2881 0.02617,0.3944 z"
         fill="#f53137"
         id="path19073" />
      <path
         d="m 12.6883,11.5041 c 0.1063,-0.1063 0.1175,-0.2749 0.0262,-0.3944 L 11.2437,9.18639 C 11.1335,9.04227 10.9215,9.0282 10.7932,9.1565 l -1.63669,1.6367 c -0.1283,0.1283 -0.11423,0.3403 0.02989,0.4505 l 1.9233,1.4708 c 0.1195,0.0913 0.2881,0.0801 0.3944,-0.0262 z"
         fill="#f53137"
         id="path19075" />
      <path
         d="M 2.31171,3.49589 C 2.20539,3.60222 2.1942,3.77082 2.28554,3.89026 l 1.47078,1.92333 c 0.11021,0.14413 0.32214,0.15819 0.45044,0.0299 L 5.84349,4.20676 C 5.97179,4.07846 5.95772,3.86653 5.8136,3.75632 L 3.89027,2.28553 C 3.77083,2.1942 3.60222,2.20539 3.4959,2.31171 Z"
         fill="#f53137"
         id="path19077" />
      <circle
         cx="7.5"
         cy="7.5"
         r="4.5"
         fill="#f53137"
         id="circle19079" />
      <path
         d="m 11.2765,21.0461 0.0091,0.0056 0.0092,0.0053 c 0.5207,0.2957 1.0891,0.443 1.696,0.443 h 0.6889 0.5 v -0.5 -1.9361 -0.5 h -0.5 -0.6889 c -0.1199,0 -0.2177,-0.0346 -0.312,-0.1149 -0.0806,-0.0935 -0.1144,-0.1893 -0.1144,-0.3059 v -4.0139 -0.2373 l -0.1838,-0.15 -1.514,-1.2362 1.5084,-1.1958 0.1894,-0.1502 V 10.9181 6.88056 c 0,-0.12251 0.0366,-0.20622 0.1138,-0.28288 l -0.3525,-0.35462 0.3525,0.35462 c 0.1023,-0.10171 0.1995,-0.13796 0.3126,-0.13796 h 0.6889 0.5 v -0.5 V 4 3.5 h -0.5 -0.6889 c -0.6119,0 -1.1836,0.15775 -1.7051,0.47192 -0.5002,0.29513 -0.9061,0.70064 -1.2158,1.20772 l -10e-5,-2e-5 -0.0027,0.00461 C 9.76379,5.69295 9.61648,6.26284 9.61648,6.88056 V 10.4515 L 8.7663,10.901 8.5,11.0418 v 0.3013 2.2666 0.2799 l 0.2386,0.1464 0.87788,0.5383 v 3.5688 c 0,0.6049 0.14865,1.1712 0.44662,1.6894 l 0.0053,0.0093 0.0058,0.0091 c 0.3093,0.4884 0.7115,0.888 1.2023,1.1952 z M 16.344,21 v 0.5 h 0.5 0.6889 c 0.6069,0 1.1705,-0.1474 1.6791,-0.447 v 10e-5 l 0.0046,-0.0028 c 0.5095,-0.3075 0.9176,-0.7108 1.2149,-1.2086 0.3166,-0.5191 0.4758,-1.0887 0.4758,-1.6986 V 14.5948 L 21.7655,14.057 22,13.9101 v -0.2768 -2.243 -0.2872 L 21.752,10.9584 20.9073,10.4656 V 6.88056 c 0,-0.6199 -0.1564,-1.19081 -0.4757,-1.69874 C 20.1357,4.67086 19.7278,4.26551 19.2144,3.97188 18.7067,3.65646 18.1422,3.5 17.5329,3.5 h -0.6889 -0.5 v 0.5 1.95972 0.5 h 0.5 0.6889 c 0.1116,0 0.1928,0.03442 0.2739,0.12231 l 0.0147,0.01598 0.0161,0.01464 c 0.0885,0.08065 0.1218,0.16003 0.1218,0.26791 v 4.08474 0.2439 l 0.1922,0.1501 1.502,1.173 -1.5104,1.2332 -0.1838,0.15 v 0.2373 3.9903 c 0,0.1095 -0.0353,0.2048 -0.1376,0.3064 -0.0772,0.0768 -0.1629,0.1144 -0.2889,0.1144 h -0.6889 -0.5 v 0.5 z"
         fill="#ffffff"
         stroke="#ffffff"
         id="path19081" />
    </g>
  </g>
</svg>
