<svg width="95" height="24" viewBox="0 0 95 24" fill="none" xmlns="http://www.w3.org/2000/svg">
<path d="M26.604 17C26.2493 17 25.9273 16.9113 25.638 16.734C25.3487 16.5567 25.1153 16.3233 24.938 16.034C24.7607 15.7447 24.672 15.4227 24.672 15.068V14.76H26.506V14.998C26.506 15.0447 26.52 15.0867 26.548 15.124C26.5853 15.152 26.6273 15.166 26.674 15.166H30.916C30.9627 15.166 31 15.152 31.028 15.124C31.0653 15.0867 31.084 15.0447 31.084 14.998V14.032C31.084 13.9853 31.0653 13.948 31.028 13.92C31 13.8827 30.9627 13.864 30.916 13.864H26.604C26.2493 13.864 25.9273 13.7753 25.638 13.598C25.3487 13.4207 25.1153 13.1873 24.938 12.898C24.7607 12.6087 24.672 12.2867 24.672 11.932V10.812C24.672 10.4573 24.7607 10.1353 24.938 9.846C25.1153 9.55667 25.3487 9.32333 25.638 9.146C25.9273 8.96867 26.2493 8.88 26.604 8.88H30.986C31.35 8.88 31.6767 8.96867 31.966 9.146C32.2553 9.32333 32.4887 9.55667 32.666 9.846C32.8433 10.1353 32.932 10.4573 32.932 10.812V11.12H31.084V10.882C31.084 10.8353 31.0653 10.798 31.028 10.77C31 10.7327 30.9627 10.714 30.916 10.714H26.674C26.6273 10.714 26.5853 10.7327 26.548 10.77C26.52 10.798 26.506 10.8353 26.506 10.882V11.848C26.506 11.8947 26.52 11.9367 26.548 11.974C26.5853 12.002 26.6273 12.016 26.674 12.016H30.986C31.35 12.016 31.6767 12.1047 31.966 12.282C32.2553 12.4593 32.4887 12.6927 32.666 12.982C32.8433 13.2713 32.932 13.5933 32.932 13.948V15.068C32.932 15.4227 32.8433 15.7447 32.666 16.034C32.4887 16.3233 32.2553 16.5567 31.966 16.734C31.6767 16.9113 31.35 17 30.986 17H26.604ZM35.5437 20.01V18.162H40.4297C40.4763 18.162 40.5137 18.1433 40.5417 18.106C40.579 18.078 40.5977 18.0407 40.5977 17.994V17H36.1177C35.7723 17 35.4503 16.9113 35.1517 16.734C34.8623 16.5567 34.629 16.3233 34.4517 16.034C34.2743 15.7447 34.1857 15.4227 34.1857 15.068V8.908H36.0197V14.998C36.0197 15.0447 36.0337 15.0867 36.0617 15.124C36.099 15.152 36.141 15.166 36.1877 15.166H40.4297C40.4763 15.166 40.5137 15.152 40.5417 15.124C40.579 15.0867 40.5977 15.0447 40.5977 14.998V8.908H42.4317V18.078C42.4317 18.4327 42.3477 18.7547 42.1797 19.044C42.0117 19.3427 41.7783 19.576 41.4797 19.744C41.1903 19.9213 40.8683 20.01 40.5137 20.01H35.5437ZM45.6899 17C45.3353 17 45.0133 16.9113 44.7239 16.734C44.4346 16.5567 44.2013 16.3233 44.0239 16.034C43.8466 15.7447 43.7579 15.4227 43.7579 15.068V14.76H45.5919V14.998C45.5919 15.0447 45.6059 15.0867 45.6339 15.124C45.6713 15.152 45.7133 15.166 45.7599 15.166H50.0019C50.0486 15.166 50.0859 15.152 50.1139 15.124C50.1513 15.0867 50.1699 15.0447 50.1699 14.998V14.032C50.1699 13.9853 50.1513 13.948 50.1139 13.92C50.0859 13.8827 50.0486 13.864 50.0019 13.864H45.6899C45.3353 13.864 45.0133 13.7753 44.7239 13.598C44.4346 13.4207 44.2013 13.1873 44.0239 12.898C43.8466 12.6087 43.7579 12.2867 43.7579 11.932V10.812C43.7579 10.4573 43.8466 10.1353 44.0239 9.846C44.2013 9.55667 44.4346 9.32333 44.7239 9.146C45.0133 8.96867 45.3353 8.88 45.6899 8.88H50.0719C50.4359 8.88 50.7626 8.96867 51.0519 9.146C51.3413 9.32333 51.5746 9.55667 51.7519 9.846C51.9293 10.1353 52.0179 10.4573 52.0179 10.812V11.12H50.1699V10.882C50.1699 10.8353 50.1513 10.798 50.1139 10.77C50.0859 10.7327 50.0486 10.714 50.0019 10.714H45.7599C45.7133 10.714 45.6713 10.7327 45.6339 10.77C45.6059 10.798 45.5919 10.8353 45.5919 10.882V11.848C45.5919 11.8947 45.6059 11.9367 45.6339 11.974C45.6713 12.002 45.7133 12.016 45.7599 12.016H50.0719C50.4359 12.016 50.7626 12.1047 51.0519 12.282C51.3413 12.4593 51.5746 12.6927 51.7519 12.982C51.9293 13.2713 52.0179 13.5933 52.0179 13.948V15.068C52.0179 15.4227 51.9293 15.7447 51.7519 16.034C51.5746 16.3233 51.3413 16.5567 51.0519 16.734C50.7626 16.9113 50.4359 17 50.0719 17H45.6899ZM55.3436 17C54.9889 17 54.6623 16.9113 54.3636 16.734C54.0743 16.5567 53.8409 16.3233 53.6636 16.034C53.4956 15.7447 53.4116 15.4227 53.4116 15.068V12.016H59.8236V10.882C59.8236 10.8353 59.8049 10.798 59.7676 10.77C59.7396 10.7327 59.7023 10.714 59.6556 10.714H53.4116V8.88H59.7256C60.0803 8.88 60.4023 8.96867 60.6916 9.146C60.9903 9.32333 61.2236 9.55667 61.3916 9.846C61.5689 10.1353 61.6576 10.4573 61.6576 10.812V17H55.3436ZM55.4136 15.166H59.8236V13.668H55.2456V14.998C55.2456 15.0447 55.2596 15.0867 55.2876 15.124C55.3249 15.152 55.3669 15.166 55.4136 15.166ZM65.0783 17C64.7236 17 64.397 16.9113 64.0983 16.734C63.809 16.5567 63.5756 16.3233 63.3983 16.034C63.2303 15.7447 63.1463 15.4227 63.1463 15.068V8.88H64.9803V14.998C64.9803 15.0447 64.9943 15.0867 65.0223 15.124C65.0596 15.152 65.1016 15.166 65.1483 15.166H69.3903C69.437 15.166 69.4743 15.152 69.5023 15.124C69.5396 15.0867 69.5583 15.0447 69.5583 14.998V8.88H71.3923V15.068C71.3923 15.4227 71.3036 15.7447 71.1263 16.034C70.9583 16.3233 70.7296 16.5567 70.4403 16.734C70.151 16.9113 69.8243 17 69.4603 17H65.0783ZM74.4337 17C74.0697 17 73.743 16.9113 73.4537 16.734C73.1644 16.5567 72.931 16.3233 72.7537 16.034C72.5857 15.7447 72.5017 15.4227 72.5017 15.068V10.812C72.5017 10.4573 72.5857 10.1353 72.7537 9.846C72.931 9.55667 73.1644 9.32333 73.4537 9.146C73.743 8.96867 74.0697 8.88 74.4337 8.88H78.9277V6.22H80.7617V17H74.4337ZM74.5177 15.166H78.7597C78.8064 15.166 78.8437 15.152 78.8717 15.124C78.909 15.0867 78.9277 15.0447 78.9277 14.998V10.882C78.9277 10.8353 78.909 10.798 78.8717 10.77C78.8437 10.7327 78.8064 10.714 78.7597 10.714H74.5177C74.471 10.714 74.429 10.7327 74.3917 10.77C74.3637 10.798 74.3497 10.8353 74.3497 10.882V14.998C74.3497 15.0447 74.3637 15.0867 74.3917 15.124C74.429 15.152 74.471 15.166 74.5177 15.166ZM82.2456 17V8.88H84.0796V17H82.2456ZM82.2456 8.068V6.22H84.0796V8.068H82.2456ZM87.2671 17C86.9124 17 86.5904 16.9113 86.3011 16.734C86.0118 16.5567 85.7784 16.3233 85.6011 16.034C85.4238 15.7447 85.3351 15.4227 85.3351 15.068V10.812C85.3351 10.4573 85.4238 10.1353 85.6011 9.846C85.7784 9.55667 86.0118 9.32333 86.3011 9.146C86.5904 8.96867 86.9124 8.88 87.2671 8.88H91.6491C92.0038 8.88 92.3258 8.96867 92.6151 9.146C92.9138 9.32333 93.1471 9.55667 93.3151 9.846C93.4924 10.1353 93.5811 10.4573 93.5811 10.812V15.068C93.5811 15.4227 93.4924 15.7447 93.3151 16.034C93.1471 16.3233 92.9184 16.5567 92.6291 16.734C92.3398 16.9113 92.0131 17 91.6491 17H87.2671ZM87.3371 15.166H91.5791C91.6258 15.166 91.6631 15.152 91.6911 15.124C91.7284 15.0867 91.7471 15.0447 91.7471 14.998V10.882C91.7471 10.8353 91.7284 10.798 91.6911 10.77C91.6631 10.7327 91.6258 10.714 91.5791 10.714H87.3371C87.2904 10.714 87.2484 10.7327 87.2111 10.77C87.1831 10.798 87.1691 10.8353 87.1691 10.882V14.998C87.1691 15.0447 87.1831 15.0867 87.2111 15.124C87.2484 15.152 87.2904 15.166 87.3371 15.166Z" fill="white"/>
<path d="M7.13325 2V4.37817H9.03579V2H7.13325Z" fill="#3CC1F5"/>
<path d="M9.03579 16.269V13.8909H7.13325V16.269H9.03579Z" fill="#3CC1F5"/>
<path d="M12.2836 3.4269L10.9383 4.7722L12.2836 6.1175L13.6289 4.7722L12.2836 3.4269Z" fill="#3CC1F5"/>
<path d="M3.88541 14.8421L5.23071 13.4968L3.88541 12.1515L2.54011 13.4968L3.88541 14.8421Z" fill="#3CC1F5"/>
<path d="M13.6289 13.3336L12.2836 11.9883L10.9383 13.3336L12.2836 14.6789L13.6289 13.3336Z" fill="#3CC1F5"/>
<path d="M2.3769 4.7722L3.7222 6.1175L5.0675 4.7722L3.7222 3.4269L2.3769 4.7722Z" fill="#3CC1F5"/>
<path d="M15.219 8.18325H12.8409V10.0858H15.219V8.18325Z" fill="#3CC1F5"/>
<path d="M0.949997 10.0858H2.85254L2.85254 8.18325L0.949997 8.18325L0.949997 10.0858Z" fill="#3CC1F5"/>
<path d="M13.2921 9.13452C13.2921 12.0106 10.9606 14.3421 8.08452 14.3421C5.20843 14.3421 2.8769 12.0106 2.8769 9.13452C2.8769 6.25843 5.20843 3.9269 8.08452 3.9269C10.9606 3.9269 13.2921 6.25843 13.2921 9.13452ZM8.08452 11.2809C9.26996 11.2809 10.2309 10.32 10.2309 9.13452C10.2309 7.94908 9.26996 6.98809 8.08452 6.98809C6.89908 6.98809 5.93809 7.94908 5.93809 9.13452C5.93809 10.32 6.89908 11.2809 8.08452 11.2809Z" fill="black" stroke="#3CC1F5"/>
<path d="M5.66666 16.5V11.5H8.16666V16.5H5.66666Z" fill="black" stroke="#3CC1F5"/>
<path d="M14.8333 8.16667L8.16666 11.5V16.5L14.8333 19.8333V8.16667Z" fill="black" stroke="#3CC1F5"/>
<path d="M16.5 16.9167C16.5 16.9167 17.3333 15.4583 17.3333 14C17.3333 12.5417 16.5 11.0833 16.5 11.0833" stroke="#3CC1F5"/>
<path d="M18.4444 18.8611C18.4444 18.8611 19.8333 16.4306 19.8333 14C19.8333 11.5694 18.4444 9.13889 18.4444 9.13889" stroke="#3CC1F5"/>
<path d="M20.3889 20.8056C20.3889 20.8056 22.3333 17.4027 22.3333 14C22.3333 10.5972 20.3889 7.19444 20.3889 7.19444" stroke="#3CC1F5"/>
</svg>
