<svg width="142" height="24" viewBox="0 0 142 24" fill="none" xmlns="http://www.w3.org/2000/svg">
<path d="M73.604 17C73.2493 17 72.9273 16.9113 72.638 16.734C72.3487 16.5567 72.1153 16.3233 71.938 16.034C71.7607 15.7447 71.672 15.4227 71.672 15.068V14.76H73.506V14.998C73.506 15.0447 73.52 15.0867 73.548 15.124C73.5853 15.152 73.6273 15.166 73.674 15.166H77.916C77.9627 15.166 78 15.152 78.028 15.124C78.0653 15.0867 78.084 15.0447 78.084 14.998V14.032C78.084 13.9853 78.0653 13.948 78.028 13.92C78 13.8827 77.9627 13.864 77.916 13.864H73.604C73.2493 13.864 72.9273 13.7753 72.638 13.598C72.3487 13.4207 72.1153 13.1873 71.938 12.898C71.7607 12.6087 71.672 12.2867 71.672 11.932V10.812C71.672 10.4573 71.7607 10.1353 71.938 9.846C72.1153 9.55667 72.3487 9.32333 72.638 9.146C72.9273 8.96867 73.2493 8.88 73.604 8.88H77.986C78.35 8.88 78.6767 8.96867 78.966 9.146C79.2553 9.32333 79.4887 9.55667 79.666 9.846C79.8433 10.1353 79.932 10.4573 79.932 10.812V11.12H78.084V10.882C78.084 10.8353 78.0653 10.798 78.028 10.77C78 10.7327 77.9627 10.714 77.916 10.714H73.674C73.6273 10.714 73.5853 10.7327 73.548 10.77C73.52 10.798 73.506 10.8353 73.506 10.882V11.848C73.506 11.8947 73.52 11.9367 73.548 11.974C73.5853 12.002 73.6273 12.016 73.674 12.016H77.986C78.35 12.016 78.6767 12.1047 78.966 12.282C79.2553 12.4593 79.4887 12.6927 79.666 12.982C79.8433 13.2713 79.932 13.5933 79.932 13.948V15.068C79.932 15.4227 79.8433 15.7447 79.666 16.034C79.4887 16.3233 79.2553 16.5567 78.966 16.734C78.6767 16.9113 78.35 17 77.986 17H73.604ZM82.5437 20.01V18.162H87.4297C87.4763 18.162 87.5137 18.1433 87.5417 18.106C87.579 18.078 87.5977 18.0407 87.5977 17.994V17H83.1177C82.7723 17 82.4503 16.9113 82.1517 16.734C81.8623 16.5567 81.629 16.3233 81.4517 16.034C81.2743 15.7447 81.1857 15.4227 81.1857 15.068V8.908H83.0197V14.998C83.0197 15.0447 83.0337 15.0867 83.0617 15.124C83.099 15.152 83.141 15.166 83.1877 15.166H87.4297C87.4763 15.166 87.5137 15.152 87.5417 15.124C87.579 15.0867 87.5977 15.0447 87.5977 14.998V8.908H89.4317V18.078C89.4317 18.4327 89.3477 18.7547 89.1797 19.044C89.0117 19.3427 88.7783 19.576 88.4797 19.744C88.1903 19.9213 87.8683 20.01 87.5137 20.01H82.5437ZM92.6899 17C92.3353 17 92.0133 16.9113 91.7239 16.734C91.4346 16.5567 91.2013 16.3233 91.0239 16.034C90.8466 15.7447 90.7579 15.4227 90.7579 15.068V14.76H92.5919V14.998C92.5919 15.0447 92.6059 15.0867 92.6339 15.124C92.6713 15.152 92.7133 15.166 92.7599 15.166H97.0019C97.0486 15.166 97.0859 15.152 97.1139 15.124C97.1513 15.0867 97.1699 15.0447 97.1699 14.998V14.032C97.1699 13.9853 97.1513 13.948 97.1139 13.92C97.0859 13.8827 97.0486 13.864 97.0019 13.864H92.6899C92.3353 13.864 92.0133 13.7753 91.7239 13.598C91.4346 13.4207 91.2013 13.1873 91.0239 12.898C90.8466 12.6087 90.7579 12.2867 90.7579 11.932V10.812C90.7579 10.4573 90.8466 10.1353 91.0239 9.846C91.2013 9.55667 91.4346 9.32333 91.7239 9.146C92.0133 8.96867 92.3353 8.88 92.6899 8.88H97.0719C97.4359 8.88 97.7626 8.96867 98.0519 9.146C98.3413 9.32333 98.5746 9.55667 98.7519 9.846C98.9293 10.1353 99.0179 10.4573 99.0179 10.812V11.12H97.1699V10.882C97.1699 10.8353 97.1513 10.798 97.1139 10.77C97.0859 10.7327 97.0486 10.714 97.0019 10.714H92.7599C92.7133 10.714 92.6713 10.7327 92.6339 10.77C92.6059 10.798 92.5919 10.8353 92.5919 10.882V11.848C92.5919 11.8947 92.6059 11.9367 92.6339 11.974C92.6713 12.002 92.7133 12.016 92.7599 12.016H97.0719C97.4359 12.016 97.7626 12.1047 98.0519 12.282C98.3413 12.4593 98.5746 12.6927 98.7519 12.982C98.9293 13.2713 99.0179 13.5933 99.0179 13.948V15.068C99.0179 15.4227 98.9293 15.7447 98.7519 16.034C98.5746 16.3233 98.3413 16.5567 98.0519 16.734C97.7626 16.9113 97.4359 17 97.0719 17H92.6899ZM102.344 17C101.989 17 101.662 16.9113 101.364 16.734C101.074 16.5567 100.841 16.3233 100.664 16.034C100.496 15.7447 100.412 15.4227 100.412 15.068V12.016H106.824V10.882C106.824 10.8353 106.805 10.798 106.768 10.77C106.74 10.7327 106.702 10.714 106.656 10.714H100.412V8.88H106.726C107.08 8.88 107.402 8.96867 107.692 9.146C107.99 9.32333 108.224 9.55667 108.392 9.846C108.569 10.1353 108.658 10.4573 108.658 10.812V17H102.344ZM102.414 15.166H106.824V13.668H102.246V14.998C102.246 15.0447 102.26 15.0867 102.288 15.124C102.325 15.152 102.367 15.166 102.414 15.166ZM112.078 17C111.724 17 111.397 16.9113 111.098 16.734C110.809 16.5567 110.576 16.3233 110.398 16.034C110.23 15.7447 110.146 15.4227 110.146 15.068V8.88H111.98V14.998C111.98 15.0447 111.994 15.0867 112.022 15.124C112.06 15.152 112.102 15.166 112.148 15.166H116.39C116.437 15.166 116.474 15.152 116.502 15.124C116.54 15.0867 116.558 15.0447 116.558 14.998V8.88H118.392V15.068C118.392 15.4227 118.304 15.7447 118.126 16.034C117.958 16.3233 117.73 16.5567 117.44 16.734C117.151 16.9113 116.824 17 116.46 17H112.078ZM121.434 17C121.07 17 120.743 16.9113 120.454 16.734C120.164 16.5567 119.931 16.3233 119.754 16.034C119.586 15.7447 119.502 15.4227 119.502 15.068V10.812C119.502 10.4573 119.586 10.1353 119.754 9.846C119.931 9.55667 120.164 9.32333 120.454 9.146C120.743 8.96867 121.07 8.88 121.434 8.88H125.928V6.22H127.762V17H121.434ZM121.518 15.166H125.76C125.806 15.166 125.844 15.152 125.872 15.124C125.909 15.0867 125.928 15.0447 125.928 14.998V10.882C125.928 10.8353 125.909 10.798 125.872 10.77C125.844 10.7327 125.806 10.714 125.76 10.714H121.518C121.471 10.714 121.429 10.7327 121.392 10.77C121.364 10.798 121.35 10.8353 121.35 10.882V14.998C121.35 15.0447 121.364 15.0867 121.392 15.124C121.429 15.152 121.471 15.166 121.518 15.166ZM129.246 17V8.88H131.08V17H129.246ZM129.246 8.068V6.22H131.08V8.068H129.246ZM134.267 17C133.912 17 133.59 16.9113 133.301 16.734C133.012 16.5567 132.778 16.3233 132.601 16.034C132.424 15.7447 132.335 15.4227 132.335 15.068V10.812C132.335 10.4573 132.424 10.1353 132.601 9.846C132.778 9.55667 133.012 9.32333 133.301 9.146C133.59 8.96867 133.912 8.88 134.267 8.88H138.649C139.004 8.88 139.326 8.96867 139.615 9.146C139.914 9.32333 140.147 9.55667 140.315 9.846C140.492 10.1353 140.581 10.4573 140.581 10.812V15.068C140.581 15.4227 140.492 15.7447 140.315 16.034C140.147 16.3233 139.918 16.5567 139.629 16.734C139.34 16.9113 139.013 17 138.649 17H134.267ZM134.337 15.166H138.579C138.626 15.166 138.663 15.152 138.691 15.124C138.728 15.0867 138.747 15.0447 138.747 14.998V10.882C138.747 10.8353 138.728 10.798 138.691 10.77C138.663 10.7327 138.626 10.714 138.579 10.714H134.337C134.29 10.714 134.248 10.7327 134.211 10.77C134.183 10.798 134.169 10.8353 134.169 10.882V14.998C134.169 15.0447 134.183 15.0867 134.211 15.124C134.248 15.152 134.29 15.166 134.337 15.166Z" fill="white"/>
<path d="M51.1333 2V4.37817H53.0358V2H51.1333Z" fill="#3CC1F5"/>
<path d="M53.0358 16.269V13.8909H51.1333V16.269H53.0358Z" fill="#3CC1F5"/>
<path d="M56.2836 3.4269L54.9383 4.7722L56.2836 6.1175L57.6289 4.7722L56.2836 3.4269Z" fill="#3CC1F5"/>
<path d="M47.8854 14.8421L49.2307 13.4968L47.8854 12.1515L46.5401 13.4968L47.8854 14.8421Z" fill="#3CC1F5"/>
<path d="M57.6289 13.3336L56.2836 11.9883L54.9383 13.3336L56.2836 14.6789L57.6289 13.3336Z" fill="#3CC1F5"/>
<path d="M46.3769 4.7722L47.7222 6.1175L49.0675 4.7722L47.7222 3.4269L46.3769 4.7722Z" fill="#3CC1F5"/>
<path d="M59.219 8.18325H56.8409V10.0858H59.219V8.18325Z" fill="#3CC1F5"/>
<path d="M44.95 10.0858H46.8525L46.8525 8.18325L44.95 8.18325L44.95 10.0858Z" fill="#3CC1F5"/>
<path d="M57.2921 9.13452C57.2921 12.0106 54.9606 14.3421 52.0845 14.3421C49.2084 14.3421 46.8769 12.0106 46.8769 9.13452C46.8769 6.25843 49.2084 3.9269 52.0845 3.9269C54.9606 3.9269 57.2921 6.25843 57.2921 9.13452ZM52.0845 11.2809C53.27 11.2809 54.2309 10.32 54.2309 9.13452C54.2309 7.94908 53.27 6.98809 52.0845 6.98809C50.8991 6.98809 49.9381 7.94908 49.9381 9.13452C49.9381 10.32 50.8991 11.2809 52.0845 11.2809Z" fill="black" stroke="#3CC1F5"/>
<path d="M49.6667 16.5V11.5H52.1667V16.5H49.6667Z" fill="black" stroke="#3CC1F5"/>
<path d="M58.8333 8.16667L52.1667 11.5V16.5L58.8333 19.8333V8.16667Z" fill="black" stroke="#3CC1F5"/>
<path d="M60.5 16.9167C60.5 16.9167 61.3333 15.4583 61.3333 14C61.3333 12.5417 60.5 11.0833 60.5 11.0833" stroke="#3CC1F5"/>
<path d="M62.4444 18.8611C62.4444 18.8611 63.8333 16.4306 63.8333 14C63.8333 11.5694 62.4444 9.13889 62.4444 9.13889" stroke="#3CC1F5"/>
<path d="M64.3889 20.8056C64.3889 20.8056 66.3333 17.4027 66.3333 14C66.3333 10.5972 64.3889 7.19444 64.3889 7.19444" stroke="#3CC1F5"/>
<path d="M0.784 17V6.92H2.814L6.468 11.274L10.108 6.92H12.152V17H10.29V9.608L6.468 14.158L2.632 9.622V17H0.784ZM15.5526 17C15.1979 17 14.8712 16.9113 14.5726 16.734C14.2832 16.5567 14.0499 16.3233 13.8726 16.034C13.7046 15.7447 13.6206 15.4227 13.6206 15.068V12.016H20.0326V10.882C20.0326 10.8353 20.0139 10.798 19.9766 10.77C19.9486 10.7327 19.9112 10.714 19.8646 10.714H13.6206V8.88H19.9346C20.2892 8.88 20.6112 8.96867 20.9006 9.146C21.1992 9.32333 21.4326 9.55667 21.6006 9.846C21.7779 10.1353 21.8666 10.4573 21.8666 10.812V17H15.5526ZM15.6226 15.166H20.0326V13.668H15.4546V14.998C15.4546 15.0447 15.4686 15.0867 15.4966 15.124C15.5339 15.152 15.5759 15.166 15.6226 15.166ZM24.8765 17C24.5218 17 24.1998 16.9113 23.9105 16.734C23.6211 16.5567 23.3878 16.3233 23.2105 16.034C23.0331 15.7447 22.9445 15.4227 22.9445 15.068V10.812C22.9445 10.4573 23.0331 10.1353 23.2105 9.846C23.3878 9.55667 23.6211 9.32333 23.9105 9.146C24.1998 8.96867 24.5218 8.88 24.8765 8.88H31.1765V10.714H24.9465C24.8998 10.714 24.8578 10.7327 24.8205 10.77C24.7925 10.798 24.7785 10.8353 24.7785 10.882V14.998C24.7785 15.0447 24.7925 15.0867 24.8205 15.124C24.8578 15.152 24.8998 15.166 24.9465 15.166H31.1905V17H24.8765ZM32.379 17V6.22H34.213V8.88H38.693C39.0477 8.88 39.3697 8.96867 39.659 9.146C39.9484 9.32333 40.1817 9.55667 40.359 9.846C40.5364 10.1353 40.625 10.4573 40.625 10.812V17H38.791V10.882C38.791 10.8353 38.7724 10.798 38.735 10.77C38.707 10.7327 38.6697 10.714 38.623 10.714H34.381C34.3344 10.714 34.2924 10.7327 34.255 10.77C34.227 10.798 34.213 10.8353 34.213 10.882V17H32.379Z" fill="white"/>
</svg>
