<svg width="64" height="24" viewBox="0 0 64 24" fill="none" xmlns="http://www.w3.org/2000/svg">
<path d="M24.604 17C24.2493 17 23.9273 16.9113 23.638 16.734C23.3487 16.5567 23.1153 16.3233 22.938 16.034C22.7607 15.7447 22.672 15.4227 22.672 15.068V14.76H24.506V14.998C24.506 15.0447 24.52 15.0867 24.548 15.124C24.5853 15.152 24.6273 15.166 24.674 15.166H28.916C28.9627 15.166 29 15.152 29.028 15.124C29.0653 15.0867 29.084 15.0447 29.084 14.998V14.032C29.084 13.9853 29.0653 13.948 29.028 13.92C29 13.8827 28.9627 13.864 28.916 13.864H24.604C24.2493 13.864 23.9273 13.7753 23.638 13.598C23.3487 13.4207 23.1153 13.1873 22.938 12.898C22.7607 12.6087 22.672 12.2867 22.672 11.932V10.812C22.672 10.4573 22.7607 10.1353 22.938 9.846C23.1153 9.55667 23.3487 9.32333 23.638 9.146C23.9273 8.96867 24.2493 8.88 24.604 8.88H28.986C29.35 8.88 29.6767 8.96867 29.966 9.146C30.2553 9.32333 30.4887 9.55667 30.666 9.846C30.8433 10.1353 30.932 10.4573 30.932 10.812V11.12H29.084V10.882C29.084 10.8353 29.0653 10.798 29.028 10.77C29 10.7327 28.9627 10.714 28.916 10.714H24.674C24.6273 10.714 24.5853 10.7327 24.548 10.77C24.52 10.798 24.506 10.8353 24.506 10.882V11.848C24.506 11.8947 24.52 11.9367 24.548 11.974C24.5853 12.002 24.6273 12.016 24.674 12.016H28.986C29.35 12.016 29.6767 12.1047 29.966 12.282C30.2553 12.4593 30.4887 12.6927 30.666 12.982C30.8433 13.2713 30.932 13.5933 30.932 13.948V15.068C30.932 15.4227 30.8433 15.7447 30.666 16.034C30.4887 16.3233 30.2553 16.5567 29.966 16.734C29.6767 16.9113 29.35 17 28.986 17H24.604ZM33.5437 20.01V18.162H38.4297C38.4763 18.162 38.5137 18.1433 38.5417 18.106C38.579 18.078 38.5977 18.0407 38.5977 17.994V17H34.1177C33.7723 17 33.4503 16.9113 33.1517 16.734C32.8623 16.5567 32.629 16.3233 32.4517 16.034C32.2743 15.7447 32.1857 15.4227 32.1857 15.068V8.908H34.0197V14.998C34.0197 15.0447 34.0337 15.0867 34.0617 15.124C34.099 15.152 34.141 15.166 34.1877 15.166H38.4297C38.4763 15.166 38.5137 15.152 38.5417 15.124C38.579 15.0867 38.5977 15.0447 38.5977 14.998V8.908H40.4317V18.078C40.4317 18.4327 40.3477 18.7547 40.1797 19.044C40.0117 19.3427 39.7783 19.576 39.4797 19.744C39.1903 19.9213 38.8683 20.01 38.5137 20.01H33.5437ZM43.6899 17C43.3353 17 43.0133 16.9113 42.7239 16.734C42.4346 16.5567 42.2013 16.3233 42.0239 16.034C41.8466 15.7447 41.7579 15.4227 41.7579 15.068V14.76H43.5919V14.998C43.5919 15.0447 43.6059 15.0867 43.6339 15.124C43.6713 15.152 43.7133 15.166 43.7599 15.166H48.0019C48.0486 15.166 48.0859 15.152 48.1139 15.124C48.1513 15.0867 48.1699 15.0447 48.1699 14.998V14.032C48.1699 13.9853 48.1513 13.948 48.1139 13.92C48.0859 13.8827 48.0486 13.864 48.0019 13.864H43.6899C43.3353 13.864 43.0133 13.7753 42.7239 13.598C42.4346 13.4207 42.2013 13.1873 42.0239 12.898C41.8466 12.6087 41.7579 12.2867 41.7579 11.932V10.812C41.7579 10.4573 41.8466 10.1353 42.0239 9.846C42.2013 9.55667 42.4346 9.32333 42.7239 9.146C43.0133 8.96867 43.3353 8.88 43.6899 8.88H48.0719C48.4359 8.88 48.7626 8.96867 49.0519 9.146C49.3413 9.32333 49.5746 9.55667 49.7519 9.846C49.9293 10.1353 50.0179 10.4573 50.0179 10.812V11.12H48.1699V10.882C48.1699 10.8353 48.1513 10.798 48.1139 10.77C48.0859 10.7327 48.0486 10.714 48.0019 10.714H43.7599C43.7133 10.714 43.6713 10.7327 43.6339 10.77C43.6059 10.798 43.5919 10.8353 43.5919 10.882V11.848C43.5919 11.8947 43.6059 11.9367 43.6339 11.974C43.6713 12.002 43.7133 12.016 43.7599 12.016H48.0719C48.4359 12.016 48.7626 12.1047 49.0519 12.282C49.3413 12.4593 49.5746 12.6927 49.7519 12.982C49.9293 13.2713 50.0179 13.5933 50.0179 13.948V15.068C50.0179 15.4227 49.9293 15.7447 49.7519 16.034C49.5746 16.3233 49.3413 16.5567 49.0519 16.734C48.7626 16.9113 48.4359 17 48.0719 17H43.6899ZM48.0656 20.066V18.218H51.4956C51.5423 18.218 51.5796 18.1993 51.6076 18.162C51.6449 18.134 51.6636 18.0967 51.6636 18.05V8.88H53.4976V18.134C53.4976 18.4887 53.4089 18.8107 53.2316 19.1C53.0636 19.3987 52.8303 19.632 52.5316 19.8C52.2423 19.9773 51.9203 20.066 51.5656 20.066H48.0656ZM51.6636 8.068V6.22H53.4976V8.068H51.6636ZM56.6372 17C56.2825 17 55.9605 16.9113 55.6712 16.734C55.3819 16.5567 55.1485 16.3233 54.9712 16.034C54.7939 15.7447 54.7052 15.4227 54.7052 15.068V14.76H56.5392V14.998C56.5392 15.0447 56.5532 15.0867 56.5812 15.124C56.6185 15.152 56.6605 15.166 56.7072 15.166H60.9492C60.9959 15.166 61.0332 15.152 61.0612 15.124C61.0985 15.0867 61.1172 15.0447 61.1172 14.998V14.032C61.1172 13.9853 61.0985 13.948 61.0612 13.92C61.0332 13.8827 60.9959 13.864 60.9492 13.864H56.6372C56.2825 13.864 55.9605 13.7753 55.6712 13.598C55.3819 13.4207 55.1485 13.1873 54.9712 12.898C54.7939 12.6087 54.7052 12.2867 54.7052 11.932V10.812C54.7052 10.4573 54.7939 10.1353 54.9712 9.846C55.1485 9.55667 55.3819 9.32333 55.6712 9.146C55.9605 8.96867 56.2825 8.88 56.6372 8.88H61.0192C61.3832 8.88 61.7099 8.96867 61.9992 9.146C62.2885 9.32333 62.5219 9.55667 62.6992 9.846C62.8765 10.1353 62.9652 10.4573 62.9652 10.812V11.12H61.1172V10.882C61.1172 10.8353 61.0985 10.798 61.0612 10.77C61.0332 10.7327 60.9959 10.714 60.9492 10.714H56.7072C56.6605 10.714 56.6185 10.7327 56.5812 10.77C56.5532 10.798 56.5392 10.8353 56.5392 10.882V11.848C56.5392 11.8947 56.5532 11.9367 56.5812 11.974C56.6185 12.002 56.6605 12.016 56.7072 12.016H61.0192C61.3832 12.016 61.7099 12.1047 61.9992 12.282C62.2885 12.4593 62.5219 12.6927 62.6992 12.982C62.8765 13.2713 62.9652 13.5933 62.9652 13.948V15.068C62.9652 15.4227 62.8765 15.7447 62.6992 16.034C62.5219 16.3233 62.2885 16.5567 61.9992 16.734C61.7099 16.9113 61.3832 17 61.0192 17H56.6372Z" fill="black"/>
<path d="M6.63333 3V5.16667H8.36667V3H6.63333Z" fill="black"/>
<path d="M8.36667 16V13.8333H6.63333V16H8.36667Z" fill="black"/>
<path d="M11.3257 4.3L10.1 5.52565L11.3257 6.7513L12.5513 5.52565L11.3257 4.3Z" fill="black"/>
<path d="M3.67435 14.7L4.9 13.4743L3.67435 12.2487L2.4487 13.4743L3.67435 14.7Z" fill="black"/>
<path d="M12.5513 13.3257L11.3257 12.1L10.1 13.3257L11.3257 14.5513L12.5513 13.3257Z" fill="black"/>
<path d="M2.3 5.52565L3.52565 6.7513L4.7513 5.52565L3.52565 4.3L2.3 5.52565Z" fill="black"/>
<path d="M14 8.63333H11.8333V10.3667H14V8.63333Z" fill="black"/>
<path d="M1 10.3667H2.73333L2.73333 8.63333L1 8.63333L1 10.3667Z" fill="black"/>
<path d="M12.2 9.5C12.2 12.0957 10.0957 14.2 7.49999 14.2C4.90426 14.2 2.8 12.0957 2.8 9.5C2.8 6.90426 4.90426 4.8 7.49999 4.8C10.0957 4.8 12.2 6.90426 12.2 9.5ZM7.5 11.5C8.60456 11.5 9.49999 10.6046 9.49999 9.5C9.49999 8.39543 8.60456 7.5 7.5 7.5C6.39543 7.5 5.5 8.39543 5.5 9.5C5.5 10.6046 6.39543 11.5 7.5 11.5Z" fill="#FFFF59" stroke="black"/>
<path d="M11.8136 20.1671L11.8226 20.1728L11.8319 20.1781C12.208 20.393 12.6191 20.5 13.056 20.5H13.52H14.02V20V18.688V18.188H13.52H13.056C13.0194 18.188 12.9927 18.1807 12.9625 18.1575C12.9393 18.1273 12.932 18.1006 12.932 18.064V15.344V15.1077L12.7494 14.9576L11.8827 14.2457L12.7438 13.5589L12.932 13.4088V13.168V10.432C12.932 10.3897 12.9409 10.3742 12.9615 10.3536L12.6288 10.0208L12.9615 10.3536C13.0021 10.313 13.0266 10.308 13.056 10.308H13.52H14.02V9.808V8.48V7.98H13.52H13.056C12.6141 7.98 12.1997 8.09494 11.8228 8.32322C11.4621 8.53748 11.1701 8.83161 10.9486 9.19651L10.9486 9.1965L10.9459 9.2011C10.7257 9.57265 10.62 9.98737 10.62 10.432V12.7556L10.1332 13.0146L9.868 13.1556V13.456V14.992V15.271L10.1054 15.4175L10.62 15.735V18.064C10.62 18.5009 10.727 18.912 10.9419 19.2881L10.9472 19.2974L10.9529 19.3064C11.1741 19.6577 11.4623 19.9459 11.8136 20.1671ZM14.141 20V20.5H14.641H15.105C15.5419 20.5 15.9507 20.3929 16.3199 20.1741L16.3199 20.1742L16.3245 20.1714C16.6894 19.9499 16.9835 19.6579 17.1978 19.2972C17.426 18.9203 17.541 18.5059 17.541 18.064V15.7479L18.0436 15.431L18.277 15.2839V15.008V13.488V13.2017L18.0301 13.0568L17.541 12.7697V10.432C17.541 9.98519 17.4289 9.56949 17.1978 9.19871C16.985 8.82993 16.6911 8.53597 16.3223 8.32318C15.954 8.09365 15.5442 7.98 15.105 7.98H14.641H14.141V8.48V9.808V10.308H14.641H15.105C15.1263 10.308 15.135 10.3116 15.1379 10.3129C15.141 10.3143 15.1514 10.3193 15.1684 10.3379L15.1831 10.3539L15.1991 10.3686C15.2177 10.3856 15.2227 10.396 15.2241 10.3991C15.2254 10.402 15.229 10.4107 15.229 10.432V13.2V13.443L15.4201 13.5932L16.2747 14.2647L15.4116 14.9736L15.229 15.1237V15.36V18.064C15.229 18.0934 15.224 18.1179 15.1834 18.1584C15.1628 18.1791 15.1473 18.188 15.105 18.188H14.641H14.141V18.688V20Z" fill="#FFFF59" stroke="black"/>
</svg>
