<svg width="100" height="24" viewBox="0 0 100 24" fill="none" xmlns="http://www.w3.org/2000/svg">
<path d="M37.1593 10.8071L43.6903 3H47.3186V21.0165H43.9905V7.80439L37.1593 15.9368L30.303 7.80439V21.0165H27V3H30.6033L37.1593 10.8071Z" fill="black"/>
<path d="M61.2853 6.5C62.2362 6.5 63.0453 6.84198 63.7125 7.52594C64.3965 8.19321 64.7385 9.00229 64.7385 9.95316V21.0133H53.4532C52.5023 21.0133 51.6849 20.6796 51.0009 20.0123C50.3336 19.3284 50 18.511 50 17.5601V12.1051H61.4605V9.95316C61.4605 9.83638 61.4021 9.77799 61.2853 9.77799H50V6.5H61.2853ZM61.4605 17.7353V15.4081H53.278V17.5601C53.278 17.6769 53.3364 17.7353 53.4532 17.7353H61.4605Z" fill="black"/>
<path d="M70.4532 17.7353H81.7385V21.0133H70.4532C69.5023 21.0133 68.6849 20.6796 68.0009 20.0123C67.3336 19.3284 67 18.511 67 17.5601V9.95316C67 9.00229 67.3336 8.19321 68.0009 7.52594C68.6849 6.84198 69.5023 6.5 70.4532 6.5H81.6884V9.77799H70.4532C70.3364 9.77799 70.278 9.83638 70.278 9.95316V17.5601C70.278 17.6769 70.3364 17.7353 70.4532 17.7353Z" fill="black"/>
<path d="M94.912 6.48674C95.8461 6.48674 96.6552 6.82872 97.3392 7.51267C98.0231 8.17995 98.3651 8.98903 98.3651 9.93989V21H95.0871V9.93989C95.0871 9.82312 95.0287 9.76473 94.912 9.76473H87.0798C86.963 9.76473 86.9046 9.82312 86.9046 9.93989V21H83.6266V1.73239H86.9046V6.48674H94.912Z" fill="black"/>
<path d="M23 3C20.3701 3.03651 17.6181 3.34124 15.2741 3.91958C15.6692 5.51403 15.9349 7.01687 16.0338 8.22479L16.0674 8.62624L7.71443 12L16.045 15.3659L16.0376 15.7416C16.0094 17.0877 15.6524 18.5722 15.2648 20.0745C17.6118 20.6545 20.3664 20.9634 23 21L23 3Z" fill="black"/>
<path d="M13.2953 4.49435C8.43772 5.86876 5.10972 8.14848 1 12C5.10723 15.8491 8.44278 18.1318 13.2968 19.5068L13.9056 16.5069L4.72029 11.9921L13.9 7.47924L13.2953 4.49435Z" fill="#3CC1F5"/>
</svg>
