<svg version="1.1" xmlns="http://www.w3.org/2000/svg" viewBox="0 0 473.8604442302458 473.8604442302458" width="1421.5813326907373" height="1421.5813326907373">
  <!-- svg-source:excalidraw -->
  
  <defs>
    <style>
      @font-face {
        font-family: "Virgil";
        src: url("https://excalidraw.com/Virgil.woff2");
      }
      @font-face {
        font-family: "Cascadia";
        src: url("https://excalidraw.com/Cascadia.woff2");
      }
    </style>
  </defs>
  <g stroke-linecap="round" transform="translate(112.65535475969864 144.25990686211844) rotate(344.99999999999994 57.5 57.5)"><path d="M115 57.5 C115 59.81, 114.86 62.14, 114.58 64.43 C114.3 66.72, 113.88 69.02, 113.33 71.26 C112.78 73.5, 112.08 75.73, 111.26 77.89 C110.44 80.05, 109.49 82.18, 108.41 84.22 C107.34 86.27, 106.13 88.26, 104.82 90.16 C103.51 92.07, 102.07 93.9, 100.54 95.63 C99.01 97.36, 97.36 99.01, 95.63 100.54 C93.9 102.07, 92.07 103.51, 90.16 104.82 C88.26 106.13, 86.27 107.34, 84.22 108.41 C82.18 109.49, 80.05 110.44, 77.89 111.26 C75.73 112.08, 73.5 112.78, 71.26 113.33 C69.02 113.88, 66.72 114.3, 64.43 114.58 C62.14 114.86, 59.81 115, 57.5 115 C55.19 115, 52.86 114.86, 50.57 114.58 C48.28 114.3, 45.98 113.88, 43.74 113.33 C41.5 112.78, 39.27 112.08, 37.11 111.26 C34.95 110.44, 32.82 109.49, 30.78 108.41 C28.73 107.34, 26.74 106.13, 24.84 104.82 C22.93 103.51, 21.1 102.07, 19.37 100.54 C17.64 99.01, 15.99 97.36, 14.46 95.63 C12.93 93.9, 11.49 92.07, 10.18 90.16 C8.87 88.26, 7.66 86.27, 6.59 84.22 C5.51 82.18, 4.56 80.05, 3.74 77.89 C2.92 75.73, 2.22 73.5, 1.67 71.26 C1.12 69.02, 0.7 66.72, 0.42 64.43 C0.14 62.14, 0 59.81, 0 57.5 C0 55.19, 0.14 52.86, 0.42 50.57 C0.7 48.28, 1.12 45.98, 1.67 43.74 C2.22 41.5, 2.92 39.27, 3.74 37.11 C4.56 34.95, 5.51 32.82, 6.59 30.78 C7.66 28.73, 8.87 26.74, 10.18 24.84 C11.49 22.93, 12.93 21.1, 14.46 19.37 C15.99 17.64, 17.64 15.99, 19.37 14.46 C21.1 12.93, 22.93 11.49, 24.84 10.18 C26.74 8.87, 28.73 7.66, 30.78 6.59 C32.82 5.51, 34.95 4.56, 37.11 3.74 C39.27 2.92, 41.5 2.22, 43.74 1.67 C45.98 1.12, 48.28 0.7, 50.57 0.42 C52.86 0.14, 55.19 0, 57.5 0 C59.81 0, 62.14 0.14, 64.43 0.42 C66.72 0.7, 69.02 1.12, 71.26 1.67 C73.5 2.22, 75.73 2.92, 77.89 3.74 C80.05 4.56, 82.18 5.51, 84.22 6.59 C86.27 7.66, 88.26 8.87, 90.16 10.18 C92.07 11.49, 93.9 12.93, 95.63 14.46 C97.36 15.99, 99.01 17.64, 100.54 19.37 C102.07 21.1, 103.51 22.93, 104.82 24.84 C106.13 26.74, 107.34 28.73, 108.41 30.78 C109.49 32.82, 110.44 34.95, 111.26 37.11 C112.08 39.27, 112.78 41.5, 113.33 43.74 C113.88 45.98, 114.3 48.28, 114.58 50.57 C114.86 52.86, 115 55.19, 115 57.5" stroke="#000000" stroke-width="4" fill="none"></path></g><g stroke-linecap="round" transform="translate(131.7984291685725 181.2434049986441) rotate(344.99999999999994 38.10784313725503 18.715686274509835)"><path d="M76.22 18.72 C76.22 19.8, 76.02 20.9, 75.64 21.97 C75.25 23.03, 74.67 24.1, 73.92 25.12 C73.16 26.13, 72.21 27.14, 71.11 28.07 C70.01 29.01, 68.72 29.92, 67.3 30.75 C65.88 31.58, 64.29 32.36, 62.6 33.05 C60.91 33.75, 59.07 34.38, 57.16 34.92 C55.25 35.47, 53.21 35.93, 51.14 36.3 C49.07 36.67, 46.9 36.96, 44.73 37.15 C42.55 37.34, 40.31 37.43, 38.11 37.43 C35.9 37.43, 33.66 37.34, 31.49 37.15 C29.32 36.96, 27.15 36.67, 25.07 36.3 C23 35.93, 20.96 35.47, 19.05 34.92 C17.14 34.38, 15.3 33.75, 13.61 33.05 C11.92 32.36, 10.33 31.58, 8.92 30.75 C7.5 29.92, 6.21 29.01, 5.11 28.07 C4 27.14, 3.05 26.13, 2.3 25.12 C1.54 24.1, 0.96 23.03, 0.58 21.97 C0.2 20.9, 0 19.8, 0 18.72 C0 17.63, 0.2 16.53, 0.58 15.47 C0.96 14.4, 1.54 13.33, 2.3 12.31 C3.05 11.3, 4 10.3, 5.11 9.36 C6.21 8.42, 7.5 7.52, 8.92 6.69 C10.33 5.86, 11.92 5.07, 13.61 4.38 C15.3 3.68, 17.14 3.05, 19.05 2.51 C20.96 1.97, 23 1.5, 25.07 1.13 C27.15 0.76, 29.32 0.47, 31.49 0.28 C33.66 0.1, 35.9 0, 38.11 0 C40.31 0, 42.55 0.1, 44.73 0.28 C46.9 0.47, 49.07 0.76, 51.14 1.13 C53.21 1.5, 55.25 1.97, 57.16 2.51 C59.07 3.05, 60.91 3.68, 62.6 4.38 C64.29 5.07, 65.88 5.86, 67.3 6.69 C68.72 7.52, 70.01 8.42, 71.11 9.36 C72.21 10.3, 73.16 11.3, 73.92 12.31 C74.67 13.33, 75.25 14.4, 75.64 15.47 C76.02 16.53, 76.12 18.17, 76.22 18.72 C76.31 19.26, 76.31 18.17, 76.22 18.72" stroke="#000000" stroke-width="4" fill="none"></path></g><g stroke-linecap="round" transform="translate(158.2468266591004 188.73525923434954) rotate(344.99999999999994 11.5 11.5)"><path d="M23 11.5 C23 12.17, 22.94 12.84, 22.83 13.5 C22.71 14.15, 22.53 14.81, 22.31 15.43 C22.08 16.06, 21.79 16.67, 21.46 17.25 C21.13 17.83, 20.74 18.38, 20.31 18.89 C19.88 19.4, 19.4 19.88, 18.89 20.31 C18.38 20.74, 17.83 21.13, 17.25 21.46 C16.67 21.79, 16.06 22.08, 15.43 22.31 C14.81 22.53, 14.15 22.71, 13.5 22.83 C12.84 22.94, 12.17 23, 11.5 23 C10.83 23, 10.16 22.94, 9.5 22.83 C8.85 22.71, 8.19 22.53, 7.57 22.31 C6.94 22.08, 6.33 21.79, 5.75 21.46 C5.17 21.13, 4.62 20.74, 4.11 20.31 C3.6 19.88, 3.12 19.4, 2.69 18.89 C2.26 18.38, 1.87 17.83, 1.54 17.25 C1.21 16.67, 0.92 16.06, 0.69 15.43 C0.47 14.81, 0.29 14.15, 0.17 13.5 C0.06 12.84, 0 12.17, 0 11.5 C0 10.83, 0.06 10.16, 0.17 9.5 C0.29 8.85, 0.47 8.19, 0.69 7.57 C0.92 6.94, 1.21 6.33, 1.54 5.75 C1.87 5.17, 2.26 4.62, 2.69 4.11 C3.12 3.6, 3.6 3.12, 4.11 2.69 C4.62 2.26, 5.17 1.87, 5.75 1.54 C6.33 1.21, 6.94 0.92, 7.57 0.69 C8.19 0.47, 8.85 0.29, 9.5 0.17 C10.16 0.06, 10.83 0, 11.5 0 C12.17 0, 12.84 0.06, 13.5 0.17 C14.15 0.29, 14.81 0.47, 15.43 0.69 C16.06 0.92, 16.67 1.21, 17.25 1.54 C17.83 1.87, 18.38 2.26, 18.89 2.69 C19.4 3.12, 19.88 3.6, 20.31 4.11 C20.74 4.62, 21.13 5.17, 21.46 5.75 C21.79 6.33, 22.08 6.94, 22.31 7.57 C22.53 8.19, 22.71 8.85, 22.83 9.5 C22.94 10.16, 22.97 11.17, 23 11.5 C23.03 11.83, 23.03 11.17, 23 11.5" stroke="none" stroke-width="0" fill="#000000"></path><path d="M23 11.5 C23 12.17, 22.94 12.84, 22.83 13.5 C22.71 14.15, 22.53 14.81, 22.31 15.43 C22.08 16.06, 21.79 16.67, 21.46 17.25 C21.13 17.83, 20.74 18.38, 20.31 18.89 C19.88 19.4, 19.4 19.88, 18.89 20.31 C18.38 20.74, 17.83 21.13, 17.25 21.46 C16.67 21.79, 16.06 22.08, 15.43 22.31 C14.81 22.53, 14.15 22.71, 13.5 22.83 C12.84 22.94, 12.17 23, 11.5 23 C10.83 23, 10.16 22.94, 9.5 22.83 C8.85 22.71, 8.19 22.53, 7.57 22.31 C6.94 22.08, 6.33 21.79, 5.75 21.46 C5.17 21.13, 4.62 20.74, 4.11 20.31 C3.6 19.88, 3.12 19.4, 2.69 18.89 C2.26 18.38, 1.87 17.83, 1.54 17.25 C1.21 16.67, 0.92 16.06, 0.69 15.43 C0.47 14.81, 0.29 14.15, 0.17 13.5 C0.06 12.84, 0 12.17, 0 11.5 C0 10.83, 0.06 10.16, 0.17 9.5 C0.29 8.85, 0.47 8.19, 0.69 7.57 C0.92 6.94, 1.21 6.33, 1.54 5.75 C1.87 5.17, 2.26 4.62, 2.69 4.11 C3.12 3.6, 3.6 3.12, 4.11 2.69 C4.62 2.26, 5.17 1.87, 5.75 1.54 C6.33 1.21, 6.94 0.92, 7.57 0.69 C8.19 0.47, 8.85 0.29, 9.5 0.17 C10.16 0.06, 10.83 0, 11.5 0 C12.17 0, 12.84 0.06, 13.5 0.17 C14.15 0.29, 14.81 0.47, 15.43 0.69 C16.06 0.92, 16.67 1.21, 17.25 1.54 C17.83 1.87, 18.38 2.26, 18.89 2.69 C19.4 3.12, 19.88 3.6, 20.31 4.11 C20.74 4.62, 21.13 5.17, 21.46 5.75 C21.79 6.33, 22.08 6.94, 22.31 7.57 C22.53 8.19, 22.71 8.85, 22.83 9.5 C22.94 10.16, 22.97 11.17, 23 11.5 C23.03 11.83, 23.03 11.17, 23 11.5" stroke="#000000" stroke-width="4" fill="none"></path></g><g stroke-linecap="round" transform="translate(162.6655223407397 194.99023629743306) rotate(344.99999999999994 3.607843137254804 3.607843137254804)"><path d="M7.22 3.61 C7.22 3.82, 7.2 4.03, 7.16 4.23 C7.12 4.44, 7.07 4.65, 7 4.84 C6.93 5.04, 6.84 5.23, 6.73 5.41 C6.63 5.59, 6.51 5.77, 6.37 5.93 C6.24 6.09, 6.09 6.24, 5.93 6.37 C5.77 6.51, 5.59 6.63, 5.41 6.73 C5.23 6.84, 5.04 6.93, 4.84 7 C4.65 7.07, 4.44 7.12, 4.23 7.16 C4.03 7.2, 3.82 7.22, 3.61 7.22 C3.4 7.22, 3.19 7.2, 2.98 7.16 C2.78 7.12, 2.57 7.07, 2.37 7 C2.18 6.93, 1.98 6.84, 1.8 6.73 C1.62 6.63, 1.45 6.51, 1.29 6.37 C1.13 6.24, 0.98 6.09, 0.84 5.93 C0.71 5.77, 0.59 5.59, 0.48 5.41 C0.38 5.23, 0.29 5.04, 0.22 4.84 C0.15 4.65, 0.09 4.44, 0.05 4.23 C0.02 4.03, 0 3.82, 0 3.61 C0 3.4, 0.02 3.19, 0.05 2.98 C0.09 2.78, 0.15 2.57, 0.22 2.37 C0.29 2.18, 0.38 1.98, 0.48 1.8 C0.59 1.62, 0.71 1.45, 0.84 1.29 C0.98 1.13, 1.13 0.98, 1.29 0.84 C1.45 0.71, 1.62 0.59, 1.8 0.48 C1.98 0.38, 2.18 0.29, 2.37 0.22 C2.57 0.15, 2.78 0.09, 2.98 0.05 C3.19 0.02, 3.4 0, 3.61 0 C3.82 0, 4.03 0.02, 4.23 0.05 C4.44 0.09, 4.65 0.15, 4.84 0.22 C5.04 0.29, 5.23 0.38, 5.41 0.48 C5.59 0.59, 5.77 0.71, 5.93 0.84 C6.09 0.98, 6.24 1.13, 6.37 1.29 C6.51 1.45, 6.63 1.62, 6.73 1.8 C6.84 1.98, 6.93 2.18, 7 2.37 C7.07 2.57, 7.12 2.78, 7.16 2.98 C7.2 3.19, 7.21 3.5, 7.22 3.61 C7.22 3.71, 7.22 3.5, 7.22 3.61" stroke="none" stroke-width="0" fill="#ffffff"></path><path d="M7.22 3.61 C7.22 3.82, 7.2 4.03, 7.16 4.23 C7.12 4.44, 7.07 4.65, 7 4.84 C6.93 5.04, 6.84 5.23, 6.73 5.41 C6.63 5.59, 6.51 5.77, 6.37 5.93 C6.24 6.09, 6.09 6.24, 5.93 6.37 C5.77 6.51, 5.59 6.63, 5.41 6.73 C5.23 6.84, 5.04 6.93, 4.84 7 C4.65 7.07, 4.44 7.12, 4.23 7.16 C4.03 7.2, 3.82 7.22, 3.61 7.22 C3.4 7.22, 3.19 7.2, 2.98 7.16 C2.78 7.12, 2.57 7.07, 2.37 7 C2.18 6.93, 1.98 6.84, 1.8 6.73 C1.62 6.63, 1.45 6.51, 1.29 6.37 C1.13 6.24, 0.98 6.09, 0.84 5.93 C0.71 5.77, 0.59 5.59, 0.48 5.41 C0.38 5.23, 0.29 5.04, 0.22 4.84 C0.15 4.65, 0.09 4.44, 0.05 4.23 C0.02 4.03, 0 3.82, 0 3.61 C0 3.4, 0.02 3.19, 0.05 2.98 C0.09 2.78, 0.15 2.57, 0.22 2.37 C0.29 2.18, 0.38 1.98, 0.48 1.8 C0.59 1.62, 0.71 1.45, 0.84 1.29 C0.98 1.13, 1.13 0.98, 1.29 0.84 C1.45 0.71, 1.62 0.59, 1.8 0.48 C1.98 0.38, 2.18 0.29, 2.37 0.22 C2.57 0.15, 2.78 0.09, 2.98 0.05 C3.19 0.02, 3.4 0, 3.61 0 C3.82 0, 4.03 0.02, 4.23 0.05 C4.44 0.09, 4.65 0.15, 4.84 0.22 C5.04 0.29, 5.23 0.38, 5.41 0.48 C5.59 0.59, 5.77 0.71, 5.93 0.84 C6.09 0.98, 6.24 1.13, 6.37 1.29 C6.51 1.45, 6.63 1.62, 6.73 1.8 C6.84 1.98, 6.93 2.18, 7 2.37 C7.07 2.57, 7.12 2.78, 7.16 2.98 C7.2 3.19, 7.21 3.5, 7.22 3.61 C7.22 3.71, 7.22 3.5, 7.22 3.61" stroke="#ffffff" stroke-width="4" fill="none"></path></g><g stroke-linecap="round" transform="translate(166.07410235064026 24.865864272820545) rotate(311.4538914160921 57.49999999999977 57.5)"><path d="M115 57.5 C115 59.81, 114.86 62.14, 114.58 64.43 C114.3 66.72, 113.88 69.02, 113.33 71.26 C112.78 73.5, 112.08 75.73, 111.26 77.89 C110.44 80.05, 109.49 82.18, 108.41 84.22 C107.34 86.27, 106.13 88.26, 104.82 90.16 C103.51 92.07, 102.07 93.9, 100.54 95.63 C99.01 97.36, 97.36 99.01, 95.63 100.54 C93.9 102.07, 92.07 103.51, 90.16 104.82 C88.26 106.13, 86.27 107.34, 84.22 108.41 C82.18 109.49, 80.05 110.44, 77.89 111.26 C75.73 112.08, 73.5 112.78, 71.26 113.33 C69.02 113.88, 66.72 114.3, 64.43 114.58 C62.14 114.86, 59.81 115, 57.5 115 C55.19 115, 52.86 114.86, 50.57 114.58 C48.28 114.3, 45.98 113.88, 43.74 113.33 C41.5 112.78, 39.27 112.08, 37.11 111.26 C34.95 110.44, 32.82 109.49, 30.78 108.41 C28.73 107.34, 26.74 106.13, 24.84 104.82 C22.93 103.51, 21.1 102.07, 19.37 100.54 C17.64 99.01, 15.99 97.36, 14.46 95.63 C12.93 93.9, 11.49 92.07, 10.18 90.16 C8.87 88.26, 7.66 86.27, 6.59 84.22 C5.51 82.18, 4.56 80.05, 3.74 77.89 C2.92 75.73, 2.22 73.5, 1.67 71.26 C1.12 69.02, 0.7 66.72, 0.42 64.43 C0.14 62.14, 0 59.81, 0 57.5 C0 55.19, 0.14 52.86, 0.42 50.57 C0.7 48.28, 1.12 45.98, 1.67 43.74 C2.22 41.5, 2.92 39.27, 3.74 37.11 C4.56 34.95, 5.51 32.82, 6.59 30.78 C7.66 28.73, 8.87 26.74, 10.18 24.84 C11.49 22.93, 12.93 21.1, 14.46 19.37 C15.99 17.64, 17.64 15.99, 19.37 14.46 C21.1 12.93, 22.93 11.49, 24.84 10.18 C26.74 8.87, 28.73 7.66, 30.78 6.59 C32.82 5.51, 34.95 4.56, 37.11 3.74 C39.27 2.92, 41.5 2.22, 43.74 1.67 C45.98 1.12, 48.28 0.7, 50.57 0.42 C52.86 0.14, 55.19 0, 57.5 0 C59.81 0, 62.14 0.14, 64.43 0.42 C66.72 0.7, 69.02 1.12, 71.26 1.67 C73.5 2.22, 75.73 2.92, 77.89 3.74 C80.05 4.56, 82.18 5.51, 84.22 6.59 C86.27 7.66, 88.26 8.87, 90.16 10.18 C92.07 11.49, 93.9 12.93, 95.63 14.46 C97.36 15.99, 99.01 17.64, 100.54 19.37 C102.07 21.1, 103.51 22.93, 104.82 24.84 C106.13 26.74, 107.34 28.73, 108.41 30.78 C109.49 32.82, 110.44 34.95, 111.26 37.11 C112.08 39.27, 112.78 41.5, 113.33 43.74 C113.88 45.98, 114.3 48.28, 114.58 50.57 C114.86 52.86, 115 55.19, 115 57.5" stroke="#000000" stroke-width="4" fill="none"></path></g><g stroke-linecap="round" transform="translate(184.5223377609086 63.2528745152872) rotate(311.4538914160921 38.10784313725503 18.715686274509835)"><path d="M76.22 18.72 C76.22 19.8, 76.02 20.9, 75.64 21.97 C75.25 23.03, 74.67 24.1, 73.92 25.12 C73.16 26.13, 72.21 27.14, 71.11 28.07 C70.01 29.01, 68.72 29.92, 67.3 30.75 C65.88 31.58, 64.29 32.36, 62.6 33.05 C60.91 33.75, 59.07 34.38, 57.16 34.92 C55.25 35.47, 53.21 35.93, 51.14 36.3 C49.07 36.67, 46.9 36.96, 44.73 37.15 C42.55 37.34, 40.31 37.43, 38.11 37.43 C35.9 37.43, 33.66 37.34, 31.49 37.15 C29.32 36.96, 27.15 36.67, 25.07 36.3 C23 35.93, 20.96 35.47, 19.05 34.92 C17.14 34.38, 15.3 33.75, 13.61 33.05 C11.92 32.36, 10.33 31.58, 8.92 30.75 C7.5 29.92, 6.21 29.01, 5.11 28.07 C4 27.14, 3.05 26.13, 2.3 25.12 C1.54 24.1, 0.96 23.03, 0.58 21.97 C0.2 20.9, 0 19.8, 0 18.72 C0 17.63, 0.2 16.53, 0.58 15.47 C0.96 14.4, 1.54 13.33, 2.3 12.31 C3.05 11.3, 4 10.3, 5.11 9.36 C6.21 8.42, 7.5 7.52, 8.92 6.69 C10.33 5.86, 11.92 5.07, 13.61 4.38 C15.3 3.68, 17.14 3.05, 19.05 2.51 C20.96 1.97, 23 1.5, 25.07 1.13 C27.15 0.76, 29.32 0.47, 31.49 0.28 C33.66 0.1, 35.9 0, 38.11 0 C40.31 0, 42.55 0.1, 44.73 0.28 C46.9 0.47, 49.07 0.76, 51.14 1.13 C53.21 1.5, 55.25 1.97, 57.16 2.51 C59.07 3.05, 60.91 3.68, 62.6 4.38 C64.29 5.07, 65.88 5.86, 67.3 6.69 C68.72 7.52, 70.01 8.42, 71.11 9.36 C72.21 10.3, 73.16 11.3, 73.92 12.31 C74.67 13.33, 75.25 14.4, 75.64 15.47 C76.02 16.53, 76.12 18.17, 76.22 18.72 C76.31 19.26, 76.31 18.17, 76.22 18.72" stroke="#000000" stroke-width="4" fill="none"></path></g><g stroke-linecap="round" transform="translate(211.14990488760213 70.78684151697325) rotate(311.4538914160921 11.5 11.5)"><path d="M23 11.5 C23 12.17, 22.94 12.84, 22.83 13.5 C22.71 14.15, 22.53 14.81, 22.31 15.43 C22.08 16.06, 21.79 16.67, 21.46 17.25 C21.13 17.83, 20.74 18.38, 20.31 18.89 C19.88 19.4, 19.4 19.88, 18.89 20.31 C18.38 20.74, 17.83 21.13, 17.25 21.46 C16.67 21.79, 16.06 22.08, 15.43 22.31 C14.81 22.53, 14.15 22.71, 13.5 22.83 C12.84 22.94, 12.17 23, 11.5 23 C10.83 23, 10.16 22.94, 9.5 22.83 C8.85 22.71, 8.19 22.53, 7.57 22.31 C6.94 22.08, 6.33 21.79, 5.75 21.46 C5.17 21.13, 4.62 20.74, 4.11 20.31 C3.6 19.88, 3.12 19.4, 2.69 18.89 C2.26 18.38, 1.87 17.83, 1.54 17.25 C1.21 16.67, 0.92 16.06, 0.69 15.43 C0.47 14.81, 0.29 14.15, 0.17 13.5 C0.06 12.84, 0 12.17, 0 11.5 C0 10.83, 0.06 10.16, 0.17 9.5 C0.29 8.85, 0.47 8.19, 0.69 7.57 C0.92 6.94, 1.21 6.33, 1.54 5.75 C1.87 5.17, 2.26 4.62, 2.69 4.11 C3.12 3.6, 3.6 3.12, 4.11 2.69 C4.62 2.26, 5.17 1.87, 5.75 1.54 C6.33 1.21, 6.94 0.92, 7.57 0.69 C8.19 0.47, 8.85 0.29, 9.5 0.17 C10.16 0.06, 10.83 0, 11.5 0 C12.17 0, 12.84 0.06, 13.5 0.17 C14.15 0.29, 14.81 0.47, 15.43 0.69 C16.06 0.92, 16.67 1.21, 17.25 1.54 C17.83 1.87, 18.38 2.26, 18.89 2.69 C19.4 3.12, 19.88 3.6, 20.31 4.11 C20.74 4.62, 21.13 5.17, 21.46 5.75 C21.79 6.33, 22.08 6.94, 22.31 7.57 C22.53 8.19, 22.71 8.85, 22.83 9.5 C22.94 10.16, 22.97 11.17, 23 11.5 C23.03 11.83, 23.03 11.17, 23 11.5" stroke="none" stroke-width="0" fill="#000000"></path><path d="M23 11.5 C23 12.17, 22.94 12.84, 22.83 13.5 C22.71 14.15, 22.53 14.81, 22.31 15.43 C22.08 16.06, 21.79 16.67, 21.46 17.25 C21.13 17.83, 20.74 18.38, 20.31 18.89 C19.88 19.4, 19.4 19.88, 18.89 20.31 C18.38 20.74, 17.83 21.13, 17.25 21.46 C16.67 21.79, 16.06 22.08, 15.43 22.31 C14.81 22.53, 14.15 22.71, 13.5 22.83 C12.84 22.94, 12.17 23, 11.5 23 C10.83 23, 10.16 22.94, 9.5 22.83 C8.85 22.71, 8.19 22.53, 7.57 22.31 C6.94 22.08, 6.33 21.79, 5.75 21.46 C5.17 21.13, 4.62 20.74, 4.11 20.31 C3.6 19.88, 3.12 19.4, 2.69 18.89 C2.26 18.38, 1.87 17.83, 1.54 17.25 C1.21 16.67, 0.92 16.06, 0.69 15.43 C0.47 14.81, 0.29 14.15, 0.17 13.5 C0.06 12.84, 0 12.17, 0 11.5 C0 10.83, 0.06 10.16, 0.17 9.5 C0.29 8.85, 0.47 8.19, 0.69 7.57 C0.92 6.94, 1.21 6.33, 1.54 5.75 C1.87 5.17, 2.26 4.62, 2.69 4.11 C3.12 3.6, 3.6 3.12, 4.11 2.69 C4.62 2.26, 5.17 1.87, 5.75 1.54 C6.33 1.21, 6.94 0.92, 7.57 0.69 C8.19 0.47, 8.85 0.29, 9.5 0.17 C10.16 0.06, 10.83 0, 11.5 0 C12.17 0, 12.84 0.06, 13.5 0.17 C14.15 0.29, 14.81 0.47, 15.43 0.69 C16.06 0.92, 16.67 1.21, 17.25 1.54 C17.83 1.87, 18.38 2.26, 18.89 2.69 C19.4 3.12, 19.88 3.6, 20.31 4.11 C20.74 4.62, 21.13 5.17, 21.46 5.75 C21.79 6.33, 22.08 6.94, 22.31 7.57 C22.53 8.19, 22.71 8.85, 22.83 9.5 C22.94 10.16, 22.97 11.17, 23 11.5 C23.03 11.83, 23.03 11.17, 23 11.5" stroke="#000000" stroke-width="4" fill="none"></path></g><g stroke-linecap="round" transform="translate(215.2424170135737 79.23396698007082) rotate(311.4538914160921 3.607843137254804 3.607843137254804)"><path d="M7.22 3.61 C7.22 3.82, 7.2 4.03, 7.16 4.23 C7.12 4.44, 7.07 4.65, 7 4.84 C6.93 5.04, 6.84 5.23, 6.73 5.41 C6.63 5.59, 6.51 5.77, 6.37 5.93 C6.24 6.09, 6.09 6.24, 5.93 6.37 C5.77 6.51, 5.59 6.63, 5.41 6.73 C5.23 6.84, 5.04 6.93, 4.84 7 C4.65 7.07, 4.44 7.12, 4.23 7.16 C4.03 7.2, 3.82 7.22, 3.61 7.22 C3.4 7.22, 3.19 7.2, 2.98 7.16 C2.78 7.12, 2.57 7.07, 2.37 7 C2.18 6.93, 1.98 6.84, 1.8 6.73 C1.62 6.63, 1.45 6.51, 1.29 6.37 C1.13 6.24, 0.98 6.09, 0.84 5.93 C0.71 5.77, 0.59 5.59, 0.48 5.41 C0.38 5.23, 0.29 5.04, 0.22 4.84 C0.15 4.65, 0.09 4.44, 0.05 4.23 C0.02 4.03, 0 3.82, 0 3.61 C0 3.4, 0.02 3.19, 0.05 2.98 C0.09 2.78, 0.15 2.57, 0.22 2.37 C0.29 2.18, 0.38 1.98, 0.48 1.8 C0.59 1.62, 0.71 1.45, 0.84 1.29 C0.98 1.13, 1.13 0.98, 1.29 0.84 C1.45 0.71, 1.62 0.59, 1.8 0.48 C1.98 0.38, 2.18 0.29, 2.37 0.22 C2.57 0.15, 2.78 0.09, 2.98 0.05 C3.19 0.02, 3.4 0, 3.61 0 C3.82 0, 4.03 0.02, 4.23 0.05 C4.44 0.09, 4.65 0.15, 4.84 0.22 C5.04 0.29, 5.23 0.38, 5.41 0.48 C5.59 0.59, 5.77 0.71, 5.93 0.84 C6.09 0.98, 6.24 1.13, 6.37 1.29 C6.51 1.45, 6.63 1.62, 6.73 1.8 C6.84 1.98, 6.93 2.18, 7 2.37 C7.07 2.57, 7.12 2.78, 7.16 2.98 C7.2 3.19, 7.21 3.5, 7.22 3.61 C7.22 3.71, 7.22 3.5, 7.22 3.61" stroke="none" stroke-width="0" fill="#ffffff"></path><path d="M7.22 3.61 C7.22 3.82, 7.2 4.03, 7.16 4.23 C7.12 4.44, 7.07 4.65, 7 4.84 C6.93 5.04, 6.84 5.23, 6.73 5.41 C6.63 5.59, 6.51 5.77, 6.37 5.93 C6.24 6.09, 6.09 6.24, 5.93 6.37 C5.77 6.51, 5.59 6.63, 5.41 6.73 C5.23 6.84, 5.04 6.93, 4.84 7 C4.65 7.07, 4.44 7.12, 4.23 7.16 C4.03 7.2, 3.82 7.22, 3.61 7.22 C3.4 7.22, 3.19 7.2, 2.98 7.16 C2.78 7.12, 2.57 7.07, 2.37 7 C2.18 6.93, 1.98 6.84, 1.8 6.73 C1.62 6.63, 1.45 6.51, 1.29 6.37 C1.13 6.24, 0.98 6.09, 0.84 5.93 C0.71 5.77, 0.59 5.59, 0.48 5.41 C0.38 5.23, 0.29 5.04, 0.22 4.84 C0.15 4.65, 0.09 4.44, 0.05 4.23 C0.02 4.03, 0 3.82, 0 3.61 C0 3.4, 0.02 3.19, 0.05 2.98 C0.09 2.78, 0.15 2.57, 0.22 2.37 C0.29 2.18, 0.38 1.98, 0.48 1.8 C0.59 1.62, 0.71 1.45, 0.84 1.29 C0.98 1.13, 1.13 0.98, 1.29 0.84 C1.45 0.71, 1.62 0.59, 1.8 0.48 C1.98 0.38, 2.18 0.29, 2.37 0.22 C2.57 0.15, 2.78 0.09, 2.98 0.05 C3.19 0.02, 3.4 0, 3.61 0 C3.82 0, 4.03 0.02, 4.23 0.05 C4.44 0.09, 4.65 0.15, 4.84 0.22 C5.04 0.29, 5.23 0.38, 5.41 0.48 C5.59 0.59, 5.77 0.71, 5.93 0.84 C6.09 0.98, 6.24 1.13, 6.37 1.29 C6.51 1.45, 6.63 1.62, 6.73 1.8 C6.84 1.98, 6.93 2.18, 7 2.37 C7.07 2.57, 7.12 2.78, 7.16 2.98 C7.2 3.19, 7.21 3.5, 7.22 3.61 C7.22 3.71, 7.22 3.5, 7.22 3.61" stroke="#ffffff" stroke-width="4" fill="none"></path></g><g stroke-linecap="round" transform="translate(246.9815933480122 133.63156613011643) rotate(311.4538914160921 57.5 57.5)"><path d="M115 57.5 C115 59.81, 114.86 62.14, 114.58 64.43 C114.3 66.72, 113.88 69.02, 113.33 71.26 C112.78 73.5, 112.08 75.73, 111.26 77.89 C110.44 80.05, 109.49 82.18, 108.41 84.22 C107.34 86.27, 106.13 88.26, 104.82 90.16 C103.51 92.07, 102.07 93.9, 100.54 95.63 C99.01 97.36, 97.36 99.01, 95.63 100.54 C93.9 102.07, 92.07 103.51, 90.16 104.82 C88.26 106.13, 86.27 107.34, 84.22 108.41 C82.18 109.49, 80.05 110.44, 77.89 111.26 C75.73 112.08, 73.5 112.78, 71.26 113.33 C69.02 113.88, 66.72 114.3, 64.43 114.58 C62.14 114.86, 59.81 115, 57.5 115 C55.19 115, 52.86 114.86, 50.57 114.58 C48.28 114.3, 45.98 113.88, 43.74 113.33 C41.5 112.78, 39.27 112.08, 37.11 111.26 C34.95 110.44, 32.82 109.49, 30.78 108.41 C28.73 107.34, 26.74 106.13, 24.84 104.82 C22.93 103.51, 21.1 102.07, 19.37 100.54 C17.64 99.01, 15.99 97.36, 14.46 95.63 C12.93 93.9, 11.49 92.07, 10.18 90.16 C8.87 88.26, 7.66 86.27, 6.59 84.22 C5.51 82.18, 4.56 80.05, 3.74 77.89 C2.92 75.73, 2.22 73.5, 1.67 71.26 C1.12 69.02, 0.7 66.72, 0.42 64.43 C0.14 62.14, 0 59.81, 0 57.5 C0 55.19, 0.14 52.86, 0.42 50.57 C0.7 48.28, 1.12 45.98, 1.67 43.74 C2.22 41.5, 2.92 39.27, 3.74 37.11 C4.56 34.95, 5.51 32.82, 6.59 30.78 C7.66 28.73, 8.87 26.74, 10.18 24.84 C11.49 22.93, 12.93 21.1, 14.46 19.37 C15.99 17.64, 17.64 15.99, 19.37 14.46 C21.1 12.93, 22.93 11.49, 24.84 10.18 C26.74 8.87, 28.73 7.66, 30.78 6.59 C32.82 5.51, 34.95 4.56, 37.11 3.74 C39.27 2.92, 41.5 2.22, 43.74 1.67 C45.98 1.12, 48.28 0.7, 50.57 0.42 C52.86 0.14, 55.19 0, 57.5 0 C59.81 0, 62.14 0.14, 64.43 0.42 C66.72 0.7, 69.02 1.12, 71.26 1.67 C73.5 2.22, 75.73 2.92, 77.89 3.74 C80.05 4.56, 82.18 5.51, 84.22 6.59 C86.27 7.66, 88.26 8.87, 90.16 10.18 C92.07 11.49, 93.9 12.93, 95.63 14.46 C97.36 15.99, 99.01 17.64, 100.54 19.37 C102.07 21.1, 103.51 22.93, 104.82 24.84 C106.13 26.74, 107.34 28.73, 108.41 30.78 C109.49 32.82, 110.44 34.95, 111.26 37.11 C112.08 39.27, 112.78 41.5, 113.33 43.74 C113.88 45.98, 114.3 48.28, 114.58 50.57 C114.86 52.86, 115 55.19, 115 57.5" stroke="#000000" stroke-width="4" fill="none"></path></g><g stroke-linecap="round" transform="translate(265.17100971317814 171.05265054629535) rotate(311.4538914160921 38.107843137254804 18.715686274509835)"><path d="M76.22 18.72 C76.22 19.8, 76.02 20.9, 75.64 21.97 C75.25 23.03, 74.67 24.1, 73.92 25.12 C73.16 26.13, 72.21 27.14, 71.11 28.07 C70.01 29.01, 68.72 29.92, 67.3 30.75 C65.88 31.58, 64.29 32.36, 62.6 33.05 C60.91 33.75, 59.07 34.38, 57.16 34.92 C55.25 35.47, 53.21 35.93, 51.14 36.3 C49.07 36.67, 46.9 36.96, 44.73 37.15 C42.55 37.34, 40.31 37.43, 38.11 37.43 C35.9 37.43, 33.66 37.34, 31.49 37.15 C29.32 36.96, 27.15 36.67, 25.07 36.3 C23 35.93, 20.96 35.47, 19.05 34.92 C17.14 34.38, 15.3 33.75, 13.61 33.05 C11.92 32.36, 10.33 31.58, 8.92 30.75 C7.5 29.92, 6.21 29.01, 5.11 28.07 C4 27.14, 3.05 26.13, 2.3 25.12 C1.54 24.1, 0.96 23.03, 0.58 21.97 C0.2 20.9, 0 19.8, 0 18.72 C0 17.63, 0.2 16.53, 0.58 15.47 C0.96 14.4, 1.54 13.33, 2.3 12.31 C3.05 11.3, 4 10.3, 5.11 9.36 C6.21 8.42, 7.5 7.52, 8.92 6.69 C10.33 5.86, 11.92 5.07, 13.61 4.38 C15.3 3.68, 17.14 3.05, 19.05 2.51 C20.96 1.97, 23 1.5, 25.07 1.13 C27.15 0.76, 29.32 0.47, 31.49 0.28 C33.66 0.1, 35.9 0, 38.11 0 C40.31 0, 42.55 0.1, 44.73 0.28 C46.9 0.47, 49.07 0.76, 51.14 1.13 C53.21 1.5, 55.25 1.97, 57.16 2.51 C59.07 3.05, 60.91 3.68, 62.6 4.38 C64.29 5.07, 65.88 5.86, 67.3 6.69 C68.72 7.52, 70.01 8.42, 71.11 9.36 C72.21 10.3, 73.16 11.3, 73.92 12.31 C74.67 13.33, 75.25 14.4, 75.64 15.47 C76.02 16.53, 76.12 18.17, 76.22 18.72 C76.31 19.26, 76.31 18.17, 76.22 18.72" stroke="#000000" stroke-width="4" fill="none"></path></g><g stroke-linecap="round" transform="translate(291.7985768398712 178.5866175479805) rotate(311.4538914160921 11.5 11.5)"><path d="M23 11.5 C23 12.17, 22.94 12.84, 22.83 13.5 C22.71 14.15, 22.53 14.81, 22.31 15.43 C22.08 16.06, 21.79 16.67, 21.46 17.25 C21.13 17.83, 20.74 18.38, 20.31 18.89 C19.88 19.4, 19.4 19.88, 18.89 20.31 C18.38 20.74, 17.83 21.13, 17.25 21.46 C16.67 21.79, 16.06 22.08, 15.43 22.31 C14.81 22.53, 14.15 22.71, 13.5 22.83 C12.84 22.94, 12.17 23, 11.5 23 C10.83 23, 10.16 22.94, 9.5 22.83 C8.85 22.71, 8.19 22.53, 7.57 22.31 C6.94 22.08, 6.33 21.79, 5.75 21.46 C5.17 21.13, 4.62 20.74, 4.11 20.31 C3.6 19.88, 3.12 19.4, 2.69 18.89 C2.26 18.38, 1.87 17.83, 1.54 17.25 C1.21 16.67, 0.92 16.06, 0.69 15.43 C0.47 14.81, 0.29 14.15, 0.17 13.5 C0.06 12.84, 0 12.17, 0 11.5 C0 10.83, 0.06 10.16, 0.17 9.5 C0.29 8.85, 0.47 8.19, 0.69 7.57 C0.92 6.94, 1.21 6.33, 1.54 5.75 C1.87 5.17, 2.26 4.62, 2.69 4.11 C3.12 3.6, 3.6 3.12, 4.11 2.69 C4.62 2.26, 5.17 1.87, 5.75 1.54 C6.33 1.21, 6.94 0.92, 7.57 0.69 C8.19 0.47, 8.85 0.29, 9.5 0.17 C10.16 0.06, 10.83 0, 11.5 0 C12.17 0, 12.84 0.06, 13.5 0.17 C14.15 0.29, 14.81 0.47, 15.43 0.69 C16.06 0.92, 16.67 1.21, 17.25 1.54 C17.83 1.87, 18.38 2.26, 18.89 2.69 C19.4 3.12, 19.88 3.6, 20.31 4.11 C20.74 4.62, 21.13 5.17, 21.46 5.75 C21.79 6.33, 22.08 6.94, 22.31 7.57 C22.53 8.19, 22.71 8.85, 22.83 9.5 C22.94 10.16, 22.97 11.17, 23 11.5 C23.03 11.83, 23.03 11.17, 23 11.5" stroke="none" stroke-width="0" fill="#000000"></path><path d="M23 11.5 C23 12.17, 22.94 12.84, 22.83 13.5 C22.71 14.15, 22.53 14.81, 22.31 15.43 C22.08 16.06, 21.79 16.67, 21.46 17.25 C21.13 17.83, 20.74 18.38, 20.31 18.89 C19.88 19.4, 19.4 19.88, 18.89 20.31 C18.38 20.74, 17.83 21.13, 17.25 21.46 C16.67 21.79, 16.06 22.08, 15.43 22.31 C14.81 22.53, 14.15 22.71, 13.5 22.83 C12.84 22.94, 12.17 23, 11.5 23 C10.83 23, 10.16 22.94, 9.5 22.83 C8.85 22.71, 8.19 22.53, 7.57 22.31 C6.94 22.08, 6.33 21.79, 5.75 21.46 C5.17 21.13, 4.62 20.74, 4.11 20.31 C3.6 19.88, 3.12 19.4, 2.69 18.89 C2.26 18.38, 1.87 17.83, 1.54 17.25 C1.21 16.67, 0.92 16.06, 0.69 15.43 C0.47 14.81, 0.29 14.15, 0.17 13.5 C0.06 12.84, 0 12.17, 0 11.5 C0 10.83, 0.06 10.16, 0.17 9.5 C0.29 8.85, 0.47 8.19, 0.69 7.57 C0.92 6.94, 1.21 6.33, 1.54 5.75 C1.87 5.17, 2.26 4.62, 2.69 4.11 C3.12 3.6, 3.6 3.12, 4.11 2.69 C4.62 2.26, 5.17 1.87, 5.75 1.54 C6.33 1.21, 6.94 0.92, 7.57 0.69 C8.19 0.47, 8.85 0.29, 9.5 0.17 C10.16 0.06, 10.83 0, 11.5 0 C12.17 0, 12.84 0.06, 13.5 0.17 C14.15 0.29, 14.81 0.47, 15.43 0.69 C16.06 0.92, 16.67 1.21, 17.25 1.54 C17.83 1.87, 18.38 2.26, 18.89 2.69 C19.4 3.12, 19.88 3.6, 20.31 4.11 C20.74 4.62, 21.13 5.17, 21.46 5.75 C21.79 6.33, 22.08 6.94, 22.31 7.57 C22.53 8.19, 22.71 8.85, 22.83 9.5 C22.94 10.16, 22.97 11.17, 23 11.5 C23.03 11.83, 23.03 11.17, 23 11.5" stroke="#000000" stroke-width="4" fill="none"></path></g><g stroke-linecap="round" transform="translate(295.89108896584275 187.03374301107988) rotate(311.4538914160921 3.607843137254804 3.607843137254804)"><path d="M7.22 3.61 C7.22 3.82, 7.2 4.03, 7.16 4.23 C7.12 4.44, 7.07 4.65, 7 4.84 C6.93 5.04, 6.84 5.23, 6.73 5.41 C6.63 5.59, 6.51 5.77, 6.37 5.93 C6.24 6.09, 6.09 6.24, 5.93 6.37 C5.77 6.51, 5.59 6.63, 5.41 6.73 C5.23 6.84, 5.04 6.93, 4.84 7 C4.65 7.07, 4.44 7.12, 4.23 7.16 C4.03 7.2, 3.82 7.22, 3.61 7.22 C3.4 7.22, 3.19 7.2, 2.98 7.16 C2.78 7.12, 2.57 7.07, 2.37 7 C2.18 6.93, 1.98 6.84, 1.8 6.73 C1.62 6.63, 1.45 6.51, 1.29 6.37 C1.13 6.24, 0.98 6.09, 0.84 5.93 C0.71 5.77, 0.59 5.59, 0.48 5.41 C0.38 5.23, 0.29 5.04, 0.22 4.84 C0.15 4.65, 0.09 4.44, 0.05 4.23 C0.02 4.03, 0 3.82, 0 3.61 C0 3.4, 0.02 3.19, 0.05 2.98 C0.09 2.78, 0.15 2.57, 0.22 2.37 C0.29 2.18, 0.38 1.98, 0.48 1.8 C0.59 1.62, 0.71 1.45, 0.84 1.29 C0.98 1.13, 1.13 0.98, 1.29 0.84 C1.45 0.71, 1.62 0.59, 1.8 0.48 C1.98 0.38, 2.18 0.29, 2.37 0.22 C2.57 0.15, 2.78 0.09, 2.98 0.05 C3.19 0.02, 3.4 0, 3.61 0 C3.82 0, 4.03 0.02, 4.23 0.05 C4.44 0.09, 4.65 0.15, 4.84 0.22 C5.04 0.29, 5.23 0.38, 5.41 0.48 C5.59 0.59, 5.77 0.71, 5.93 0.84 C6.09 0.98, 6.24 1.13, 6.37 1.29 C6.51 1.45, 6.63 1.62, 6.73 1.8 C6.84 1.98, 6.93 2.18, 7 2.37 C7.07 2.57, 7.12 2.78, 7.16 2.98 C7.2 3.19, 7.21 3.5, 7.22 3.61 C7.22 3.71, 7.22 3.5, 7.22 3.61" stroke="none" stroke-width="0" fill="#ffffff"></path><path d="M7.22 3.61 C7.22 3.82, 7.2 4.03, 7.16 4.23 C7.12 4.44, 7.07 4.65, 7 4.84 C6.93 5.04, 6.84 5.23, 6.73 5.41 C6.63 5.59, 6.51 5.77, 6.37 5.93 C6.24 6.09, 6.09 6.24, 5.93 6.37 C5.77 6.51, 5.59 6.63, 5.41 6.73 C5.23 6.84, 5.04 6.93, 4.84 7 C4.65 7.07, 4.44 7.12, 4.23 7.16 C4.03 7.2, 3.82 7.22, 3.61 7.22 C3.4 7.22, 3.19 7.2, 2.98 7.16 C2.78 7.12, 2.57 7.07, 2.37 7 C2.18 6.93, 1.98 6.84, 1.8 6.73 C1.62 6.63, 1.45 6.51, 1.29 6.37 C1.13 6.24, 0.98 6.09, 0.84 5.93 C0.71 5.77, 0.59 5.59, 0.48 5.41 C0.38 5.23, 0.29 5.04, 0.22 4.84 C0.15 4.65, 0.09 4.44, 0.05 4.23 C0.02 4.03, 0 3.82, 0 3.61 C0 3.4, 0.02 3.19, 0.05 2.98 C0.09 2.78, 0.15 2.57, 0.22 2.37 C0.29 2.18, 0.38 1.98, 0.48 1.8 C0.59 1.62, 0.71 1.45, 0.84 1.29 C0.98 1.13, 1.13 0.98, 1.29 0.84 C1.45 0.71, 1.62 0.59, 1.8 0.48 C1.98 0.38, 2.18 0.29, 2.37 0.22 C2.57 0.15, 2.78 0.09, 2.98 0.05 C3.19 0.02, 3.4 0, 3.61 0 C3.82 0, 4.03 0.02, 4.23 0.05 C4.44 0.09, 4.65 0.15, 4.84 0.22 C5.04 0.29, 5.23 0.38, 5.41 0.48 C5.59 0.59, 5.77 0.71, 5.93 0.84 C6.09 0.98, 6.24 1.13, 6.37 1.29 C6.51 1.45, 6.63 1.62, 6.73 1.8 C6.84 1.98, 6.93 2.18, 7 2.37 C7.07 2.57, 7.12 2.78, 7.16 2.98 C7.2 3.19, 7.21 3.5, 7.22 3.61 C7.22 3.71, 7.22 3.5, 7.22 3.61" stroke="#ffffff" stroke-width="4" fill="none"></path></g><g stroke-linecap="round" transform="translate(55.601732694205566 268.84620059778126) rotate(43.75078643010924 57.5 57.5)"><path d="M115 57.5 C115 59.81, 114.86 62.14, 114.58 64.43 C114.3 66.72, 113.88 69.02, 113.33 71.26 C112.78 73.5, 112.08 75.73, 111.26 77.89 C110.44 80.05, 109.49 82.18, 108.41 84.22 C107.34 86.27, 106.13 88.26, 104.82 90.16 C103.51 92.07, 102.07 93.9, 100.54 95.63 C99.01 97.36, 97.36 99.01, 95.63 100.54 C93.9 102.07, 92.07 103.51, 90.16 104.82 C88.26 106.13, 86.27 107.34, 84.22 108.41 C82.18 109.49, 80.05 110.44, 77.89 111.26 C75.73 112.08, 73.5 112.78, 71.26 113.33 C69.02 113.88, 66.72 114.3, 64.43 114.58 C62.14 114.86, 59.81 115, 57.5 115 C55.19 115, 52.86 114.86, 50.57 114.58 C48.28 114.3, 45.98 113.88, 43.74 113.33 C41.5 112.78, 39.27 112.08, 37.11 111.26 C34.95 110.44, 32.82 109.49, 30.78 108.41 C28.73 107.34, 26.74 106.13, 24.84 104.82 C22.93 103.51, 21.1 102.07, 19.37 100.54 C17.64 99.01, 15.99 97.36, 14.46 95.63 C12.93 93.9, 11.49 92.07, 10.18 90.16 C8.87 88.26, 7.66 86.27, 6.59 84.22 C5.51 82.18, 4.56 80.05, 3.74 77.89 C2.92 75.73, 2.22 73.5, 1.67 71.26 C1.12 69.02, 0.7 66.72, 0.42 64.43 C0.14 62.14, 0 59.81, 0 57.5 C0 55.19, 0.14 52.86, 0.42 50.57 C0.7 48.28, 1.12 45.98, 1.67 43.74 C2.22 41.5, 2.92 39.27, 3.74 37.11 C4.56 34.95, 5.51 32.82, 6.59 30.78 C7.66 28.73, 8.87 26.74, 10.18 24.84 C11.49 22.93, 12.93 21.1, 14.46 19.37 C15.99 17.64, 17.64 15.99, 19.37 14.46 C21.1 12.93, 22.93 11.49, 24.84 10.18 C26.74 8.87, 28.73 7.66, 30.78 6.59 C32.82 5.51, 34.95 4.56, 37.11 3.74 C39.27 2.92, 41.5 2.22, 43.74 1.67 C45.98 1.12, 48.28 0.7, 50.57 0.42 C52.86 0.14, 55.19 0, 57.5 0 C59.81 0, 62.14 0.14, 64.43 0.42 C66.72 0.7, 69.02 1.12, 71.26 1.67 C73.5 2.22, 75.73 2.92, 77.89 3.74 C80.05 4.56, 82.18 5.51, 84.22 6.59 C86.27 7.66, 88.26 8.87, 90.16 10.18 C92.07 11.49, 93.9 12.93, 95.63 14.46 C97.36 15.99, 99.01 17.64, 100.54 19.37 C102.07 21.1, 103.51 22.93, 104.82 24.84 C106.13 26.74, 107.34 28.73, 108.41 30.78 C109.49 32.82, 110.44 34.95, 111.26 37.11 C112.08 39.27, 112.78 41.5, 113.33 43.74 C113.88 45.98, 114.3 48.28, 114.58 50.57 C114.86 52.86, 115 55.19, 115 57.5" stroke="#000000" stroke-width="4" fill="none"></path></g><g stroke-linecap="round" transform="translate(76.40422661023376 306.4833751641345) rotate(43.75078643010924 38.10784313725503 18.715686274509835)"><path d="M76.22 18.72 C76.22 19.8, 76.02 20.9, 75.64 21.97 C75.25 23.03, 74.67 24.1, 73.92 25.12 C73.16 26.13, 72.21 27.14, 71.11 28.07 C70.01 29.01, 68.72 29.92, 67.3 30.75 C65.88 31.58, 64.29 32.36, 62.6 33.05 C60.91 33.75, 59.07 34.38, 57.16 34.92 C55.25 35.47, 53.21 35.93, 51.14 36.3 C49.07 36.67, 46.9 36.96, 44.73 37.15 C42.55 37.34, 40.31 37.43, 38.11 37.43 C35.9 37.43, 33.66 37.34, 31.49 37.15 C29.32 36.96, 27.15 36.67, 25.07 36.3 C23 35.93, 20.96 35.47, 19.05 34.92 C17.14 34.38, 15.3 33.75, 13.61 33.05 C11.92 32.36, 10.33 31.58, 8.92 30.75 C7.5 29.92, 6.21 29.01, 5.11 28.07 C4 27.14, 3.05 26.13, 2.3 25.12 C1.54 24.1, 0.96 23.03, 0.58 21.97 C0.2 20.9, 0 19.8, 0 18.72 C0 17.63, 0.2 16.53, 0.58 15.47 C0.96 14.4, 1.54 13.33, 2.3 12.31 C3.05 11.3, 4 10.3, 5.11 9.36 C6.21 8.42, 7.5 7.52, 8.92 6.69 C10.33 5.86, 11.92 5.07, 13.61 4.38 C15.3 3.68, 17.14 3.05, 19.05 2.51 C20.96 1.97, 23 1.5, 25.07 1.13 C27.15 0.76, 29.32 0.47, 31.49 0.28 C33.66 0.1, 35.9 0, 38.11 0 C40.31 0, 42.55 0.1, 44.73 0.28 C46.9 0.47, 49.07 0.76, 51.14 1.13 C53.21 1.5, 55.25 1.97, 57.16 2.51 C59.07 3.05, 60.91 3.68, 62.6 4.38 C64.29 5.07, 65.88 5.86, 67.3 6.69 C68.72 7.52, 70.01 8.42, 71.11 9.36 C72.21 10.3, 73.16 11.3, 73.92 12.31 C74.67 13.33, 75.25 14.4, 75.64 15.47 C76.02 16.53, 76.12 18.17, 76.22 18.72 C76.31 19.26, 76.31 18.17, 76.22 18.72" stroke="#000000" stroke-width="4" fill="none"></path></g><g stroke-linecap="round" transform="translate(102.69325424605677 313.7060136395644) rotate(43.75078643010924 11.5 11.5)"><path d="M23 11.5 C23 12.17, 22.94 12.84, 22.83 13.5 C22.71 14.15, 22.53 14.81, 22.31 15.43 C22.08 16.06, 21.79 16.67, 21.46 17.25 C21.13 17.83, 20.74 18.38, 20.31 18.89 C19.88 19.4, 19.4 19.88, 18.89 20.31 C18.38 20.74, 17.83 21.13, 17.25 21.46 C16.67 21.79, 16.06 22.08, 15.43 22.31 C14.81 22.53, 14.15 22.71, 13.5 22.83 C12.84 22.94, 12.17 23, 11.5 23 C10.83 23, 10.16 22.94, 9.5 22.83 C8.85 22.71, 8.19 22.53, 7.57 22.31 C6.94 22.08, 6.33 21.79, 5.75 21.46 C5.17 21.13, 4.62 20.74, 4.11 20.31 C3.6 19.88, 3.12 19.4, 2.69 18.89 C2.26 18.38, 1.87 17.83, 1.54 17.25 C1.21 16.67, 0.92 16.06, 0.69 15.43 C0.47 14.81, 0.29 14.15, 0.17 13.5 C0.06 12.84, 0 12.17, 0 11.5 C0 10.83, 0.06 10.16, 0.17 9.5 C0.29 8.85, 0.47 8.19, 0.69 7.57 C0.92 6.94, 1.21 6.33, 1.54 5.75 C1.87 5.17, 2.26 4.62, 2.69 4.11 C3.12 3.6, 3.6 3.12, 4.11 2.69 C4.62 2.26, 5.17 1.87, 5.75 1.54 C6.33 1.21, 6.94 0.92, 7.57 0.69 C8.19 0.47, 8.85 0.29, 9.5 0.17 C10.16 0.06, 10.83 0, 11.5 0 C12.17 0, 12.84 0.06, 13.5 0.17 C14.15 0.29, 14.81 0.47, 15.43 0.69 C16.06 0.92, 16.67 1.21, 17.25 1.54 C17.83 1.87, 18.38 2.26, 18.89 2.69 C19.4 3.12, 19.88 3.6, 20.31 4.11 C20.74 4.62, 21.13 5.17, 21.46 5.75 C21.79 6.33, 22.08 6.94, 22.31 7.57 C22.53 8.19, 22.71 8.85, 22.83 9.5 C22.94 10.16, 22.97 11.17, 23 11.5 C23.03 11.83, 23.03 11.17, 23 11.5" stroke="none" stroke-width="0" fill="#000000"></path><path d="M23 11.5 C23 12.17, 22.94 12.84, 22.83 13.5 C22.71 14.15, 22.53 14.81, 22.31 15.43 C22.08 16.06, 21.79 16.67, 21.46 17.25 C21.13 17.83, 20.74 18.38, 20.31 18.89 C19.88 19.4, 19.4 19.88, 18.89 20.31 C18.38 20.74, 17.83 21.13, 17.25 21.46 C16.67 21.79, 16.06 22.08, 15.43 22.31 C14.81 22.53, 14.15 22.71, 13.5 22.83 C12.84 22.94, 12.17 23, 11.5 23 C10.83 23, 10.16 22.94, 9.5 22.83 C8.85 22.71, 8.19 22.53, 7.57 22.31 C6.94 22.08, 6.33 21.79, 5.75 21.46 C5.17 21.13, 4.62 20.74, 4.11 20.31 C3.6 19.88, 3.12 19.4, 2.69 18.89 C2.26 18.38, 1.87 17.83, 1.54 17.25 C1.21 16.67, 0.92 16.06, 0.69 15.43 C0.47 14.81, 0.29 14.15, 0.17 13.5 C0.06 12.84, 0 12.17, 0 11.5 C0 10.83, 0.06 10.16, 0.17 9.5 C0.29 8.85, 0.47 8.19, 0.69 7.57 C0.92 6.94, 1.21 6.33, 1.54 5.75 C1.87 5.17, 2.26 4.62, 2.69 4.11 C3.12 3.6, 3.6 3.12, 4.11 2.69 C4.62 2.26, 5.17 1.87, 5.75 1.54 C6.33 1.21, 6.94 0.92, 7.57 0.69 C8.19 0.47, 8.85 0.29, 9.5 0.17 C10.16 0.06, 10.83 0, 11.5 0 C12.17 0, 12.84 0.06, 13.5 0.17 C14.15 0.29, 14.81 0.47, 15.43 0.69 C16.06 0.92, 16.67 1.21, 17.25 1.54 C17.83 1.87, 18.38 2.26, 18.89 2.69 C19.4 3.12, 19.88 3.6, 20.31 4.11 C20.74 4.62, 21.13 5.17, 21.46 5.75 C21.79 6.33, 22.08 6.94, 22.31 7.57 C22.53 8.19, 22.71 8.85, 22.83 9.5 C22.94 10.16, 22.97 11.17, 23 11.5 C23.03 11.83, 23.03 11.17, 23 11.5" stroke="#000000" stroke-width="4" fill="none"></path></g><g stroke-linecap="round" transform="translate(110.18316919643394 317.7793366859455) rotate(43.75078643010924 3.607843137254804 3.607843137254804)"><path d="M7.22 3.61 C7.22 3.82, 7.2 4.03, 7.16 4.23 C7.12 4.44, 7.07 4.65, 7 4.84 C6.93 5.04, 6.84 5.23, 6.73 5.41 C6.63 5.59, 6.51 5.77, 6.37 5.93 C6.24 6.09, 6.09 6.24, 5.93 6.37 C5.77 6.51, 5.59 6.63, 5.41 6.73 C5.23 6.84, 5.04 6.93, 4.84 7 C4.65 7.07, 4.44 7.12, 4.23 7.16 C4.03 7.2, 3.82 7.22, 3.61 7.22 C3.4 7.22, 3.19 7.2, 2.98 7.16 C2.78 7.12, 2.57 7.07, 2.37 7 C2.18 6.93, 1.98 6.84, 1.8 6.73 C1.62 6.63, 1.45 6.51, 1.29 6.37 C1.13 6.24, 0.98 6.09, 0.84 5.93 C0.71 5.77, 0.59 5.59, 0.48 5.41 C0.38 5.23, 0.29 5.04, 0.22 4.84 C0.15 4.65, 0.09 4.44, 0.05 4.23 C0.02 4.03, 0 3.82, 0 3.61 C0 3.4, 0.02 3.19, 0.05 2.98 C0.09 2.78, 0.15 2.57, 0.22 2.37 C0.29 2.18, 0.38 1.98, 0.48 1.8 C0.59 1.62, 0.71 1.45, 0.84 1.29 C0.98 1.13, 1.13 0.98, 1.29 0.84 C1.45 0.71, 1.62 0.59, 1.8 0.48 C1.98 0.38, 2.18 0.29, 2.37 0.22 C2.57 0.15, 2.78 0.09, 2.98 0.05 C3.19 0.02, 3.4 0, 3.61 0 C3.82 0, 4.03 0.02, 4.23 0.05 C4.44 0.09, 4.65 0.15, 4.84 0.22 C5.04 0.29, 5.23 0.38, 5.41 0.48 C5.59 0.59, 5.77 0.71, 5.93 0.84 C6.09 0.98, 6.24 1.13, 6.37 1.29 C6.51 1.45, 6.63 1.62, 6.73 1.8 C6.84 1.98, 6.93 2.18, 7 2.37 C7.07 2.57, 7.12 2.78, 7.16 2.98 C7.2 3.19, 7.21 3.5, 7.22 3.61 C7.22 3.71, 7.22 3.5, 7.22 3.61" stroke="none" stroke-width="0" fill="#ffffff"></path><path d="M7.22 3.61 C7.22 3.82, 7.2 4.03, 7.16 4.23 C7.12 4.44, 7.07 4.65, 7 4.84 C6.93 5.04, 6.84 5.23, 6.73 5.41 C6.63 5.59, 6.51 5.77, 6.37 5.93 C6.24 6.09, 6.09 6.24, 5.93 6.37 C5.77 6.51, 5.59 6.63, 5.41 6.73 C5.23 6.84, 5.04 6.93, 4.84 7 C4.65 7.07, 4.44 7.12, 4.23 7.16 C4.03 7.2, 3.82 7.22, 3.61 7.22 C3.4 7.22, 3.19 7.2, 2.98 7.16 C2.78 7.12, 2.57 7.07, 2.37 7 C2.18 6.93, 1.98 6.84, 1.8 6.73 C1.62 6.63, 1.45 6.51, 1.29 6.37 C1.13 6.24, 0.98 6.09, 0.84 5.93 C0.71 5.77, 0.59 5.59, 0.48 5.41 C0.38 5.23, 0.29 5.04, 0.22 4.84 C0.15 4.65, 0.09 4.44, 0.05 4.23 C0.02 4.03, 0 3.82, 0 3.61 C0 3.4, 0.02 3.19, 0.05 2.98 C0.09 2.78, 0.15 2.57, 0.22 2.37 C0.29 2.18, 0.38 1.98, 0.48 1.8 C0.59 1.62, 0.71 1.45, 0.84 1.29 C0.98 1.13, 1.13 0.98, 1.29 0.84 C1.45 0.71, 1.62 0.59, 1.8 0.48 C1.98 0.38, 2.18 0.29, 2.37 0.22 C2.57 0.15, 2.78 0.09, 2.98 0.05 C3.19 0.02, 3.4 0, 3.61 0 C3.82 0, 4.03 0.02, 4.23 0.05 C4.44 0.09, 4.65 0.15, 4.84 0.22 C5.04 0.29, 5.23 0.38, 5.41 0.48 C5.59 0.59, 5.77 0.71, 5.93 0.84 C6.09 0.98, 6.24 1.13, 6.37 1.29 C6.51 1.45, 6.63 1.62, 6.73 1.8 C6.84 1.98, 6.93 2.18, 7 2.37 C7.07 2.57, 7.12 2.78, 7.16 2.98 C7.2 3.19, 7.21 3.5, 7.22 3.61 C7.22 3.71, 7.22 3.5, 7.22 3.61" stroke="#ffffff" stroke-width="4" fill="none"></path></g><g stroke-linecap="round" transform="translate(184.69403506333356 253.3002214057924) rotate(370.2046778462014 57.50000000000023 57.5)"><path d="M115 57.5 C115 59.81, 114.86 62.14, 114.58 64.43 C114.3 66.72, 113.88 69.02, 113.33 71.26 C112.78 73.5, 112.08 75.73, 111.26 77.89 C110.44 80.05, 109.49 82.18, 108.41 84.22 C107.34 86.27, 106.13 88.26, 104.82 90.16 C103.51 92.07, 102.07 93.9, 100.54 95.63 C99.01 97.36, 97.36 99.01, 95.63 100.54 C93.9 102.07, 92.07 103.51, 90.16 104.82 C88.26 106.13, 86.27 107.34, 84.22 108.41 C82.18 109.49, 80.05 110.44, 77.89 111.26 C75.73 112.08, 73.5 112.78, 71.26 113.33 C69.02 113.88, 66.72 114.3, 64.43 114.58 C62.14 114.86, 59.81 115, 57.5 115 C55.19 115, 52.86 114.86, 50.57 114.58 C48.28 114.3, 45.98 113.88, 43.74 113.33 C41.5 112.78, 39.27 112.08, 37.11 111.26 C34.95 110.44, 32.82 109.49, 30.78 108.41 C28.73 107.34, 26.74 106.13, 24.84 104.82 C22.93 103.51, 21.1 102.07, 19.37 100.54 C17.64 99.01, 15.99 97.36, 14.46 95.63 C12.93 93.9, 11.49 92.07, 10.18 90.16 C8.87 88.26, 7.66 86.27, 6.59 84.22 C5.51 82.18, 4.56 80.05, 3.74 77.89 C2.92 75.73, 2.22 73.5, 1.67 71.26 C1.12 69.02, 0.7 66.72, 0.42 64.43 C0.14 62.14, 0 59.81, 0 57.5 C0 55.19, 0.14 52.86, 0.42 50.57 C0.7 48.28, 1.12 45.98, 1.67 43.74 C2.22 41.5, 2.92 39.27, 3.74 37.11 C4.56 34.95, 5.51 32.82, 6.59 30.78 C7.66 28.73, 8.87 26.74, 10.18 24.84 C11.49 22.93, 12.93 21.1, 14.46 19.37 C15.99 17.64, 17.64 15.99, 19.37 14.46 C21.1 12.93, 22.93 11.49, 24.84 10.18 C26.74 8.87, 28.73 7.66, 30.78 6.59 C32.82 5.51, 34.95 4.56, 37.11 3.74 C39.27 2.92, 41.5 2.22, 43.74 1.67 C45.98 1.12, 48.28 0.7, 50.57 0.42 C52.86 0.14, 55.19 0, 57.5 0 C59.81 0, 62.14 0.14, 64.43 0.42 C66.72 0.7, 69.02 1.12, 71.26 1.67 C73.5 2.22, 75.73 2.92, 77.89 3.74 C80.05 4.56, 82.18 5.51, 84.22 6.59 C86.27 7.66, 88.26 8.87, 90.16 10.18 C92.07 11.49, 93.9 12.93, 95.63 14.46 C97.36 15.99, 99.01 17.64, 100.54 19.37 C102.07 21.1, 103.51 22.93, 104.82 24.84 C106.13 26.74, 107.34 28.73, 108.41 30.78 C109.49 32.82, 110.44 34.95, 111.26 37.11 C112.08 39.27, 112.78 41.5, 113.33 43.74 C113.88 45.98, 114.3 48.28, 114.58 50.57 C114.86 52.86, 115 55.19, 115 57.5" stroke="#000000" stroke-width="4" fill="none"></path></g><g stroke-linecap="round" transform="translate(204.62770705870435 290.3490985247131) rotate(370.2046778462014 38.10784313725503 18.715686274509835)"><path d="M76.22 18.72 C76.22 19.8, 76.02 20.9, 75.64 21.97 C75.25 23.03, 74.67 24.1, 73.92 25.12 C73.16 26.13, 72.21 27.14, 71.11 28.07 C70.01 29.01, 68.72 29.92, 67.3 30.75 C65.88 31.58, 64.29 32.36, 62.6 33.05 C60.91 33.75, 59.07 34.38, 57.16 34.92 C55.25 35.47, 53.21 35.93, 51.14 36.3 C49.07 36.67, 46.9 36.96, 44.73 37.15 C42.55 37.34, 40.31 37.43, 38.11 37.43 C35.9 37.43, 33.66 37.34, 31.49 37.15 C29.32 36.96, 27.15 36.67, 25.07 36.3 C23 35.93, 20.96 35.47, 19.05 34.92 C17.14 34.38, 15.3 33.75, 13.61 33.05 C11.92 32.36, 10.33 31.58, 8.92 30.75 C7.5 29.92, 6.21 29.01, 5.11 28.07 C4 27.14, 3.05 26.13, 2.3 25.12 C1.54 24.1, 0.96 23.03, 0.58 21.97 C0.2 20.9, 0 19.8, 0 18.72 C0 17.63, 0.2 16.53, 0.58 15.47 C0.96 14.4, 1.54 13.33, 2.3 12.31 C3.05 11.3, 4 10.3, 5.11 9.36 C6.21 8.42, 7.5 7.52, 8.92 6.69 C10.33 5.86, 11.92 5.07, 13.61 4.38 C15.3 3.68, 17.14 3.05, 19.05 2.51 C20.96 1.97, 23 1.5, 25.07 1.13 C27.15 0.76, 29.32 0.47, 31.49 0.28 C33.66 0.1, 35.9 0, 38.11 0 C40.31 0, 42.55 0.1, 44.73 0.28 C46.9 0.47, 49.07 0.76, 51.14 1.13 C53.21 1.5, 55.25 1.97, 57.16 2.51 C59.07 3.05, 60.91 3.68, 62.6 4.38 C64.29 5.07, 65.88 5.86, 67.3 6.69 C68.72 7.52, 70.01 8.42, 71.11 9.36 C72.21 10.3, 73.16 11.3, 73.92 12.31 C74.67 13.33, 75.25 14.4, 75.64 15.47 C76.02 16.53, 76.12 18.17, 76.22 18.72 C76.31 19.26, 76.31 18.17, 76.22 18.72" stroke="#000000" stroke-width="4" fill="none"></path></g><g stroke-linecap="round" transform="translate(230.9736780045896 297.74675900739066) rotate(370.2046778462014 11.5 11.5)"><path d="M23 11.5 C23 12.17, 22.94 12.84, 22.83 13.5 C22.71 14.15, 22.53 14.81, 22.31 15.43 C22.08 16.06, 21.79 16.67, 21.46 17.25 C21.13 17.83, 20.74 18.38, 20.31 18.89 C19.88 19.4, 19.4 19.88, 18.89 20.31 C18.38 20.74, 17.83 21.13, 17.25 21.46 C16.67 21.79, 16.06 22.08, 15.43 22.31 C14.81 22.53, 14.15 22.71, 13.5 22.83 C12.84 22.94, 12.17 23, 11.5 23 C10.83 23, 10.16 22.94, 9.5 22.83 C8.85 22.71, 8.19 22.53, 7.57 22.31 C6.94 22.08, 6.33 21.79, 5.75 21.46 C5.17 21.13, 4.62 20.74, 4.11 20.31 C3.6 19.88, 3.12 19.4, 2.69 18.89 C2.26 18.38, 1.87 17.83, 1.54 17.25 C1.21 16.67, 0.92 16.06, 0.69 15.43 C0.47 14.81, 0.29 14.15, 0.17 13.5 C0.06 12.84, 0 12.17, 0 11.5 C0 10.83, 0.06 10.16, 0.17 9.5 C0.29 8.85, 0.47 8.19, 0.69 7.57 C0.92 6.94, 1.21 6.33, 1.54 5.75 C1.87 5.17, 2.26 4.62, 2.69 4.11 C3.12 3.6, 3.6 3.12, 4.11 2.69 C4.62 2.26, 5.17 1.87, 5.75 1.54 C6.33 1.21, 6.94 0.92, 7.57 0.69 C8.19 0.47, 8.85 0.29, 9.5 0.17 C10.16 0.06, 10.83 0, 11.5 0 C12.17 0, 12.84 0.06, 13.5 0.17 C14.15 0.29, 14.81 0.47, 15.43 0.69 C16.06 0.92, 16.67 1.21, 17.25 1.54 C17.83 1.87, 18.38 2.26, 18.89 2.69 C19.4 3.12, 19.88 3.6, 20.31 4.11 C20.74 4.62, 21.13 5.17, 21.46 5.75 C21.79 6.33, 22.08 6.94, 22.31 7.57 C22.53 8.19, 22.71 8.85, 22.83 9.5 C22.94 10.16, 22.97 11.17, 23 11.5 C23.03 11.83, 23.03 11.17, 23 11.5" stroke="none" stroke-width="0" fill="#000000"></path><path d="M23 11.5 C23 12.17, 22.94 12.84, 22.83 13.5 C22.71 14.15, 22.53 14.81, 22.31 15.43 C22.08 16.06, 21.79 16.67, 21.46 17.25 C21.13 17.83, 20.74 18.38, 20.31 18.89 C19.88 19.4, 19.4 19.88, 18.89 20.31 C18.38 20.74, 17.83 21.13, 17.25 21.46 C16.67 21.79, 16.06 22.08, 15.43 22.31 C14.81 22.53, 14.15 22.71, 13.5 22.83 C12.84 22.94, 12.17 23, 11.5 23 C10.83 23, 10.16 22.94, 9.5 22.83 C8.85 22.71, 8.19 22.53, 7.57 22.31 C6.94 22.08, 6.33 21.79, 5.75 21.46 C5.17 21.13, 4.62 20.74, 4.11 20.31 C3.6 19.88, 3.12 19.4, 2.69 18.89 C2.26 18.38, 1.87 17.83, 1.54 17.25 C1.21 16.67, 0.92 16.06, 0.69 15.43 C0.47 14.81, 0.29 14.15, 0.17 13.5 C0.06 12.84, 0 12.17, 0 11.5 C0 10.83, 0.06 10.16, 0.17 9.5 C0.29 8.85, 0.47 8.19, 0.69 7.57 C0.92 6.94, 1.21 6.33, 1.54 5.75 C1.87 5.17, 2.26 4.62, 2.69 4.11 C3.12 3.6, 3.6 3.12, 4.11 2.69 C4.62 2.26, 5.17 1.87, 5.75 1.54 C6.33 1.21, 6.94 0.92, 7.57 0.69 C8.19 0.47, 8.85 0.29, 9.5 0.17 C10.16 0.06, 10.83 0, 11.5 0 C12.17 0, 12.84 0.06, 13.5 0.17 C14.15 0.29, 14.81 0.47, 15.43 0.69 C16.06 0.92, 16.67 1.21, 17.25 1.54 C17.83 1.87, 18.38 2.26, 18.89 2.69 C19.4 3.12, 19.88 3.6, 20.31 4.11 C20.74 4.62, 21.13 5.17, 21.46 5.75 C21.79 6.33, 22.08 6.94, 22.31 7.57 C22.53 8.19, 22.71 8.85, 22.83 9.5 C22.94 10.16, 22.97 11.17, 23 11.5 C23.03 11.83, 23.03 11.17, 23 11.5" stroke="#000000" stroke-width="4" fill="none"></path></g><g stroke-linecap="round" transform="translate(236.4202721779725 302.678423781741) rotate(370.2046778462014 3.607843137254804 3.607843137254804)"><path d="M7.22 3.61 C7.22 3.82, 7.2 4.03, 7.16 4.23 C7.12 4.44, 7.07 4.65, 7 4.84 C6.93 5.04, 6.84 5.23, 6.73 5.41 C6.63 5.59, 6.51 5.77, 6.37 5.93 C6.24 6.09, 6.09 6.24, 5.93 6.37 C5.77 6.51, 5.59 6.63, 5.41 6.73 C5.23 6.84, 5.04 6.93, 4.84 7 C4.65 7.07, 4.44 7.12, 4.23 7.16 C4.03 7.2, 3.82 7.22, 3.61 7.22 C3.4 7.22, 3.19 7.2, 2.98 7.16 C2.78 7.12, 2.57 7.07, 2.37 7 C2.18 6.93, 1.98 6.84, 1.8 6.73 C1.62 6.63, 1.45 6.51, 1.29 6.37 C1.13 6.24, 0.98 6.09, 0.84 5.93 C0.71 5.77, 0.59 5.59, 0.48 5.41 C0.38 5.23, 0.29 5.04, 0.22 4.84 C0.15 4.65, 0.09 4.44, 0.05 4.23 C0.02 4.03, 0 3.82, 0 3.61 C0 3.4, 0.02 3.19, 0.05 2.98 C0.09 2.78, 0.15 2.57, 0.22 2.37 C0.29 2.18, 0.38 1.98, 0.48 1.8 C0.59 1.62, 0.71 1.45, 0.84 1.29 C0.98 1.13, 1.13 0.98, 1.29 0.84 C1.45 0.71, 1.62 0.59, 1.8 0.48 C1.98 0.38, 2.18 0.29, 2.37 0.22 C2.57 0.15, 2.78 0.09, 2.98 0.05 C3.19 0.02, 3.4 0, 3.61 0 C3.82 0, 4.03 0.02, 4.23 0.05 C4.44 0.09, 4.65 0.15, 4.84 0.22 C5.04 0.29, 5.23 0.38, 5.41 0.48 C5.59 0.59, 5.77 0.71, 5.93 0.84 C6.09 0.98, 6.24 1.13, 6.37 1.29 C6.51 1.45, 6.63 1.62, 6.73 1.8 C6.84 1.98, 6.93 2.18, 7 2.37 C7.07 2.57, 7.12 2.78, 7.16 2.98 C7.2 3.19, 7.21 3.5, 7.22 3.61 C7.22 3.71, 7.22 3.5, 7.22 3.61" stroke="none" stroke-width="0" fill="#ffffff"></path><path d="M7.22 3.61 C7.22 3.82, 7.2 4.03, 7.16 4.23 C7.12 4.44, 7.07 4.65, 7 4.84 C6.93 5.04, 6.84 5.23, 6.73 5.41 C6.63 5.59, 6.51 5.77, 6.37 5.93 C6.24 6.09, 6.09 6.24, 5.93 6.37 C5.77 6.51, 5.59 6.63, 5.41 6.73 C5.23 6.84, 5.04 6.93, 4.84 7 C4.65 7.07, 4.44 7.12, 4.23 7.16 C4.03 7.2, 3.82 7.22, 3.61 7.22 C3.4 7.22, 3.19 7.2, 2.98 7.16 C2.78 7.12, 2.57 7.07, 2.37 7 C2.18 6.93, 1.98 6.84, 1.8 6.73 C1.62 6.63, 1.45 6.51, 1.29 6.37 C1.13 6.24, 0.98 6.09, 0.84 5.93 C0.71 5.77, 0.59 5.59, 0.48 5.41 C0.38 5.23, 0.29 5.04, 0.22 4.84 C0.15 4.65, 0.09 4.44, 0.05 4.23 C0.02 4.03, 0 3.82, 0 3.61 C0 3.4, 0.02 3.19, 0.05 2.98 C0.09 2.78, 0.15 2.57, 0.22 2.37 C0.29 2.18, 0.38 1.98, 0.48 1.8 C0.59 1.62, 0.71 1.45, 0.84 1.29 C0.98 1.13, 1.13 0.98, 1.29 0.84 C1.45 0.71, 1.62 0.59, 1.8 0.48 C1.98 0.38, 2.18 0.29, 2.37 0.22 C2.57 0.15, 2.78 0.09, 2.98 0.05 C3.19 0.02, 3.4 0, 3.61 0 C3.82 0, 4.03 0.02, 4.23 0.05 C4.44 0.09, 4.65 0.15, 4.84 0.22 C5.04 0.29, 5.23 0.38, 5.41 0.48 C5.59 0.59, 5.77 0.71, 5.93 0.84 C6.09 0.98, 6.24 1.13, 6.37 1.29 C6.51 1.45, 6.63 1.62, 6.73 1.8 C6.84 1.98, 6.93 2.18, 7 2.37 C7.07 2.57, 7.12 2.78, 7.16 2.98 C7.2 3.19, 7.21 3.5, 7.22 3.61 C7.22 3.71, 7.22 3.5, 7.22 3.61" stroke="#ffffff" stroke-width="4" fill="none"></path></g><g stroke-linecap="round" transform="translate(320.02480016134086 241.14902969456352) rotate(310.6115134945268 57.5 57.5)"><path d="M115 57.5 C115 59.81, 114.86 62.14, 114.58 64.43 C114.3 66.72, 113.88 69.02, 113.33 71.26 C112.78 73.5, 112.08 75.73, 111.26 77.89 C110.44 80.05, 109.49 82.18, 108.41 84.22 C107.34 86.27, 106.13 88.26, 104.82 90.16 C103.51 92.07, 102.07 93.9, 100.54 95.63 C99.01 97.36, 97.36 99.01, 95.63 100.54 C93.9 102.07, 92.07 103.51, 90.16 104.82 C88.26 106.13, 86.27 107.34, 84.22 108.41 C82.18 109.49, 80.05 110.44, 77.89 111.26 C75.73 112.08, 73.5 112.78, 71.26 113.33 C69.02 113.88, 66.72 114.3, 64.43 114.58 C62.14 114.86, 59.81 115, 57.5 115 C55.19 115, 52.86 114.86, 50.57 114.58 C48.28 114.3, 45.98 113.88, 43.74 113.33 C41.5 112.78, 39.27 112.08, 37.11 111.26 C34.95 110.44, 32.82 109.49, 30.78 108.41 C28.73 107.34, 26.74 106.13, 24.84 104.82 C22.93 103.51, 21.1 102.07, 19.37 100.54 C17.64 99.01, 15.99 97.36, 14.46 95.63 C12.93 93.9, 11.49 92.07, 10.18 90.16 C8.87 88.26, 7.66 86.27, 6.59 84.22 C5.51 82.18, 4.56 80.05, 3.74 77.89 C2.92 75.73, 2.22 73.5, 1.67 71.26 C1.12 69.02, 0.7 66.72, 0.42 64.43 C0.14 62.14, 0 59.81, 0 57.5 C0 55.19, 0.14 52.86, 0.42 50.57 C0.7 48.28, 1.12 45.98, 1.67 43.74 C2.22 41.5, 2.92 39.27, 3.74 37.11 C4.56 34.95, 5.51 32.82, 6.59 30.78 C7.66 28.73, 8.87 26.74, 10.18 24.84 C11.49 22.93, 12.93 21.1, 14.46 19.37 C15.99 17.64, 17.64 15.99, 19.37 14.46 C21.1 12.93, 22.93 11.49, 24.84 10.18 C26.74 8.87, 28.73 7.66, 30.78 6.59 C32.82 5.51, 34.95 4.56, 37.11 3.74 C39.27 2.92, 41.5 2.22, 43.74 1.67 C45.98 1.12, 48.28 0.7, 50.57 0.42 C52.86 0.14, 55.19 0, 57.5 0 C59.81 0, 62.14 0.14, 64.43 0.42 C66.72 0.7, 69.02 1.12, 71.26 1.67 C73.5 2.22, 75.73 2.92, 77.89 3.74 C80.05 4.56, 82.18 5.51, 84.22 6.59 C86.27 7.66, 88.26 8.87, 90.16 10.18 C92.07 11.49, 93.9 12.93, 95.63 14.46 C97.36 15.99, 99.01 17.64, 100.54 19.37 C102.07 21.1, 103.51 22.93, 104.82 24.84 C106.13 26.74, 107.34 28.73, 108.41 30.78 C109.49 32.82, 110.44 34.95, 111.26 37.11 C112.08 39.27, 112.78 41.5, 113.33 43.74 C113.88 45.98, 114.3 48.28, 114.58 50.57 C114.86 52.86, 115 55.19, 115 57.5" stroke="#000000" stroke-width="4" fill="none"></path></g><g stroke-linecap="round" transform="translate(338.19430467338407 278.58794382008045) rotate(310.6115134945268 38.107843137254804 18.715686274509835)"><path d="M76.22 18.72 C76.22 19.8, 76.02 20.9, 75.64 21.97 C75.25 23.03, 74.67 24.1, 73.92 25.12 C73.16 26.13, 72.21 27.14, 71.11 28.07 C70.01 29.01, 68.72 29.92, 67.3 30.75 C65.88 31.58, 64.29 32.36, 62.6 33.05 C60.91 33.75, 59.07 34.38, 57.16 34.92 C55.25 35.47, 53.21 35.93, 51.14 36.3 C49.07 36.67, 46.9 36.96, 44.73 37.15 C42.55 37.34, 40.31 37.43, 38.11 37.43 C35.9 37.43, 33.66 37.34, 31.49 37.15 C29.32 36.96, 27.15 36.67, 25.07 36.3 C23 35.93, 20.96 35.47, 19.05 34.92 C17.14 34.38, 15.3 33.75, 13.61 33.05 C11.92 32.36, 10.33 31.58, 8.92 30.75 C7.5 29.92, 6.21 29.01, 5.11 28.07 C4 27.14, 3.05 26.13, 2.3 25.12 C1.54 24.1, 0.96 23.03, 0.58 21.97 C0.2 20.9, 0 19.8, 0 18.72 C0 17.63, 0.2 16.53, 0.58 15.47 C0.96 14.4, 1.54 13.33, 2.3 12.31 C3.05 11.3, 4 10.3, 5.11 9.36 C6.21 8.42, 7.5 7.52, 8.92 6.69 C10.33 5.86, 11.92 5.07, 13.61 4.38 C15.3 3.68, 17.14 3.05, 19.05 2.51 C20.96 1.97, 23 1.5, 25.07 1.13 C27.15 0.76, 29.32 0.47, 31.49 0.28 C33.66 0.1, 35.9 0, 38.11 0 C40.31 0, 42.55 0.1, 44.73 0.28 C46.9 0.47, 49.07 0.76, 51.14 1.13 C53.21 1.5, 55.25 1.97, 57.16 2.51 C59.07 3.05, 60.91 3.68, 62.6 4.38 C64.29 5.07, 65.88 5.86, 67.3 6.69 C68.72 7.52, 70.01 8.42, 71.11 9.36 C72.21 10.3, 73.16 11.3, 73.92 12.31 C74.67 13.33, 75.25 14.4, 75.64 15.47 C76.02 16.53, 76.12 18.17, 76.22 18.72 C76.31 19.26, 76.31 18.17, 76.22 18.72" stroke="#000000" stroke-width="4" fill="none"></path></g><g stroke-linecap="round" transform="translate(364.8265489484347 286.1215864461924) rotate(310.6115134945268 11.5 11.5)"><path d="M23 11.5 C23 12.17, 22.94 12.84, 22.83 13.5 C22.71 14.15, 22.53 14.81, 22.31 15.43 C22.08 16.06, 21.79 16.67, 21.46 17.25 C21.13 17.83, 20.74 18.38, 20.31 18.89 C19.88 19.4, 19.4 19.88, 18.89 20.31 C18.38 20.74, 17.83 21.13, 17.25 21.46 C16.67 21.79, 16.06 22.08, 15.43 22.31 C14.81 22.53, 14.15 22.71, 13.5 22.83 C12.84 22.94, 12.17 23, 11.5 23 C10.83 23, 10.16 22.94, 9.5 22.83 C8.85 22.71, 8.19 22.53, 7.57 22.31 C6.94 22.08, 6.33 21.79, 5.75 21.46 C5.17 21.13, 4.62 20.74, 4.11 20.31 C3.6 19.88, 3.12 19.4, 2.69 18.89 C2.26 18.38, 1.87 17.83, 1.54 17.25 C1.21 16.67, 0.92 16.06, 0.69 15.43 C0.47 14.81, 0.29 14.15, 0.17 13.5 C0.06 12.84, 0 12.17, 0 11.5 C0 10.83, 0.06 10.16, 0.17 9.5 C0.29 8.85, 0.47 8.19, 0.69 7.57 C0.92 6.94, 1.21 6.33, 1.54 5.75 C1.87 5.17, 2.26 4.62, 2.69 4.11 C3.12 3.6, 3.6 3.12, 4.11 2.69 C4.62 2.26, 5.17 1.87, 5.75 1.54 C6.33 1.21, 6.94 0.92, 7.57 0.69 C8.19 0.47, 8.85 0.29, 9.5 0.17 C10.16 0.06, 10.83 0, 11.5 0 C12.17 0, 12.84 0.06, 13.5 0.17 C14.15 0.29, 14.81 0.47, 15.43 0.69 C16.06 0.92, 16.67 1.21, 17.25 1.54 C17.83 1.87, 18.38 2.26, 18.89 2.69 C19.4 3.12, 19.88 3.6, 20.31 4.11 C20.74 4.62, 21.13 5.17, 21.46 5.75 C21.79 6.33, 22.08 6.94, 22.31 7.57 C22.53 8.19, 22.71 8.85, 22.83 9.5 C22.94 10.16, 22.97 11.17, 23 11.5 C23.03 11.83, 23.03 11.17, 23 11.5" stroke="none" stroke-width="0" fill="#000000"></path><path d="M23 11.5 C23 12.17, 22.94 12.84, 22.83 13.5 C22.71 14.15, 22.53 14.81, 22.31 15.43 C22.08 16.06, 21.79 16.67, 21.46 17.25 C21.13 17.83, 20.74 18.38, 20.31 18.89 C19.88 19.4, 19.4 19.88, 18.89 20.31 C18.38 20.74, 17.83 21.13, 17.25 21.46 C16.67 21.79, 16.06 22.08, 15.43 22.31 C14.81 22.53, 14.15 22.71, 13.5 22.83 C12.84 22.94, 12.17 23, 11.5 23 C10.83 23, 10.16 22.94, 9.5 22.83 C8.85 22.71, 8.19 22.53, 7.57 22.31 C6.94 22.08, 6.33 21.79, 5.75 21.46 C5.17 21.13, 4.62 20.74, 4.11 20.31 C3.6 19.88, 3.12 19.4, 2.69 18.89 C2.26 18.38, 1.87 17.83, 1.54 17.25 C1.21 16.67, 0.92 16.06, 0.69 15.43 C0.47 14.81, 0.29 14.15, 0.17 13.5 C0.06 12.84, 0 12.17, 0 11.5 C0 10.83, 0.06 10.16, 0.17 9.5 C0.29 8.85, 0.47 8.19, 0.69 7.57 C0.92 6.94, 1.21 6.33, 1.54 5.75 C1.87 5.17, 2.26 4.62, 2.69 4.11 C3.12 3.6, 3.6 3.12, 4.11 2.69 C4.62 2.26, 5.17 1.87, 5.75 1.54 C6.33 1.21, 6.94 0.92, 7.57 0.69 C8.19 0.47, 8.85 0.29, 9.5 0.17 C10.16 0.06, 10.83 0, 11.5 0 C12.17 0, 12.84 0.06, 13.5 0.17 C14.15 0.29, 14.81 0.47, 15.43 0.69 C16.06 0.92, 16.67 1.21, 17.25 1.54 C17.83 1.87, 18.38 2.26, 18.89 2.69 C19.4 3.12, 19.88 3.6, 20.31 4.11 C20.74 4.62, 21.13 5.17, 21.46 5.75 C21.79 6.33, 22.08 6.94, 22.31 7.57 C22.53 8.19, 22.71 8.85, 22.83 9.5 C22.94 10.16, 22.97 11.17, 23 11.5 C23.03 11.83, 23.03 11.17, 23 11.5" stroke="#000000" stroke-width="4" fill="none"></path></g><g stroke-linecap="round" transform="translate(368.9276307296341 294.624513314041) rotate(310.6115134945268 3.607843137254804 3.607843137254804)"><path d="M7.22 3.61 C7.22 3.82, 7.2 4.03, 7.16 4.23 C7.12 4.44, 7.07 4.65, 7 4.84 C6.93 5.04, 6.84 5.23, 6.73 5.41 C6.63 5.59, 6.51 5.77, 6.37 5.93 C6.24 6.09, 6.09 6.24, 5.93 6.37 C5.77 6.51, 5.59 6.63, 5.41 6.73 C5.23 6.84, 5.04 6.93, 4.84 7 C4.65 7.07, 4.44 7.12, 4.23 7.16 C4.03 7.2, 3.82 7.22, 3.61 7.22 C3.4 7.22, 3.19 7.2, 2.98 7.16 C2.78 7.12, 2.57 7.07, 2.37 7 C2.18 6.93, 1.98 6.84, 1.8 6.73 C1.62 6.63, 1.45 6.51, 1.29 6.37 C1.13 6.24, 0.98 6.09, 0.84 5.93 C0.71 5.77, 0.59 5.59, 0.48 5.41 C0.38 5.23, 0.29 5.04, 0.22 4.84 C0.15 4.65, 0.09 4.44, 0.05 4.23 C0.02 4.03, 0 3.82, 0 3.61 C0 3.4, 0.02 3.19, 0.05 2.98 C0.09 2.78, 0.15 2.57, 0.22 2.37 C0.29 2.18, 0.38 1.98, 0.48 1.8 C0.59 1.62, 0.71 1.45, 0.84 1.29 C0.98 1.13, 1.13 0.98, 1.29 0.84 C1.45 0.71, 1.62 0.59, 1.8 0.48 C1.98 0.38, 2.18 0.29, 2.37 0.22 C2.57 0.15, 2.78 0.09, 2.98 0.05 C3.19 0.02, 3.4 0, 3.61 0 C3.82 0, 4.03 0.02, 4.23 0.05 C4.44 0.09, 4.65 0.15, 4.84 0.22 C5.04 0.29, 5.23 0.38, 5.41 0.48 C5.59 0.59, 5.77 0.71, 5.93 0.84 C6.09 0.98, 6.24 1.13, 6.37 1.29 C6.51 1.45, 6.63 1.62, 6.73 1.8 C6.84 1.98, 6.93 2.18, 7 2.37 C7.07 2.57, 7.12 2.78, 7.16 2.98 C7.2 3.19, 7.21 3.5, 7.22 3.61 C7.22 3.71, 7.22 3.5, 7.22 3.61" stroke="none" stroke-width="0" fill="#ffffff"></path><path d="M7.22 3.61 C7.22 3.82, 7.2 4.03, 7.16 4.23 C7.12 4.44, 7.07 4.65, 7 4.84 C6.93 5.04, 6.84 5.23, 6.73 5.41 C6.63 5.59, 6.51 5.77, 6.37 5.93 C6.24 6.09, 6.09 6.24, 5.93 6.37 C5.77 6.51, 5.59 6.63, 5.41 6.73 C5.23 6.84, 5.04 6.93, 4.84 7 C4.65 7.07, 4.44 7.12, 4.23 7.16 C4.03 7.2, 3.82 7.22, 3.61 7.22 C3.4 7.22, 3.19 7.2, 2.98 7.16 C2.78 7.12, 2.57 7.07, 2.37 7 C2.18 6.93, 1.98 6.84, 1.8 6.73 C1.62 6.63, 1.45 6.51, 1.29 6.37 C1.13 6.24, 0.98 6.09, 0.84 5.93 C0.71 5.77, 0.59 5.59, 0.48 5.41 C0.38 5.23, 0.29 5.04, 0.22 4.84 C0.15 4.65, 0.09 4.44, 0.05 4.23 C0.02 4.03, 0 3.82, 0 3.61 C0 3.4, 0.02 3.19, 0.05 2.98 C0.09 2.78, 0.15 2.57, 0.22 2.37 C0.29 2.18, 0.38 1.98, 0.48 1.8 C0.59 1.62, 0.71 1.45, 0.84 1.29 C0.98 1.13, 1.13 0.98, 1.29 0.84 C1.45 0.71, 1.62 0.59, 1.8 0.48 C1.98 0.38, 2.18 0.29, 2.37 0.22 C2.57 0.15, 2.78 0.09, 2.98 0.05 C3.19 0.02, 3.4 0, 3.61 0 C3.82 0, 4.03 0.02, 4.23 0.05 C4.44 0.09, 4.65 0.15, 4.84 0.22 C5.04 0.29, 5.23 0.38, 5.41 0.48 C5.59 0.59, 5.77 0.71, 5.93 0.84 C6.09 0.98, 6.24 1.13, 6.37 1.29 C6.51 1.45, 6.63 1.62, 6.73 1.8 C6.84 1.98, 6.93 2.18, 7 2.37 C7.07 2.57, 7.12 2.78, 7.16 2.98 C7.2 3.19, 7.21 3.5, 7.22 3.61 C7.22 3.71, 7.22 3.5, 7.22 3.61" stroke="#ffffff" stroke-width="4" fill="none"></path></g><g stroke-linecap="round" transform="translate(10.000000000000455 10) rotate(344.99999999999994 226.93022211512266 226.93022211512266)"><path d="M453.86 226.93 C453.86 231.68, 453.71 236.44, 453.41 241.18 C453.11 245.92, 452.67 250.66, 452.07 255.37 C451.48 260.08, 450.73 264.79, 449.84 269.45 C448.95 274.12, 447.91 278.77, 446.73 283.37 C445.55 287.97, 444.22 292.54, 442.75 297.06 C441.29 301.57, 439.67 306.05, 437.92 310.47 C436.18 314.88, 434.29 319.25, 432.26 323.55 C430.24 327.85, 428.08 332.09, 425.79 336.25 C423.5 340.42, 421.08 344.52, 418.53 348.53 C415.99 352.54, 413.31 356.47, 410.52 360.32 C407.73 364.16, 404.81 367.92, 401.78 371.58 C398.76 375.24, 395.61 378.81, 392.36 382.27 C389.1 385.74, 385.74 389.1, 382.27 392.36 C378.81 395.61, 375.24 398.76, 371.58 401.78 C367.92 404.81, 364.16 407.73, 360.32 410.52 C356.47 413.31, 352.54 415.99, 348.53 418.53 C344.52 421.08, 340.42 423.5, 336.25 425.79 C332.09 428.08, 327.85 430.24, 323.55 432.26 C319.25 434.29, 314.88 436.18, 310.47 437.92 C306.05 439.67, 301.57 441.29, 297.06 442.75 C292.54 444.22, 287.97 445.55, 283.37 446.73 C278.77 447.91, 274.12 448.95, 269.45 449.84 C264.79 450.73, 260.08 451.48, 255.37 452.07 C250.66 452.67, 245.92 453.11, 241.18 453.41 C236.44 453.71, 231.68 453.86, 226.93 453.86 C222.18 453.86, 217.42 453.71, 212.68 453.41 C207.94 453.11, 203.2 452.67, 198.49 452.07 C193.78 451.48, 189.07 450.73, 184.41 449.84 C179.74 448.95, 175.1 447.91, 170.49 446.73 C165.89 445.55, 161.32 444.22, 156.8 442.75 C152.29 441.29, 147.81 439.67, 143.39 437.92 C138.98 436.18, 134.61 434.29, 130.31 432.26 C126.01 430.24, 121.77 428.08, 117.61 425.79 C113.44 423.5, 109.35 421.08, 105.33 418.53 C101.32 415.99, 97.39 413.31, 93.54 410.52 C89.7 407.73, 85.94 404.81, 82.28 401.78 C78.62 398.76, 75.05 395.61, 71.59 392.36 C68.12 389.1, 64.76 385.74, 61.51 382.27 C58.25 378.81, 55.11 375.24, 52.08 371.58 C49.05 367.92, 46.13 364.16, 43.34 360.32 C40.55 356.47, 37.87 352.54, 35.33 348.53 C32.78 344.52, 30.36 340.42, 28.07 336.25 C25.78 332.09, 23.62 327.85, 21.6 323.55 C19.58 319.25, 17.68 314.88, 15.94 310.47 C14.19 306.05, 12.57 301.57, 11.11 297.06 C9.64 292.54, 8.31 287.97, 7.13 283.37 C5.95 278.77, 4.91 274.12, 4.02 269.45 C3.13 264.79, 2.38 260.08, 1.79 255.37 C1.19 250.66, 0.75 245.92, 0.45 241.18 C0.15 236.44, 0 231.68, 0 226.93 C0 222.18, 0.15 217.42, 0.45 212.68 C0.75 207.94, 1.19 203.2, 1.79 198.49 C2.38 193.78, 3.13 189.07, 4.02 184.41 C4.91 179.74, 5.95 175.1, 7.13 170.49 C8.31 165.89, 9.64 161.32, 11.11 156.8 C12.57 152.29, 14.19 147.81, 15.94 143.39 C17.68 138.98, 19.58 134.61, 21.6 130.31 C23.62 126.01, 25.78 121.77, 28.07 117.61 C30.36 113.44, 32.78 109.35, 35.33 105.33 C37.87 101.32, 40.55 97.39, 43.34 93.54 C46.13 89.7, 49.05 85.94, 52.08 82.28 C55.11 78.62, 58.25 75.05, 61.51 71.59 C64.76 68.12, 68.12 64.76, 71.59 61.51 C75.05 58.25, 78.62 55.11, 82.28 52.08 C85.94 49.05, 89.7 46.13, 93.54 43.34 C97.39 40.55, 101.32 37.87, 105.33 35.33 C109.35 32.78, 113.44 30.36, 117.61 28.07 C121.77 25.78, 126.01 23.62, 130.31 21.6 C134.61 19.58, 138.98 17.68, 143.39 15.94 C147.81 14.19, 152.29 12.57, 156.8 11.11 C161.32 9.64, 165.89 8.31, 170.49 7.13 C175.1 5.95, 179.74 4.91, 184.41 4.02 C189.07 3.13, 193.78 2.38, 198.49 1.79 C203.2 1.19, 207.94 0.75, 212.68 0.45 C217.42 0.15, 222.18 0, 226.93 0 C231.68 0, 236.44 0.15, 241.18 0.45 C245.92 0.75, 250.66 1.19, 255.37 1.79 C260.08 2.38, 264.79 3.13, 269.45 4.02 C274.12 4.91, 278.77 5.95, 283.37 7.13 C287.97 8.31, 292.54 9.64, 297.06 11.11 C301.57 12.57, 306.05 14.19, 310.47 15.94 C314.88 17.68, 319.25 19.58, 323.55 21.6 C327.85 23.62, 332.09 25.78, 336.25 28.07 C340.42 30.36, 344.52 32.78, 348.53 35.33 C352.54 37.87, 356.47 40.55, 360.32 43.34 C364.16 46.13, 367.92 49.05, 371.58 52.08 C375.24 55.11, 378.81 58.25, 382.27 61.51 C385.74 64.76, 389.1 68.12, 392.36 71.59 C395.61 75.05, 398.76 78.62, 401.78 82.28 C404.81 85.94, 407.73 89.7, 410.52 93.54 C413.31 97.39, 415.99 101.32, 418.53 105.33 C421.08 109.35, 423.5 113.44, 425.79 117.61 C428.08 121.77, 430.24 126.01, 432.26 130.31 C434.29 134.61, 436.18 138.98, 437.92 143.39 C439.67 147.81, 441.29 152.29, 442.75 156.8 C444.22 161.32, 445.55 165.89, 446.73 170.49 C447.91 175.1, 448.95 179.74, 449.84 184.41 C450.73 189.07, 451.48 193.78, 452.07 198.49 C452.67 203.2, 453.11 207.94, 453.41 212.68 C453.71 217.42, 453.79 224.56, 453.86 226.93 C453.94 229.31, 453.94 224.56, 453.86 226.93" stroke="#000000" stroke-width="4" fill="none"></path></g><g stroke-linecap="round" transform="translate(205.0347712343114 16.73646257453811) rotate(47.00955381302114 35.8512269671312 224.3902046501205)"><path d="M0 0 L71.7 0 L71.7 448.78 L0 448.78" stroke="none" stroke-width="0" fill="#000000"></path><path d="M0 0 C24.07 0, 48.14 0, 71.7 0 M0 0 C26.68 0, 53.37 0, 71.7 0 M71.7 0 C71.7 112.36, 71.7 224.71, 71.7 448.78 M71.7 0 C71.7 113.33, 71.7 226.66, 71.7 448.78 M71.7 448.78 C55.33 448.78, 38.96 448.78, 0 448.78 M71.7 448.78 C47.63 448.78, 23.56 448.78, 0 448.78 M0 448.78 C0 332.79, 0 216.81, 0 0 M0 448.78 C0 285.71, 0 122.65, 0 0" stroke="#000000" stroke-width="1" fill="none"></path></g></svg>