<svg width="24" height="24" viewBox="0 0 24 24" fill="none" xmlns="http://www.w3.org/2000/svg">
<path d="M12 2L21 7V17L12 22L3 17V7L12 2Z" fill="#FFFF59"/>
<path d="M12 7L16.5 9.5V14.5L12 17L7.5 14.5V9.5L12 7Z" fill="white"/>
<path d="M12 2L12.2428 1.56292L12 1.42802L11.7572 1.56292L12 2ZM21 7H21.5V6.7058L21.2428 6.56292L21 7ZM21 17L21.2428 17.4371L21.5 17.2942V17H21ZM12 22L11.7572 22.4371L12 22.572L12.2428 22.4371L12 22ZM3 17H2.5V17.2942L2.75718 17.4371L3 17ZM3 7L2.75718 6.56292L2.5 6.7058V7H3ZM12 7L12.2428 6.56292L12 6.42802L11.7572 6.56292L12 7ZM16.5 9.5H17V9.2058L16.7428 9.06292L16.5 9.5ZM16.5 14.5L16.7428 14.9371L17 14.7942V14.5H16.5ZM12 17L11.7572 17.4371L12 17.572L12.2428 17.4371L12 17ZM7.5 14.5H7V14.7942L7.25718 14.9371L7.5 14.5ZM7.5 9.5L7.25718 9.06292L7 9.2058V9.5H7.5ZM11.7572 2.43708L20.7572 7.43708L21.2428 6.56292L12.2428 1.56292L11.7572 2.43708ZM20.5 7V17H21.5V7H20.5ZM20.7572 16.5629L11.7572 21.5629L12.2428 22.4371L21.2428 17.4371L20.7572 16.5629ZM12.2428 21.5629L3.24282 16.5629L2.75718 17.4371L11.7572 22.4371L12.2428 21.5629ZM3.5 17V7H2.5V17H3.5ZM3.24282 7.43708L12.2428 2.43708L11.7572 1.56292L2.75718 6.56292L3.24282 7.43708ZM2.77925 7.44863L11.7792 11.8772L12.2208 10.9799L3.22075 6.55137L2.77925 7.44863ZM12.2208 11.8772L21.2208 7.44863L20.7792 6.55137L11.7792 10.9799L12.2208 11.8772ZM11.5 11.4286V22H12.5V11.4286H11.5ZM11.7572 7.43708L16.2572 9.93708L16.7428 9.06292L12.2428 6.56292L11.7572 7.43708ZM16 9.5V14.5H17V9.5H16ZM16.2572 14.0629L11.7572 16.5629L12.2428 17.4371L16.7428 14.9371L16.2572 14.0629ZM12.2428 16.5629L7.74282 14.0629L7.25718 14.9371L11.7572 17.4371L12.2428 16.5629ZM8 14.5V9.5H7V14.5H8ZM7.74282 9.93708L12.2428 7.43708L11.7572 6.56292L7.25718 9.06292L7.74282 9.93708Z" fill="black"/>
</svg>
