<svg width="139" height="24" viewBox="0 0 139 24" fill="none" xmlns="http://www.w3.org/2000/svg">
<path d="M0.784 17V6.92H2.814L6.468 11.274L10.108 6.92H12.152V17H10.29V9.608L6.468 14.158L2.632 9.622V17H0.784ZM15.5526 17C15.1979 17 14.8712 16.9113 14.5726 16.734C14.2832 16.5567 14.0499 16.3233 13.8726 16.034C13.7046 15.7447 13.6206 15.4227 13.6206 15.068V12.016H20.0326V10.882C20.0326 10.8353 20.0139 10.798 19.9766 10.77C19.9486 10.7327 19.9112 10.714 19.8646 10.714H13.6206V8.88H19.9346C20.2892 8.88 20.6112 8.96867 20.9006 9.146C21.1992 9.32333 21.4326 9.55667 21.6006 9.846C21.7779 10.1353 21.8666 10.4573 21.8666 10.812V17H15.5526ZM15.6226 15.166H20.0326V13.668H15.4546V14.998C15.4546 15.0447 15.4686 15.0867 15.4966 15.124C15.5339 15.152 15.5759 15.166 15.6226 15.166ZM24.8765 17C24.5218 17 24.1998 16.9113 23.9105 16.734C23.6211 16.5567 23.3878 16.3233 23.2105 16.034C23.0331 15.7447 22.9445 15.4227 22.9445 15.068V10.812C22.9445 10.4573 23.0331 10.1353 23.2105 9.846C23.3878 9.55667 23.6211 9.32333 23.9105 9.146C24.1998 8.96867 24.5218 8.88 24.8765 8.88H31.1765V10.714H24.9465C24.8998 10.714 24.8578 10.7327 24.8205 10.77C24.7925 10.798 24.7785 10.8353 24.7785 10.882V14.998C24.7785 15.0447 24.7925 15.0867 24.8205 15.124C24.8578 15.152 24.8998 15.166 24.9465 15.166H31.1905V17H24.8765ZM32.379 17V6.22H34.213V8.88H38.693C39.0477 8.88 39.3697 8.96867 39.659 9.146C39.9484 9.32333 40.1817 9.55667 40.359 9.846C40.5364 10.1353 40.625 10.4573 40.625 10.812V17H38.791V10.882C38.791 10.8353 38.7724 10.798 38.735 10.77C38.707 10.7327 38.6697 10.714 38.623 10.714H34.381C34.3344 10.714 34.2924 10.7327 34.255 10.77C34.227 10.798 34.213 10.8353 34.213 10.882V17H32.379Z" fill="black"/>
<path d="M70.604 17C70.2493 17 69.9273 16.9113 69.638 16.734C69.3487 16.5567 69.1153 16.3233 68.938 16.034C68.7607 15.7447 68.672 15.4227 68.672 15.068V14.76H70.506V14.998C70.506 15.0447 70.52 15.0867 70.548 15.124C70.5853 15.152 70.6273 15.166 70.674 15.166H74.916C74.9627 15.166 75 15.152 75.028 15.124C75.0653 15.0867 75.084 15.0447 75.084 14.998V14.032C75.084 13.9853 75.0653 13.948 75.028 13.92C75 13.8827 74.9627 13.864 74.916 13.864H70.604C70.2493 13.864 69.9273 13.7753 69.638 13.598C69.3487 13.4207 69.1153 13.1873 68.938 12.898C68.7607 12.6087 68.672 12.2867 68.672 11.932V10.812C68.672 10.4573 68.7607 10.1353 68.938 9.846C69.1153 9.55667 69.3487 9.32333 69.638 9.146C69.9273 8.96867 70.2493 8.88 70.604 8.88H74.986C75.35 8.88 75.6767 8.96867 75.966 9.146C76.2553 9.32333 76.4887 9.55667 76.666 9.846C76.8433 10.1353 76.932 10.4573 76.932 10.812V11.12H75.084V10.882C75.084 10.8353 75.0653 10.798 75.028 10.77C75 10.7327 74.9627 10.714 74.916 10.714H70.674C70.6273 10.714 70.5853 10.7327 70.548 10.77C70.52 10.798 70.506 10.8353 70.506 10.882V11.848C70.506 11.8947 70.52 11.9367 70.548 11.974C70.5853 12.002 70.6273 12.016 70.674 12.016H74.986C75.35 12.016 75.6767 12.1047 75.966 12.282C76.2553 12.4593 76.4887 12.6927 76.666 12.982C76.8433 13.2713 76.932 13.5933 76.932 13.948V15.068C76.932 15.4227 76.8433 15.7447 76.666 16.034C76.4887 16.3233 76.2553 16.5567 75.966 16.734C75.6767 16.9113 75.35 17 74.986 17H70.604ZM79.5437 20.01V18.162H84.4297C84.4763 18.162 84.5137 18.1433 84.5417 18.106C84.579 18.078 84.5977 18.0407 84.5977 17.994V17H80.1177C79.7723 17 79.4503 16.9113 79.1517 16.734C78.8623 16.5567 78.629 16.3233 78.4517 16.034C78.2743 15.7447 78.1857 15.4227 78.1857 15.068V8.908H80.0197V14.998C80.0197 15.0447 80.0337 15.0867 80.0617 15.124C80.099 15.152 80.141 15.166 80.1877 15.166H84.4297C84.4763 15.166 84.5137 15.152 84.5417 15.124C84.579 15.0867 84.5977 15.0447 84.5977 14.998V8.908H86.4317V18.078C86.4317 18.4327 86.3477 18.7547 86.1797 19.044C86.0117 19.3427 85.7783 19.576 85.4797 19.744C85.1903 19.9213 84.8683 20.01 84.5137 20.01H79.5437ZM89.6899 17C89.3353 17 89.0133 16.9113 88.7239 16.734C88.4346 16.5567 88.2013 16.3233 88.0239 16.034C87.8466 15.7447 87.7579 15.4227 87.7579 15.068V14.76H89.5919V14.998C89.5919 15.0447 89.6059 15.0867 89.6339 15.124C89.6713 15.152 89.7133 15.166 89.7599 15.166H94.0019C94.0486 15.166 94.0859 15.152 94.1139 15.124C94.1513 15.0867 94.1699 15.0447 94.1699 14.998V14.032C94.1699 13.9853 94.1513 13.948 94.1139 13.92C94.0859 13.8827 94.0486 13.864 94.0019 13.864H89.6899C89.3353 13.864 89.0133 13.7753 88.7239 13.598C88.4346 13.4207 88.2013 13.1873 88.0239 12.898C87.8466 12.6087 87.7579 12.2867 87.7579 11.932V10.812C87.7579 10.4573 87.8466 10.1353 88.0239 9.846C88.2013 9.55667 88.4346 9.32333 88.7239 9.146C89.0133 8.96867 89.3353 8.88 89.6899 8.88H94.0719C94.4359 8.88 94.7626 8.96867 95.0519 9.146C95.3413 9.32333 95.5746 9.55667 95.7519 9.846C95.9293 10.1353 96.0179 10.4573 96.0179 10.812V11.12H94.1699V10.882C94.1699 10.8353 94.1513 10.798 94.1139 10.77C94.0859 10.7327 94.0486 10.714 94.0019 10.714H89.7599C89.7133 10.714 89.6713 10.7327 89.6339 10.77C89.6059 10.798 89.5919 10.8353 89.5919 10.882V11.848C89.5919 11.8947 89.6059 11.9367 89.6339 11.974C89.6713 12.002 89.7133 12.016 89.7599 12.016H94.0719C94.4359 12.016 94.7626 12.1047 95.0519 12.282C95.3413 12.4593 95.5746 12.6927 95.7519 12.982C95.9293 13.2713 96.0179 13.5933 96.0179 13.948V15.068C96.0179 15.4227 95.9293 15.7447 95.7519 16.034C95.5746 16.3233 95.3413 16.5567 95.0519 16.734C94.7626 16.9113 94.4359 17 94.0719 17H89.6899ZM99.3436 17C98.9889 17 98.6623 16.9113 98.3636 16.734C98.0743 16.5567 97.8409 16.3233 97.6636 16.034C97.4956 15.7447 97.4116 15.4227 97.4116 15.068V12.016H103.824V10.882C103.824 10.8353 103.805 10.798 103.768 10.77C103.74 10.7327 103.702 10.714 103.656 10.714H97.4116V8.88H103.726C104.08 8.88 104.402 8.96867 104.692 9.146C104.99 9.32333 105.224 9.55667 105.392 9.846C105.569 10.1353 105.658 10.4573 105.658 10.812V17H99.3436ZM99.4136 15.166H103.824V13.668H99.2456V14.998C99.2456 15.0447 99.2596 15.0867 99.2876 15.124C99.3249 15.152 99.3669 15.166 99.4136 15.166ZM109.078 17C108.724 17 108.397 16.9113 108.098 16.734C107.809 16.5567 107.576 16.3233 107.398 16.034C107.23 15.7447 107.146 15.4227 107.146 15.068V8.88H108.98V14.998C108.98 15.0447 108.994 15.0867 109.022 15.124C109.06 15.152 109.102 15.166 109.148 15.166H113.39C113.437 15.166 113.474 15.152 113.502 15.124C113.54 15.0867 113.558 15.0447 113.558 14.998V8.88H115.392V15.068C115.392 15.4227 115.304 15.7447 115.126 16.034C114.958 16.3233 114.73 16.5567 114.44 16.734C114.151 16.9113 113.824 17 113.46 17H109.078ZM118.434 17C118.07 17 117.743 16.9113 117.454 16.734C117.164 16.5567 116.931 16.3233 116.754 16.034C116.586 15.7447 116.502 15.4227 116.502 15.068V10.812C116.502 10.4573 116.586 10.1353 116.754 9.846C116.931 9.55667 117.164 9.32333 117.454 9.146C117.743 8.96867 118.07 8.88 118.434 8.88H122.928V6.22H124.762V17H118.434ZM118.518 15.166H122.76C122.806 15.166 122.844 15.152 122.872 15.124C122.909 15.0867 122.928 15.0447 122.928 14.998V10.882C122.928 10.8353 122.909 10.798 122.872 10.77C122.844 10.7327 122.806 10.714 122.76 10.714H118.518C118.471 10.714 118.429 10.7327 118.392 10.77C118.364 10.798 118.35 10.8353 118.35 10.882V14.998C118.35 15.0447 118.364 15.0867 118.392 15.124C118.429 15.152 118.471 15.166 118.518 15.166ZM126.246 17V8.88H128.08V17H126.246ZM126.246 8.068V6.22H128.08V8.068H126.246ZM131.267 17C130.912 17 130.59 16.9113 130.301 16.734C130.012 16.5567 129.778 16.3233 129.601 16.034C129.424 15.7447 129.335 15.4227 129.335 15.068V10.812C129.335 10.4573 129.424 10.1353 129.601 9.846C129.778 9.55667 130.012 9.32333 130.301 9.146C130.59 8.96867 130.912 8.88 131.267 8.88H135.649C136.004 8.88 136.326 8.96867 136.615 9.146C136.914 9.32333 137.147 9.55667 137.315 9.846C137.492 10.1353 137.581 10.4573 137.581 10.812V15.068C137.581 15.4227 137.492 15.7447 137.315 16.034C137.147 16.3233 136.918 16.5567 136.629 16.734C136.34 16.9113 136.013 17 135.649 17H131.267ZM131.337 15.166H135.579C135.626 15.166 135.663 15.152 135.691 15.124C135.728 15.0867 135.747 15.0447 135.747 14.998V10.882C135.747 10.8353 135.728 10.798 135.691 10.77C135.663 10.7327 135.626 10.714 135.579 10.714H131.337C131.29 10.714 131.248 10.7327 131.211 10.77C131.183 10.798 131.169 10.8353 131.169 10.882V14.998C131.169 15.0447 131.183 15.0867 131.211 15.124C131.248 15.152 131.29 15.166 131.337 15.166Z" fill="black"/>
<path d="M50.6333 3V5.16667H52.3667V3H50.6333Z" fill="black"/>
<path d="M52.3667 16V13.8333H50.6333V16H52.3667Z" fill="black"/>
<path d="M55.3257 4.3L54.1 5.52565L55.3257 6.7513L56.5513 5.52565L55.3257 4.3Z" fill="black"/>
<path d="M47.6743 14.7L48.9 13.4743L47.6743 12.2487L46.4487 13.4743L47.6743 14.7Z" fill="black"/>
<path d="M56.5513 13.3257L55.3257 12.1L54.1 13.3257L55.3257 14.5513L56.5513 13.3257Z" fill="black"/>
<path d="M46.3 5.52565L47.5257 6.7513L48.7513 5.52565L47.5257 4.3L46.3 5.52565Z" fill="black"/>
<path d="M58 8.63333H55.8333V10.3667H58V8.63333Z" fill="black"/>
<path d="M45 10.3667H46.7333L46.7333 8.63333L45 8.63333L45 10.3667Z" fill="black"/>
<path d="M56.2 9.5C56.2 12.0957 54.0957 14.2 51.5 14.2C48.9043 14.2 46.8 12.0957 46.8 9.5C46.8 6.90426 48.9043 4.8 51.5 4.8C54.0957 4.8 56.2 6.90426 56.2 9.5ZM51.5 11.5C52.6046 11.5 53.5 10.6046 53.5 9.5C53.5 8.39543 52.6046 7.5 51.5 7.5C50.3954 7.5 49.5 8.39543 49.5 9.5C49.5 10.6046 50.3954 11.5 51.5 11.5Z" fill="#3CC1F5" stroke="black"/>
<path d="M49.5 16.25V11.75H51.75V16.25H49.5Z" fill="#3CC1F5" stroke="black"/>
<path d="M57.75 8.75L51.75 11.75V16.25L57.75 19.25V8.75Z" fill="#3CC1F5" stroke="black"/>
<path d="M59.25 16.625C59.25 16.625 60 15.3125 60 14C60 12.6875 59.25 11.375 59.25 11.375" stroke="black"/>
<path d="M61 18.375C61 18.375 62.25 16.1875 62.25 14C62.25 11.8125 61 9.625 61 9.625" stroke="black"/>
<path d="M62.75 20.125C62.75 20.125 64.5 17.0625 64.5 14C64.5 10.9375 62.75 7.875 62.75 7.875" stroke="black"/>
</svg>
