<svg width="24" height="24" viewBox="0 0 24 24" fill="none" xmlns="http://www.w3.org/2000/svg">
<path d="M7.13325 2V4.37817H9.03579V2H7.13325Z" fill="black"/>
<path d="M9.03579 16.269V13.8909H7.13325V16.269H9.03579Z" fill="black"/>
<path d="M12.2836 3.4269L10.9383 4.7722L12.2836 6.1175L13.6289 4.7722L12.2836 3.4269Z" fill="black"/>
<path d="M3.88541 14.8421L5.23071 13.4968L3.88541 12.1515L2.54011 13.4968L3.88541 14.8421Z" fill="black"/>
<path d="M13.6289 13.3336L12.2836 11.9883L10.9383 13.3336L12.2836 14.6789L13.6289 13.3336Z" fill="black"/>
<path d="M2.3769 4.7722L3.7222 6.1175L5.0675 4.7722L3.7222 3.4269L2.3769 4.7722Z" fill="black"/>
<path d="M15.219 8.18325H12.8409V10.0858H15.219V8.18325Z" fill="black"/>
<path d="M0.949997 10.0858H2.85254L2.85254 8.18325L0.949997 8.18325L0.949997 10.0858Z" fill="black"/>
<path d="M13.2921 9.13452C13.2921 12.0106 10.9606 14.3421 8.08452 14.3421C5.20843 14.3421 2.8769 12.0106 2.8769 9.13452C2.8769 6.25843 5.20843 3.9269 8.08452 3.9269C10.9606 3.9269 13.2921 6.25843 13.2921 9.13452ZM8.08452 11.2809C9.26996 11.2809 10.2309 10.32 10.2309 9.13452C10.2309 7.94908 9.26996 6.98809 8.08452 6.98809C6.89908 6.98809 5.93809 7.94908 5.93809 9.13452C5.93809 10.32 6.89908 11.2809 8.08452 11.2809Z" fill="#3CC1F5" stroke="black"/>
<path d="M5.66666 16.5V11.5H8.16666V16.5H5.66666Z" fill="#3CC1F5" stroke="black"/>
<path d="M14.8333 8.16667L8.16666 11.5V16.5L14.8333 19.8333V8.16667Z" fill="#3CC1F5" stroke="black"/>
<path d="M16.5 16.9167C16.5 16.9167 17.3333 15.4583 17.3333 14C17.3333 12.5417 16.5 11.0833 16.5 11.0833" stroke="black"/>
<path d="M18.4444 18.8611C18.4444 18.8611 19.8333 16.4306 19.8333 14C19.8333 11.5694 18.4444 9.13889 18.4444 9.13889" stroke="black"/>
<path d="M20.3889 20.8056C20.3889 20.8056 22.3333 17.4027 22.3333 14C22.3333 10.5972 20.3889 7.19444 20.3889 7.19444" stroke="black"/>
</svg>
