<?xml version="1.0" encoding="UTF-8" standalone="no"?>
<svg
   width="100"
   height="100"
   viewBox="0 0 100 100"
   fill="none"
   version="1.1"
   id="svg8404"
   sodipodi:docname="logo_vertical.svg"
   inkscape:version="1.2 (dc2aeda, 2022-05-15)"
   xmlns:inkscape="http://www.inkscape.org/namespaces/inkscape"
   xmlns:sodipodi="http://sodipodi.sourceforge.net/DTD/sodipodi-0.dtd"
   xmlns="http://www.w3.org/2000/svg"
   xmlns:svg="http://www.w3.org/2000/svg">
  <defs
     id="defs8408" />
  <sodipodi:namedview
     id="namedview8406"
     pagecolor="#ffffff"
     bordercolor="#000000"
     borderopacity="0.25"
     inkscape:showpageshadow="2"
     inkscape:pageopacity="0.0"
     inkscape:pagecheckerboard="0"
     inkscape:deskcolor="#d1d1d1"
     showgrid="false"
     inkscape:zoom="5.5908544"
     inkscape:cx="52.138722"
     inkscape:cy="54.463948"
     inkscape:window-width="1440"
     inkscape:window-height="847"
     inkscape:window-x="0"
     inkscape:window-y="25"
     inkscape:window-maximized="1"
     inkscape:current-layer="svg8404" />
  <g
     id="g8535"
     transform="translate(-0.0052217)">
    <path
       d="m 20.659372,81.560343 7.491979,-8.955846 h 4.162173 V 93.271968 H 28.495722 V 78.11581 l -7.83635,9.329022 -7.865143,-9.329022 V 93.271968 H 9.0052217 V 72.604497 h 4.1334943 z"
       fill="#000000"
       id="path8392"
       style="stroke-width:1.14714" />
    <path
       d="m 48.335299,76.619491 c 1.090818,0 2.01897,0.392299 2.784341,1.176897 0.784645,0.765454 1.176969,1.693583 1.176969,2.784366 V 93.268296 H 39.350776 c -1.090817,0 -2.02849,-0.382804 -2.813135,-1.148289 -0.765486,-0.78453 -1.148173,-1.722205 -1.148173,-2.813021 v -6.257655 h 13.146811 v -2.468577 c 0,-0.133964 -0.067,-0.200946 -0.20098,-0.200946 H 35.389468 v -3.760317 z m 0.20098,12.888475 V 86.83834 h -9.386483 v 2.468646 c 0,0.133986 0.06698,0.20098 0.20098,0.20098 z"
       fill="#000000"
       id="path8394"
       style="stroke-width:1.14714" />
    <path
       d="m 58.852175,89.507966 h 12.945831 v 3.76033 H 58.852175 c -1.090817,0 -2.02849,-0.382804 -2.813134,-1.148289 -0.765488,-0.78453 -1.148174,-1.722205 -1.148174,-2.813021 v -8.726232 c 0,-1.090783 0.382686,-2.018912 1.148174,-2.784366 0.784644,-0.784598 1.722317,-1.176897 2.813134,-1.176897 h 12.88836 v 3.760317 h -12.88836 c -0.133987,0 -0.20098,0.06698 -0.20098,0.200946 v 8.726232 c 0,0.133986 0.067,0.20098 0.20098,0.20098 z"
       fill="#000000"
       id="path8396"
       style="stroke-width:1.14714" />
    <path
       d="m 86.90987,76.60428 c 1.071544,0 1.999696,0.3923 2.784341,1.176887 0.78453,0.765463 1.176853,1.693593 1.176853,2.784363 V 93.253039 H 87.110735 V 80.56553 c 0,-0.133951 -0.067,-0.200933 -0.200865,-0.200933 h -8.984639 c -0.133986,0 -0.200978,0.06698 -0.200978,0.200933 V 93.253039 H 73.963924 V 71.15037 h 3.760329 v 5.45391 z"
       fill="#000000"
       id="path8398"
       style="stroke-width:1.14714" />
  </g>
  <g
     id="g8529"
     transform="translate(0.59927965)">
    <path
       d="m 82.962514,7.2529077 c -8.040052,0.1116169 -16.453386,1.0432291 -23.619391,2.8113133 1.207888,4.874502 2.020178,9.46894 2.322532,13.161758 l 0.102713,1.227301 -25.536449,10.314159 25.467968,10.290129 -0.02263,1.148578 c -0.0862,4.115258 -1.177617,8.653628 -2.362578,13.246413 7.175179,1.773158 15.596461,2.717519 23.647824,2.82941 z"
       fill="#000000"
       id="path8400"
       style="stroke-width:3.05718" />
    <path
       d="M 53.293595,11.821388 C 38.443145,16.023194 28.268883,22.992686 15.704769,34.767439 28.261271,46.534791 38.458615,53.513394 53.298181,57.717002 L 55.159384,48.545798 27.07833,34.743287 55.142263,20.946705 Z"
       fill="#3cc1f5"
       id="path8402"
       style="stroke-width:3.05718" />
  </g>
</svg>
