<svg version="1.1" xmlns="http://www.w3.org/2000/svg" viewBox="0 0 476.2442756899386 407.63017597739235" width="952.4885513798772" height="815.2603519547847">
  <!-- svg-source:excalidraw -->
  
  <defs>
    <style class="style-fonts">
      @font-face {
        font-family: "Virgil";
        src: url("https://excalidraw.com/Virgil.woff2");
      }
      @font-face {
        font-family: "Cascadia";
        src: url("https://excalidraw.com/Cascadia.woff2");
      }
    </style>
    
  </defs>
  <g stroke-linecap="round"><g transform="translate(153.66084727446196 150.6881519321505) rotate(14.999999999999982 -77.10407158452335 79.75452404524185)" fill-rule="evenodd"><path d="M0 0 L-154.21 49.15 L-45.3 159.51 L0 0" stroke="none" stroke-width="0" fill="black" fill-rule="evenodd"></path><path d="M0 0 C-54.95 17.51, -109.9 35.03, -154.21 49.15 M0 0 C-50.44 16.08, -100.88 32.16, -154.21 49.15 M-154.21 49.15 C-120.74 83.07, -87.27 116.99, -45.3 159.51 M-154.21 49.15 C-113.14 90.76, -72.08 132.37, -45.3 159.51 M-45.3 159.51 C-34.88 122.83, -24.46 86.14, 0 0 M-45.3 159.51 C-35.34 124.45, -25.39 89.39, 0 0 M0 0 C0 0, 0 0, 0 0 M0 0 C0 0, 0 0, 0 0" stroke="#000000" stroke-width="4" fill="none"></path></g></g><mask></mask><g stroke-linecap="round"><g transform="translate(462.8067756899386 194.19267597739235) rotate(270 -100 103.4375)" fill-rule="evenodd"><path d="M0 0 L-200 63.75 L-58.75 206.88 L0 0" stroke="none" stroke-width="0" fill="black" fill-rule="evenodd"></path><path d="M0 0 C-48.05 15.32, -96.1 30.63, -200 63.75 M0 0 C-57.95 18.47, -115.91 36.94, -200 63.75 M-200 63.75 C-157.58 106.74, -115.15 149.72, -58.75 206.88 M-200 63.75 C-159.56 104.72, -119.13 145.7, -58.75 206.88 M-58.75 206.88 C-45.37 159.77, -32 112.66, 0 0 M-58.75 206.88 C-45.59 160.55, -32.44 114.23, 0 0 M0 0 C0 0, 0 0, 0 0 M0 0 C0 0, 0 0, 0 0" stroke="#000000" stroke-width="4" fill="none"></path></g></g><mask></mask><g stroke-linecap="round"><g transform="translate(250.47214768475305 -20.29376921767107) rotate(134.99999999999994 -50.94446705518294 52.69568311020521)" fill-rule="evenodd"><path d="M0 0 L-101.89 32.48 L-29.93 105.39 L0 0" stroke="none" stroke-width="0" fill="black" fill-rule="evenodd"></path><path d="M0 0 C-39.3 12.53, -78.6 25.05, -101.89 32.48 M0 0 C-40.12 12.79, -80.23 25.57, -101.89 32.48 M-101.89 32.48 C-84.96 49.63, -68.03 66.79, -29.93 105.39 M-101.89 32.48 C-73.2 61.54, -44.52 90.61, -29.93 105.39 M-29.93 105.39 C-19.59 68.98, -9.25 32.56, 0 0 M-29.93 105.39 C-19.64 69.16, -9.35 32.92, 0 0 M0 0 C0 0, 0 0, 0 0 M0 0 C0 0, 0 0, 0 0" stroke="#000000" stroke-width="4" fill="none"></path></g></g><mask></mask><g stroke-linecap="round" transform="translate(104.6817756899386 70.75517597739235) rotate(0 93.75 93.75)"><path d="M187.5 93.75 C187.5 96.81, 187.35 99.89, 187.05 102.94 C186.75 105.99, 186.3 109.04, 185.7 112.04 C185.1 115.04, 184.35 118.03, 183.46 120.96 C182.57 123.9, 181.54 126.8, 180.36 129.63 C179.19 132.46, 177.87 135.24, 176.43 137.94 C174.99 140.64, 173.4 143.29, 171.7 145.83 C170 148.38, 168.16 150.86, 166.22 153.22 C164.28 155.59, 162.21 157.88, 160.04 160.04 C157.88 162.21, 155.59 164.28, 153.22 166.22 C150.86 168.16, 148.38 170, 145.83 171.7 C143.29 173.4, 140.64 174.99, 137.94 176.43 C135.24 177.87, 132.46 179.19, 129.63 180.36 C126.8 181.54, 123.9 182.57, 120.96 183.46 C118.03 184.35, 115.04 185.1, 112.04 185.7 C109.04 186.3, 105.99 186.75, 102.94 187.05 C99.89 187.35, 96.81 187.5, 93.75 187.5 C90.69 187.5, 87.61 187.35, 84.56 187.05 C81.51 186.75, 78.46 186.3, 75.46 185.7 C72.46 185.1, 69.47 184.35, 66.54 183.46 C63.6 182.57, 60.7 181.54, 57.87 180.36 C55.04 179.19, 52.26 177.87, 49.56 176.43 C46.86 174.99, 44.21 173.4, 41.67 171.7 C39.12 170, 36.64 168.16, 34.28 166.22 C31.91 164.28, 29.62 162.21, 27.46 160.04 C25.29 157.88, 23.22 155.59, 21.28 153.22 C19.34 150.86, 17.5 148.38, 15.8 145.83 C14.1 143.29, 12.51 140.64, 11.07 137.94 C9.63 135.24, 8.31 132.46, 7.14 129.63 C5.96 126.8, 4.93 123.9, 4.04 120.96 C3.15 118.03, 2.4 115.04, 1.8 112.04 C1.2 109.04, 0.75 105.99, 0.45 102.94 C0.15 99.89, 0 96.81, 0 93.75 C0 90.69, 0.15 87.61, 0.45 84.56 C0.75 81.51, 1.2 78.46, 1.8 75.46 C2.4 72.46, 3.15 69.47, 4.04 66.54 C4.93 63.6, 5.96 60.7, 7.14 57.87 C8.31 55.04, 9.63 52.26, 11.07 49.56 C12.51 46.86, 14.1 44.21, 15.8 41.67 C17.5 39.12, 19.34 36.64, 21.28 34.28 C23.22 31.91, 25.29 29.62, 27.46 27.46 C29.62 25.29, 31.91 23.22, 34.28 21.28 C36.64 19.34, 39.12 17.5, 41.67 15.8 C44.21 14.1, 46.86 12.51, 49.56 11.07 C52.26 9.63, 55.04 8.31, 57.87 7.14 C60.7 5.96, 63.6 4.93, 66.54 4.04 C69.47 3.15, 72.46 2.4, 75.46 1.8 C78.46 1.2, 81.51 0.75, 84.56 0.45 C87.61 0.15, 90.69 0, 93.75 0 C96.81 0, 99.89 0.15, 102.94 0.45 C105.99 0.75, 109.04 1.2, 112.04 1.8 C115.04 2.4, 118.03 3.15, 120.96 4.04 C123.9 4.93, 126.8 5.96, 129.63 7.14 C132.46 8.31, 135.24 9.63, 137.94 11.07 C140.64 12.51, 143.29 14.1, 145.83 15.8 C148.38 17.5, 150.86 19.34, 153.22 21.28 C155.59 23.22, 157.88 25.29, 160.04 27.46 C162.21 29.62, 164.28 31.91, 166.22 34.28 C168.16 36.64, 170 39.12, 171.7 41.67 C173.4 44.21, 174.99 46.86, 176.43 49.56 C177.87 52.26, 179.19 55.04, 180.36 57.87 C181.54 60.7, 182.57 63.6, 183.46 66.54 C184.35 69.47, 185.1 72.46, 185.7 75.46 C186.3 78.46, 186.75 81.51, 187.05 84.56 C187.35 87.61, 187.42 92.22, 187.5 93.75 C187.58 95.28, 187.58 92.22, 187.5 93.75" stroke="none" stroke-width="0" fill="#3cc1f5"></path><path d="M187.5 93.75 C187.5 96.81, 187.35 99.89, 187.05 102.94 C186.75 105.99, 186.3 109.04, 185.7 112.04 C185.1 115.04, 184.35 118.03, 183.46 120.96 C182.57 123.9, 181.54 126.8, 180.36 129.63 C179.19 132.46, 177.87 135.24, 176.43 137.94 C174.99 140.64, 173.4 143.29, 171.7 145.83 C170 148.38, 168.16 150.86, 166.22 153.22 C164.28 155.59, 162.21 157.88, 160.04 160.04 C157.88 162.21, 155.59 164.28, 153.22 166.22 C150.86 168.16, 148.38 170, 145.83 171.7 C143.29 173.4, 140.64 174.99, 137.94 176.43 C135.24 177.87, 132.46 179.19, 129.63 180.36 C126.8 181.54, 123.9 182.57, 120.96 183.46 C118.03 184.35, 115.04 185.1, 112.04 185.7 C109.04 186.3, 105.99 186.75, 102.94 187.05 C99.89 187.35, 96.81 187.5, 93.75 187.5 C90.69 187.5, 87.61 187.35, 84.56 187.05 C81.51 186.75, 78.46 186.3, 75.46 185.7 C72.46 185.1, 69.47 184.35, 66.54 183.46 C63.6 182.57, 60.7 181.54, 57.87 180.36 C55.04 179.19, 52.26 177.87, 49.56 176.43 C46.86 174.99, 44.21 173.4, 41.67 171.7 C39.12 170, 36.64 168.16, 34.28 166.22 C31.91 164.28, 29.62 162.21, 27.46 160.04 C25.29 157.88, 23.22 155.59, 21.28 153.22 C19.34 150.86, 17.5 148.38, 15.8 145.83 C14.1 143.29, 12.51 140.64, 11.07 137.94 C9.63 135.24, 8.31 132.46, 7.14 129.63 C5.96 126.8, 4.93 123.9, 4.04 120.96 C3.15 118.03, 2.4 115.04, 1.8 112.04 C1.2 109.04, 0.75 105.99, 0.45 102.94 C0.15 99.89, 0 96.81, 0 93.75 C0 90.69, 0.15 87.61, 0.45 84.56 C0.75 81.51, 1.2 78.46, 1.8 75.46 C2.4 72.46, 3.15 69.47, 4.04 66.54 C4.93 63.6, 5.96 60.7, 7.14 57.87 C8.31 55.04, 9.63 52.26, 11.07 49.56 C12.51 46.86, 14.1 44.21, 15.8 41.67 C17.5 39.12, 19.34 36.64, 21.28 34.28 C23.22 31.91, 25.29 29.62, 27.46 27.46 C29.62 25.29, 31.91 23.22, 34.28 21.28 C36.64 19.34, 39.12 17.5, 41.67 15.8 C44.21 14.1, 46.86 12.51, 49.56 11.07 C52.26 9.63, 55.04 8.31, 57.87 7.14 C60.7 5.96, 63.6 4.93, 66.54 4.04 C69.47 3.15, 72.46 2.4, 75.46 1.8 C78.46 1.2, 81.51 0.75, 84.56 0.45 C87.61 0.15, 90.69 0, 93.75 0 C96.81 0, 99.89 0.15, 102.94 0.45 C105.99 0.75, 109.04 1.2, 112.04 1.8 C115.04 2.4, 118.03 3.15, 120.96 4.04 C123.9 4.93, 126.8 5.96, 129.63 7.14 C132.46 8.31, 135.24 9.63, 137.94 11.07 C140.64 12.51, 143.29 14.1, 145.83 15.8 C148.38 17.5, 150.86 19.34, 153.22 21.28 C155.59 23.22, 157.88 25.29, 160.04 27.46 C162.21 29.62, 164.28 31.91, 166.22 34.28 C168.16 36.64, 170 39.12, 171.7 41.67 C173.4 44.21, 174.99 46.86, 176.43 49.56 C177.87 52.26, 179.19 55.04, 180.36 57.87 C181.54 60.7, 182.57 63.6, 183.46 66.54 C184.35 69.47, 185.1 72.46, 185.7 75.46 C186.3 78.46, 186.75 81.51, 187.05 84.56 C187.35 87.61, 187.42 92.22, 187.5 93.75 C187.58 95.28, 187.58 92.22, 187.5 93.75" stroke="#3cc1f5" stroke-width="4" fill="none"></path></g></svg>