<svg version="1.1" xmlns="http://www.w3.org/2000/svg" viewBox="0 0 313.18749999999636 308.96874999999727" width="939.5624999999891" height="926.9062499999918">
  <!-- svg-source:excalidraw -->
  
  <defs>
    <style>
      @font-face {
        font-family: "Virgil";
        src: url("https://excalidraw.com/Virgil.woff2");
      }
      @font-face {
        font-family: "Cascadia";
        src: url("https://excalidraw.com/Cascadia.woff2");
      }
    </style>
  </defs>
  <g stroke-linecap="round" transform="translate(88.125 85.8125) rotate(0 70 70)"><path d="M0 0 L140 0 L140 140 L0 140" stroke="none" stroke-width="0" fill="#000"></path><path d="M0 0 C28.39 0, 56.78 0, 140 0 M0 0 C48.99 0, 97.98 0, 140 0 M140 0 C140 34.1, 140 68.2, 140 140 M140 0 C140 32.71, 140 65.42, 140 140 M140 140 C110.44 140, 80.89 140, 0 140 M140 140 C91.89 140, 43.79 140, 0 140 M0 140 C0 102.77, 0 65.53, 0 0 M0 140 C0 96.16, 0 52.33, 0 0" stroke="#000000" stroke-width="4" fill="none"></path></g><g stroke-linecap="round" transform="translate(12.125 98.8125) rotate(0 30.5 4.5)"><path d="M0 0 L61 0 L61 9 L0 9" stroke="none" stroke-width="0" fill="#000"></path><path d="M0 0 C16.08 0, 32.17 0, 61 0 M0 0 C23.19 0, 46.38 0, 61 0 M61 0 C61 3.17, 61 6.34, 61 9 M61 0 C61 1.96, 61 3.92, 61 9 M61 9 C42.33 9, 23.66 9, 0 9 M61 9 C41.27 9, 21.55 9, 0 9 M0 9 C0 6.22, 0 3.45, 0 0 M0 9 C0 6.15, 0 3.29, 0 0" stroke="#000000" stroke-width="4" fill="none"></path></g><g stroke-linecap="round" transform="translate(56.62500000000091 100.3125) rotate(89.99999999999994 13.49999999999909 3.5)"><path d="M0 0 L27 0 L27 7 L0 7" stroke="none" stroke-width="0" fill="#000"></path><path d="M0 0 C8.29 0, 16.57 0, 27 0 M0 0 C8.1 0, 16.2 0, 27 0 M27 0 C27 1.69, 27 3.39, 27 7 M27 0 C27 2.05, 27 4.11, 27 7 M27 7 C20.1 7, 13.21 7, 0 7 M27 7 C17.03 7, 7.06 7, 0 7 M0 7 C0 5.23, 0 3.47, 0 0 M0 7 C0 5.18, 0 3.36, 0 0" stroke="#000000" stroke-width="4" fill="none"></path></g><g stroke-linecap="round" transform="translate(11.375 132.8125) rotate(0 30.5 4.5)"><path d="M0 0 L61 0 L61 9 L0 9" stroke="none" stroke-width="0" fill="#000"></path><path d="M0 0 C18.87 0, 37.74 0, 61 0 M0 0 C18.92 0, 37.83 0, 61 0 M61 0 C61 2.06, 61 4.13, 61 9 M61 0 C61 2, 61 4.01, 61 9 M61 9 C41.56 9, 22.13 9, 0 9 M61 9 C44.24 9, 27.47 9, 0 9 M0 9 C0 6.43, 0 3.86, 0 0 M0 9 C0 6.12, 0 3.25, 0 0" stroke="#000000" stroke-width="4" fill="none"></path></g><g stroke-linecap="round" transform="translate(55.87500000000182 134.3125) rotate(89.99999999999994 13.49999999999909 3.5)"><path d="M0 0 L27 0 L27 7 L0 7" stroke="none" stroke-width="0" fill="#000"></path><path d="M0 0 C7.95 0, 15.9 0, 27 0 M0 0 C8.06 0, 16.11 0, 27 0 M27 0 C27 1.5, 27 3, 27 7 M27 0 C27 1.95, 27 3.89, 27 7 M27 7 C20.27 7, 13.53 7, 0 7 M27 7 C19.14 7, 11.27 7, 0 7 M0 7 C0 5.25, 0 3.5, 0 0 M0 7 C0 5.19, 0 3.38, 0 0" stroke="#000000" stroke-width="4" fill="none"></path></g><g stroke-linecap="round" transform="translate(10.75 165.8125) rotate(0 30.5 4.5)"><path d="M0 0 L61 0 L61 9 L0 9" stroke="none" stroke-width="0" fill="#000"></path><path d="M0 0 C15.84 0, 31.68 0, 61 0 M0 0 C15.32 0, 30.63 0, 61 0 M61 0 C61 2.93, 61 5.86, 61 9 M61 0 C61 2.49, 61 4.98, 61 9 M61 9 C40.18 9, 19.36 9, 0 9 M61 9 C39.82 9, 18.64 9, 0 9 M0 9 C0 6.39, 0 3.79, 0 0 M0 9 C0 6.07, 0 3.14, 0 0" stroke="#000000" stroke-width="4" fill="none"></path></g><g stroke-linecap="round" transform="translate(55.25000000000182 167.3125) rotate(89.99999999999994 13.49999999999909 3.5)"><path d="M0 0 L27 0 L27 7 L0 7" stroke="none" stroke-width="0" fill="#000"></path><path d="M0 0 C10.54 0, 21.08 0, 27 0 M0 0 C6.31 0, 12.63 0, 27 0 M27 0 C27 2.56, 27 5.12, 27 7 M27 0 C27 1.94, 27 3.89, 27 7 M27 7 C18.73 7, 10.46 7, 0 7 M27 7 C19.43 7, 11.87 7, 0 7 M0 7 C0 4.26, 0 1.51, 0 0 M0 7 C0 4.91, 0 2.83, 0 0" stroke="#000000" stroke-width="4" fill="none"></path></g><g stroke-linecap="round" transform="translate(10 199.8125) rotate(0 30.5 4.5)"><path d="M0 0 L61 0 L61 9 L0 9" stroke="none" stroke-width="0" fill="#000"></path><path d="M0 0 C20.67 0, 41.33 0, 61 0 M0 0 C14.69 0, 29.39 0, 61 0 M61 0 C61 2.67, 61 5.35, 61 9 M61 0 C61 2.49, 61 4.97, 61 9 M61 9 C37.63 9, 14.27 9, 0 9 M61 9 C40.65 9, 20.3 9, 0 9 M0 9 C0 7.08, 0 5.16, 0 0 M0 9 C0 6.39, 0 3.78, 0 0" stroke="#000000" stroke-width="4" fill="none"></path></g><g stroke-linecap="round" transform="translate(54.50000000000182 201.3125) rotate(89.99999999999994 13.49999999999909 3.5)"><path d="M0 0 L27 0 L27 7 L0 7" stroke="none" stroke-width="0" fill="#000"></path><path d="M0 0 C10.79 0, 21.58 0, 27 0 M0 0 C7.64 0, 15.28 0, 27 0 M27 0 C27 1.76, 27 3.53, 27 7 M27 0 C27 2.46, 27 4.92, 27 7 M27 7 C17.98 7, 8.97 7, 0 7 M27 7 C18.77 7, 10.54 7, 0 7 M0 7 C0 4.82, 0 2.65, 0 0 M0 7 C0 5.31, 0 3.62, 0 0" stroke="#000000" stroke-width="4" fill="none"></path></g><g stroke-linecap="round" transform="translate(176.6250000000009 38.124999999999545) rotate(89.99999999999994 30.5 4.5)"><path d="M0 0 L61 0 L61 9 L0 9" stroke="none" stroke-width="0" fill="#000"></path><path d="M0 0 C15 0, 30.01 0, 61 0 M0 0 C21.22 0, 42.44 0, 61 0 M61 0 C61 2.84, 61 5.68, 61 9 M61 0 C61 1.95, 61 3.91, 61 9 M61 9 C47.28 9, 33.57 9, 0 9 M61 9 C45.13 9, 29.25 9, 0 9 M0 9 C0 5.72, 0 2.44, 0 0 M0 9 C0 6.36, 0 3.72, 0 0" stroke="#000000" stroke-width="4" fill="none"></path></g><g stroke-linecap="round" transform="translate(193.1250000000009 66.62499999999955) rotate(179.9999999999999 13.49999999999909 3.5)"><path d="M0 0 L27 0 L27 7 L0 7" stroke="none" stroke-width="0" fill="#000"></path><path d="M0 0 C10.55 0, 21.1 0, 27 0 M0 0 C5.97 0, 11.94 0, 27 0 M27 0 C27 1.98, 27 3.97, 27 7 M27 0 C27 2.5, 27 5, 27 7 M27 7 C17.63 7, 8.27 7, 0 7 M27 7 C21.51 7, 16.03 7, 0 7 M0 7 C0 4.24, 0 1.47, 0 0 M0 7 C0 4.4, 0 1.8, 0 0" stroke="#000000" stroke-width="4" fill="none"></path></g><g stroke-linecap="round" transform="translate(142.6250000000009 37.37499999999909) rotate(89.99999999999994 30.5 4.5)"><path d="M0 0 L61 0 L61 9 L0 9" stroke="none" stroke-width="0" fill="#000"></path><path d="M0 0 C17.07 0, 34.13 0, 61 0 M0 0 C16.76 0, 33.53 0, 61 0 M61 0 C61 2.69, 61 5.39, 61 9 M61 0 C61 2.62, 61 5.25, 61 9 M61 9 C48.65 9, 36.3 9, 0 9 M61 9 C40.5 9, 20 9, 0 9 M0 9 C0 5.83, 0 2.66, 0 0 M0 9 C0 5.6, 0 2.2, 0 0" stroke="#000000" stroke-width="4" fill="none"></path></g><g stroke-linecap="round" transform="translate(159.12500000000182 65.87499999999909) rotate(179.9999999999999 13.49999999999909 3.5)"><path d="M0 0 L27 0 L27 7 L0 7" stroke="none" stroke-width="0" fill="#000"></path><path d="M0 0 C9.18 0, 18.36 0, 27 0 M0 0 C8 0, 15.99 0, 27 0 M27 0 C27 2.51, 27 5.02, 27 7 M27 0 C27 2.79, 27 5.57, 27 7 M27 7 C20.05 7, 13.1 7, 0 7 M27 7 C16.32 7, 5.65 7, 0 7 M0 7 C0 5.03, 0 3.07, 0 0 M0 7 C0 4.43, 0 1.87, 0 0" stroke="#000000" stroke-width="4" fill="none"></path></g><g stroke-linecap="round" transform="translate(109.62500000000091 36.74999999999909) rotate(89.99999999999994 30.5 4.5)"><path d="M0 0 L61 0 L61 9 L0 9" stroke="none" stroke-width="0" fill="#000"></path><path d="M0 0 C22.38 0, 44.76 0, 61 0 M0 0 C17.13 0, 34.26 0, 61 0 M61 0 C61 3.07, 61 6.15, 61 9 M61 0 C61 3.39, 61 6.77, 61 9 M61 9 C38.13 9, 15.26 9, 0 9 M61 9 C48.7 9, 36.39 9, 0 9 M0 9 C0 6.58, 0 4.17, 0 0 M0 9 C0 5.72, 0 2.44, 0 0" stroke="#000000" stroke-width="4" fill="none"></path></g><g stroke-linecap="round" transform="translate(126.12500000000273 65.24999999999864) rotate(179.9999999999999 13.49999999999909 3.5)"><path d="M0 0 L27 0 L27 7 L0 7" stroke="none" stroke-width="0" fill="#000"></path><path d="M0 0 C5.88 0, 11.76 0, 27 0 M0 0 C10.51 0, 21.01 0, 27 0 M27 0 C27 1.73, 27 3.46, 27 7 M27 0 C27 2.18, 27 4.35, 27 7 M27 7 C17.61 7, 8.23 7, 0 7 M27 7 C18.21 7, 9.42 7, 0 7 M0 7 C0 4.33, 0 1.66, 0 0 M0 7 C0 5.29, 0 3.59, 0 0" stroke="#000000" stroke-width="4" fill="none"></path></g><g stroke-linecap="round" transform="translate(75.62500000000182 36) rotate(89.99999999999994 30.5 4.5)"><path d="M0 0 L61 0 L61 9 L0 9" stroke="none" stroke-width="0" fill="#000"></path><path d="M0 0 C17.94 0, 35.88 0, 61 0 M0 0 C19.48 0, 38.96 0, 61 0 M61 0 C61 2.34, 61 4.69, 61 9 M61 0 C61 2.99, 61 5.98, 61 9 M61 9 C37.28 9, 13.56 9, 0 9 M61 9 C44 9, 26.99 9, 0 9 M0 9 C0 6.43, 0 3.87, 0 0 M0 9 C0 5.5, 0 2.01, 0 0" stroke="#000000" stroke-width="4" fill="none"></path></g><g stroke-linecap="round" transform="translate(92.12500000000182 64.50000000000045) rotate(179.9999999999999 13.49999999999909 3.5)"><path d="M0 0 L27 0 L27 7 L0 7" stroke="none" stroke-width="0" fill="#000"></path><path d="M0 0 C10.78 0, 21.55 0, 27 0 M0 0 C8.31 0, 16.61 0, 27 0 M27 0 C27 2.33, 27 4.67, 27 7 M27 0 C27 2.65, 27 5.3, 27 7 M27 7 C17.09 7, 7.18 7, 0 7 M27 7 C17.59 7, 8.17 7, 0 7 M0 7 C0 5.17, 0 3.34, 0 0 M0 7 C0 4.71, 0 2.41, 0 0" stroke="#000000" stroke-width="4" fill="none"></path></g><g stroke-linecap="round" transform="translate(240.06250000000182 201.15624999999818) rotate(180 30.5 4.5)"><path d="M0 0 L61 0 L61 9 L0 9" stroke="none" stroke-width="0" fill="#000"></path><path d="M0 0 C21.58 0, 43.16 0, 61 0 M0 0 C22.36 0, 44.72 0, 61 0 M61 0 C61 3.35, 61 6.71, 61 9 M61 0 C61 2.92, 61 5.83, 61 9 M61 9 C37.46 9, 13.92 9, 0 9 M61 9 C42.13 9, 23.26 9, 0 9 M0 9 C0 5.81, 0 2.61, 0 0 M0 9 C0 5.84, 0 2.67, 0 0" stroke="#000000" stroke-width="4" fill="none"></path></g><g stroke-linecap="round" transform="translate(229.56250000000364 201.65624999999864) rotate(269.9999999999999 13.49999999999909 3.5)"><path d="M0 0 L27 0 L27 7 L0 7" stroke="none" stroke-width="0" fill="#000"></path><path d="M0 0 C7.81 0, 15.63 0, 27 0 M0 0 C6.68 0, 13.36 0, 27 0 M27 0 C27 1.48, 27 2.97, 27 7 M27 0 C27 2.63, 27 5.26, 27 7 M27 7 C19.73 7, 12.47 7, 0 7 M27 7 C18.78 7, 10.55 7, 0 7 M0 7 C0 5.45, 0 3.89, 0 0 M0 7 C0 4.98, 0 2.95, 0 0" stroke="#000000" stroke-width="4" fill="none"></path></g><g stroke-linecap="round" transform="translate(240.8125000000009 167.15625000000273) rotate(180 30.5 4.5)"><path d="M0 0 L61 0 L61 9 L0 9" stroke="none" stroke-width="0" fill="#000"></path><path d="M0 0 C13.89 0, 27.79 0, 61 0 M0 0 C24.07 0, 48.14 0, 61 0 M61 0 C61 2.75, 61 5.5, 61 9 M61 0 C61 2.2, 61 4.41, 61 9 M61 9 C45.34 9, 29.68 9, 0 9 M61 9 C46.65 9, 32.31 9, 0 9 M0 9 C0 6.03, 0 3.06, 0 0 M0 9 C0 6.26, 0 3.51, 0 0" stroke="#000000" stroke-width="4" fill="none"></path></g><g stroke-linecap="round" transform="translate(230.3125000000009 167.6562499999991) rotate(269.9999999999999 13.49999999999909 3.5)"><path d="M0 0 L27 0 L27 7 L0 7" stroke="none" stroke-width="0" fill="#000"></path><path d="M0 0 C10.43 0, 20.86 0, 27 0 M0 0 C9.39 0, 18.78 0, 27 0 M27 0 C27 1.85, 27 3.71, 27 7 M27 0 C27 2.71, 27 5.41, 27 7 M27 7 C18.26 7, 9.52 7, 0 7 M27 7 C18.62 7, 10.24 7, 0 7 M0 7 C0 5.55, 0 4.11, 0 0 M0 7 C0 5.12, 0 3.24, 0 0" stroke="#000000" stroke-width="4" fill="none"></path></g><g stroke-linecap="round" transform="translate(241.43749999999818 134.15624999999773) rotate(180 30.5 4.5)"><path d="M0 0 L61 0 L61 9 L0 9" stroke="none" stroke-width="0" fill="#000"></path><path d="M0 0 C19.46 0, 38.91 0, 61 0 M0 0 C14.86 0, 29.71 0, 61 0 M61 0 C61 2.02, 61 4.04, 61 9 M61 0 C61 2.22, 61 4.44, 61 9 M61 9 C40.68 9, 20.37 9, 0 9 M61 9 C45.99 9, 30.98 9, 0 9 M0 9 C0 5.7, 0 2.4, 0 0 M0 9 C0 5.79, 0 2.58, 0 0" stroke="#000000" stroke-width="4" fill="none"></path></g><g stroke-linecap="round" transform="translate(230.93750000000182 134.65624999999773) rotate(269.9999999999999 13.49999999999909 3.5)"><path d="M0 0 L27 0 L27 7 L0 7" stroke="none" stroke-width="0" fill="#000"></path><path d="M0 0 C10.08 0, 20.16 0, 27 0 M0 0 C5.83 0, 11.65 0, 27 0 M27 0 C27 1.97, 27 3.95, 27 7 M27 0 C27 2.28, 27 4.56, 27 7 M27 7 C19.53 7, 12.06 7, 0 7 M27 7 C19.58 7, 12.17 7, 0 7 M0 7 C0 5.26, 0 3.52, 0 0 M0 7 C0 4.96, 0 2.92, 0 0" stroke="#000000" stroke-width="4" fill="none"></path></g><g stroke-linecap="round" transform="translate(242.18749999999636 100.15624999999773) rotate(180 30.5 4.5)"><path d="M0 0 L61 0 L61 9 L0 9" stroke="none" stroke-width="0" fill="#000"></path><path d="M0 0 C23.17 0, 46.34 0, 61 0 M0 0 C13.13 0, 26.26 0, 61 0 M61 0 C61 3.58, 61 7.17, 61 9 M61 0 C61 2.71, 61 5.41, 61 9 M61 9 C39.39 9, 17.78 9, 0 9 M61 9 C37.89 9, 14.78 9, 0 9 M0 9 C0 6.06, 0 3.12, 0 0 M0 9 C0 6.24, 0 3.48, 0 0" stroke="#000000" stroke-width="4" fill="none"></path></g><g stroke-linecap="round" transform="translate(231.6874999999991 100.65625000000091) rotate(269.9999999999999 13.49999999999909 3.5)"><path d="M0 0 L27 0 L27 7 L0 7" stroke="none" stroke-width="0" fill="#000"></path><path d="M0 0 C6.27 0, 12.54 0, 27 0 M0 0 C8.23 0, 16.46 0, 27 0 M27 0 C27 1.83, 27 3.66, 27 7 M27 0 C27 1.53, 27 3.06, 27 7 M27 7 C20.57 7, 14.14 7, 0 7 M27 7 C17.54 7, 8.07 7, 0 7 M0 7 C0 4.43, 0 1.85, 0 0 M0 7 C0 4.97, 0 2.93, 0 0" stroke="#000000" stroke-width="4" fill="none"></path></g><g stroke-linecap="round" transform="translate(75.56250000000364 261.84375000000273) rotate(269.9999999999999 30.5 4.5)"><path d="M0 0 L61 0 L61 9 L0 9" stroke="none" stroke-width="0" fill="#000"></path><path d="M0 0 C12.27 0, 24.54 0, 61 0 M0 0 C20.21 0, 40.42 0, 61 0 M61 0 C61 3.54, 61 7.09, 61 9 M61 0 C61 2.59, 61 5.18, 61 9 M61 9 C41.68 9, 22.35 9, 0 9 M61 9 C44.45 9, 27.9 9, 0 9 M0 9 C0 5.49, 0 1.99, 0 0 M0 9 C0 5.88, 0 2.77, 0 0" stroke="#000000" stroke-width="4" fill="none"></path></g><g stroke-linecap="round" transform="translate(93.06250000000182 235.343750000005) rotate(359.9999999999999 13.49999999999909 3.5)"><path d="M0 0 L27 0 L27 7 L0 7" stroke="none" stroke-width="0" fill="#000"></path><path d="M0 0 C8.24 0, 16.48 0, 27 0 M0 0 C7.43 0, 14.86 0, 27 0 M27 0 C27 1.76, 27 3.52, 27 7 M27 0 C27 2.52, 27 5.04, 27 7 M27 7 C17.27 7, 7.53 7, 0 7 M27 7 C18.46 7, 9.91 7, 0 7 M0 7 C0 4.78, 0 2.57, 0 0 M0 7 C0 5.02, 0 3.04, 0 0" stroke="#000000" stroke-width="4" fill="none"></path></g><g stroke-linecap="round" transform="translate(109.56250000000273 262.5937500000032) rotate(269.9999999999999 30.5 4.5)"><path d="M0 0 L61 0 L61 9 L0 9" stroke="none" stroke-width="0" fill="#000"></path><path d="M0 0 C23.78 0, 47.56 0, 61 0 M0 0 C18.59 0, 37.18 0, 61 0 M61 0 C61 3.19, 61 6.38, 61 9 M61 0 C61 2.44, 61 4.89, 61 9 M61 9 C45.63 9, 30.26 9, 0 9 M61 9 C40.63 9, 20.27 9, 0 9 M0 9 C0 6.04, 0 3.09, 0 0 M0 9 C0 6.03, 0 3.07, 0 0" stroke="#000000" stroke-width="4" fill="none"></path></g><g stroke-linecap="round" transform="translate(127.06250000000273 236.09375000000546) rotate(359.9999999999999 13.49999999999909 3.5)"><path d="M0 0 L27 0 L27 7 L0 7" stroke="none" stroke-width="0" fill="#000"></path><path d="M0 0 C9.9 0, 19.79 0, 27 0 M0 0 C10.06 0, 20.13 0, 27 0 M27 0 C27 2.27, 27 4.54, 27 7 M27 0 C27 2.7, 27 5.4, 27 7 M27 7 C18.65 7, 10.3 7, 0 7 M27 7 C17.42 7, 7.84 7, 0 7 M0 7 C0 4.54, 0 2.08, 0 0 M0 7 C0 5.25, 0 3.51, 0 0" stroke="#000000" stroke-width="4" fill="none"></path></g><g stroke-linecap="round" transform="translate(142.56250000000273 263.21875000000364) rotate(269.9999999999999 30.5 4.5)"><path d="M0 0 L61 0 L61 9 L0 9" stroke="none" stroke-width="0" fill="#000"></path><path d="M0 0 C15.09 0, 30.18 0, 61 0 M0 0 C12.93 0, 25.87 0, 61 0 M61 0 C61 3.38, 61 6.76, 61 9 M61 0 C61 2.42, 61 4.84, 61 9 M61 9 C42.42 9, 23.85 9, 0 9 M61 9 C47.47 9, 33.94 9, 0 9 M0 9 C0 6.4, 0 3.79, 0 0 M0 9 C0 5.88, 0 2.76, 0 0" stroke="#000000" stroke-width="4" fill="none"></path></g><g stroke-linecap="round" transform="translate(160.06250000000182 236.71875000000182) rotate(359.9999999999999 13.49999999999909 3.5)"><path d="M0 0 L27 0 L27 7 L0 7" stroke="none" stroke-width="0" fill="#000"></path><path d="M0 0 C10.65 0, 21.31 0, 27 0 M0 0 C8.26 0, 16.51 0, 27 0 M27 0 C27 1.71, 27 3.43, 27 7 M27 0 C27 1.8, 27 3.59, 27 7 M27 7 C20.65 7, 14.3 7, 0 7 M27 7 C18.09 7, 9.18 7, 0 7 M0 7 C0 4.87, 0 2.73, 0 0 M0 7 C0 4.82, 0 2.63, 0 0" stroke="#000000" stroke-width="4" fill="none"></path></g><g stroke-linecap="round" transform="translate(176.56250000000273 263.96874999999727) rotate(269.9999999999999 30.5 4.5)"><path d="M0 0 L61 0 L61 9 L0 9" stroke="none" stroke-width="0" fill="#000"></path><path d="M0 0 C21.22 0, 42.43 0, 61 0 M0 0 C16.16 0, 32.31 0, 61 0 M61 0 C61 3.48, 61 6.96, 61 9 M61 0 C61 2.91, 61 5.83, 61 9 M61 9 C42.07 9, 23.14 9, 0 9 M61 9 C48.39 9, 35.79 9, 0 9 M0 9 C0 6.58, 0 4.17, 0 0 M0 9 C0 5.45, 0 1.91, 0 0" stroke="#000000" stroke-width="4" fill="none"></path></g><g stroke-linecap="round" transform="translate(194.06250000000273 237.46874999999818) rotate(359.9999999999999 13.49999999999909 3.5)"><path d="M0 0 L27 0 L27 7 L0 7" stroke="none" stroke-width="0" fill="#000"></path><path d="M0 0 C6.58 0, 13.15 0, 27 0 M0 0 C6.06 0, 12.12 0, 27 0 M27 0 C27 1.73, 27 3.46, 27 7 M27 0 C27 2.33, 27 4.66, 27 7 M27 7 C20.36 7, 13.71 7, 0 7 M27 7 C17.1 7, 7.21 7, 0 7 M0 7 C0 4.5, 0 2, 0 0 M0 7 C0 5.52, 0 4.04, 0 0" stroke="#000000" stroke-width="4" fill="none"></path></g></svg>